<?xml version="1.0" encoding="utf-8"?>
<!-- Generator: Adobe Illustrator 25.0.0, SVG Export Plug-In . SVG Version: 6.00 Build 0)  -->
<svg version="1.1" id="Layer_1" xmlns="http://www.w3.org/2000/svg" xmlns:xlink="http://www.w3.org/1999/xlink" x="0px" y="0px"
	 viewBox="0 0 44.04 42" style="enable-background:new 0 0 44.04 42;" xml:space="preserve">
<style type="text/css">
	.st0{fill:#FFFFFF;}
</style>
<g>
	<path class="st0" d="M31.38,11c-6.08,0-11.04,4.75-11.4,10.75h22.81C42.43,15.75,37.46,11,31.38,11z"/>
	<path class="st0" d="M19.97,23.03c0.31,6.04,5.29,10.85,11.41,10.85s11.1-4.81,11.41-10.85H19.97z"/>
	<path class="st0" d="M10.32,2.69c-4.04,0-7.34,3.3-7.34,7.33l0.01,22.18c0,2.02,0.83,3.85,2.16,5.18c1.33,1.33,3.16,2.16,5.18,2.16
		c4.03,0,7.33-3.3,7.33-7.33V10.02C17.66,5.99,14.35,2.69,10.32,2.69z M16.08,21.51H4.55V10.27c0-3.17,2.59-5.76,5.77-5.76
		c3.17,0,5.76,2.59,5.76,5.76V21.51z"/>
</g>
</svg>
