<?xml version="1.0" encoding="utf-8"?>
<!-- Generator: Adobe Illustrator 25.0.0, SVG Export Plug-In . SVG Version: 6.00 Build 0)  -->
<svg version="1.1" id="Layer_1" xmlns="http://www.w3.org/2000/svg" xmlns:xlink="http://www.w3.org/1999/xlink" x="0px" y="0px"
	 viewBox="0 0 54 51.84" style="enable-background:new 0 0 54 51.84;" xml:space="preserve">
<style type="text/css">
	.st0{fill:#FFFFFF;}
</style>
<path class="st0" d="M48.85,18.68L48.85,18.68C48.51,12.2,43.16,7.31,36.41,7.31c-0.2,0-0.4,0-0.61,0.01
	c-4.21,0.17-7.38,2.91-8.97,4.63c-1.56-1.74-4.7-4.53-8.9-4.76c-0.28-0.02-0.55-0.02-0.82-0.02c-6.63,0-11.95,4.81-12.39,11.18
	C4.32,24.36,8.41,29.59,11.53,33c4.03,4.41,10.29,9.16,14.39,11.57l0.67,0.4l0.68-0.39c4.14-2.35,10.46-7.01,14.56-11.36
	C45,29.86,49.17,24.69,48.85,18.68z M39.86,31.36c-4.08,4.34-9.89,8.46-13.25,10.47c-3.33-2.06-9.07-6.26-13.09-10.66
	c-0.78-0.85-1.62-1.83-2.43-2.9h8.53c0.14,0,0.27-0.06,0.35-0.17l0.47-0.62l0.59,2.67c0.04,0.18,0.21,0.3,0.42,0.31
	c0.21,0,0.38-0.13,0.42-0.31l0.56-2.47l0.69,3.65c0.03,0.18,0.21,0.32,0.42,0.32c0.2,0,0.38-0.13,0.42-0.31l2.11-10.22l1.75,15.13
	c0.02,0.19,0.2,0.34,0.42,0.34c0.21,0,0.39-0.14,0.42-0.32l1.51-9.01l0.61,3.85c0.03,0.18,0.19,0.32,0.4,0.33
	c0.2,0.01,0.38-0.1,0.43-0.27l1.05-3.32l0.41,1.88c0.04,0.17,0.2,0.3,0.39,0.31c0.19,0,0.36-0.09,0.43-0.25l0.55-1.38l0.48,0.68
	c0.07,0.1,0.2,0.17,0.35,0.17c0.15,0,0.26-0.05,0.35-0.14l0.73-0.83h6.17C41.64,29.42,40.71,30.46,39.86,31.36z M43.07,27.51h-6.94
	c-0.13,0-0.25,0.05-0.33,0.14l-0.49,0.55l-0.63-0.88c-0.09-0.12-0.25-0.19-0.4-0.17c-0.17,0.01-0.31,0.11-0.36,0.25l-0.32,0.81
	l-0.46-2.08c-0.04-0.17-0.21-0.3-0.4-0.31c0,0-0.01,0-0.01,0c-0.19,0-0.36,0.11-0.41,0.28l-0.99,3.12l-0.74-4.66
	c-0.03-0.19-0.21-0.33-0.42-0.33c-0.21,0-0.39,0.14-0.42,0.32l-1.44,8.61L26.6,18.4c-0.02-0.19-0.2-0.33-0.41-0.34
	c-0.22,0-0.39,0.13-0.43,0.31l-2.21,10.71l-0.67-3.55c-0.03-0.18-0.21-0.32-0.42-0.32c-0.21,0-0.38,0.13-0.42,0.31l-0.59,2.61
	l-0.37-1.69c-0.03-0.16-0.18-0.28-0.35-0.3c-0.16-0.02-0.33,0.04-0.42,0.16l-0.92,1.21h-8.85C8.7,24.9,7.21,21.8,7.43,18.54
	c0.29-4.3,3.71-8.66,9.69-8.66c0.22,0,0.44,0.01,0.67,0.02c4.67,0.26,7.89,4.91,7.92,4.96l1.1,1.64l1.13-1.62
	c0.03-0.05,3.29-4.65,7.99-4.84c6.29-0.25,9.99,4.41,10.23,8.79v0C46.31,21.98,44.87,24.98,43.07,27.51z"/>
</svg>
