<?xml version="1.0" encoding="utf-8"?>
<!-- Generator: Adobe Illustrator 25.0.0, SVG Export Plug-In . SVG Version: 6.00 Build 0)  -->
<svg version="1.1" id="Layer_1" xmlns="http://www.w3.org/2000/svg" xmlns:xlink="http://www.w3.org/1999/xlink" x="0px" y="0px"
	 viewBox="0 0 66.24 64.08" style="enable-background:new 0 0 66.24 64.08;" xml:space="preserve">
<style type="text/css">
	.st0{fill:#FFFFFF;}
</style>
<path class="st0" d="M34.1,11.42c2.88,0.07,5.62,0.65,8.26,1.8c0.58-1.24,1.14-2.44,1.7-3.64c0.13-0.28,0.25-0.56,0.39-0.84
	c0.54-1.08,1.75-1.52,2.8-1.02c1.04,0.49,1.49,1.7,1,2.78c-0.66,1.45-1.34,2.89-2.02,4.34c-0.06,0.14-0.13,0.28-0.18,0.39
	c0.95,0.83,1.92,1.61,2.8,2.49c0.88,0.88,1.65,1.87,2.5,2.84c0.07-0.05,0.19-0.13,0.32-0.21c1.35-0.95,2.7-1.9,4.06-2.84
	c0.72-0.5,1.5-0.54,2.26-0.11c0.73,0.42,1.08,1.08,1.05,1.92c-0.03,0.7-0.37,1.25-0.95,1.65c-1.57,1.1-3.14,2.2-4.76,3.33
	c1,2.37,1.58,4.86,1.71,7.48c0.85,0.08,1.67,0.15,2.49,0.23c1.02,0.09,2.04,0.17,3.06,0.27c1.13,0.11,1.99,1.15,1.87,2.24
	c-0.13,1.2-1.13,2.03-2.32,1.93c-1.7-0.15-3.4-0.31-5.1-0.46c-0.05,0-0.11,0-0.22,0c-0.39,2.43-1.16,4.74-2.35,6.92
	c1.23,0.86,2.43,1.7,3.63,2.55c0.24,0.17,0.49,0.33,0.72,0.51c0.93,0.71,1.13,1.95,0.48,2.88c-0.66,0.94-1.92,1.19-2.9,0.53
	c-1.3-0.88-2.57-1.79-3.86-2.69c-0.14-0.1-0.28-0.19-0.44-0.3c-1.72,2.03-3.74,3.7-6.09,5c0.46,1.27,0.91,2.51,1.36,3.76
	c0.11,0.32,0.24,0.63,0.34,0.95c0.37,1.13-0.17,2.27-1.25,2.67c-1.09,0.4-2.25-0.13-2.67-1.24c-0.54-1.41-1.04-2.84-1.56-4.25
	c-0.02-0.06-0.05-0.13-0.1-0.23c-2.69,0.84-5.45,1.1-8.28,0.88c-0.21,1.2-0.42,2.37-0.63,3.54c-0.08,0.43-0.14,0.86-0.23,1.28
	c-0.25,1.18-1.34,1.91-2.47,1.67c-1.14-0.24-1.85-1.31-1.64-2.5c0.26-1.47,0.53-2.95,0.79-4.42c0.02-0.11,0.02-0.22,0.03-0.36
	c-2.52-0.77-4.83-1.95-6.97-3.59c-0.25,0.27-0.47,0.53-0.72,0.78c-0.98,0.98-1.96,1.97-2.94,2.94c-0.91,0.9-2.19,0.93-3.04,0.08
	c-0.85-0.85-0.83-2.13,0.07-3.04c1.19-1.2,2.4-2.39,3.62-3.61c-1.86-2.16-3.24-4.58-4.16-7.3c-0.24,0.06-0.45,0.1-0.66,0.16
	c-1.45,0.38-2.89,0.78-4.34,1.15c-0.89,0.22-1.77-0.17-2.24-0.94c-0.47-0.77-0.44-1.75,0.19-2.42c0.29-0.31,0.71-0.57,1.11-0.69
	c1.53-0.46,3.07-0.84,4.61-1.26c0.13-0.04,0.26-0.08,0.31-0.09c0-1.28-0.05-2.51,0.02-3.74c0.07-1.21,0.26-2.41,0.41-3.66
	c-1.04-0.38-2.13-0.78-3.21-1.17c-0.6-0.22-1.21-0.43-1.81-0.67c-1.11-0.44-1.65-1.58-1.26-2.67c0.39-1.1,1.57-1.66,2.7-1.26
	c1.66,0.59,3.31,1.2,5,1.82c1.13-2.46,2.66-4.63,4.6-6.53c-1.14-1.35-2.25-2.69-3.37-4.01c-0.41-0.48-0.65-1.02-0.59-1.65
	c0.1-0.91,0.59-1.54,1.46-1.82c0.87-0.28,1.64-0.04,2.24,0.66c1.09,1.28,2.17,2.57,3.25,3.86c0.1,0.12,0.2,0.23,0.31,0.36
	c2.35-1.49,4.87-2.49,7.62-3.02c-0.04-0.56-0.08-1.1-0.12-1.64c-0.1-1.1-0.2-2.2-0.3-3.3c-0.12-1.29,0.68-2.32,1.89-2.43
	c1.24-0.11,2.2,0.77,2.3,2.08C33.8,8.13,33.96,9.75,34.1,11.42z M38.79,15.48c-3.75-1.05-7.46-0.95-11.13,0.38
	c-3.2,1.16-5.85,3.1-7.97,5.77c1.42,0.99,1.85,2.33,1.19,3.61c-0.3,0.58-0.76,1-1.37,1.24c-0.84,0.32-1.64,0.2-2.41-0.23
	c-2.87,7-0.67,15.89,5.77,20.64c0.87-1.75,2.3-2.37,3.75-1.64c0.64,0.32,1.09,0.83,1.31,1.52c0.31,0.98,0.08,1.87-0.59,2.68
	c2.48,0.93,4.99,1.33,7.58,1.16c2.6-0.17,5.04-0.85,7.36-2.1c-1.23-0.93-1.64-1.92-1.31-3.08c0.29-1.03,1.2-1.83,2.23-1.89
	c1.56-0.1,2.49,0.7,2.93,2.16c2-1.78,3.91-4.65,4.84-7.81c0.62-2.12,0.89-4.27,0.7-6.5c-1.8,0.62-3.31,0-3.78-1.54
	c-0.22-0.7-0.17-1.39,0.18-2.04c0.53-0.97,1.4-1.39,2.52-1.41c-1.43-3.66-3.73-6.52-6.94-8.67c-0.92,1.43-2.17,1.91-3.47,1.36
	C38.84,18.51,38.37,17.32,38.79,15.48z"/>
<path class="st0" d="M27.75,30.83c-1.45,0.01-2.65-1.18-2.65-2.63c0-1.44,1.17-2.61,2.61-2.63c1.45-0.01,2.65,1.18,2.65,2.63
	C30.36,29.64,29.18,30.82,27.75,30.83z"/>
<path class="st0" d="M43.34,25.41c0,1.46-1.18,2.65-2.64,2.64c-1.44-0.01-2.6-1.18-2.61-2.63c0-1.46,1.19-2.65,2.64-2.64
	C42.18,22.8,43.34,23.97,43.34,25.41z"/>
<path class="st0" d="M40.83,38.32c-1.46,0-2.63-1.2-2.62-2.66c0.01-1.44,1.2-2.6,2.64-2.6c1.44,0,2.61,1.17,2.62,2.61
	C43.48,37.13,42.29,38.32,40.83,38.32z"/>
<path class="st0" d="M32.53,22.51c-1.46,0-2.65-1.19-2.64-2.64c0.01-1.44,1.18-2.61,2.63-2.61c1.46,0,2.65,1.19,2.64,2.64
	C35.15,21.35,33.97,22.51,32.53,22.51z"/>
<path class="st0" d="M18.77,34.95c0.01-1.47,1.18-2.62,2.65-2.61c1.44,0.01,2.59,1.18,2.59,2.63c0,1.47-1.19,2.63-2.65,2.61
	C19.9,37.57,18.76,36.41,18.77,34.95z"/>
<path class="st0" d="M35.12,41c-0.03,1.45-1.22,2.6-2.66,2.57c-1.49-0.03-2.62-1.23-2.58-2.73c0.03-1.42,1.25-2.56,2.7-2.53
	C34.02,38.35,35.15,39.55,35.12,41z"/>
</svg>
