<?xml version="1.0" encoding="utf-8"?>
<!-- Generator: Adobe Illustrator 25.0.0, SVG Export Plug-In . SVG Version: 6.00 Build 0)  -->
<svg version="1.1" id="Layer_1" xmlns="http://www.w3.org/2000/svg" xmlns:xlink="http://www.w3.org/1999/xlink" x="0px" y="0px"
	 viewBox="0 0 52.84 44.12" style="enable-background:new 0 0 52.84 44.12;" xml:space="preserve">
<style type="text/css">
	.st0{fill:#FFFFFF;}
</style>
<g>
	<path class="st0" d="M12.24,29.76c-0.26,0.96-0.5,1.93-0.72,2.92c0.96-0.27,1.94-0.5,2.92-0.71c0.26-0.95,0.53-1.89,0.84-2.8
		C14.26,29.35,13.24,29.55,12.24,29.76z M37.04,17.87l-2.49-2.49c-0.88,0.16-1.75,0.33-2.6,0.52l3.96,3.96
		c-0.63,0.98-1.33,1.86-2.11,2.66l-5.62-5.62c-0.78,0.25-1.53,0.53-2.27,0.85l6.24,6.24c-0.46,0.34-0.93,0.66-1.44,0.95
		c-0.52,0.29-1.05,0.55-1.59,0.79l-6.3-6.3c-0.53,0.39-1.05,0.82-1.52,1.29c-0.05,0.05-0.1,0.11-0.14,0.16l5.72,5.72
		c-1.2,0.41-2.44,0.76-3.71,1.06l-4.09-4.09c-0.4,0.64-0.77,1.31-1.11,2.01l2.62,2.62c-1.32,0.26-2.66,0.49-4,0.72
		c-0.31,0.89-0.6,1.82-0.87,2.77c5.96-1.17,12.18-1.78,17.19-4.56c4.48-2.5,6.96-7.37,8.63-13.05c-1.05,0.21-2.09,0.41-3.14,0.6
		C37.99,15.8,37.55,16.87,37.04,17.87z M4.45,32.26l2.2,2.2c0.32-0.16,0.66-0.29,0.99-0.43l1.99,1.99c0.17-0.87,0.35-1.73,0.53-2.59
		L9.9,33.16c0.11-0.04,0.23-0.07,0.34-0.1c0.22-1.02,0.46-2.02,0.72-3C8.69,30.6,6.49,31.27,4.45,32.26z M38.84,13.42
		c1.02-0.19,2.05-0.38,3.06-0.6c0.26-0.95,0.49-1.93,0.72-2.91c-0.96,0.27-1.94,0.5-2.93,0.71C39.43,11.58,39.15,12.51,38.84,13.42z
		 M40.02,9.36c0.98-0.22,1.94-0.46,2.89-0.74c0.02-0.08,0.04-0.16,0.05-0.24l0.17,0.17c0.79-0.24,1.57-0.5,2.32-0.8l-1.97-1.97
		c0.09-0.46,0.18-0.92,0.27-1.39l-2.2-2.2C41.09,4.6,40.6,7.02,40.02,9.36z"/>
	<path class="st0" d="M18.27,17.7c-4.63,4.63-6.39,12.62-7.88,20.5c0.73,0.73,1.47,1.47,2.2,2.2c1.49-7.88,3.24-15.87,7.88-20.5
		c0.88-0.88,1.86-1.63,2.96-2.25c7.68-4.27,18.2-3.42,26.26-7.32c-0.73-0.73-1.47-1.47-2.2-2.2c-8.06,3.9-18.58,3.05-26.26,7.32
		C20.13,16.07,19.15,16.82,18.27,17.7z"/>
</g>
</svg>
