<?xml version="1.0" encoding="utf-8"?>
<!-- Generator: Adobe Illustrator 25.0.0, SVG Export Plug-In . SVG Version: 6.00 Build 0)  -->
<svg version="1.1" id="Layer_1" xmlns="http://www.w3.org/2000/svg" xmlns:xlink="http://www.w3.org/1999/xlink" x="0px" y="0px"
	 viewBox="0 0 44.64 48" style="enable-background:new 0 0 44.64 48;" xml:space="preserve">
<style type="text/css">
	.st0{fill:#FFFFFF;}
</style>
<g>
	<path class="st0" d="M41.9,6.51c0,0-1.41,1.36-5.76,1.36c-0.96,0-2.07-0.07-3.34-0.23c-7.3-0.94-10.42-4.17-10.42-4.17
		s-3.12,3.23-10.42,4.17C10.7,7.8,9.59,7.87,8.62,7.87c-4.34,0-5.76-1.36-5.76-1.36s-4.22,25.05,19.52,38.81
		C46.12,31.56,41.9,6.51,41.9,6.51z M22.38,42.67C13.81,37.35,8.3,29.86,5.98,20.4c-1.06-4.32-1.18-8.15-1.1-10.62
		c1,0.22,2.23,0.36,3.74,0.36c1.13,0,2.35-0.08,3.63-0.25c5.04-0.65,8.34-2.34,10.13-3.55c1.79,1.2,5.09,2.9,10.12,3.55
		c1.28,0.17,2.51,0.25,3.64,0.25c1.51,0,2.75-0.15,3.74-0.36C40.09,16.33,38.78,32.48,22.38,42.67z"/>
	<polygon class="st0" points="25.13,15.17 19.72,15.17 19.72,20.61 14.27,20.61 14.27,26.03 19.72,26.03 19.72,31.47 25.13,31.47 
		25.13,26.03 30.57,26.03 30.57,20.61 25.13,20.61 	"/>
</g>
</svg>
