<?xml version="1.0" encoding="utf-8"?>
<!-- Generator: Adobe Illustrator 25.0.0, SVG Export Plug-In . SVG Version: 6.00 Build 0)  -->
<svg version="1.1" id="Layer_1" xmlns="http://www.w3.org/2000/svg" xmlns:xlink="http://www.w3.org/1999/xlink" x="0px" y="0px"
	 viewBox="0 0 45 59" style="enable-background:new 0 0 45 59;" xml:space="preserve">
<style type="text/css">
	.st0{fill:#FFFFFF;}
</style>
<g>
	<path class="st0" d="M24.01,11.12c0,0-12.55,21.02-12.55,27.95c0,6.93,5.62,12.55,12.55,12.55c6.94,0,12.55-5.63,12.55-12.55
		C36.56,32.13,24.01,11.12,24.01,11.12z M24.01,48.98c-5.47,0-9.92-4.45-9.92-9.92c0-3.84,5.4-14.69,9.92-22.69
		c4.51,8.01,9.92,18.85,9.92,22.69C33.92,44.54,29.48,48.98,24.01,48.98z"/>
	<path class="st0" d="M22.7,45.05c-2.47-1.34-4.01-3.93-4.01-6.74c0-0.53-0.43-0.96-0.96-0.96c-0.53,0-0.96,0.43-0.96,0.96
		c0,3.51,1.92,6.75,5.02,8.43c0.15,0.08,0.3,0.11,0.46,0.11c0.34,0,0.66-0.19,0.84-0.5C23.34,45.89,23.17,45.3,22.7,45.05z"/>
</g>
</svg>
