<?xml version="1.0" encoding="utf-8"?>
<!-- Generator: Adobe Illustrator 25.0.0, SVG Export Plug-In . SVG Version: 6.00 Build 0)  -->
<svg version="1.1" id="Layer_1" xmlns="http://www.w3.org/2000/svg" xmlns:xlink="http://www.w3.org/1999/xlink" x="0px" y="0px"
	 viewBox="0 0 50.4 57.24" style="enable-background:new 0 0 50.4 57.24;" xml:space="preserve">
<style type="text/css">
	.st0{fill:#FFFFFF;}
</style>
<path class="st0" d="M47.28,27.75c0-2.68-2.17-4.85-4.85-4.85s-4.85,2.17-4.85,4.85c0,2.31,1.62,4.24,3.78,4.72v8.15
	c0,5.9-4.8,10.69-10.69,10.69c-5.9,0-10.69-4.8-10.69-10.69V37.3h4.71c2.61,0,4.82-1.95,5.14-4.55L32.54,11
	c0.18-1.47-0.28-2.96-1.26-4.07c-0.98-1.11-2.4-1.75-3.88-1.75h-1.95c-0.59,0-1.07,0.48-1.07,1.07c0,0.59,0.48,1.07,1.07,1.07h1.95
	c0.87,0,1.7,0.38,2.28,1.03c0.58,0.65,0.85,1.53,0.74,2.39l-2.7,21.76c-0.19,1.52-1.49,2.67-3.02,2.67H13.13
	c-1.53,0-2.83-1.15-3.02-2.67l-2.7-21.76C7.3,9.87,7.57,9,8.15,8.34c0.58-0.65,1.41-1.03,2.28-1.03h2.76c0.59,0,1.07-0.48,1.07-1.07
	c0-0.59-0.48-1.07-1.07-1.07h-2.76c-1.49,0-2.9,0.64-3.88,1.75C5.56,8.04,5.1,9.53,5.29,11l2.7,21.76c0.32,2.59,2.53,4.55,5.14,4.55
	h4.71v3.32c0,7.07,5.76,12.83,12.83,12.83c7.07,0,12.83-5.76,12.83-12.83v-8.15C45.67,31.99,47.28,30.06,47.28,27.75z"/>
</svg>
