<?xml version="1.0" encoding="utf-8"?>
<!-- Generator: Adobe Illustrator 22.0.1, SVG Export Plug-In . SVG Version: 6.00 Build 0)  -->
<svg version="1.1" id="Layer_1" xmlns="http://www.w3.org/2000/svg" xmlns:xlink="http://www.w3.org/1999/xlink" x="0px" y="0px"
	 viewBox="0 0 11.5 11.5" style="enable-background:new 0 0 11.5 11.5;" xml:space="preserve">
<style type="text/css">
	.st0{fill:#FFFFFF;enable-background:new    ;}
</style>
<path class="st0" d="M7.3,9.8c-0.2,0-0.3,0-0.5-0.2c-0.3-0.3-0.3-0.7,0-0.9l2.2-2.2H0.8c-0.4,0-0.7-0.3-0.7-0.7
	c0-0.4,0.3-0.7,0.7-0.7h8.2L6.8,3C6.7,2.8,6.7,2.7,6.7,2.5c0-0.2,0.1-0.3,0.2-0.5C7,1.9,7.1,1.8,7.3,1.8c0.2,0,0.3,0.1,0.5,0.2
	l3.3,3.3c0.1,0.1,0.2,0.3,0.2,0.5s-0.1,0.3-0.2,0.5L7.8,9.6C7.7,9.8,7.5,9.8,7.3,9.8z"/>
</svg>
