<?xml version="1.0" encoding="utf-8"?>
<!-- Generator: Adobe Illustrator 22.0.1, SVG Export Plug-In . SVG Version: 6.00 Build 0)  -->
<svg version="1.1" id="Layer_1" xmlns="http://www.w3.org/2000/svg" xmlns:xlink="http://www.w3.org/1999/xlink" x="0px" y="0px"
	 viewBox="0 0 15 15" style="enable-background:new 0 0 15 15;" xml:space="preserve">
<style type="text/css">
	.st0{fill:#25242b;}
</style>
<g>
	<path class="st0" d="M8.3,0.8L14.5,7c0.3,0.3,0.3,0.7,0,1l-6.2,6.2c-0.4,0.4-0.9,0.4-1.3,0l0,0c-0.4-0.4-0.4-0.9,0-1.3l4.5-4.5H1.2
		C0.7,8.4,0.3,8,0.3,7.5v0c0-0.5,0.4-0.9,0.9-0.9h10.3L7,2.1C6.7,1.7,6.7,1.2,7,0.8l0,0C7.4,0.4,8,0.4,8.3,0.8z"/>
</g>
</svg>
