<?xml version="1.0" encoding="utf-8"?>
<!-- Generator: Adobe Illustrator 22.0.1, SVG Export Plug-In . SVG Version: 6.00 Build 0)  -->
<svg version="1.1" id="Layer_1" xmlns="http://www.w3.org/2000/svg" xmlns:xlink="http://www.w3.org/1999/xlink" x="0px" y="0px"
	 viewBox="0 0 15.6 15" style="enable-background:new 0 0 15.6 15;" xml:space="preserve">
<style type="text/css">
	.st0{fill:#A31E37;}
</style>
<path class="st0" d="M9.9,13c-0.2,0-0.5-0.1-0.6-0.3c-0.4-0.3-0.4-0.9,0-1.3l3.1-3.1H1C0.5,8.4,0.1,8,0.1,7.5C0.1,7,0.5,6.6,1,6.6
	h11.4L9.3,3.5C9.1,3.4,9,3.1,9,2.9s0.1-0.5,0.3-0.6C9.5,2.1,9.7,2,9.9,2c0.2,0,0.5,0.1,0.6,0.3l4.6,4.6c0.2,0.2,0.3,0.4,0.3,0.6
	c0,0.2-0.1,0.5-0.3,0.6l-4.6,4.6C10.4,12.9,10.2,13,9.9,13z"/>
</svg>
