<svg fill="#A31F34" height="479pt" viewBox="0 0 479 479.94727" width="479pt" xmlns="http://www.w3.org/2000/svg"><path d="m128.417969 337.472656v-41.472656h-16v41.472656c-2.742188.980469-5.277344 2.457032-7.488281 4.351563l-22.113282-12.753907-8 13.859376 22.007813 12.710937c-.269531 1.4375-.40625 2.898437-.40625 4.359375-.050781 12.21875 9.085937 22.523438 21.222656 23.9375 12.132813 1.414062 23.394531-6.511719 26.15625-18.414062 2.761719-11.902344-3.859375-23.980469-15.378906-28.050782zm-8 30.527344c-4.417969 0-8-3.582031-8-8s3.582031-8 8-8 8 3.582031 8 8-3.582031 8-8 8zm0 0"/><path d="m424.417969 128h-400c-4.417969 0-8 3.582031-8 8v128c.050781 10.507812 1.085937 20.988281 3.089843 31.304688-34.882812 54.261718-20.554687 126.398437 32.414063 163.210937s125.574219 25.09375 164.273437-26.515625h16.222657c92.738281-.105469 167.894531-75.261719 168-168v-8h24c30.914062-.035156 55.964843-25.085938 56-56v-16c-.035157-30.914062-25.085938-55.964844-56-56zm-304 336c-57.4375 0-104-46.5625-104-104s46.5625-104 104-104 104 46.5625 104 104c-.066407 57.410156-46.589844 103.933594-104 104zm264-200c-.09375 83.910156-68.089844 151.90625-152 152h-5.953125c28.160156-53.0625 12.6875-118.773438-36.195313-153.691406-48.878906-34.917969-116.058593-28.253906-157.125 15.585937-.429687-4.628906-.726562-9.269531-.726562-13.894531v-120h352zm80-64c-.027344 22.082031-17.917969 39.972656-40 40h-24v-96h24c22.082031.027344 39.972656 17.917969 40 40zm0 0"/><path d="m192.417969 96h16c0-4.488281 1.734375-6.398438 5.65625-10.328125 6.542969-5.285156 10.34375-13.242187 10.34375-21.652344 0-8.410156-3.800781-16.367187-10.34375-21.652343-3.921875-3.917969-5.65625-5.847657-5.65625-10.367188s1.734375-6.398438 5.65625-10.351562c6.464843-5.34375 10.246093-13.261719 10.34375-21.648438h-16c0 4.496094-1.734375 6.398438-5.65625 10.351562-6.460938 5.34375-10.246094 13.261719-10.34375 21.648438.085937 8.398438 3.871093 16.328125 10.34375 21.679688 3.921875 3.921874 5.65625 5.855468 5.65625 10.320312s-1.734375 6.398438-5.65625 10.320312c-6.472657 5.347657-10.257813 13.28125-10.34375 21.679688zm0 0"/><path d="m272.417969 96h16c0-4.488281 1.734375-6.398438 5.65625-10.328125 6.542969-5.285156 10.34375-13.242187 10.34375-21.652344 0-8.410156-3.800781-16.367187-10.34375-21.652343-3.921875-3.917969-5.65625-5.847657-5.65625-10.367188s1.734375-6.398438 5.65625-10.351562c6.464843-5.34375 10.246093-13.261719 10.34375-21.648438h-16c0 4.496094-1.734375 6.398438-5.65625 10.351562-6.460938 5.34375-10.246094 13.261719-10.34375 21.648438.085937 8.398438 3.871093 16.328125 10.34375 21.679688 3.921875 3.921874 5.65625 5.855468 5.65625 10.320312s-1.734375 6.398438-5.65625 10.320312c-6.472657 5.347657-10.257813 13.28125-10.34375 21.679688zm0 0"/><path d="m112.417969 96h16c0-4.488281 1.734375-6.398438 5.65625-10.328125 6.542969-5.285156 10.34375-13.242187 10.34375-21.652344 0-8.410156-3.800781-16.367187-10.34375-21.652343-3.921875-3.917969-5.65625-5.847657-5.65625-10.367188s1.734375-6.398438 5.65625-10.351562c6.464843-5.34375 10.246093-13.261719 10.34375-21.648438h-16c0 4.496094-1.734375 6.398438-5.65625 10.351562-6.460938 5.34375-10.246094 13.261719-10.34375 21.648438.085937 8.398438 3.871093 16.328125 10.34375 21.679688 3.921875 3.921874 5.65625 5.855468 5.65625 10.320312s-1.734375 6.398438-5.65625 10.320312c-6.472657 5.347657-10.257813 13.28125-10.34375 21.679688zm0 0"/><path d="m120.417969 264c-53.019531 0-96 42.980469-96 96s42.980469 96 96 96 96-42.980469 96-96c-.058594-52.996094-43.003907-95.941406-96-96zm0 176c-44.183594 0-80-35.816406-80-80s35.816406-80 80-80c44.183593 0 80 35.816406 80 80-.046875 44.164062-35.835938 79.953125-80 80zm0 0"/></svg>