<svg xmlns="http://www.w3.org/2000/svg" xmlns:xlink="http://www.w3.org/1999/xlink" width="24" height="16.5" viewBox="0 0 24 16.5">
  <metadata><?xpacket begin="﻿" id="W5M0MpCehiHzreSzNTczkc9d"?>
<x:xmpmeta xmlns:x="adobe:ns:meta/" x:xmptk="Adobe XMP Core 5.6-c142 79.160924, 2017/07/13-01:06:39        ">
   <rdf:RDF xmlns:rdf="http://www.w3.org/1999/02/22-rdf-syntax-ns#">
      <rdf:Description rdf:about=""/>
   </rdf:RDF>
</x:xmpmeta>
                                                                                                    
                                                                                                    
                                                                                                    
                                                                                                    
                                                                                                    
                                                                                                    
                                                                                                    
                                                                                                    
                                                                                                    
                                                                                                    
                                                                                                    
                                                                                                    
                                                                                                    
                                                                                                    
                                                                                                    
                                                                                                    
                                                                                                    
                                                                                                    
                                                                                                    
                                                                                                    
                           
<?xpacket end="w"?></metadata>
<defs>
    <style>
      .cls-1 {
        fill: #707070;
        fill-rule: evenodd;
        filter: url(#filter);
      }
    </style>
    <filter id="filter" x="181.75" y="1114" width="24" height="16.5" filterUnits="userSpaceOnUse">
      <feFlood result="flood" flood-color="#374252" flood-opacity="0.99"/>
      <feComposite result="composite" operator="in" in2="SourceGraphic"/>
      <feBlend result="blend" in2="SourceGraphic"/>
    </filter>
  </defs>
  <path id="_" data-name="" class="cls-1" d="M189.8,1115.55a6.089,6.089,0,0,0-1.922,3.79,3.814,3.814,0,0,0-1.781.82,3.605,3.605,0,0,0-1.078,1.62,4.285,4.285,0,0,0-2.367,1.55,4.216,4.216,0,0,0-.914,2.67,4.476,4.476,0,0,0,4.5,4.5h15a4.428,4.428,0,0,0,2.906-7.83,5.145,5.145,0,0,0-4.875-4.87,6.3,6.3,0,0,0-2.18-2.75,5.641,5.641,0,0,0-3.351-1.05A5.546,5.546,0,0,0,189.8,1115.55Zm6.656,0.84a4.391,4.391,0,0,1,1.594,2.3l0.188,0.56h0.75a3.759,3.759,0,0,1,3.75,3.75v0.38l0.281,0.23a2.808,2.808,0,0,1,1.219,2.39,2.966,2.966,0,0,1-3,3h-15a3.015,3.015,0,0,1-2.3-4.95,2.761,2.761,0,0,1,1.734-.96l0.516-.09,0.094-.52a2.26,2.26,0,0,1,.8-1.24,2.162,2.162,0,0,1,1.407-.49h0.75V1120A4.524,4.524,0,0,1,196.457,1116.39Zm-3.281,3.8-3,3,1.125,1.12,1.688-1.73v4.92h1.5v-4.92l1.687,1.73,1.125-1.12-3-3-0.562-.47Z" transform="translate(-181.75 -1114)"/>
</svg>
