<svg xmlns="http://www.w3.org/2000/svg" width="24.562" height="25" viewBox="0 0 24.562 25">
  <metadata><?xpacket begin="﻿" id="W5M0MpCehiHzreSzNTczkc9d"?>
<x:xmpmeta xmlns:x="adobe:ns:meta/" x:xmptk="Adobe XMP Core 5.6-c142 79.160924, 2017/07/13-01:06:39        ">
   <rdf:RDF xmlns:rdf="http://www.w3.org/1999/02/22-rdf-syntax-ns#">
      <rdf:Description rdf:about=""/>
   </rdf:RDF>
</x:xmpmeta>
                                                                                                    
                                                                                                    
                                                                                                    
                                                                                                    
                                                                                                    
                                                                                                    
                                                                                                    
                                                                                                    
                                                                                                    
                                                                                                    
                                                                                                    
                                                                                                    
                                                                                                    
                                                                                                    
                                                                                                    
                                                                                                    
                                                                                                    
                                                                                                    
                                                                                                    
                                                                                                    
                           
<?xpacket end="w"?></metadata>
<defs>
    <style>
      .cls-1 {
        fill: #bb1f35;
        fill-rule: evenodd;
      }
    </style>
  </defs>
  <path id="social-track" class="cls-1" d="M643.3,2334.17a11.857,11.857,0,0,1,4.776.98,11.68,11.68,0,0,1,3.912,2.68,13.505,13.505,0,0,1,2.616,3.98,13.085,13.085,0,0,1,0,9.72,13.505,13.505,0,0,1-2.616,3.98,11.68,11.68,0,0,1-3.912,2.68,12.028,12.028,0,0,1-4.776.98,11.8,11.8,0,0,1-4.776-.98,12.358,12.358,0,0,1-3.912-2.68,12.69,12.69,0,0,1-2.64-3.98,12.22,12.22,0,0,1,0-9.72,12.69,12.69,0,0,1,2.64-3.98,12.358,12.358,0,0,1,3.912-2.68,11.639,11.639,0,0,1,4.776-.98h0Zm-10.848,13.23q0.1,0.585.168,1.17a5.644,5.644,0,0,0,.264,1.15c0.128,0.38.248,0.73,0.36,1.08a4.016,4.016,0,0,0,.5,1h3.7q-0.1-.54-0.24-1.08a8.45,8.45,0,0,1-.216-1.07c-0.048-.36-0.1-0.73-0.168-1.1a4.582,4.582,0,0,1-.048-1.15h-4.32Zm4.32-1.46a4.582,4.582,0,0,1,.048-1.15c0.064-.37.112-0.74,0.144-1.1a4.955,4.955,0,0,1,.216-1.07,8.845,8.845,0,0,0,.264-1.08h-3.7a4.016,4.016,0,0,0-.5,1q-0.168.51-.36,1.08a5.551,5.551,0,0,0-.264,1.14c-0.048.4-.1,0.79-0.168,1.18h4.32Zm2.208-4.4q-0.144.495-.312,1.05a7.259,7.259,0,0,0-.24,1.1c-0.048.36-.1,0.73-0.168,1.1a4.582,4.582,0,0,0-.048,1.15h10.128a9.011,9.011,0,0,0-.072-1.15c-0.048-.37-0.1-0.74-0.168-1.1a10.158,10.158,0,0,0-.264-1.1,10.612,10.612,0,0,1-.264-1.05h-8.592Zm-0.768,5.86a4.582,4.582,0,0,0,.048,1.15c0.064,0.37.128,0.74,0.192,1.1s0.144,0.72.24,1.1,0.192,0.72.288,1.05h8.592a10.612,10.612,0,0,1,.264-1.05,10.158,10.158,0,0,0,.264-1.1c0.064-.36.12-0.73,0.168-1.1a9.011,9.011,0,0,0,.072-1.15H638.209Zm11.568,0a9.011,9.011,0,0,1-.072,1.15c-0.048.37-.1,0.74-0.144,1.1a8.45,8.45,0,0,1-.216,1.07l-0.288,1.08h3.792a4.016,4.016,0,0,0,.5-1c0.112-.35.232-0.7,0.36-1.08a5.644,5.644,0,0,0,.264-1.15q0.072-.585.168-1.17h-4.368Zm0.048-1.46H654.1a5.982,5.982,0,0,0-.12-1.18q-0.12-.585-0.264-1.14a7.434,7.434,0,0,0-.36-1.08c-0.144-.34-0.3-0.67-0.456-1h-3.84a6.745,6.745,0,0,1,.288,1.08c0.064,0.35.136,0.71,0.216,1.07a6.347,6.347,0,0,1,.144,1.1,9.765,9.765,0,0,0,.12,1.15h0Zm2.16-5.91c-0.384-.46-0.776-0.89-1.176-1.3a9.5,9.5,0,0,0-1.344-1.12,13.429,13.429,0,0,0-1.512-.9,9.125,9.125,0,0,0-1.68-.64,11.169,11.169,0,0,1,.672.96c0.192,0.31.392,0.63,0.6,0.97a7.849,7.849,0,0,1,.528,1.03,8.834,8.834,0,0,0,.5,1h3.408Zm-7.872-4.35H643.9a0.74,0.74,0,0,1-.192-0.02,0.837,0.837,0,0,0-.192-0.03h-0.432a0.723,0.723,0,0,0-.216.03,0.736,0.736,0,0,1-.216.02h-0.216a8.831,8.831,0,0,0-.864,1.03c-0.256.36-.512,0.71-0.768,1.07a7.353,7.353,0,0,0-.648,1.1c-0.176.38-.376,0.76-0.6,1.15h7.44c-0.224-.39-0.432-0.77-0.624-1.15a9.267,9.267,0,0,0-.672-1.1c-0.256-.36-0.5-0.71-0.744-1.07a5.919,5.919,0,0,0-.888-1.03h0.048Zm-3.888.44a9.578,9.578,0,0,0-1.632.64,13.029,13.029,0,0,0-1.488.88,8.694,8.694,0,0,0-1.32,1.09c-0.4.41-.792,0.84-1.176,1.3h3.408a4.711,4.711,0,0,1,.432-1c0.192-.34.368-0.68,0.528-1a7.813,7.813,0,0,1,.576-0.98c0.224-.33.432-0.63,0.624-0.93h0.048Zm-5.568,17.19a7.928,7.928,0,0,0,1.128,1.29,12.407,12.407,0,0,0,1.32,1.1,9.146,9.146,0,0,0,1.488.88,16.135,16.135,0,0,0,1.632.68c-0.224-.32-0.448-0.65-0.672-0.97a7.813,7.813,0,0,1-.576-0.98c-0.16-.32-0.336-0.66-0.528-1a4.711,4.711,0,0,1-.432-1h-3.36Zm7.824,4.35h0.168a0.736,0.736,0,0,1,.216.02,0.736,0.736,0,0,0,.216.02h0.432a0.74,0.74,0,0,0,.192-0.02,0.74,0.74,0,0,1,.192-0.02h0.216c0.256-.33.528-0.67,0.816-1.03a12.527,12.527,0,0,0,.768-1.07c0.224-.36.448-0.73,0.672-1.1a8.947,8.947,0,0,0,.576-1.15H639.6a8.947,8.947,0,0,0,.576,1.15c0.224,0.37.448,0.74,0.672,1.1s0.472,0.71.744,1.07,0.552,0.7.84,1.03h0.048Zm3.84-.4a10.95,10.95,0,0,0,1.632-.63,9.43,9.43,0,0,0,1.512-.9,15.463,15.463,0,0,0,1.344-1.13,7.928,7.928,0,0,0,1.128-1.29h-3.36a8.834,8.834,0,0,0-.5,1,8.528,8.528,0,0,1-.528,1.03c-0.208.34-.408,0.66-0.6,0.97a9.713,9.713,0,0,1-.672.95h0.048Z" transform="translate(-630.969 -2334.16)"/>
</svg>
