<svg xmlns="http://www.w3.org/2000/svg" width="23.156" height="23.56" viewBox="0 0 23.156 23.56">
  <metadata><?xpacket begin="﻿" id="W5M0MpCehiHzreSzNTczkc9d"?>
<x:xmpmeta xmlns:x="adobe:ns:meta/" x:xmptk="Adobe XMP Core 5.6-c142 79.160924, 2017/07/13-01:06:39        ">
   <rdf:RDF xmlns:rdf="http://www.w3.org/1999/02/22-rdf-syntax-ns#">
      <rdf:Description rdf:about=""/>
   </rdf:RDF>
</x:xmpmeta>
                                                                                                    
                                                                                                    
                                                                                                    
                                                                                                    
                                                                                                    
                                                                                                    
                                                                                                    
                                                                                                    
                                                                                                    
                                                                                                    
                                                                                                    
                                                                                                    
                                                                                                    
                                                                                                    
                                                                                                    
                                                                                                    
                                                                                                    
                                                                                                    
                                                                                                    
                                                                                                    
                           
<?xpacket end="w"?></metadata>
<defs>
    <style>
      .cls-1 {
        fill: #bb1f35;
        fill-rule: evenodd;
      }
    </style>
  </defs>
  <path id="impact-track" class="cls-1" d="M875.657,2347.3a8.9,8.9,0,0,1-.888,3.52,10.009,10.009,0,0,1-2.064,2.83,9.389,9.389,0,0,1-2.9,1.91,9.079,9.079,0,0,1-3.5.68,8.908,8.908,0,0,1-3.648-.76,9.476,9.476,0,0,1-3-2.05,9.676,9.676,0,0,1-2.016-3.05,9.641,9.641,0,0,1-.072-7.25,9.562,9.562,0,0,1,1.848-2.96,9.915,9.915,0,0,1,2.76-2.07,9.025,9.025,0,0,1,3.408-.95l-0.1-1.47a10.157,10.157,0,0,0-3.936,1.08,11.04,11.04,0,0,0-5.328,5.83,10.958,10.958,0,0,0-.768,4.08,10.76,10.76,0,0,0,.864,4.3,11.468,11.468,0,0,0,2.328,3.49,11.246,11.246,0,0,0,3.432,2.37,10.626,10.626,0,0,0,8.256.07,11.114,11.114,0,0,0,3.384-2.2,10.93,10.93,0,0,0,3.384-7.3l-1.44-.1h0Zm2.928-2.1a10.941,10.941,0,0,0-.84-4.29,10.7,10.7,0,0,0-2.328-3.49,11.2,11.2,0,0,0-3.456-2.37,10.062,10.062,0,0,0-4.176-.88h-0.72v11.77h11.52v-0.74h0Zm-1.488-.73h-8.592v-8.79a9.15,9.15,0,0,1,3.24.88,9.407,9.407,0,0,1,2.664,1.91,9.569,9.569,0,0,1,1.872,2.73,8.93,8.93,0,0,1,.816,3.27h0Z" transform="translate(-855.438 -2334.16)"/>
</svg>
