<svg xmlns="http://www.w3.org/2000/svg" width="21.72" height="25" viewBox="0 0 21.72 25">
  <metadata><?xpacket begin="﻿" id="W5M0MpCehiHzreSzNTczkc9d"?>
<x:xmpmeta xmlns:x="adobe:ns:meta/" x:xmptk="Adobe XMP Core 5.6-c142 79.160924, 2017/07/13-01:06:39        ">
   <rdf:RDF xmlns:rdf="http://www.w3.org/1999/02/22-rdf-syntax-ns#">
      <rdf:Description rdf:about=""/>
   </rdf:RDF>
</x:xmpmeta>
                                                                                                    
                                                                                                    
                                                                                                    
                                                                                                    
                                                                                                    
                                                                                                    
                                                                                                    
                                                                                                    
                                                                                                    
                                                                                                    
                                                                                                    
                                                                                                    
                                                                                                    
                                                                                                    
                                                                                                    
                                                                                                    
                                                                                                    
                                                                                                    
                                                                                                    
                                                                                                    
                           
<?xpacket end="w"?></metadata>
<defs>
    <style>
      .cls-1 {
        fill: #bb1f35;
        fill-rule: evenodd;
      }
    </style>
  </defs>
  <path id="sandbox" class="cls-1" d="M1107.83,2340.03h4.32v19.14h-21.7v-19.14h4.37v-3.52a2.107,2.107,0,0,1,.19-0.9,2.483,2.483,0,0,1,1.25-1.25,2.185,2.185,0,0,1,.91-0.19h8.26a2.218,2.218,0,0,1,.91.19,2.9,2.9,0,0,1,.77.52,2.372,2.372,0,0,1,.52.73,2.115,2.115,0,0,1,.2.9v3.52h0Zm-11.57-3.52v3.52h10.08v-3.52a0.975,0.975,0,0,0-.07-0.31,0.91,0.91,0,0,0-.48-0.49,0.937,0.937,0,0,0-.36-0.08h-8.26a0.863,0.863,0,0,0-.36.08,0.972,0.972,0,0,0-.29.19,0.907,0.907,0,0,0-.19.3,0.763,0.763,0,0,0-.07.31h0Zm14.45,21.19v-11.76h-18.82v11.76h18.82Zm0-13.23v-2.93h-2.88v0.93h-1.49v-0.93h-10.08v0.93h-1.44v-0.93h-2.93v2.93h18.82Z" transform="translate(-1090.44 -2334.16)"/>
</svg>
