<svg xmlns="http://www.w3.org/2000/svg" viewBox="0 0 33 33"><defs><style>.cls-1{fill:none;stroke:#b7b7b7;stroke-miterlimit:10;}.cls-2{fill:#b7b7b7;}</style></defs><g id="Layer_2" data-name="Layer 2"><g id="Layer_1-2" data-name="Layer 1"><circle class="cls-1" cx="16.5" cy="16.5" r="16"/><path class="cls-2" d="M23,22.5a1.4,1.4,0,0,0,.9-.3l-4.4-4.3-.3.1a5.55,5.55,0,0,0-.8.6,3,3,0,0,1-.8.4,3.55,3.55,0,0,1-1,.2h0a3.55,3.55,0,0,1-1-.2,2,2,0,0,1-.8-.4A3.28,3.28,0,0,1,14,18l-.3-.2L9.3,22.1a1.61,1.61,0,0,0,.9.3H23Z"/><path class="cls-2" d="M9.5,15.1c-.3-.2-.6-.5-.9-.7V21l3.9-3.8A24.45,24.45,0,0,0,9.5,15.1Z"/><path class="cls-2" d="M23.5,15.1l-3,2L24.4,21V14.4A5.5,5.5,0,0,1,23.5,15.1Z"/><path class="cls-2" d="M23,10.5H10.1a1.16,1.16,0,0,0-1,.4A1.5,1.5,0,0,0,8.7,12a2.08,2.08,0,0,0,.5,1.2,4.74,4.74,0,0,0,1,1L12,15.4l1.4,1,.9.6.1.1.2.2.5.3a2.19,2.19,0,0,0,.5.3c.2.1.3.2.5.2s.3.1.4.1h0a.6.6,0,0,0,.4-.1c.2-.1.3-.1.5-.2l.5-.3.5-.3.2-.2.1-.1.9-.6,3.2-2.2a5.24,5.24,0,0,0,1.1-1,2,2,0,0,0,.4-1.3,1.28,1.28,0,0,0-.4-1A1.27,1.27,0,0,0,23,10.5Z"/></g></g></svg>