<svg xmlns="http://www.w3.org/2000/svg" viewBox="0 0 20.25 20"><defs><style>.cls-1{fill:#d1d1d1;}</style></defs><title>event calendar</title><g id="Layer_2" data-name="Layer 2"><g id="Layer_1-2" data-name="Layer 1"><path class="cls-1" d="M19.64,1.41h-4V.61A.61.61,0,0,0,15.06,0a.61.61,0,0,0-.61.61v.8H5.8V.61a.61.61,0,0,0-1.22,0v.8h-4a.69.69,0,0,0-.24.05A.6.6,0,0,0,0,2V19.39A.61.61,0,0,0,.61,20h19a.61.61,0,0,0,.61-.61V2A.61.61,0,0,0,19.64,1.41ZM19,18.78H1.22V7.09H19ZM19,5.87H1.22V2.63H4.58v.81a.61.61,0,0,0,1.22,0V2.63h8.65v.81a.61.61,0,0,0,.61.61.62.62,0,0,0,.61-.61V2.63H19Z"/><path class="cls-1" d="M7,13.93l-.18,2.61a.61.61,0,0,0,.82.61l2.44-.89,2.45.89a.61.61,0,0,0,.82-.61l-.18-2.61,1.68-2a.61.61,0,0,0-.29-1L12,10.15l-1.4-2.09a.61.61,0,0,0-1,0l-1.4,2.09-2.57.79a.61.61,0,0,0-.29,1Zm1.74-2.68A.59.59,0,0,0,9.11,11l1-1.5,1,1.5a.6.6,0,0,0,.32.25l1.91.59-1.25,1.49a.54.54,0,0,0-.14.43l.13,1.93L10.33,15a.58.58,0,0,0-.41,0l-1.78.65.13-1.93a.62.62,0,0,0-.14-.43L6.88,11.84Z"/></g></g></svg>