<?xml version="1.0" encoding="utf-8"?>
<!-- Generator: Adobe Illustrator 21.0.0, SVG Export Plug-In . SVG Version: 6.00 Build 0)  -->
<svg version="1.1" id="Layer_1" xmlns="http://www.w3.org/2000/svg" xmlns:xlink="http://www.w3.org/1999/xlink" x="0px" y="0px"
	 viewBox="0 0 492.8 313" style="enable-background:new 0 0 492.8 313;" xml:space="preserve">
<style type="text/css">
	.st0{fill:#FFFFFF;}
	.st1{fill:none;stroke:#FFFFFF;stroke-miterlimit:10;}
	.st2{fill-rule:evenodd;clip-rule:evenodd;fill:#FFFFFF;}
	.st3{fill:none;stroke:#24E2A3;stroke-linecap:round;stroke-linejoin:round;stroke-miterlimit:10;}
	.st4{fill:#6320CE;}
	.st5{fill:none;stroke:#ED9004;stroke-width:4;stroke-miterlimit:10;}
</style>
<g>
	<g>
		<path class="st0" d="M183.7,275.6c-0.7,0-1.4,0.2-1.8,0.6s-0.7,0.9-0.7,1.7c0,0.7,0.3,1.3,0.8,1.7c0.6,0.4,1.2,0.7,2,0.8
			s1.6,0.4,2.4,0.6c0.8,0.2,1.5,0.6,2,1.3s0.8,1.5,0.8,2.6s-0.5,2.1-1.4,3s-2.2,1.3-3.8,1.3s-2.9-0.4-3.9-1.1
			c-1-0.7-1.5-1.8-1.5-3.1h2.7c0.1,0.7,0.3,1.2,0.7,1.6s1.1,0.6,1.9,0.6c0.8,0,1.5-0.2,2-0.7c0.5-0.4,0.7-1,0.7-1.6
			s-0.2-1.1-0.5-1.4c-0.3-0.3-0.7-0.6-1.2-0.8c-0.5-0.2-1-0.3-1.6-0.5c-0.6-0.1-1.1-0.3-1.7-0.5c-0.6-0.2-1.1-0.4-1.6-0.7
			s-0.9-0.7-1.2-1.2c-0.3-0.5-0.5-1.2-0.5-2c0-1.3,0.5-2.4,1.4-3.2c1-0.8,2.2-1.2,3.7-1.2c1.5,0,2.8,0.4,3.7,1.1
			c0.9,0.7,1.4,1.7,1.5,3.1h-2.8c-0.1-0.6-0.3-1.1-0.7-1.5C185,275.8,184.4,275.6,183.7,275.6z"/>
		<path class="st0" d="M200.7,273.7v2h-5.9v4.6h5.3v1.9h-5.3v4.8h5.9v2h-8.4v-15.3H200.7z"/>
		<path class="st0" d="M213,275c0.9,0.9,1.4,1.9,1.4,3.2s-0.4,2.4-1.3,3.3c-0.9,0.9-2.2,1.3-4.1,1.3h-2.8v6.2h-2.5v-15.3h5.3
			C210.7,273.7,212.1,274.1,213,275z M206.2,280.8h2.8c1,0,1.7-0.2,2.1-0.7s0.7-1.1,0.7-1.9s-0.2-1.4-0.7-1.9s-1.2-0.7-2.1-0.7h-2.8
			V280.8z"/>
		<path class="st0" d="M216,275.7v-2h10.7v2h-4.1V289h-2.5v-13.3H216z"/>
		<path class="st0" d="M237.2,289v-13.3h-2v-2.3h4.6V289H237.2z"/>
		<path class="st0" d="M250.8,289v-3.3h-8v-1.9l7.4-10.6h3v10.3h2v2.2h-2v3.3H250.8z M250.9,283.5v-7.8l-5.2,7.8H250.9z"/>
		<path class="st0" d="M256.8,287.3h2.4c0.6,2.2,0.5,3.6-0.3,4.4c-0.4,0.5-1,0.7-1.9,0.7v-1.1c0.4,0,0.6-0.1,0.8-0.3
			c0.2-0.2,0.3-0.5,0.3-0.9v-0.5h-1.3V287.3z"/>
		<path class="st0" d="M268.2,288.8v-1.8c0.4-0.3,0.9-0.8,1.6-1.4c0.7-0.6,1.2-1.1,1.6-1.4c0.4-0.3,0.8-0.8,1.4-1.3
			c0.6-0.5,1-1,1.3-1.3c0.3-0.4,0.6-0.8,0.9-1.3c0.6-0.8,0.9-1.7,0.9-2.5c0-1.8-0.9-2.7-2.6-2.7c-0.9,0-1.5,0.3-2,0.8
			c-0.5,0.5-0.7,1.3-0.8,2.2h-2.4c0-1.7,0.5-2.9,1.5-3.8s2.2-1.3,3.7-1.3c1.5,0,2.8,0.4,3.7,1.3c0.9,0.9,1.4,2,1.4,3.4
			c0,1.1-0.3,2.1-0.9,3.1c-0.3,0.5-0.6,0.9-0.9,1.3c-0.3,0.4-0.7,0.8-1.2,1.3s-0.9,0.9-1.2,1.2c-0.3,0.3-0.7,0.7-1.3,1.2
			c-0.6,0.5-0.9,0.8-1.2,1h7v2.1H268.2z"/>
		<path class="st0" d="M284,273.6c0.8-0.4,1.7-0.6,2.8-0.6s2,0.2,2.8,0.6c0.8,0.4,1.4,1,1.8,1.7c0.4,0.7,0.7,1.6,0.9,2.5
			c0.2,0.9,0.3,2,0.3,3.2c0,1.2-0.1,2.2-0.3,3.2c-0.2,0.9-0.5,1.8-0.9,2.5c-0.4,0.8-1,1.3-1.8,1.7c-0.8,0.4-1.7,0.6-2.8,0.6
			s-2-0.2-2.8-0.6c-0.8-0.4-1.4-1-1.8-1.7c-0.4-0.8-0.7-1.6-0.9-2.5c-0.2-0.9-0.3-2-0.3-3.2c0-1.2,0.1-2.2,0.3-3.2
			c0.2-0.9,0.5-1.7,0.9-2.5S283.2,274,284,273.6z M286.8,275.3c-0.7,0-1.3,0.2-1.7,0.5c-0.5,0.3-0.8,0.7-1,1.3
			c-0.4,1-0.5,2.3-0.5,3.9c0,1.6,0.2,2.9,0.5,3.9c0.4,1.2,1.3,1.8,2.7,1.8c1.4,0,2.3-0.6,2.7-1.8c0.4-1,0.5-2.3,0.5-3.9
			c0-1.6-0.2-2.9-0.5-3.9C289.1,275.8,288.2,275.3,286.8,275.3z"/>
		<path class="st0" d="M296.8,289v-13.3h-2v-2.3h4.6V289H296.8z"/>
		<path class="st0" d="M308.8,286.9c1,0,1.8-0.4,2.3-1.2c0.5-0.8,0.7-2.2,0.7-4.2c-0.4,0.5-0.8,0.9-1.5,1.2
			c-0.6,0.3-1.3,0.4-2.1,0.4c-1.5,0-2.7-0.4-3.7-1.3s-1.4-2.1-1.4-3.8s0.5-2.9,1.4-3.9c0.9-1,2.2-1.4,3.9-1.4c2,0,3.4,0.7,4.3,2
			c0.8,1.3,1.3,3.4,1.3,6.2c0,2.8-0.4,4.9-1.2,6.2c-0.8,1.3-2.2,2-4.2,2c-1.6,0-2.8-0.4-3.6-1.2c-0.8-0.8-1.3-1.9-1.4-3.1h2.3
			C306.2,286.1,307.2,286.9,308.8,286.9z M305.6,277.8c0,0.9,0.3,1.7,0.8,2.2c0.5,0.6,1.3,0.9,2.2,0.9s1.7-0.3,2.2-0.8
			s0.8-1.3,0.8-2.3s-0.3-1.7-0.8-2.3c-0.5-0.6-1.3-0.8-2.2-0.8s-1.7,0.3-2.2,0.9C305.9,276.1,305.6,276.9,305.6,277.8z"/>
		<path class="st0" d="M203.3,300.1c0.9,0.8,1.3,1.8,1.3,2.9s-0.4,2.1-1.2,3c-0.8,0.8-2,1.2-3.7,1.2h-2.5v5.6h-2.3V299h4.8
			C201.2,299,202.4,299.4,203.3,300.1z M197.1,305.4h2.5c0.9,0,1.5-0.2,1.9-0.6c0.4-0.4,0.6-1,0.6-1.7c0-0.7-0.2-1.3-0.6-1.7
			c-0.4-0.4-1.1-0.6-1.9-0.6h-2.5V305.4z"/>
		<path class="st0" d="M216.1,312.8l-1-2.8h-5.8l-1,2.8h-2.4l5-13.9h2.6l5,13.9H216.1z M209.9,308.2h4.6l-2.3-6.5L209.9,308.2z"/>
		<path class="st0" d="M220.7,299h2.3v12.1h4.7v1.7h-7V299z"/>
		<path class="st0" d="M235.9,313c-2,0-3.7-0.7-5-2s-2.1-3-2.1-5.1s0.7-3.8,2.1-5.1s3.1-2,5-2c2,0,3.7,0.7,5,2c1.4,1.3,2,3,2,5.1
			s-0.7,3.8-2,5.1C239.5,312.3,237.9,313,235.9,313z M235.9,310.9c1.4,0,2.5-0.5,3.4-1.4c0.9-0.9,1.3-2.1,1.3-3.7
			c0-1.5-0.4-2.7-1.3-3.6c-0.9-0.9-2-1.4-3.4-1.4c-1.4,0-2.5,0.5-3.4,1.4c-0.9,0.9-1.3,2.1-1.3,3.6c0,1.5,0.4,2.7,1.3,3.7
			C233.3,310.5,234.5,310.9,235.9,310.9z"/>
		<path class="st0" d="M260.5,312.8l-1-2.8h-5.8l-1,2.8h-2.4l5-13.9h2.6l5,13.9H260.5z M254.4,308.2h4.6l-2.3-6.5L254.4,308.2z"/>
		<path class="st0" d="M265.1,299h2.3v12.1h4.7v1.7h-7V299z"/>
		<path class="st0" d="M273.2,300.7V299h9.7v1.8h-3.7v12.1H277v-12.1H273.2z"/>
		<path class="st0" d="M291.6,313c-2,0-3.7-0.7-5-2s-2.1-3-2.1-5.1s0.7-3.8,2.1-5.1s3.1-2,5-2c2,0,3.7,0.7,5,2c1.4,1.3,2,3,2,5.1
			s-0.7,3.8-2,5.1C295.2,312.3,293.6,313,291.6,313z M291.6,310.9c1.4,0,2.5-0.5,3.4-1.4c0.9-0.9,1.3-2.1,1.3-3.7
			c0-1.5-0.4-2.7-1.3-3.6c-0.9-0.9-2-1.4-3.4-1.4s-2.5,0.5-3.4,1.4c-0.9,0.9-1.3,2.1-1.3,3.6c0,1.5,0.4,2.7,1.3,3.7
			C289,310.5,290.2,310.9,291.6,310.9z"/>
	</g>
	<g>
		<path class="st0" d="M219.1,208.8v9.6h-1.9v-6.1l-2.6,6.1h-1.4l-2.6-6.1v6.1h-1.9v-9.6h2.2l3.1,7.1l3.1-7.1H219.1z"/>
		<path class="st0" d="M221.2,218.5v-9.6h1.9v9.6H221.2z"/>
		<path class="st0" d="M224.6,210.3v-1.5h7.1v1.5h-2.6v8.2h-1.9v-8.2H224.6z"/>
		<path class="st0" d="M243.7,218.5l-0.6-1.8h-3.8l-0.6,1.8h-2.1l3.4-9.7h2.3l3.4,9.7H243.7z M239.9,215.2h2.7l-1.4-4L239.9,215.2z"
			/>
		<path class="st0" d="M247.1,218.5v-9.6h1.9v9.6H247.1z"/>
		<path class="st0" d="M254.9,218.3v-1.4c0.2-0.2,0.6-0.5,1.1-1c0.5-0.4,0.9-0.8,1.1-1c0.2-0.2,0.6-0.5,0.9-0.9
			c0.4-0.4,0.6-0.7,0.8-0.9c0.5-0.6,0.7-1.2,0.7-1.7c0-1-0.5-1.5-1.4-1.5c-0.4,0-0.8,0.1-1,0.4c-0.2,0.3-0.4,0.7-0.4,1.2h-1.9
			c0-1.1,0.3-1.9,0.9-2.5c0.6-0.6,1.4-0.8,2.4-0.8s1.8,0.3,2.4,0.9c0.6,0.6,0.9,1.3,0.9,2.2c0,0.6-0.2,1.2-0.5,1.8
			c-0.2,0.3-0.3,0.6-0.5,0.8c-0.2,0.2-0.4,0.5-0.7,0.8c-0.3,0.3-0.5,0.5-0.7,0.7c-0.2,0.2-0.4,0.4-0.8,0.7c-0.3,0.3-0.6,0.5-0.7,0.6
			h4v1.6H254.9z"/>
		<path class="st0" d="M262.9,213.4c0-3.3,1.2-5,3.7-5c2.5,0,3.7,1.7,3.7,5s-1.2,5-3.7,5C264.2,218.4,262.9,216.8,262.9,213.4z
			 M267.5,210.4c-0.2-0.1-0.5-0.2-0.8-0.2c-0.3,0-0.6,0.1-0.8,0.2c-0.2,0.1-0.4,0.3-0.5,0.5c-0.1,0.2-0.2,0.4-0.3,0.7
			c-0.1,0.3-0.1,0.6-0.1,0.9c0,0.3,0,0.6,0,1s0,0.7,0,1c0,0.3,0.1,0.6,0.1,0.9c0.1,0.3,0.2,0.5,0.3,0.7c0.1,0.2,0.3,0.3,0.5,0.5
			c0.2,0.1,0.5,0.2,0.8,0.2c0.3,0,0.6-0.1,0.8-0.2c0.2-0.1,0.4-0.3,0.5-0.5c0.1-0.2,0.2-0.4,0.3-0.7c0.1-0.3,0.1-0.6,0.1-0.9
			s0-0.6,0-1s0-0.7,0-1c0-0.3-0.1-0.6-0.1-0.9c-0.1-0.3-0.2-0.5-0.3-0.7C267.9,210.7,267.7,210.5,267.5,210.4z"/>
		<path class="st0" d="M273.1,218.5v-8h-1.5v-1.8h3.5v9.8H273.1z"/>
		<path class="st0" d="M281,216.9c0.6,0,1-0.2,1.3-0.7c0.3-0.5,0.4-1.2,0.4-2.3c-0.2,0.2-0.5,0.4-0.9,0.6s-0.8,0.2-1.2,0.2
			c-0.9,0-1.7-0.3-2.3-0.8c-0.6-0.5-0.9-1.3-0.9-2.4s0.3-1.9,0.9-2.5c0.6-0.6,1.4-0.9,2.5-0.9c1.3,0,2.2,0.4,2.8,1.3
			s0.8,2.2,0.8,3.9s-0.2,3-0.7,3.9c-0.5,0.8-1.4,1.3-2.7,1.3c-1,0-1.8-0.3-2.4-0.8s-0.8-1.2-0.9-2.1h1.8
			C279.6,216.4,280.1,216.9,281,216.9z M279.3,211.4c0,0.5,0.1,0.9,0.4,1.2c0.3,0.3,0.7,0.5,1.2,0.5s0.9-0.1,1.2-0.4
			s0.4-0.7,0.4-1.2c0-0.5-0.1-0.9-0.4-1.2c-0.3-0.3-0.7-0.4-1.2-0.4c-0.5,0-0.9,0.2-1.2,0.5C279.4,210.5,279.3,210.9,279.3,211.4z"
			/>
	</g>
	<g>
		<g>
			<path class="st0" d="M231.1,6.3h1.2l3.6,5.2l3.6-5.2h1.2v9.2h-1.8v-5.2l-2.7,3.8h-0.6l-2.7-3.8v5.2h-1.8V6.3z"/>
			<path class="st0" d="M244.6,6.3v9.2h-1.9V6.3H244.6z"/>
			<path class="st0" d="M245.8,8V6.3h7.1V8h-2.6v7.4h-1.9V8H245.8z"/>
			<path class="st0" d="M253.7,10.9c0-2.8,2.2-4.8,4.8-4.8c1.7,0,3.2,0.8,4,2l-0.9,0.8c-0.7-0.9-1.8-1.6-3-1.6
				c-1.9,0-3.5,1.5-3.5,3.6c0,2.1,1.5,3.5,3.5,3.5c1.3,0,2.4-0.6,3.1-1.6l0.9,0.8c-0.8,1.1-2.3,2-4,2
				C255.8,15.6,253.7,13.7,253.7,10.9z"/>
			<path class="st0" d="M271.3,6.3v9.2h-0.6l-5.5-6.5v6.5h-1.2V6.3h0.6l5.6,6.6V6.3H271.3z"/>
			<path class="st0" d="M273.1,10.9c0-2.8,2.2-4.8,4.8-4.8c1.7,0,3.2,0.8,4,2l-0.9,0.8c-0.7-0.9-1.8-1.6-3-1.6
				c-1.9,0-3.5,1.5-3.5,3.6c0,2.1,1.5,3.5,3.5,3.5c1.3,0,2.4-0.6,3.1-1.6l0.9,0.8c-0.8,1.1-2.3,2-4,2
				C275.2,15.6,273.1,13.7,273.1,10.9z"/>
			<path class="st0" d="M230.9,21.4h0.6l3,4.4l3-4.4h0.6v7.1H237V24l-2.3,3.4h-0.3L232,24v4.6h-1.1V21.4z"/>
			<path class="st0" d="M241,21.4v7.1h-1.1v-7.1H241z"/>
			<path class="st0" d="M242,22.5v-1.1h5.3v1.1h-2.1v6.1h-1.1v-6.1H242z"/>
			<path class="st0" d="M250,25c0-2.2,1.7-3.7,3.7-3.7c1.3,0,2.5,0.6,3.1,1.5l-0.8,0.7c-0.5-0.7-1.3-1.2-2.3-1.2
				c-1.4,0-2.6,1.1-2.6,2.6c0,1.5,1.1,2.6,2.6,2.6c0.9,0,1.8-0.5,2.3-1.2l0.8,0.7c-0.6,0.9-1.8,1.5-3.1,1.5
				C251.6,28.7,250,27.2,250,25z"/>
			<path class="st0" d="M257.9,21.4h1.1v6.1h3.8v1.1h-4.9V21.4z"/>
			<path class="st0" d="M263.6,26.1v-4.7h1.1V26c0,1.1,0.6,1.7,1.5,1.7c0.9,0,1.5-0.6,1.5-1.7v-4.5h1.1v4.7c0,1.7-1.1,2.6-2.7,2.6
				C264.7,28.7,263.6,27.8,263.6,26.1z"/>
			<path class="st0" d="M275.8,26.5c0,1.1-0.8,2.1-2.2,2.1h-3v-7.1h2.9c1.3,0,2,0.9,2,1.8c0,0.6-0.4,1.2-1,1.5
				C275.4,24.9,275.8,25.7,275.8,26.5z M271.6,22.5v1.8h1.6c0.7,0,1.1-0.5,1.1-1c0-0.5-0.4-0.9-1-0.9H271.6z M274.6,26.4
				c0-0.6-0.4-1.2-1.3-1.2h-1.7v2.3h1.8C274.2,27.6,274.6,27,274.6,26.4z"/>
			<path class="st0" d="M279,25.1c0-2.1,1.7-3.7,3.7-3.7c2.1,0,3.7,1.7,3.7,3.7c0,2-1.6,3.7-3.7,3.7C280.6,28.7,279,27.1,279,25.1z
				 M285.3,25c0-1.5-1.1-2.6-2.6-2.6c-1.4,0-2.5,1.1-2.5,2.6c0,1.5,1.1,2.6,2.5,2.6C284.1,27.6,285.3,26.5,285.3,25z"/>
			<path class="st0" d="M287.7,21.4h4.5v1.1h-3.4v2h3v1.1h-3v3.1h-1.1V21.4z"/>
			<path class="st0" d="M236.8,31.1v7.1h-0.7l-4.1-4.8v4.8h-1.1v-7.1h0.6l4.2,4.9v-4.9H236.8z"/>
			<path class="st0" d="M238.1,34.7c0-2.1,1.7-3.7,3.7-3.7c2.1,0,3.7,1.7,3.7,3.7c0,2-1.6,3.7-3.7,3.7
				C239.7,38.4,238.1,36.8,238.1,34.7z M244.4,34.7c0-1.5-1.1-2.6-2.6-2.6c-1.4,0-2.5,1.1-2.5,2.6c0,1.5,1.1,2.6,2.5,2.6
				C243.2,37.3,244.4,36.2,244.4,34.7z"/>
			<path class="st0" d="M248.9,35.5h-0.9v2.8h-1.1v-7.1h2.5c1.6,0,2.3,1.1,2.3,2.2c0,0.9-0.5,1.8-1.6,2.1l1.9,2.9h-1.3L248.9,35.5z
				 M247.9,34.4h1.2c1,0,1.3-0.6,1.3-1.1c0-0.6-0.4-1.1-1.2-1.1h-1.4V34.4z"/>
			<path class="st0" d="M252.3,32.2v-1.1h5.3v1.1h-2.1v6.1h-1.1v-6.1H252.3z"/>
			<path class="st0" d="M258.6,31.1h1.1v3h3.4v-3h1.1v7.1h-1.1v-3.1h-3.4v3.1h-1.1V31.1z"/>
			<path class="st0" d="M266,31.1h4.6v1.1h-3.5v1.9h3.2v1.1h-3.2v2h3.5v1.1H266V31.1z"/>
			<path class="st0" d="M274,35.5H273v2.8h-1.1v-7.1h2.5c1.6,0,2.3,1.1,2.3,2.2c0,0.9-0.5,1.8-1.6,2.1l1.9,2.9h-1.3L274,35.5z
				 M273,34.4h1.2c1,0,1.3-0.6,1.3-1.1c0-0.6-0.4-1.1-1.2-1.1H273V34.4z"/>
			<path class="st0" d="M284.1,31.1v7.1h-0.7l-4.1-4.8v4.8h-1.1v-7.1h0.6L283,36v-4.9H284.1z"/>
			<path class="st0" d="M287.8,34.7c0-2.2,1.7-3.7,3.7-3.7c1.3,0,2.5,0.6,3.1,1.5l-0.8,0.7c-0.5-0.7-1.3-1.2-2.3-1.2
				c-1.4,0-2.6,1.1-2.6,2.6c0,1.5,1.1,2.6,2.6,2.6c0.9,0,1.8-0.5,2.3-1.2l0.8,0.7c-0.6,0.9-1.8,1.5-3.1,1.5
				C289.4,38.4,287.8,36.9,287.8,34.7z"/>
			<path class="st0" d="M299.3,36.5h-2.6l-0.7,1.8h-1.2l2.8-7.1h0.7l2.8,7.1H300L299.3,36.5z M297.1,35.5h1.9l-1-2.6L297.1,35.5z"/>
			<path class="st0" d="M302.2,31.1h1.1v6.1h3.8v1.1h-4.9V31.1z"/>
			<path class="st0" d="M309.2,31.1v7.1h-1.1v-7.1H309.2z"/>
			<path class="st0" d="M310.9,31.1h4.5v1.1h-3.4v2h3v1.1h-3v3.1h-1.1V31.1z"/>
			<path class="st0" d="M316,34.7c0-2.1,1.7-3.7,3.7-3.7c2.1,0,3.7,1.7,3.7,3.7c0,2-1.6,3.7-3.7,3.7C317.6,38.4,316,36.8,316,34.7z
				 M322.3,34.7c0-1.5-1.1-2.6-2.6-2.6c-1.4,0-2.5,1.1-2.5,2.6c0,1.5,1.1,2.6,2.5,2.6C321.1,37.3,322.3,36.2,322.3,34.7z"/>
			<path class="st0" d="M326.8,35.5h-0.9v2.8h-1.1v-7.1h2.5c1.6,0,2.3,1.1,2.3,2.2c0,0.9-0.5,1.8-1.6,2.1l1.9,2.9h-1.3L326.8,35.5z
				 M325.8,34.4h1.2c1,0,1.3-0.6,1.3-1.1c0-0.6-0.4-1.1-1.2-1.1h-1.4V34.4z"/>
			<path class="st0" d="M336.9,31.1v7.1h-0.7l-4.1-4.8v4.8H331v-7.1h0.6l4.2,4.9v-4.9H336.9z"/>
			<path class="st0" d="M339.7,31.1v7.1h-1.1v-7.1H339.7z"/>
			<path class="st0" d="M345.2,36.5h-2.6l-0.7,1.8h-1.2l2.8-7.1h0.7l2.8,7.1h-1.2L345.2,36.5z M343,35.5h1.9l-1-2.6L343,35.5z"/>
		</g>
		<line class="st1" x1="216.5" y1="0" x2="216.5" y2="45.6"/>
		<g id="XMLID_4_">
			<rect id="XMLID_184_" x="145.6" y="6.9" class="st2" width="6.3" height="29.6"/>
			<rect id="XMLID_178_" x="165.9" y="6.9" class="st2" width="6.3" height="29.6"/>
			<rect id="XMLID_174_" x="155.7" y="6.9" class="st2" width="6.3" height="20.1"/>
			<rect id="XMLID_69_" x="176.1" y="16.4" class="st2" width="6.3" height="20.1"/>
			<rect id="XMLID_68_" x="186.4" y="6.9" class="st2" width="16.5" height="5.8"/>
			<rect id="XMLID_66_" x="176.1" y="6.9" class="st2" width="6.3" height="5.8"/>
			<rect id="XMLID_64_" x="186.4" y="16.4" class="st2" width="6.3" height="20.1"/>
		</g>
	</g>
	<g>
		<rect x="0.5" y="79.6" class="st3" width="491.8" height="75.6"/>
		<g>
			<path class="st0" d="M21,134.8v-29h18v4.5H26.8v7.6h9.2v4.5h-9.2v12.4H21z"/>
			<path class="st0" d="M41.8,123.7v-17.9h5.9v17.9c0,2,0.5,3.5,1.5,4.5s2.5,1.5,4.3,1.5c1.9,0,3.3-0.5,4.4-1.5c1-1,1.5-2.5,1.5-4.5
				v-17.9h5.8v17.9c0,3.7-1.2,6.5-3.5,8.5c-2.3,2-5.1,3-8.4,3c-3.3,0-6.1-1-8.3-3C42.9,130.2,41.8,127.4,41.8,123.7z"/>
			<path class="st0" d="M68,110.3v-4.5h21.5v4.5h-7.9v24.5h-5.8v-24.5H68z"/>
			<path class="st0" d="M92.2,123.7v-17.9h5.9v17.9c0,2,0.5,3.5,1.5,4.5c1,1,2.5,1.5,4.3,1.5c1.9,0,3.3-0.5,4.4-1.5s1.5-2.5,1.5-4.5
				v-17.9h5.8v17.9c0,3.7-1.2,6.5-3.5,8.5c-2.3,2-5.1,3-8.4,3c-3.3,0-6.1-1-8.3-3C93.3,130.2,92.2,127.4,92.2,123.7z"/>
			<path class="st0" d="M126,123.3v11.6h-5.9v-29h10.7c3.4,0,5.9,0.8,7.8,2.5c1.8,1.7,2.7,3.7,2.7,6.2c0,1.8-0.6,3.5-1.7,5.1
				c-1.1,1.6-2.9,2.7-5.2,3.2l7.4,11.9h-6.9l-6.9-11.6H126z M126,110.3v8.5h4.8c1.5,0,2.6-0.4,3.4-1.1c0.8-0.8,1.2-1.8,1.2-3.1
				c0-1.3-0.4-2.3-1.2-3.1c-0.8-0.8-1.9-1.1-3.4-1.1H126z"/>
			<path class="st0" d="M162.2,105.7v4.5h-10.9v7.6h9.6v4.5h-9.6v8h10.9v4.5h-16.8v-29.1H162.2z"/>
			<path class="st0" d="M180.1,131c-2.8-2.8-4.2-6.3-4.2-10.5c0-4.2,1.4-7.7,4.2-10.5c2.8-2.8,6.3-4.1,10.4-4.1s7.6,1.4,10.4,4.1
				c2.8,2.8,4.2,6.3,4.2,10.5c0,4.2-1.4,7.7-4.2,10.5c-2.8,2.8-6.3,4.1-10.4,4.1S182.9,133.8,180.1,131z M198.7,129.3
				c2.2-2.2,3.3-5.2,3.3-8.8c0-3.6-1.1-6.6-3.3-8.8c-2.2-2.2-5-3.3-8.3-3.3s-6.1,1.1-8.3,3.3c-2.2,2.2-3.3,5.1-3.3,8.8
				c0,3.6,1.1,6.6,3.3,8.8s5,3.3,8.3,3.3C193.8,132.6,196.5,131.5,198.7,129.3z"/>
			<path class="st0" d="M208.1,134.8v-28.7h15.5v2.4H211v10.7h10v2.3h-10v13.3H208.1z"/>
			<path class="st0" d="M239.4,130.9c-2.9-2.8-4.3-6.3-4.3-10.6s1.4-7.8,4.3-10.6c2.9-2.8,6.4-4.2,10.5-4.2c3.2,0,6,0.8,8.4,2.4
				c2.5,1.6,4.2,3.9,5.3,6.8h-7c-1.3-2.5-3.5-3.8-6.7-3.8c-2.6,0-4.8,0.9-6.4,2.6c-1.6,1.7-2.5,4-2.5,6.9s0.8,5.2,2.5,6.9
				c1.6,1.7,3.8,2.6,6.4,2.6c3.1,0,5.3-1.3,6.7-3.8h7c-1.1,2.9-2.8,5.2-5.3,6.8c-2.5,1.6-5.3,2.4-8.4,2.4
				C245.8,135.1,242.2,133.7,239.4,130.9z"/>
			<path class="st0" d="M280.2,135.1c-4.2,0-7.7-1.4-10.6-4.2s-4.3-6.4-4.3-10.7c0-4.3,1.4-7.9,4.3-10.7c2.9-2.8,6.4-4.2,10.6-4.2
				c4.2,0,7.7,1.4,10.5,4.2s4.3,6.4,4.3,10.7c0,4.3-1.4,7.9-4.3,10.7S284.4,135.1,280.2,135.1z M286.6,127.2c1.6-1.7,2.5-4,2.5-6.9
				c0-2.9-0.8-5.2-2.5-6.9c-1.6-1.7-3.8-2.6-6.4-2.6c-2.6,0-4.8,0.9-6.4,2.6c-1.6,1.7-2.5,4-2.5,6.9s0.8,5.2,2.5,6.9
				c1.6,1.7,3.8,2.6,6.4,2.6C282.9,129.8,285,128.9,286.6,127.2z"/>
			<path class="st0" d="M329.7,105.8v29h-5.8v-18.3l-7.9,18.3h-4.2l-7.9-18.3v18.3H298v-29h6.5l9.3,21.5l9.3-21.5H329.7z"/>
			<path class="st0" d="M353.2,120.3c-0.7,0.9-1.8,1.6-3.3,2.2c-1.4,0.5-3.1,0.8-5,0.8h-4.8v11.6h-5.9v-29h10.7
				c3.4,0,5.9,0.8,7.8,2.5c1.8,1.7,2.7,3.7,2.7,5.9C355.4,116.5,354.7,118.5,353.2,120.3z M340.1,118.8h4.8c1.5,0,2.6-0.4,3.4-1.1
				c0.8-0.8,1.2-1.8,1.2-3.1c0-1.3-0.4-2.3-1.2-3.1c-0.8-0.8-1.9-1.1-3.4-1.1h-4.8V118.8z"/>
			<path class="st0" d="M358.1,123.7v-17.9h5.9v17.9c0,2,0.5,3.5,1.5,4.5s2.5,1.5,4.3,1.5s3.3-0.5,4.4-1.5s1.5-2.5,1.5-4.5v-17.9
				h5.8v17.9c0,3.7-1.2,6.5-3.5,8.5c-2.3,2-5.1,3-8.4,3c-3.3,0-6.1-1-8.3-3C359.2,130.2,358.1,127.4,358.1,123.7z"/>
			<path class="st0" d="M384.3,110.3v-4.5h21.5v4.5h-7.9v24.5h-5.8v-24.5H384.3z"/>
			<path class="st0" d="M408.6,134.8v-29h5.9v29H408.6z"/>
			<path class="st0" d="M438,105.7h5.9v29.1H438l-13.1-20.1v20.1H419v-29.1h5.9l13.1,20.1V105.7z"/>
			<path class="st0" d="M451.1,130.9c-2.9-2.8-4.3-6.3-4.3-10.6s1.4-7.8,4.3-10.6c2.9-2.8,6.4-4.2,10.5-4.2c3.2,0,6,0.8,8.4,2.4
				c2.5,1.6,4.2,3.9,5.3,6.8h-7c-1.3-2.5-3.5-3.8-6.7-3.8c-2.6,0-4.8,0.9-6.4,2.6c-1.6,1.7-2.5,4-2.5,6.9s0.8,5.2,2.5,6.9
				c1.6,1.7,3.7,2.6,6.1,2.6s4.3-0.6,5.7-1.8c1.4-1.2,2.2-2.8,2.6-4.8h-9.6v-4.4h15.9v4.4c-0.5,3.2-2.1,5.9-4.7,8.3
				s-5.9,3.6-9.8,3.6S454,133.7,451.1,130.9z"/>
		</g>
		<rect x="58.5" y="69.2" class="st4" width="376.7" height="20.8"/>
		<g>
			<path class="st0" d="M85.6,74.8v10.6h-1.7v-7.3l-3.2,7.3h-1.2l-3.2-7.3v7.3h-1.7V74.8h1.9l3.7,8.3l3.7-8.3H85.6z"/>
			<path class="st0" d="M94.6,74.8v1.4h-4.1v3.2h3.7v1.3h-3.7V84h4.1v1.4h-5.9V74.8H94.6z"/>
			<path class="st0" d="M104.7,74.8h1.7v10.6h-1.7l-5.2-7.9v7.9h-1.7V74.8h1.7l5.2,7.9V74.8z"/>
			<path class="st0" d="M112.9,76.1c-0.5,0-0.9,0.1-1.3,0.4c-0.3,0.3-0.5,0.6-0.5,1.2c0,0.5,0.2,0.9,0.6,1.2
				c0.4,0.3,0.9,0.5,1.4,0.6c0.5,0.1,1.1,0.3,1.6,0.4s1,0.4,1.4,0.9c0.4,0.4,0.6,1,0.6,1.8s-0.3,1.5-1,2.1s-1.5,0.9-2.7,0.9
				c-1.1,0-2-0.3-2.7-0.8c-0.7-0.5-1-1.2-1-2.1h1.9c0,0.5,0.2,0.8,0.5,1.1c0.3,0.3,0.8,0.4,1.3,0.4c0.6,0,1.1-0.2,1.4-0.5
				c0.3-0.3,0.5-0.7,0.5-1.1c0-0.4-0.1-0.7-0.3-1c-0.2-0.2-0.5-0.4-0.8-0.5c-0.3-0.1-0.7-0.2-1.1-0.3c-0.4-0.1-0.8-0.2-1.2-0.3
				c-0.4-0.1-0.8-0.3-1.1-0.5c-0.3-0.2-0.6-0.5-0.8-0.8c-0.2-0.4-0.3-0.8-0.3-1.4c0-0.9,0.3-1.7,1-2.2c0.7-0.6,1.5-0.8,2.6-0.8
				s1.9,0.2,2.5,0.7c0.6,0.5,1,1.2,1.1,2.1h-1.9c0-0.4-0.2-0.7-0.5-1C113.8,76.2,113.4,76.1,112.9,76.1z"/>
			<path class="st0" d="M131.1,74.8v1.4H127v3.2h3.7v1.3H127V84h4.1v1.4h-5.9V74.8H131.1z"/>
			<path class="st0" d="M133.6,76.1v-1.4h7.4v1.4h-2.8v9.2h-1.7v-9.2H133.6z"/>
			<path class="st0" d="M160.3,74.8v10.6h-1.7v-7.3l-3.2,7.3h-1.2l-3.2-7.3v7.3h-1.7V74.8h1.9l3.7,8.3l3.7-8.3H160.3z"/>
			<path class="st0" d="M170.6,85.4l-0.8-2.2h-4.4l-0.8,2.2h-1.8l3.8-10.6h2l3.8,10.6H170.6z M165.9,81.9h3.5l-1.7-5L165.9,81.9z"/>
			<path class="st0" d="M182,74.8h1.7v10.6H182l-5.2-7.9v7.9H175V74.8h1.7l5.2,7.9V74.8z"/>
			<path class="st0" d="M186.9,81.5v-6.7h1.7v6.7c0,0.8,0.2,1.4,0.6,1.8c0.4,0.4,1,0.6,1.8,0.6c0.8,0,1.3-0.2,1.8-0.6
				c0.4-0.4,0.6-1,0.6-1.8v-6.7h1.7v6.7c0,1.3-0.4,2.3-1.2,3c-0.8,0.7-1.8,1-3,1s-2.2-0.3-2.9-1C187.3,83.8,186.9,82.8,186.9,81.5z"
				/>
			<path class="st0" d="M201.7,76.1c-0.5,0-0.9,0.1-1.3,0.4c-0.3,0.3-0.5,0.6-0.5,1.2c0,0.5,0.2,0.9,0.6,1.2
				c0.4,0.3,0.9,0.5,1.4,0.6s1.1,0.3,1.6,0.4s1,0.4,1.4,0.9s0.6,1,0.6,1.8s-0.3,1.5-1,2.1c-0.7,0.6-1.5,0.9-2.7,0.9
				c-1.1,0-2-0.3-2.7-0.8c-0.7-0.5-1-1.2-1-2.1h1.9c0,0.5,0.2,0.8,0.5,1.1c0.3,0.3,0.8,0.4,1.3,0.4c0.6,0,1.1-0.2,1.4-0.5
				c0.3-0.3,0.5-0.7,0.5-1.1c0-0.4-0.1-0.7-0.3-1c-0.2-0.2-0.5-0.4-0.8-0.5c-0.3-0.1-0.7-0.2-1.1-0.3c-0.4-0.1-0.8-0.2-1.2-0.3
				c-0.4-0.1-0.8-0.3-1.1-0.5c-0.3-0.2-0.6-0.5-0.8-0.8c-0.2-0.4-0.3-0.8-0.3-1.4c0-0.9,0.3-1.7,1-2.2c0.7-0.6,1.5-0.8,2.6-0.8
				c1.1,0,1.9,0.2,2.5,0.7c0.6,0.5,1,1.2,1.1,2.1h-1.9c0-0.4-0.2-0.7-0.5-1C202.6,76.2,202.2,76.1,201.7,76.1z"/>
			<path class="st0" d="M222.2,79.1v1.6h-3.1v3.1h-1.6v-3.1h-3.1v-1.6h3.1V76h1.6v3.1H222.2z"/>
			<path class="st0" d="M231.3,85.4V74.8h1.7v10.6H231.3z"/>
			<path class="st0" d="M243.2,74.8h1.7v10.6h-1.7l-5.2-7.9v7.9h-1.7V74.8h1.7l5.2,7.9V74.8z"/>
			<path class="st0" d="M247.6,76.1v-1.4h7.4v1.4h-2.8v9.2h-1.7v-9.2H247.6z"/>
			<path class="st0" d="M263.5,74.8v1.4h-4.1v3.2h3.7v1.3h-3.7V84h4.1v1.4h-5.9V74.8H263.5z"/>
			<path class="st0" d="M266.5,74.8h1.7v9.3h3.6v1.3h-5.3V74.8z"/>
			<path class="st0" d="M274.2,74.8h1.7v9.3h3.6v1.3h-5.3V74.8z"/>
			<path class="st0" d="M281.9,85.4V74.8h1.7v10.6H281.9z"/>
			<path class="st0" d="M291.6,85.5c-1.4,0-2.7-0.5-3.7-1.5c-1-1-1.6-2.3-1.6-3.9s0.5-2.9,1.6-3.9s2.3-1.5,3.8-1.5
				c1.1,0,2.1,0.3,3,0.8c0.9,0.6,1.5,1.3,1.9,2.4h-2.1c-0.6-1.1-1.5-1.6-2.8-1.6c-1.1,0-1.9,0.4-2.6,1.1c-0.7,0.7-1,1.6-1,2.8
				c0,1.2,0.3,2.1,1,2.8c0.7,0.7,1.5,1.1,2.5,1.1c1,0,1.8-0.3,2.4-0.8c0.6-0.5,1-1.3,1.1-2.2h-4v-1.4h5.8v1.4
				c-0.2,1.3-0.7,2.3-1.7,3.2C294.2,85,293,85.5,291.6,85.5z"/>
			<path class="st0" d="M305.4,74.8v1.4h-4.1v3.2h3.7v1.3h-3.7V84h4.1v1.4h-5.9V74.8H305.4z"/>
			<path class="st0" d="M315.4,74.8h1.7v10.6h-1.7l-5.2-7.9v7.9h-1.7V74.8h1.7l5.2,7.9V74.8z"/>
			<path class="st0" d="M319.8,76.1v-1.4h7.4v1.4h-2.8v9.2h-1.7v-9.2H319.8z"/>
			<path class="st0" d="M346.5,74.8v10.6h-1.7v-7.3l-3.2,7.3h-1.2l-3.2-7.3v7.3h-1.7V74.8h1.9l3.7,8.3l3.7-8.3H346.5z"/>
			<path class="st0" d="M356.9,85.4l-0.8-2.2h-4.4l-0.8,2.2h-1.8l3.8-10.6h2l3.8,10.6H356.9z M352.1,81.9h3.5l-1.7-5L352.1,81.9z"/>
			<path class="st0" d="M362.3,84c-1-1-1.6-2.3-1.6-3.9s0.5-2.9,1.6-3.9s2.3-1.5,3.8-1.5c1.1,0,2.1,0.3,3,0.8
				c0.9,0.6,1.5,1.3,1.9,2.4h-2.1c-0.6-1.1-1.5-1.6-2.8-1.6c-1.1,0-1.9,0.4-2.6,1.1c-0.7,0.7-1,1.6-1,2.8c0,1.2,0.3,2.1,1,2.8
				c0.7,0.7,1.5,1.1,2.6,1.1c1.3,0,2.3-0.5,2.8-1.6h2.1c-0.4,1-1,1.8-1.9,2.3s-1.9,0.8-3,0.8C364.6,85.5,363.3,85,362.3,84z"/>
			<path class="st0" d="M380.7,74.8h1.7v10.6h-1.7v-4.7h-5v4.7H374V74.8h1.7v4.6h5V74.8z"/>
			<path class="st0" d="M385.6,85.4V74.8h1.7v10.6H385.6z"/>
			<path class="st0" d="M397.5,74.8h1.7v10.6h-1.7l-5.2-7.9v7.9h-1.7V74.8h1.7l5.2,7.9V74.8z"/>
			<path class="st0" d="M408.3,74.8v1.4h-4.1v3.2h3.7v1.3h-3.7V84h4.1v1.4h-5.9V74.8H408.3z"/>
			<path class="st0" d="M414.7,76.1c-0.5,0-0.9,0.1-1.3,0.4c-0.3,0.3-0.5,0.6-0.5,1.2c0,0.5,0.2,0.9,0.6,1.2
				c0.4,0.3,0.9,0.5,1.4,0.6s1.1,0.3,1.6,0.4s1,0.4,1.4,0.9c0.4,0.4,0.6,1,0.6,1.8s-0.3,1.5-1,2.1c-0.7,0.6-1.5,0.9-2.7,0.9
				c-1.1,0-2-0.3-2.7-0.8c-0.7-0.5-1-1.2-1-2.1h1.9c0,0.5,0.2,0.8,0.5,1.1c0.3,0.3,0.8,0.4,1.3,0.4c0.6,0,1.1-0.2,1.4-0.5
				c0.3-0.3,0.5-0.7,0.5-1.1c0-0.4-0.1-0.7-0.3-1c-0.2-0.2-0.5-0.4-0.8-0.5c-0.3-0.1-0.7-0.2-1.1-0.3c-0.4-0.1-0.8-0.2-1.2-0.3
				c-0.4-0.1-0.8-0.3-1.1-0.5c-0.3-0.2-0.6-0.5-0.8-0.8c-0.2-0.4-0.3-0.8-0.3-1.4c0-0.9,0.3-1.7,1-2.2c0.7-0.6,1.5-0.8,2.6-0.8
				c1.1,0,1.9,0.2,2.5,0.7c0.6,0.5,1,1.2,1.1,2.1h-1.9c0-0.4-0.2-0.7-0.5-1C415.6,76.2,415.2,76.1,414.7,76.1z"/>
		</g>
	</g>
	<path class="st5" d="M217.5,192.5c0,0,18,5.2,32.2,0c14.3-5.2,25.5,2.3,25.5,2.3"/>
</g>
</svg>
