<svg width="512" height="512" viewBox="0 0 512 512" fill="none" xmlns="http://www.w3.org/2000/svg">
    <g clip-path="url(#clip0)">
        <path d="M453.333 426.667H364.16C355.328 426.667 348.16 419.499 348.16 410.667C348.16 401.835 355.328 394.667 364.16 394.667H442.112L473.152 309.333H38.8265L69.8665 394.667H147.84C156.672 394.667 163.84 401.835 163.84 410.667C163.84 419.499 156.672 426.667 147.84 426.667H58.6665C51.9465 426.667 45.9305 422.464 43.6265 416.128L0.959879 298.795C-0.810788 293.888 -0.106788 288.427 2.90121 284.139C5.88788 279.872 10.7732 277.333 15.9999 277.333H496C501.227 277.333 506.112 279.872 509.099 284.16C512.107 288.427 512.811 293.909 511.04 298.816L468.373 416.149C466.069 422.464 460.053 426.667 453.333 426.667V426.667Z" fill="#A31F34"/>
        <path d="M346.688 512C345.877 512 345.067 511.936 344.235 511.808C335.509 510.464 329.515 502.293 330.859 493.568L349.355 373.333H162.645L181.141 493.568C182.485 502.315 176.491 510.464 167.765 511.808C159.04 513.237 150.848 507.179 149.525 498.432L128.192 359.765C127.488 355.157 128.811 350.443 131.861 346.901C134.912 343.36 139.328 341.333 144 341.333H368C372.672 341.333 377.109 343.381 380.139 346.923C383.168 350.464 384.512 355.157 383.808 359.787L362.475 498.453C361.28 506.347 354.453 512 346.688 512V512Z" fill="#A31F34"/>
        <path d="M480 304C471.168 304 464 296.832 464 288C464 245.781 441.429 205.824 405.099 183.701C397.547 179.093 395.157 169.259 399.765 161.707C404.373 154.155 414.208 151.765 421.76 156.373C467.541 184.277 495.979 234.709 495.979 288C496 296.832 488.832 304 480 304Z" fill="#A31F34"/>
        <path d="M394.667 192C412.34 192 426.667 177.673 426.667 160C426.667 142.327 412.34 128 394.667 128C376.994 128 362.667 142.327 362.667 160C362.667 177.673 376.994 192 394.667 192Z" fill="#A31F34"/>
        <path d="M256 170.667C208.939 170.667 170.667 132.395 170.667 85.3333C170.667 38.272 208.939 0 256 0C303.061 0 341.333 38.272 341.333 85.3333C341.333 132.395 303.061 170.667 256 170.667ZM256 32C226.581 32 202.667 55.936 202.667 85.3333C202.667 114.731 226.581 138.667 256 138.667C285.419 138.667 309.333 114.731 309.333 85.3333C309.333 55.936 285.419 32 256 32Z" fill="#A31F34"/>
        <path d="M416 309.333C407.168 309.333 400 302.165 400 293.333C400 255.104 368.896 224 330.667 224H181.333C143.104 224 112 255.104 112 293.333C112 302.165 104.832 309.333 96 309.333C87.168 309.333 80 302.165 80 293.333C80 237.461 125.461 192 181.333 192H330.667C386.539 192 432 237.461 432 293.333C432 302.165 424.832 309.333 416 309.333Z" fill="#A31F34"/>
    </g>
    <defs>
        <clipPath id="clip0">
        <rect width="512" height="512" fill="white"/>
        </clipPath>
    </defs>
</svg>
