<?xml version="1.0" encoding="utf-8"?>
<!-- Generator: Adobe Illustrator 24.1.3, SVG Export Plug-In . SVG Version: 6.00 Build 0)  -->
<svg version="1.1" id="Layer_1" xmlns="http://www.w3.org/2000/svg" xmlns:xlink="http://www.w3.org/1999/xlink" x="0px" y="0px"
	 viewBox="0 0 453.1 252.5" style="enable-background:new 0 0 453.1 252.5;" xml:space="preserve">
<style type="text/css">
	.st0{fill:#FFFFFF;}
	.st1{fill:none;stroke:#FFFFFF;stroke-miterlimit:10;}
	.st2{fill-rule:evenodd;clip-rule:evenodd;fill:#FFFFFF;}
</style>
<g>
	<g>
		<path class="st0" d="M213.9,5.4h1.1l3.1,4.5l3.1-4.5h1.1v7.9h-1.6V8.8l-2.3,3.3h-0.5l-2.3-3.3v4.5H214L213.9,5.4L213.9,5.4z"/>
		<path class="st0" d="M225.6,5.4v7.9H224V5.4H225.6z"/>
		<path class="st0" d="M226.6,6.9V5.4h6.1v1.5h-2.3v6.4h-1.6V6.9H226.6z"/>
		<path class="st0" d="M233.3,9.3c0-2.4,1.9-4.1,4.1-4.1c1.5,0,2.7,0.7,3.4,1.7L240,7.6c-0.6-0.8-1.5-1.3-2.6-1.3
			c-1.7,0-3,1.3-3,3.1s1.3,3,3,3c1.1,0,2-0.5,2.6-1.3l0.8,0.6c-0.7,1-2,1.7-3.5,1.7C235.2,13.4,233.3,11.8,233.3,9.3z"/>
		<path class="st0" d="M248.4,5.4v7.9h-0.6l-4.7-5.6v5.6H242V5.4h0.5l4.8,5.6V5.4H248.4z"/>
		<path class="st0" d="M249.9,9.3c0-2.4,1.9-4.1,4.1-4.1c1.5,0,2.7,0.7,3.4,1.7l-0.8,0.7c-0.6-0.8-1.5-1.3-2.6-1.3
			c-1.7,0-3,1.3-3,3.1s1.3,3,3,3c1.1,0,2-0.5,2.6-1.3l0.8,0.6c-0.7,1-2,1.7-3.5,1.7C251.8,13.4,249.9,11.8,249.9,9.3z"/>
		<path class="st0" d="M213.8,18.4h0.5l2.6,3.8l2.6-3.8h0.5v6.1h-1v-3.9l-2,2.9h-0.3l-2-2.9v3.9h-0.9L213.8,18.4L213.8,18.4z"/>
		<path class="st0" d="M222.5,18.4v6.1h-1v-6.1H222.5z"/>
		<path class="st0" d="M223.3,19.3v-0.9h4.6v0.9h-1.8v5.2h-1v-5.2H223.3z"/>
		<path class="st0" d="M230.1,21.5c0-1.9,1.4-3.2,3.2-3.2c1.1,0,2.1,0.5,2.6,1.3l-0.7,0.6c-0.4-0.6-1.1-1-1.9-1
			c-1.2,0-2.2,1-2.2,2.3s1,2.2,2.2,2.2c0.8,0,1.5-0.4,2-1l0.7,0.6c-0.6,0.8-1.5,1.3-2.7,1.3C231.6,24.6,230.1,23.4,230.1,21.5z"/>
		<path class="st0" d="M236.9,18.4h0.9v5.2h3.2v0.9h-4.2v-6.1H236.9z"/>
		<path class="st0" d="M241.8,22.4v-4h0.9v3.9c0,0.9,0.5,1.4,1.3,1.4s1.3-0.5,1.3-1.4v-3.9h1v4c0,1.5-1,2.2-2.3,2.2
			C242.8,24.6,241.8,23.8,241.8,22.4z"/>
		<path class="st0" d="M252.3,22.8c0,0.9-0.7,1.8-1.9,1.8h-2.6v-6.1h2.5c1.1,0,1.7,0.8,1.7,1.5c0,0.5-0.3,1.1-0.8,1.3
			C251.9,21.4,252.3,22,252.3,22.8z M248.7,19.3v1.6h1.4c0.6,0,0.9-0.4,0.9-0.8s-0.3-0.8-0.9-0.8L248.7,19.3L248.7,19.3z
			 M251.3,22.7c0-0.5-0.4-1-1.1-1h-1.5v2h1.5C250.9,23.6,251.3,23.2,251.3,22.7z"/>
		<path class="st0" d="M255.1,21.5c0-1.8,1.4-3.2,3.2-3.2c1.8,0,3.2,1.4,3.2,3.2c0,1.8-1.4,3.2-3.2,3.2
			C256.4,24.6,255.1,23.2,255.1,21.5z M260.4,21.5c0-1.3-1-2.2-2.2-2.2s-2.2,1-2.2,2.2c0,1.3,1,2.2,2.2,2.2
			C259.5,23.7,260.4,22.7,260.4,21.5z"/>
		<path class="st0" d="M262.5,18.4h3.9v0.9h-2.9V21h2.5v0.9h-2.5v2.6h-1V18.4L262.5,18.4z"/>
		<path class="st0" d="M218.9,26.7v6.1h-0.6l-3.5-4.2v4.2h-0.9v-6.1h0.5l3.6,4.2v-4.2C218,26.7,218.9,26.7,218.9,26.7z"/>
		<path class="st0" d="M219.9,29.8c0-1.8,1.4-3.2,3.2-3.2s3.2,1.4,3.2,3.2c0,1.8-1.4,3.2-3.2,3.2C221.3,32.9,219.9,31.5,219.9,29.8z
			 M225.3,29.8c0-1.3-1-2.2-2.2-2.2s-2.2,1-2.2,2.2c0,1.3,0.9,2.2,2.2,2.2C224.4,32,225.3,31,225.3,29.8z"/>
		<path class="st0" d="M229.2,30.4h-0.8v2.4h-0.9v-6.1h2.2c1.3,0,2,0.9,2,1.9c0,0.8-0.4,1.5-1.4,1.8l1.6,2.5h-1.1L229.2,30.4z
			 M228.4,29.5h1.1c0.8,0,1.1-0.5,1.1-1s-0.3-1-1-1h-1.2L228.4,29.5L228.4,29.5z"/>
		<path class="st0" d="M232.1,27.6v-0.9h4.6v0.9h-1.8v5.2h-1v-5.2C233.9,27.6,232.1,27.6,232.1,27.6z"/>
		<path class="st0" d="M237.5,26.7h1v2.5h2.9v-2.5h0.9v6.1h-0.9v-2.7h-2.9v2.7h-1V26.7z"/>
		<path class="st0" d="M243.8,26.7h3.9v0.9h-3v1.7h2.8v0.9h-2.8V32h3v0.9h-3.9V26.7z"/>
		<path class="st0" d="M250.7,30.4h-0.8v2.4H249v-6.1h2.2c1.3,0,2,0.9,2,1.9c0,0.8-0.4,1.5-1.4,1.8l1.6,2.5h-1.1L250.7,30.4z
			 M249.9,29.5h1.1c0.8,0,1.1-0.5,1.1-1s-0.3-1-1-1h-1.2L249.9,29.5L249.9,29.5z"/>
		<path class="st0" d="M259.4,26.7v6.1h-0.6l-3.5-4.2v4.2h-0.9v-6.1h0.5l3.6,4.2v-4.2C258.5,26.7,259.4,26.7,259.4,26.7z"/>
		<path class="st0" d="M262.6,29.8c0-1.9,1.5-3.2,3.2-3.2c1.1,0,2.1,0.5,2.6,1.3l-0.7,0.6c-0.5-0.6-1.1-1-1.9-1
			c-1.2,0-2.2,1-2.2,2.3s1,2.2,2.2,2.2c0.8,0,1.5-0.4,2-1l0.7,0.6c-0.5,0.8-1.5,1.3-2.7,1.3C264,32.9,262.6,31.7,262.6,29.8z"/>
		<path class="st0" d="M272.5,31.3h-2.3l-0.6,1.5h-1l2.4-6.1h0.6l2.4,6.1h-1L272.5,31.3z M270.5,30.4h1.7l-0.8-2.2L270.5,30.4z"/>
		<path class="st0" d="M274.9,26.7h1v5.2h3.2v0.9h-4.2V26.7z"/>
		<path class="st0" d="M280.9,26.7v6.1h-1v-6.1C279.9,26.7,280.9,26.7,280.9,26.7z"/>
		<path class="st0" d="M282.4,26.7h3.9v0.9h-2.9v1.7h2.5v0.9h-2.5v2.6h-1V26.7L282.4,26.7z"/>
		<path class="st0" d="M286.8,29.8c0-1.8,1.4-3.2,3.2-3.2c1.8,0,3.2,1.4,3.2,3.2c0,1.8-1.4,3.2-3.2,3.2
			C288.1,32.9,286.8,31.5,286.8,29.8z M292.1,29.8c0-1.3-1-2.2-2.2-2.2s-2.2,1-2.2,2.2c0,1.3,1,2.2,2.2,2.2
			C291.2,32,292.1,31,292.1,29.8z"/>
		<path class="st0" d="M296,30.4h-0.8v2.4h-1v-6.1h2.2c1.3,0,2,0.9,2,1.9c0,0.8-0.4,1.5-1.4,1.8l1.6,2.5h-1.1L296,30.4z M295.2,29.5
			h1.1c0.8,0,1.1-0.5,1.1-1s-0.3-1-1-1h-1.2V29.5z"/>
		<path class="st0" d="M304.7,26.7v6.1h-0.6l-3.5-4.2v4.2h-1v-6.1h0.5l3.6,4.2v-4.2C303.7,26.7,304.7,26.7,304.7,26.7z"/>
		<path class="st0" d="M307.1,26.7v6.1h-1v-6.1C306.1,26.7,307.1,26.7,307.1,26.7z"/>
		<path class="st0" d="M311.8,31.3h-2.3l-0.6,1.5h-1l2.4-6.1h0.6l2.4,6.1h-1L311.8,31.3z M309.9,30.4h1.7l-0.8-2.2L309.9,30.4z"/>
	</g>
	<line class="st1" x1="201.5" y1="0" x2="201.5" y2="39.1"/>
	<g id="XMLID_4_">
		<rect id="XMLID_198_" x="140.7" y="5.9" class="st2" width="5.4" height="25.4"/>
		<rect id="XMLID_196_" x="158" y="5.9" class="st2" width="5.4" height="25.4"/>
		<rect id="XMLID_194_" x="149.3" y="5.9" class="st2" width="5.4" height="17.2"/>
		<rect id="XMLID_192_" x="166.8" y="14.1" class="st2" width="5.4" height="17.2"/>
		<rect id="XMLID_190_" x="175.7" y="5.9" class="st2" width="14.1" height="5"/>
		<rect id="XMLID_187_" x="166.8" y="5.9" class="st2" width="5.4" height="5"/>
		<rect id="XMLID_185_" x="175.7" y="14.1" class="st2" width="5.4" height="17.2"/>
	</g>
</g>
<g>
	<path class="st0" d="M24.5,220.6l-1.9-5.6h-12l-1.9,5.6H0L11.7,187h9.9l11.6,33.6H24.5z M12.6,208.7h7.9l-4-11.9L12.6,208.7z"/>
	<path class="st0" d="M35.3,220.6V187h8.2v33.5h-8.2V220.6z"/>
	<path class="st0" d="M61.2,220.6V187h8.2v33.5h-8.2V220.6z"/>
	<path class="st0" d="M76.2,217.1c-2.4-2.6-3.5-5.8-3.5-9.8s1.2-7.3,3.5-9.8c2.4-2.6,5.2-3.9,8.6-3.9s6,1.3,7.8,3.8v-12.2h8.2v35.4
		h-8.2v-3.9c-2,2.8-4.6,4.2-7.9,4.2C81.3,220.9,78.5,219.6,76.2,217.1z M90.8,212.1c1.2-1.1,1.8-2.8,1.8-4.9c0-2.1-0.6-3.7-1.8-4.9
		s-2.5-1.7-4.1-1.7s-2.9,0.6-4.1,1.7s-1.8,2.8-1.8,4.9c0,2.1,0.6,3.7,1.8,4.9s2.5,1.7,4.1,1.7S89.6,213.3,90.8,212.1z"/>
	<path class="st0" d="M108.1,217.1c-2.7-2.5-4-5.8-4-9.9s1.3-7.4,4-9.9s6-3.7,9.9-3.7s7.3,1.2,9.9,3.7s4,5.8,4,9.9s-1.3,7.4-4,9.9
		c-2.6,2.5-5.9,3.8-9.9,3.8C114.2,220.9,110.8,219.7,108.1,217.1z M122,212.2c1.1-1.1,1.6-2.8,1.6-5s-0.6-3.8-1.7-4.9
		c-1.1-1.1-2.4-1.7-4-1.7s-2.8,0.6-3.9,1.7c-1.1,1.1-1.7,2.8-1.7,4.9s0.6,3.8,1.7,5c1.1,1.1,2.5,1.7,4,1.7S120.9,213.4,122,212.2z"
		/>
	<path class="st0" d="M135.3,220.6v-35.4h8.2v35.4H135.3z"/>
	<path class="st0" d="M164.2,216c-3.3-3.2-5-7.3-5-12.3s1.7-9.1,5-12.3s7.4-4.9,12.2-4.9c3.7,0,7,1,9.9,3s4.9,4.7,6.1,8.2h-9.8
		c-1.3-2.4-3.3-3.7-6.1-3.7s-5,0.9-6.6,2.6s-2.4,4.1-2.4,7s0.8,5.3,2.4,7s3.8,2.6,6.6,2.6s4.8-1.2,6.1-3.7h9.8
		c-1.1,3.5-3.2,6.2-6.1,8.2c-2.9,2-6.2,3-9.9,3C171.6,220.9,167.5,219.2,164.2,216z"/>
	<path class="st0" d="M197.9,217.1c-2.7-2.5-4-5.8-4-9.9s1.3-7.4,4-9.9s6-3.7,9.9-3.7s7.3,1.2,9.9,3.7s4,5.8,4,9.9s-1.3,7.4-4,9.9
		c-2.6,2.5-5.9,3.8-9.9,3.8C203.9,220.9,200.6,219.7,197.9,217.1z M211.7,212.2c1.1-1.1,1.6-2.8,1.6-5s-0.6-3.8-1.7-4.9
		c-1.1-1.1-2.4-1.7-4-1.7s-2.8,0.6-3.9,1.7c-1.1,1.1-1.6,2.8-1.6,4.9s0.6,3.8,1.7,5c1.1,1.1,2.5,1.7,4,1.7S210.7,213.4,211.7,212.2z
		"/>
	<path class="st0" d="M233.2,193.9v3.9c1.7-2.8,4.4-4.2,8.1-4.2c2,0,3.7,0.4,5.3,1.3s2.8,2.2,3.6,3.8c1-1.6,2.3-2.8,3.9-3.8
		s3.3-1.4,5.3-1.4c3.3,0,5.8,1,7.7,3s2.9,4.8,2.9,8.4v15.6h-8.1V206c0-1.7-0.5-3.1-1.4-4s-2.2-1.4-3.8-1.4s-2.8,0.5-3.8,1.4
		s-1.4,2.3-1.4,4v14.5h-8.1V206c0-1.7-0.4-3.1-1.4-4s-2.2-1.4-3.8-1.4s-2.8,0.5-3.8,1.4s-1.4,2.3-1.4,4v14.5h-8v-26.7L233.2,193.9
		L233.2,193.9z"/>
	<path class="st0" d="M283.1,197.4c1.8-2.5,4.4-3.8,7.8-3.8s6.3,1.3,8.6,3.9c2.4,2.6,3.5,5.8,3.5,9.8s-1.2,7.3-3.5,9.8
		c-2.4,2.6-5.2,3.8-8.5,3.8s-6-1.4-7.9-4.2v16.6h-8.2v-39.4h8.2V197.4z M293,212.1c1.2-1.1,1.8-2.8,1.8-4.9s-0.6-3.7-1.8-4.9
		c-1.2-1.1-2.5-1.7-4.1-1.7s-2.9,0.6-4.1,1.7c-1.2,1.1-1.8,2.8-1.8,4.9s0.6,3.7,1.8,4.9c1.2,1.1,2.5,1.7,4.1,1.7
		C290.4,213.8,291.8,213.3,293,212.1z"/>
	<path class="st0" d="M317.7,220.9c-3.9,0-7.1-1.3-9.6-3.8s-3.7-5.8-3.7-10s1.2-7.4,3.7-9.9s5.7-3.7,9.6-3.7s7.2,1.2,9.8,3.6
		s3.9,5.8,3.9,10.1c0,0.9-0.1,1.8-0.2,2.6h-18.4c0.2,1.2,0.7,2.1,1.6,2.9c0.9,0.8,1.9,1.1,2.9,1.1s1.8-0.1,2.3-0.3s0.9-0.4,1.1-0.6
		c0.2-0.2,0.5-0.6,0.9-1h8.8c-0.8,2.7-2.3,4.8-4.6,6.5C323.5,220.1,320.8,220.9,317.7,220.9z M321.1,201.8c-1-0.8-2.1-1.2-3.4-1.2
		s-2.4,0.4-3.3,1.2s-1.5,1.8-1.7,3h10C322.6,203.6,322.1,202.6,321.1,201.8z"/>
	<path class="st0" d="M346,213.6h2.9v6.9h-4.2c-3,0-5.3-0.7-7-2c-1.6-1.3-2.5-3.6-2.5-6.8v-11.1h-2.5v-6.8h2.5v-6.5h8.2v6.5h5.4v6.8
		h-5.4v11.1C343.5,213,344.3,213.6,346,213.6z"/>
	<path class="st0" d="M360,190.9c-0.9,0.9-2,1.4-3.4,1.4s-2.5-0.5-3.4-1.4s-1.4-2.1-1.4-3.4c0-1.4,0.5-2.5,1.4-3.4s2-1.4,3.4-1.4
		s2.5,0.5,3.4,1.4s1.4,2.1,1.4,3.4S360.9,190,360,190.9z M352.5,220.6v-26.7h8.2v26.7H352.5z"/>
	<path class="st0" d="M377.3,213.6h2.9v6.9H376c-3,0-5.3-0.7-7-2c-1.6-1.3-2.5-3.6-2.5-6.8v-11.1H364v-6.8h2.5v-6.5h8.2v6.5h5.4v6.8
		h-5.4v11.1C374.8,213,375.6,213.6,377.3,213.6z"/>
	<path class="st0" d="M391.3,190.9c-0.9,0.9-2,1.4-3.4,1.4s-2.5-0.5-3.4-1.4s-1.4-2.1-1.4-3.4c0-1.4,0.5-2.5,1.4-3.4s2-1.4,3.4-1.4
		s2.5,0.5,3.4,1.4s1.4,2.1,1.4,3.4C392.7,188.8,392.3,190,391.3,190.9z M383.9,220.6v-26.7h8.2v26.7H383.9z"/>
	<path class="st0" d="M399.4,217.1c-2.7-2.5-4-5.8-4-9.9s1.3-7.4,4-9.9s6-3.7,9.9-3.7s7.3,1.2,9.9,3.7s4,5.8,4,9.9s-1.3,7.4-4,9.9
		c-2.6,2.5-5.9,3.8-9.9,3.8S402.1,219.7,399.4,217.1z M413.3,212.2c1.1-1.1,1.6-2.8,1.6-5s-0.6-3.8-1.7-4.9c-1.1-1.1-2.4-1.7-4-1.7
		s-2.8,0.6-3.9,1.7c-1.1,1.1-1.6,2.8-1.6,4.9s0.6,3.8,1.7,5s2.5,1.7,4,1.7S412.2,213.4,413.3,212.2z"/>
	<path class="st0" d="M434.8,193.9v3.9c1.7-2.8,4.4-4.2,8.1-4.2c3.1,0,5.5,1,7.4,3.1c1.9,2,2.8,4.8,2.8,8.3v15.6H445v-14.5
		c0-1.7-0.5-3.1-1.4-4s-2.2-1.4-3.8-1.4s-2.8,0.5-3.8,1.4s-1.4,2.3-1.4,4v14.5h-8.2v-26.7L434.8,193.9L434.8,193.9z"/>
</g>
<g>
	<g>
		<path class="st0" d="M158.6,106.9l-1.8-5.6h-11.9l-1.8,5.6h-8.6l11.6-33.4h9.9l11.5,33.4H158.6z M146.8,95.2h7.9l-3.9-11.8
			L146.8,95.2z"/>
		<path class="st0" d="M167.9,106.9V73.7h8.1v33.3H167.9z"/>
		<path class="st0" d="M190.7,106.9V73.7h21.7v6.2h-13.6V87h10.1v6.2h-10.1v13.8H190.7z"/>
		<path class="st0" d="M217.6,102.4c-3.3-3.2-5-7.3-5-12.2c0-4.9,1.7-9,5-12.2c3.3-3.2,7.3-4.8,12.1-4.8s8.8,1.6,12.1,4.8
			c3.3,3.2,4.9,7.3,4.9,12.2c0,4.9-1.6,9-4.9,12.2c-3.3,3.2-7.3,4.8-12.1,4.8C225,107.3,220.9,105.6,217.6,102.4z M236.1,97.2
			c1.6-1.7,2.4-4.1,2.4-7c0-2.9-0.8-5.2-2.4-7c-1.6-1.7-3.7-2.6-6.4-2.6c-2.7,0-4.8,0.9-6.4,2.6c-1.6,1.7-2.4,4.1-2.4,7
			c0,2.9,0.8,5.2,2.4,7c1.6,1.7,3.7,2.6,6.4,2.6C232.4,99.8,234.5,98.9,236.1,97.2z"/>
		<path class="st0" d="M256.8,94v12.9h-8.1V73.7h13.1c3.9,0,6.9,1,9,3c2.1,2,3.2,4.4,3.2,7.2c0,1.9-0.6,3.8-1.8,5.6
			c-1.2,1.8-3.1,3.1-5.7,3.9l8.2,13.6h-9.5L257.7,94H256.8z M256.8,79.8v8h5c1.2,0,2.2-0.4,2.9-1.1c0.7-0.7,1.1-1.7,1.1-2.9
			c0-1.2-0.4-2.2-1.1-2.9c-0.7-0.8-1.7-1.1-2.9-1.1H256.8z"/>
		<path class="st0" d="M309,106.9l-1.8-5.6h-11.9l-1.8,5.6h-8.6l11.6-33.4h9.9l11.5,33.4H309z M297.3,95.2h7.9l-3.9-11.8L297.3,95.2
			z"/>
		<path class="st0" d="M64.4,115h14.5c3.4,0,6.1,0.8,8.1,2.5c2,1.6,3,3.7,3,6.3c0,3.8-2.2,6.3-6.6,7.6c2.2,0.3,4,1.2,5.4,2.8
			c1.3,1.5,2,3.4,2,5.4c0,2.7-1,4.8-2.9,6.3c-1.9,1.6-4.7,2.3-8.1,2.3H64.4V115z M72.5,121.2v7.2h5.3c1.2,0,2.1-0.3,2.8-0.9
			c0.7-0.6,1.1-1.5,1.1-2.7c0-1.2-0.4-2.1-1.1-2.7c-0.7-0.6-1.7-0.9-2.8-0.9H72.5z M72.5,142.1h6.1c1.1,0,2-0.3,2.7-1
			c0.7-0.7,1.1-1.6,1.1-2.7c0-1.2-0.3-2.1-1-2.8c-0.7-0.7-1.6-1-2.7-1h-6.2V142.1z"/>
		<path class="st0" d="M113.2,114.9v6.2h-12v7.2h10.6v6.2h-10.6v7.7h12v6.2H93v-33.4H113.2z"/>
		<path class="st0" d="M114.5,121.2V115h26.3v6.2h-9.1v27.1h-8.1v-27.1H114.5z"/>
		<path class="st0" d="M141,121.2V115h26.3v6.2h-9.1v27.1H150v-27.1H141z"/>
		<path class="st0" d="M188.9,114.9v6.2h-12v7.2h10.6v6.2h-10.6v7.7h12v6.2h-20.1v-33.4H188.9z"/>
		<path class="st0" d="M200.6,135.3v12.9h-8.1V115h13.1c3.9,0,6.9,1,9,3c2.1,2,3.2,4.4,3.2,7.2c0,1.9-0.6,3.8-1.8,5.6
			c-1.2,1.8-3.1,3.1-5.7,3.9l8.2,13.6h-9.5l-7.5-12.9H200.6z M200.6,121.2v8h5c1.2,0,2.2-0.4,2.9-1.1c0.7-0.7,1.1-1.7,1.1-2.9
			c0-1.2-0.4-2.2-1.1-2.9c-0.7-0.8-1.7-1.1-2.9-1.1H200.6z"/>
		<path class="st0" d="M268.7,115h8.7l-9.3,33.3h-9.3l-5.8-21.1l-5.8,21.1h-9.3l-9.4-33.3h8.7l5.8,23.9l5.9-23.9h9.2l5.7,23.6
			L268.7,115z"/>
		<path class="st0" d="M281,143.8c-3.3-3.2-5-7.3-5-12.2c0-4.9,1.7-9,5-12.2c3.3-3.2,7.3-4.8,12.1-4.8c4.8,0,8.8,1.6,12.1,4.8
			c3.3,3.2,4.9,7.3,4.9,12.2c0,4.9-1.6,9-4.9,12.2c-3.3,3.2-7.3,4.8-12.1,4.8C288.3,148.6,284.3,147,281,143.8z M299.5,138.5
			c1.6-1.7,2.4-4.1,2.4-7c0-2.9-0.8-5.2-2.4-7c-1.6-1.7-3.7-2.6-6.4-2.6c-2.7,0-4.8,0.9-6.4,2.6c-1.6,1.7-2.4,4.1-2.4,7
			c0,2.9,0.8,5.2,2.4,7c1.6,1.7,3.7,2.6,6.4,2.6C295.7,141.1,297.9,140.3,299.5,138.5z"/>
		<path class="st0" d="M320.1,135.3v12.9H312V115h13.1c3.9,0,6.9,1,9,3c2.1,2,3.2,4.4,3.2,7.2c0,1.9-0.6,3.8-1.8,5.6
			c-1.2,1.8-3.1,3.1-5.7,3.9l8.2,13.6h-9.5l-7.5-12.9H320.1z M320.1,121.2v8h5c1.2,0,2.2-0.4,2.9-1.1c0.7-0.7,1.1-1.7,1.1-2.9
			c0-1.2-0.4-2.2-1.1-2.9c-0.7-0.8-1.7-1.1-2.9-1.1H320.1z"/>
		<path class="st0" d="M340.3,115h8.1v27.1h10.1v6.2h-18.2V115z"/>
		<path class="st0" d="M371.4,115c5.3,0,9.7,1.5,13.1,4.6c3.4,3.1,5.1,7.1,5.1,12c0,4.9-1.7,8.9-5.1,12c-3.4,3.1-7.8,4.6-13.1,4.6
			h-11.7V115H371.4z M367.8,142.1h3.6c3.1,0,5.5-0.9,7.3-2.8c1.8-1.9,2.7-4.4,2.7-7.6c0-3.2-0.9-5.7-2.7-7.6
			c-1.8-1.9-4.2-2.8-7.3-2.8h-3.6V142.1z"/>
	</g>
</g>
</svg>
