<?xml version="1.0" encoding="utf-8"?>
<!-- Generator: Adobe Illustrator 23.0.6, SVG Export Plug-In . SVG Version: 6.00 Build 0)  -->
<svg version="1.1" id="Layer_1" xmlns="http://www.w3.org/2000/svg" xmlns:xlink="http://www.w3.org/1999/xlink" x="0px" y="0px"
	 viewBox="0 0 453.11 252.5" style="enable-background:new 0 0 453.11 252.5;" xml:space="preserve">
<style type="text/css">
	.st0{fill:#FFFFFF;}
	.st1{fill:none;stroke:#FFFFFF;stroke-miterlimit:10;}
	.st2{fill-rule:evenodd;clip-rule:evenodd;fill:#FFFFFF;}
	.st3{opacity:0.45;fill:#581220;stroke:#FFFFFF;stroke-miterlimit:10;}
	.st4{fill:#6320CA;}
</style>
<g>
	<g>
		<path class="st0" d="M213.95,5.37H215l3.09,4.47l3.06-4.47h1.07v7.88h-1.58V8.78l-2.29,3.3h-0.54l-2.29-3.3v4.47h-1.56V5.37z"/>
		<path class="st0" d="M225.56,5.37v7.88h-1.59V5.37H225.56z"/>
		<path class="st0" d="M226.59,6.89V5.37h6.1v1.53h-2.25v6.36h-1.6V6.89H226.59z"/>
		<path class="st0" d="M233.33,9.34c0-2.43,1.88-4.11,4.08-4.11c1.47,0,2.74,0.71,3.4,1.73l-0.79,0.66c-0.6-0.81-1.5-1.35-2.59-1.35
			c-1.66,0-3.01,1.29-3.01,3.08c0,1.76,1.3,3,3,3c1.09,0,2.03-0.52,2.65-1.33l0.77,0.65c-0.71,0.98-1.96,1.71-3.46,1.71
			C235.17,13.37,233.33,11.75,233.33,9.34z"/>
		<path class="st0" d="M248.45,5.37v7.88h-0.55l-4.73-5.59v5.59h-1.06V5.37h0.48l4.8,5.62V5.37H248.45z"/>
		<path class="st0" d="M249.94,9.34c0-2.43,1.88-4.11,4.08-4.11c1.47,0,2.74,0.71,3.4,1.73l-0.79,0.66c-0.6-0.81-1.5-1.35-2.59-1.35
			c-1.66,0-3.01,1.29-3.01,3.08c0,1.76,1.3,3,3,3c1.09,0,2.03-0.52,2.64-1.33l0.77,0.65c-0.7,0.98-1.96,1.71-3.46,1.71
			C251.77,13.37,249.94,11.75,249.94,9.34z"/>
		<path class="st0" d="M213.83,18.38h0.52l2.57,3.76l2.56-3.76h0.54v6.13h-0.96v-3.93l-2,2.92h-0.28l-2-2.92v3.93h-0.95V18.38z"/>
		<path class="st0" d="M222.46,18.38v6.13h-0.96v-6.13H222.46z"/>
		<path class="st0" d="M223.32,19.31v-0.93h4.56v0.93h-1.79v5.2h-0.97v-5.2H223.32z"/>
		<path class="st0" d="M230.13,21.47c0-1.89,1.45-3.2,3.18-3.2c1.14,0,2.13,0.55,2.64,1.32l-0.68,0.61c-0.45-0.6-1.13-1-1.93-1
			c-1.23,0-2.22,0.95-2.22,2.27c0,1.3,0.96,2.22,2.21,2.22c0.81,0,1.51-0.39,1.98-1l0.68,0.6c-0.55,0.76-1.53,1.32-2.7,1.32
			C231.55,24.61,230.13,23.35,230.13,21.47z"/>
		<path class="st0" d="M236.93,18.38h0.95v5.21h3.24v0.92h-4.19V18.38z"/>
		<path class="st0" d="M241.78,22.39v-4.01h0.95v3.88c0,0.94,0.5,1.42,1.32,1.42c0.81,0,1.31-0.51,1.31-1.42v-3.88h0.96v4.01
			c0,1.45-0.97,2.23-2.27,2.23C242.76,24.62,241.78,23.84,241.78,22.39z"/>
		<path class="st0" d="M252.29,22.75c0,0.9-0.67,1.77-1.92,1.77h-2.61v-6.13h2.5c1.15,0,1.71,0.78,1.71,1.53
			c0,0.55-0.32,1.06-0.84,1.25C251.92,21.37,252.29,22.04,252.29,22.75z M248.71,19.25v1.59h1.38c0.61,0,0.91-0.42,0.91-0.82
			c0-0.39-0.31-0.76-0.88-0.76H248.71z M251.29,22.67c0-0.49-0.35-0.99-1.11-0.99h-1.48v1.96h1.5
			C250.92,23.64,251.29,23.15,251.29,22.67z"/>
		<path class="st0" d="M255.05,21.48c0-1.78,1.42-3.2,3.18-3.2c1.77,0,3.19,1.42,3.19,3.18c0,1.75-1.4,3.16-3.21,3.16
			C256.41,24.62,255.05,23.23,255.05,21.48z M260.42,21.46c0-1.29-0.98-2.24-2.19-2.24s-2.18,0.96-2.18,2.24
			c0,1.25,0.95,2.22,2.18,2.22C259.45,23.68,260.42,22.73,260.42,21.46z"/>
		<path class="st0" d="M262.52,18.38h3.86v0.92h-2.91v1.68H266v0.91h-2.53v2.62h-0.96V18.38z"/>
		<path class="st0" d="M218.85,26.68v6.13h-0.56l-3.51-4.16v4.16h-0.95v-6.13h0.5l3.58,4.19v-4.19H218.85z"/>
		<path class="st0" d="M219.95,29.78c0-1.78,1.42-3.2,3.18-3.2c1.77,0,3.19,1.42,3.19,3.18c0,1.75-1.4,3.16-3.21,3.16
			C221.31,32.92,219.95,31.53,219.95,29.78z M225.32,29.76c0-1.29-0.98-2.24-2.19-2.24s-2.18,0.96-2.18,2.24
			c0,1.25,0.95,2.22,2.18,2.22C224.35,31.98,225.32,31.03,225.32,29.76z"/>
		<path class="st0" d="M229.19,30.41h-0.81v2.41h-0.95v-6.13h2.17c1.34,0,1.98,0.92,1.98,1.87c0,0.76-0.44,1.51-1.37,1.77l1.64,2.5
			h-1.15L229.19,30.41z M228.38,29.52h1.06c0.84,0,1.15-0.49,1.15-0.98c0-0.51-0.33-0.95-1-0.95h-1.21V29.52z"/>
		<path class="st0" d="M232.1,27.61v-0.93h4.56v0.93h-1.79v5.2h-0.97v-5.2H232.1z"/>
		<path class="st0" d="M237.52,26.68h0.96v2.55h2.92v-2.55h0.95v6.13h-0.95v-2.66h-2.92v2.66h-0.96V26.68z"/>
		<path class="st0" d="M243.84,26.68h3.92v0.9h-2.96v1.67h2.75v0.9h-2.75v1.75h2.97v0.9h-3.93V26.68z"/>
		<path class="st0" d="M250.74,30.41h-0.81v2.41h-0.95v-6.13h2.17c1.34,0,1.98,0.92,1.98,1.87c0,0.76-0.44,1.51-1.37,1.77l1.64,2.5
			h-1.15L250.74,30.41z M249.92,29.52h1.06c0.84,0,1.15-0.49,1.15-0.98c0-0.51-0.33-0.95-1-0.95h-1.21V29.52z"/>
		<path class="st0" d="M259.4,26.68v6.13h-0.56l-3.51-4.16v4.16h-0.95v-6.13h0.5l3.58,4.19v-4.19H259.4z"/>
		<path class="st0" d="M262.57,29.77c0-1.89,1.45-3.2,3.18-3.2c1.14,0,2.13,0.55,2.64,1.32l-0.68,0.61c-0.45-0.6-1.13-1-1.93-1
			c-1.23,0-2.22,0.95-2.22,2.27c0,1.3,0.96,2.22,2.21,2.22c0.81,0,1.51-0.39,1.98-1l0.68,0.6c-0.55,0.76-1.53,1.32-2.7,1.32
			C263.99,32.91,262.57,31.65,262.57,29.77z"/>
		<path class="st0" d="M272.46,31.31h-2.26l-0.58,1.51h-1.03l2.44-6.13h0.62l2.42,6.13h-1.03L272.46,31.31z M270.51,30.43h1.66
			l-0.83-2.22L270.51,30.43z"/>
		<path class="st0" d="M274.91,26.68h0.95v5.21h3.24v0.92h-4.19V26.68z"/>
		<path class="st0" d="M280.92,26.68v6.13h-0.95v-6.13H280.92z"/>
		<path class="st0" d="M282.41,26.68h3.86v0.92h-2.91v1.68h2.53v0.91h-2.53v2.62h-0.96V26.68z"/>
		<path class="st0" d="M286.76,29.78c0-1.78,1.42-3.2,3.18-3.2c1.77,0,3.19,1.42,3.19,3.18c0,1.75-1.4,3.16-3.21,3.16
			C288.12,32.92,286.76,31.53,286.76,29.78z M292.13,29.76c0-1.29-0.98-2.24-2.19-2.24c-1.21,0-2.18,0.96-2.18,2.24
			c0,1.25,0.95,2.22,2.18,2.22C291.16,31.98,292.13,31.03,292.13,29.76z"/>
		<path class="st0" d="M296,30.41h-0.81v2.41h-0.95v-6.13h2.17c1.34,0,1.98,0.92,1.98,1.87c0,0.76-0.44,1.51-1.37,1.77l1.64,2.5
			h-1.15L296,30.41z M295.19,29.52h1.06c0.84,0,1.15-0.49,1.15-0.98c0-0.51-0.33-0.95-1-0.95h-1.21V29.52z"/>
		<path class="st0" d="M304.67,26.68v6.13h-0.56l-3.51-4.16v4.16h-0.95v-6.13h0.5l3.58,4.19v-4.19H304.67z"/>
		<path class="st0" d="M307.12,26.68v6.13h-0.95v-6.13H307.12z"/>
		<path class="st0" d="M311.81,31.31h-2.26l-0.58,1.51h-1.03l2.44-6.13h0.62l2.42,6.13h-1.03L311.81,31.31z M309.86,30.43h1.66
			l-0.83-2.22L309.86,30.43z"/>
	</g>
	<line class="st1" x1="201.47" y1="0" x2="201.47" y2="39.13"/>
	<g id="XMLID_4_">
		<rect id="XMLID_198_" x="140.68" y="5.93" class="st2" width="5.4" height="25.4"/>
		<rect id="XMLID_196_" x="158.03" y="5.93" class="st2" width="5.4" height="25.4"/>
		<rect id="XMLID_194_" x="149.33" y="5.93" class="st2" width="5.4" height="17.24"/>
		<rect id="XMLID_192_" x="166.8" y="14.08" class="st2" width="5.4" height="17.24"/>
		<rect id="XMLID_190_" x="175.66" y="5.93" class="st2" width="14.15" height="5.01"/>
		<rect id="XMLID_187_" x="166.8" y="5.93" class="st2" width="5.4" height="5.01"/>
		<rect id="XMLID_185_" x="175.66" y="14.08" class="st2" width="5.4" height="17.24"/>
	</g>
</g>
<g>
	<rect x="5.28" y="71.85" class="st3" width="443.56" height="68.18"/>
	<g>
		<path class="st0" d="M23.73,121.71V95.53h16.2v4.05H29.02v6.86h8.33v4.05h-8.33v11.21H23.73z"/>
		<path class="st0" d="M42.52,111.66V95.53h5.29v16.12c0,1.8,0.46,3.16,1.37,4.09s2.22,1.39,3.92,1.39c1.7,0,3.01-0.46,3.94-1.39
			c0.92-0.92,1.39-2.29,1.39-4.09V95.53h5.25v16.12c0,3.3-1.04,5.84-3.11,7.63s-4.6,2.68-7.57,2.68c-2.98,0-5.46-0.89-7.46-2.66
			C43.52,117.53,42.52,114.98,42.52,111.66z"/>
		<path class="st0" d="M66.14,99.58v-4.05h19.39v4.05h-7.09v22.12h-5.25V99.58H66.14z"/>
		<path class="st0" d="M88,111.66V95.53h5.29v16.12c0,1.8,0.46,3.16,1.37,4.09s2.22,1.39,3.92,1.39s3.01-0.46,3.94-1.39
			s1.39-2.29,1.39-4.09V95.53h5.25v16.12c0,3.3-1.04,5.84-3.11,7.63c-2.08,1.79-4.6,2.68-7.57,2.68c-2.98,0-5.46-0.89-7.46-2.66
			C89,117.53,88,114.98,88,111.66z"/>
		<path class="st0" d="M118.45,111.28v10.42h-5.29V95.53h9.64c3.02,0,5.36,0.76,6.99,2.27c1.64,1.51,2.46,3.38,2.46,5.61
			c0,1.65-0.5,3.19-1.5,4.61c-1,1.42-2.58,2.4-4.72,2.92l6.67,10.76h-6.26l-6.26-10.42H118.45z M118.45,99.58v7.65h4.35
			c1.32,0,2.34-0.34,3.04-1.03c0.7-0.69,1.05-1.62,1.05-2.79s-0.35-2.11-1.05-2.79c-0.7-0.69-1.71-1.03-3.04-1.03H118.45z"/>
		<path class="st0" d="M151.11,95.46v4.05h-9.83v6.86h8.7v4.05h-8.7v7.24h9.83v4.05H136V95.46H151.11z"/>
		<path class="st0" d="M167.25,118.24c-2.54-2.49-3.81-5.64-3.81-9.47c0-3.83,1.27-6.98,3.81-9.47c2.54-2.49,5.66-3.73,9.37-3.73
			c3.71,0,6.83,1.24,9.36,3.73c2.52,2.49,3.79,5.64,3.79,9.47c0,3.82-1.26,6.98-3.79,9.47c-2.52,2.49-5.64,3.73-9.36,3.73
			C172.92,121.97,169.79,120.72,167.25,118.24z M184.09,116.7c1.99-2.01,2.98-4.66,2.98-7.93c0-3.27-0.99-5.91-2.96-7.91
			c-1.98-2-4.48-3-7.5-3c-3.03,0-5.53,1-7.52,3s-2.98,4.64-2.98,7.91c0,3.28,0.99,5.92,2.98,7.93c1.99,2.01,4.49,3.02,7.5,3.02
			C179.6,119.72,182.1,118.71,184.09,116.7z"/>
		<path class="st0" d="M192.55,121.71V95.83h13.95v2.14h-11.32v9.67h9.04v2.1h-9.04v11.96H192.55z"/>
		<path class="st0" d="M220.74,118.14c-2.57-2.52-3.86-5.72-3.86-9.6c0-3.87,1.29-7.07,3.88-9.6c2.59-2.52,5.76-3.79,9.51-3.79
			c2.85,0,5.38,0.73,7.59,2.17c2.21,1.45,3.79,3.49,4.74,6.11h-6.34c-1.18-2.3-3.18-3.45-6-3.45c-2.38,0-4.31,0.78-5.79,2.34
			s-2.23,3.64-2.23,6.22c0,2.59,0.74,4.66,2.23,6.22s3.42,2.34,5.79,2.34c2.8,0,4.8-1.15,6-3.45h6.34
			c-0.95,2.63-2.53,4.66-4.74,6.09s-4.74,2.16-7.59,2.16C226.49,121.93,223.32,120.67,220.74,118.14z"/>
		<path class="st0" d="M257.61,121.97c-3.78,0-6.95-1.26-9.52-3.79c-2.58-2.52-3.86-5.73-3.86-9.62c0-3.89,1.29-7.09,3.88-9.62
			c2.59-2.52,5.76-3.79,9.52-3.79s6.93,1.26,9.51,3.79c2.58,2.53,3.86,5.73,3.86,9.62c0,3.89-1.29,7.09-3.86,9.62
			C264.55,120.71,261.38,121.97,257.61,121.97z M263.38,114.79c1.47-1.56,2.21-3.64,2.21-6.24c0-2.6-0.74-4.67-2.21-6.22
			c-1.48-1.55-3.4-2.32-5.78-2.32s-4.31,0.78-5.79,2.34c-1.49,1.56-2.23,3.64-2.23,6.22c0,2.59,0.74,4.66,2.23,6.22
			c1.49,1.56,3.42,2.34,5.79,2.34S261.91,116.35,263.38,114.79z"/>
		<path class="st0" d="M302.19,95.53v26.17h-5.25v-16.54l-7.13,16.54h-3.79l-7.09-16.46v16.46h-5.29V95.53h5.89l8.4,19.39l8.4-19.39
			H302.19z"/>
		<path class="st0" d="M323.42,108.58c-0.67,0.83-1.66,1.48-2.94,1.97c-1.29,0.49-2.79,0.73-4.52,0.73h-4.35v10.42h-5.29V95.53h9.64
			c3.02,0,5.36,0.76,6.99,2.27c1.64,1.51,2.46,3.29,2.46,5.34S324.74,107.01,323.42,108.58z M311.6,107.23h4.35
			c1.32,0,2.34-0.34,3.04-1.03c0.7-0.69,1.05-1.62,1.05-2.79s-0.35-2.11-1.05-2.79c-0.7-0.69-1.71-1.03-3.04-1.03h-4.35V107.23z"/>
		<path class="st0" d="M327.8,111.66V95.53h5.29v16.12c0,1.8,0.46,3.16,1.37,4.09c0.91,0.92,2.22,1.39,3.92,1.39
			c1.7,0,3.01-0.46,3.94-1.39s1.39-2.29,1.39-4.09V95.53h5.25v16.12c0,3.3-1.04,5.84-3.11,7.63c-2.08,1.79-4.6,2.68-7.58,2.68
			s-5.46-0.89-7.46-2.66S327.8,114.98,327.8,111.66z"/>
		<path class="st0" d="M351.43,99.58v-4.05h19.39v4.05h-7.09v22.12h-5.25V99.58H351.43z"/>
		<path class="st0" d="M373.36,121.71V95.53h5.29v26.17H373.36z"/>
		<path class="st0" d="M399.91,95.46h5.29v26.25h-5.29l-11.85-18.15v18.15h-5.29V95.46h5.29l11.85,18.15V95.46z"/>
		<path class="st0" d="M411.72,118.14c-2.58-2.52-3.86-5.72-3.86-9.6c0-3.87,1.29-7.07,3.88-9.6c2.59-2.52,5.76-3.79,9.51-3.79
			c2.85,0,5.38,0.73,7.59,2.17c2.21,1.45,3.79,3.49,4.74,6.11h-6.34c-1.17-2.3-3.17-3.45-6-3.45c-2.38,0-4.31,0.78-5.79,2.34
			s-2.23,3.64-2.23,6.22c0,2.59,0.74,4.66,2.23,6.22s3.31,2.34,5.47,2.34s3.86-0.53,5.1-1.59c1.24-1.06,2.01-2.49,2.31-4.29h-8.7
			v-4.01H434v4.01c-0.45,2.85-1.85,5.34-4.2,7.48c-2.35,2.14-5.31,3.21-8.87,3.21S414.3,120.67,411.72,118.14z"/>
	</g>
	<rect x="57.6" y="62.46" class="st4" width="339.82" height="18.78"/>
	<g>
		<path class="st0" d="M82.03,67.54v9.56h-1.57v-6.55l-2.92,6.55h-1.09l-2.93-6.55v6.55h-1.57v-9.56h1.69l3.36,7.5l3.34-7.5H82.03z"
			/>
		<path class="st0" d="M90.2,67.52v1.22h-3.71v2.9h3.3v1.21h-3.3v3.01h3.71v1.22h-5.28v-9.57H90.2z"/>
		<path class="st0" d="M99.23,67.52h1.57v9.57h-1.57l-4.72-7.14v7.14h-1.57v-9.57h1.57l4.72,7.12V67.52z"/>
		<path class="st0" d="M106.66,68.69c-0.47,0-0.85,0.12-1.14,0.36s-0.44,0.58-0.44,1.04c0,0.45,0.17,0.8,0.52,1.04
			c0.35,0.24,0.77,0.41,1.26,0.52s0.99,0.24,1.49,0.38c0.5,0.14,0.92,0.41,1.27,0.79c0.35,0.38,0.52,0.93,0.52,1.64
			s-0.3,1.34-0.89,1.9c-0.6,0.56-1.39,0.84-2.39,0.84s-1.81-0.23-2.43-0.7s-0.94-1.11-0.94-1.94h1.68c0.04,0.42,0.19,0.76,0.47,1
			c0.27,0.25,0.68,0.37,1.21,0.37s0.95-0.14,1.26-0.41c0.31-0.27,0.46-0.6,0.46-0.98c0-0.38-0.09-0.67-0.28-0.88
			c-0.19-0.21-0.43-0.37-0.73-0.47s-0.63-0.2-0.98-0.28c-0.36-0.08-0.72-0.18-1.08-0.29s-0.69-0.25-0.99-0.43
			c-0.3-0.17-0.54-0.43-0.73-0.76c-0.19-0.33-0.28-0.75-0.28-1.23c0-0.83,0.3-1.51,0.9-2.01s1.38-0.76,2.34-0.76s1.72,0.22,2.3,0.66
			c0.57,0.44,0.89,1.08,0.96,1.91h-1.73c-0.04-0.37-0.19-0.67-0.47-0.92C107.5,68.82,107.13,68.69,106.66,68.69z"/>
		<path class="st0" d="M123.05,67.52v1.22h-3.71v2.9h3.3v1.21h-3.3v3.01h3.71v1.22h-5.28v-9.57H123.05z"/>
		<path class="st0" d="M125.31,68.76v-1.22h6.67v1.22h-2.54v8.33h-1.57v-8.33H125.31z"/>
		<path class="st0" d="M149.4,67.54v9.56h-1.57v-6.55l-2.92,6.55h-1.09l-2.93-6.55v6.55h-1.57v-9.56h1.69l3.36,7.5l3.34-7.5H149.4z"
			/>
		<path class="st0" d="M158.74,77.1l-0.69-1.95h-4l-0.69,1.95h-1.64l3.42-9.57h1.82l3.42,9.57H158.74z M154.47,73.92h3.15l-1.57-4.5
			L154.47,73.92z"/>
		<path class="st0" d="M168.98,67.52h1.57v9.57h-1.57l-4.72-7.14v7.14h-1.57v-9.57h1.57l4.72,7.12V67.52z"/>
		<path class="st0" d="M173.42,73.6v-6.07h1.57v6.07c0,0.72,0.19,1.27,0.57,1.64c0.38,0.37,0.91,0.55,1.6,0.55s1.21-0.18,1.6-0.55
			c0.38-0.37,0.57-0.91,0.57-1.64v-6.07h1.57v6.07c0,1.16-0.36,2.04-1.08,2.66c-0.72,0.62-1.61,0.93-2.68,0.93
			c-1.07,0-1.95-0.31-2.65-0.92C173.78,75.66,173.42,74.77,173.42,73.6z"/>
		<path class="st0" d="M186.72,68.69c-0.47,0-0.85,0.12-1.14,0.36c-0.29,0.24-0.44,0.58-0.44,1.04c0,0.45,0.17,0.8,0.52,1.04
			s0.77,0.41,1.27,0.52s0.99,0.24,1.49,0.38c0.49,0.14,0.92,0.41,1.26,0.79s0.52,0.93,0.52,1.64s-0.3,1.34-0.89,1.9
			c-0.6,0.56-1.39,0.84-2.39,0.84c-1,0-1.81-0.23-2.43-0.7s-0.94-1.11-0.94-1.94h1.68c0.04,0.42,0.19,0.76,0.47,1
			c0.28,0.25,0.68,0.37,1.21,0.37s0.95-0.14,1.26-0.41c0.31-0.27,0.46-0.6,0.46-0.98c0-0.38-0.09-0.67-0.28-0.88
			c-0.19-0.21-0.43-0.37-0.73-0.47c-0.3-0.11-0.63-0.2-0.98-0.28c-0.36-0.08-0.72-0.18-1.08-0.29c-0.36-0.11-0.69-0.25-0.99-0.43
			c-0.3-0.17-0.54-0.43-0.73-0.76s-0.28-0.75-0.28-1.23c0-0.83,0.3-1.51,0.9-2.01s1.38-0.76,2.34-0.76s1.72,0.22,2.3,0.66
			c0.57,0.44,0.89,1.08,0.96,1.91h-1.73c-0.04-0.37-0.19-0.67-0.47-0.92C187.56,68.82,187.19,68.69,186.72,68.69z"/>
		<path class="st0" d="M205.22,71.43v1.4h-2.76v2.81h-1.49v-2.81h-2.76v-1.4h2.76v-2.81h1.49v2.81H205.22z"/>
		<path class="st0" d="M213.43,77.1v-9.56H215v9.56H213.43z"/>
		<path class="st0" d="M224.17,67.52h1.57v9.57h-1.57l-4.72-7.14v7.14h-1.57v-9.57h1.57l4.72,7.12V67.52z"/>
		<path class="st0" d="M228.13,68.76v-1.22h6.67v1.22h-2.54v8.33h-1.57v-8.33H228.13z"/>
		<path class="st0" d="M242.49,67.52v1.22h-3.71v2.9h3.3v1.21h-3.3v3.01h3.71v1.22h-5.28v-9.57H242.49z"/>
		<path class="st0" d="M245.24,67.54h1.57v8.36h3.23v1.2h-4.8V67.54z"/>
		<path class="st0" d="M252.17,67.54h1.57v8.36h3.23v1.2h-4.8V67.54z"/>
		<path class="st0" d="M259.1,77.1v-9.56h1.57v9.56H259.1z"/>
		<path class="st0" d="M267.83,77.18c-1.31,0-2.43-0.46-3.38-1.38s-1.42-2.08-1.42-3.5c0-1.42,0.47-2.58,1.42-3.51
			s2.1-1.38,3.47-1.38c1.02,0,1.92,0.25,2.72,0.75c0.79,0.5,1.37,1.21,1.73,2.13h-1.88c-0.51-0.96-1.37-1.44-2.56-1.44
			c-0.96,0-1.75,0.32-2.36,0.95c-0.61,0.63-0.91,1.47-0.91,2.51c0,1.04,0.3,1.88,0.91,2.51c0.61,0.63,1.37,0.95,2.28,0.95
			s1.63-0.24,2.17-0.72c0.54-0.48,0.86-1.13,0.97-1.96h-3.59v-1.22h5.27v1.22c-0.15,1.15-0.66,2.12-1.54,2.91
			S269.13,77.18,267.83,77.18z"/>
		<path class="st0" d="M280.29,67.52v1.22h-3.71v2.9h3.3v1.21h-3.3v3.01h3.71v1.22h-5.28v-9.57H280.29z"/>
		<path class="st0" d="M289.33,67.52h1.57v9.57h-1.57l-4.72-7.14v7.14h-1.57v-9.57h1.57l4.72,7.12V67.52z"/>
		<path class="st0" d="M293.29,68.76v-1.22h6.67v1.22h-2.54v8.33h-1.57v-8.33H293.29z"/>
		<path class="st0" d="M317.38,67.54v9.56h-1.57v-6.55l-2.92,6.55h-1.09l-2.93-6.55v6.55h-1.57v-9.56h1.69l3.36,7.5l3.34-7.5H317.38
			z"/>
		<path class="st0" d="M326.72,77.1l-0.69-1.95h-4l-0.69,1.95h-1.64l3.42-9.57h1.81l3.42,9.57H326.72z M322.46,73.92h3.15l-1.57-4.5
			L322.46,73.92z"/>
		<path class="st0" d="M331.57,75.8c-0.94-0.92-1.42-2.08-1.42-3.5c0-1.42,0.47-2.58,1.42-3.51s2.1-1.38,3.47-1.38
			c1.02,0,1.92,0.25,2.72,0.75c0.79,0.5,1.37,1.21,1.73,2.13h-1.88c-0.51-0.96-1.37-1.44-2.56-1.44c-0.96,0-1.75,0.32-2.36,0.95
			c-0.61,0.63-0.92,1.47-0.92,2.51c0,1.04,0.3,1.88,0.92,2.51c0.61,0.63,1.4,0.95,2.36,0.95c1.19,0,2.04-0.48,2.56-1.44h1.88
			c-0.36,0.92-0.93,1.62-1.73,2.12s-1.7,0.74-2.72,0.74C333.67,77.18,332.52,76.72,331.57,75.8z"/>
		<path class="st0" d="M348.2,67.54h1.57v9.56h-1.57v-4.22h-4.5v4.22h-1.57v-9.56h1.57v4.13h4.5V67.54z"/>
		<path class="st0" d="M352.66,77.1v-9.56h1.57v9.56H352.66z"/>
		<path class="st0" d="M363.4,67.52h1.57v9.57h-1.57l-4.72-7.14v7.14h-1.57v-9.57h1.57l4.72,7.12V67.52z"/>
		<path class="st0" d="M373.13,67.52v1.22h-3.71v2.9h3.3v1.21h-3.3v3.01h3.71v1.22h-5.28v-9.57H373.13z"/>
		<path class="st0" d="M378.85,68.69c-0.47,0-0.85,0.12-1.14,0.36c-0.29,0.24-0.44,0.58-0.44,1.04c0,0.45,0.17,0.8,0.52,1.04
			c0.35,0.24,0.77,0.41,1.27,0.52s0.99,0.24,1.49,0.38c0.5,0.14,0.92,0.41,1.26,0.79c0.35,0.38,0.52,0.93,0.52,1.64
			s-0.3,1.34-0.89,1.9c-0.6,0.56-1.39,0.84-2.39,0.84c-1,0-1.81-0.23-2.43-0.7c-0.62-0.47-0.93-1.11-0.93-1.94h1.68
			c0.04,0.42,0.19,0.76,0.47,1c0.28,0.25,0.68,0.37,1.21,0.37c0.53,0,0.95-0.14,1.26-0.41c0.31-0.27,0.46-0.6,0.46-0.98
			c0-0.38-0.09-0.67-0.28-0.88c-0.19-0.21-0.43-0.37-0.73-0.47s-0.63-0.2-0.98-0.28c-0.36-0.08-0.72-0.18-1.08-0.29
			s-0.69-0.25-0.99-0.43c-0.3-0.17-0.54-0.43-0.73-0.76c-0.19-0.33-0.28-0.75-0.28-1.23c0-0.83,0.3-1.51,0.9-2.01
			s1.38-0.76,2.34-0.76s1.72,0.22,2.3,0.66c0.57,0.44,0.89,1.08,0.96,1.91h-1.73c-0.04-0.37-0.19-0.67-0.47-0.92
			C379.69,68.82,379.32,68.69,378.85,68.69z"/>
	</g>
</g>
<g>
	<path class="st0" d="M24.46,220.57l-1.86-5.64H10.56l-1.86,5.64H0l11.66-33.63h9.94l11.61,33.63H24.46z M12.61,208.72h7.93
		l-3.97-11.94L12.61,208.72z"/>
	<path class="st0" d="M35.31,220.57v-33.54h8.17v33.54H35.31z"/>
	<path class="st0" d="M61.15,220.57v-33.54h8.17v33.54H61.15z"/>
	<path class="st0" d="M76.15,217.08c-2.36-2.55-3.54-5.81-3.54-9.79s1.18-7.25,3.54-9.82c2.36-2.56,5.23-3.85,8.62-3.85
		s6,1.26,7.81,3.77v-12.18h8.17v35.35h-8.17v-3.87c-1.98,2.8-4.62,4.2-7.93,4.2C81.35,220.9,78.51,219.63,76.15,217.08z
		 M90.82,212.11c1.18-1.15,1.77-2.77,1.77-4.87c0-2.1-0.59-3.72-1.77-4.85c-1.18-1.13-2.53-1.7-4.06-1.7
		c-1.53,0-2.88,0.57-4.06,1.72c-1.18,1.15-1.77,2.77-1.77,4.87c0,2.1,0.59,3.72,1.77,4.85c1.18,1.13,2.53,1.7,4.06,1.7
		C88.29,213.83,89.64,213.26,90.82,212.11z"/>
	<path class="st0" d="M108.14,217.13c-2.69-2.52-4.04-5.83-4.04-9.94c0-4.11,1.34-7.4,4.01-9.87c2.68-2.47,5.99-3.7,9.94-3.7
		c3.95,0,7.25,1.23,9.91,3.7c2.66,2.47,3.99,5.76,3.99,9.87c0,4.11-1.32,7.42-3.97,9.94c-2.64,2.52-5.94,3.77-9.89,3.77
		C114.15,220.9,110.83,219.65,108.14,217.13z M122.02,212.21c1.08-1.15,1.62-2.8,1.62-4.97s-0.56-3.81-1.67-4.95
		c-1.12-1.13-2.44-1.7-3.97-1.7s-2.84,0.57-3.94,1.7c-1.1,1.13-1.65,2.78-1.65,4.95s0.56,3.82,1.7,4.97
		c1.13,1.15,2.46,1.72,3.99,1.72S120.94,213.35,122.02,212.21z"/>
	<path class="st0" d="M135.3,220.57v-35.35h8.17v35.35H135.3z"/>
	<path class="st0" d="M164.18,216.01c-3.33-3.23-4.99-7.33-4.99-12.3c0-4.97,1.66-9.07,4.99-12.3c3.33-3.23,7.4-4.85,12.21-4.85
		c3.73,0,7.04,0.99,9.94,2.96c2.9,1.98,4.92,4.71,6.07,8.22h-9.75c-1.27-2.45-3.31-3.68-6.12-3.68s-5.01,0.88-6.62,2.63
		c-1.61,1.75-2.41,4.09-2.41,7.02c0,2.93,0.8,5.27,2.41,7.02c1.61,1.75,3.81,2.63,6.62,2.63s4.84-1.23,6.12-3.68h9.75
		c-1.15,3.5-3.17,6.24-6.07,8.22c-2.9,1.97-6.21,2.96-9.94,2.96C171.58,220.86,167.51,219.24,164.18,216.01z"/>
	<path class="st0" d="M197.86,217.13c-2.69-2.52-4.04-5.83-4.04-9.94c0-4.11,1.34-7.4,4.01-9.87c2.68-2.47,5.99-3.7,9.94-3.7
		c3.95,0,7.25,1.23,9.91,3.7c2.66,2.47,3.99,5.76,3.99,9.87c0,4.11-1.32,7.42-3.97,9.94c-2.64,2.52-5.94,3.77-9.89,3.77
		C203.88,220.9,200.55,219.65,197.86,217.13z M211.74,212.21c1.08-1.15,1.62-2.8,1.62-4.97s-0.56-3.81-1.67-4.95
		c-1.12-1.13-2.44-1.7-3.97-1.7s-2.84,0.57-3.94,1.7c-1.1,1.13-1.65,2.78-1.65,4.95s0.56,3.82,1.7,4.97
		c1.13,1.15,2.46,1.72,3.99,1.72S210.66,213.35,211.74,212.21z"/>
	<path class="st0" d="M233.19,193.91v3.92c1.69-2.8,4.38-4.2,8.07-4.2c1.97,0,3.73,0.45,5.28,1.34s2.75,2.17,3.61,3.82
		c0.99-1.56,2.27-2.81,3.85-3.75c1.58-0.94,3.34-1.41,5.28-1.41c3.25,0,5.83,1,7.74,3.01s2.87,4.79,2.87,8.36v15.58h-8.12v-14.48
		c0-1.72-0.45-3.05-1.36-3.99s-2.16-1.41-3.75-1.41c-1.59,0-2.84,0.47-3.75,1.41c-0.91,0.94-1.36,2.27-1.36,3.99v14.48h-8.12v-14.48
		c0-1.72-0.45-3.05-1.36-3.99c-0.91-0.94-2.16-1.41-3.75-1.41s-2.84,0.47-3.75,1.41c-0.91,0.94-1.36,2.27-1.36,3.99v14.48h-8.17
		v-26.66H233.19z"/>
	<path class="st0" d="M283.07,197.4c1.82-2.52,4.42-3.77,7.81-3.77c3.39,0,6.27,1.28,8.62,3.85c2.36,2.56,3.54,5.84,3.54,9.82
		s-1.18,7.25-3.54,9.79c-2.36,2.55-5.21,3.82-8.55,3.82c-3.34,0-5.97-1.4-7.88-4.2v16.58h-8.17v-39.37h8.17V197.4z M292.96,212.14
		c1.18-1.13,1.77-2.75,1.77-4.85c0-2.1-0.59-3.73-1.77-4.87c-1.18-1.15-2.53-1.72-4.06-1.72c-1.53,0-2.88,0.57-4.06,1.7
		c-1.18,1.13-1.77,2.75-1.77,4.85c0,2.1,0.59,3.73,1.77,4.87c1.18,1.15,2.53,1.72,4.06,1.72
		C290.43,213.83,291.78,213.27,292.96,212.14z"/>
	<path class="st0" d="M317.66,220.9c-3.89,0-7.07-1.25-9.56-3.75c-2.48-2.5-3.73-5.82-3.73-9.96s1.23-7.44,3.7-9.89
		c2.47-2.45,5.66-3.68,9.58-3.68s7.17,1.21,9.75,3.63c2.58,2.42,3.87,5.78,3.87,10.08c0,0.92-0.06,1.78-0.19,2.58h-18.35
		c0.16,1.18,0.68,2.14,1.58,2.89c0.89,0.75,1.86,1.12,2.89,1.12s1.81-0.1,2.32-0.31c0.51-0.21,0.88-0.41,1.12-0.62
		c0.24-0.21,0.55-0.55,0.93-1.03h8.84c-0.76,2.68-2.29,4.83-4.59,6.47C323.54,220.08,320.82,220.9,317.66,220.9z M321.15,201.77
		c-0.96-0.78-2.09-1.17-3.39-1.17c-1.31,0-2.41,0.39-3.3,1.17c-0.89,0.78-1.45,1.79-1.67,3.03h9.99
		C322.65,203.56,322.11,202.55,321.15,201.77z"/>
	<path class="st0" d="M345.95,213.64h2.91v6.93h-4.16c-2.99,0-5.31-0.66-6.95-1.98c-1.64-1.32-2.46-3.59-2.46-6.81v-11.08h-2.48
		v-6.78h2.48v-6.5h8.17v6.5h5.35v6.78h-5.35v11.08C343.46,213.02,344.29,213.64,345.95,213.64z"/>
	<path class="st0" d="M359.99,190.9c-0.92,0.92-2.05,1.39-3.39,1.39s-2.47-0.46-3.39-1.39c-0.92-0.92-1.39-2.06-1.39-3.42
		c0-1.35,0.46-2.49,1.39-3.42c0.92-0.92,2.05-1.39,3.39-1.39s2.47,0.46,3.39,1.39c0.92,0.92,1.39,2.06,1.39,3.42
		C361.38,188.84,360.91,189.98,359.99,190.9z M352.54,220.57v-26.66h8.17v26.66H352.54z"/>
	<path class="st0" d="M377.29,213.64h2.91v6.93h-4.16c-3,0-5.31-0.66-6.95-1.98c-1.64-1.32-2.46-3.59-2.46-6.81v-11.08h-2.48v-6.78
		h2.48v-6.5h8.17v6.5h5.35v6.78h-5.35v11.08C374.8,213.02,375.63,213.64,377.29,213.64z"/>
	<path class="st0" d="M391.33,190.9c-0.92,0.92-2.05,1.39-3.39,1.39s-2.47-0.46-3.39-1.39c-0.92-0.92-1.39-2.06-1.39-3.42
		c0-1.35,0.46-2.49,1.39-3.42c0.92-0.92,2.05-1.39,3.39-1.39s2.47,0.46,3.39,1.39c0.92,0.92,1.38,2.06,1.38,3.42
		C392.72,188.84,392.25,189.98,391.33,190.9z M383.88,220.57v-26.66h8.17v26.66H383.88z"/>
	<path class="st0" d="M399.43,217.13c-2.69-2.52-4.04-5.83-4.04-9.94c0-4.11,1.34-7.4,4.01-9.87c2.67-2.47,5.99-3.7,9.94-3.7
		c3.95,0,7.25,1.23,9.91,3.7c2.66,2.47,3.99,5.76,3.99,9.87c0,4.11-1.32,7.42-3.96,9.94c-2.64,2.52-5.94,3.77-9.89,3.77
		S402.12,219.65,399.43,217.13z M413.31,212.21c1.08-1.15,1.63-2.8,1.63-4.97s-0.56-3.81-1.67-4.95c-1.12-1.13-2.44-1.7-3.97-1.7
		c-1.53,0-2.84,0.57-3.94,1.7c-1.1,1.13-1.65,2.78-1.65,4.95s0.57,3.82,1.7,4.97c1.13,1.15,2.46,1.72,3.99,1.72
		C410.92,213.93,412.23,213.35,413.31,212.21z"/>
	<path class="st0" d="M434.76,193.91v3.92c1.69-2.8,4.38-4.2,8.07-4.2c3.06,0,5.53,1.02,7.43,3.06c1.89,2.04,2.84,4.81,2.84,8.31
		v15.58h-8.12v-14.48c0-1.72-0.45-3.05-1.36-3.99c-0.91-0.94-2.16-1.41-3.75-1.41s-2.84,0.47-3.75,1.41
		c-0.91,0.94-1.36,2.27-1.36,3.99v14.48h-8.17v-26.66H434.76z"/>
	<path class="st0" d="M111.37,240.27c0,0.4,0.11,0.74,0.33,1c0.22,0.27,0.51,0.46,0.86,0.59c0.35,0.13,0.74,0.24,1.17,0.33
		s0.86,0.2,1.29,0.33c0.43,0.12,0.82,0.28,1.17,0.47s0.64,0.48,0.86,0.86c0.22,0.38,0.33,0.85,0.33,1.42c0,0.86-0.33,1.61-0.99,2.25
		c-0.66,0.64-1.55,0.96-2.67,0.96s-2.03-0.26-2.73-0.77c-0.7-0.51-1.05-1.21-1.05-2.09h1.54c0.04,0.5,0.24,0.9,0.6,1.21
		c0.36,0.31,0.88,0.46,1.58,0.46s1.26-0.18,1.67-0.54c0.41-0.36,0.62-0.78,0.62-1.27s-0.11-0.85-0.33-1.12
		c-0.22-0.26-0.51-0.45-0.86-0.58c-0.35-0.13-0.74-0.24-1.17-0.33s-0.86-0.2-1.29-0.33c-0.43-0.13-0.82-0.29-1.17-0.49
		s-0.64-0.49-0.86-0.88c-0.22-0.39-0.33-0.87-0.33-1.44c0-0.93,0.33-1.68,1-2.25s1.53-0.85,2.6-0.85c1.07,0,1.92,0.25,2.55,0.74
		c0.63,0.49,1,1.18,1.09,2.05h-1.61c-0.04-0.43-0.25-0.81-0.61-1.11c-0.37-0.31-0.86-0.46-1.48-0.46s-1.13,0.16-1.52,0.47
		C111.57,239.21,111.37,239.67,111.37,240.27z"/>
	<path class="st0" d="M120.48,247.22c-0.8-0.85-1.19-1.95-1.19-3.28c0-1.33,0.4-2.41,1.19-3.23c0.79-0.82,1.79-1.23,2.99-1.23
		c0.74,0,1.39,0.17,1.95,0.53c0.56,0.35,0.98,0.81,1.27,1.37v-1.75h1.46v8.74h-1.46v-1.78c-0.29,0.57-0.71,1.04-1.27,1.39
		c-0.56,0.36-1.21,0.53-1.95,0.53C122.27,248.51,121.28,248.08,120.48,247.22z M125.81,246.37c0.58-0.59,0.87-1.38,0.87-2.37
		c0-0.99-0.29-1.78-0.87-2.37c-0.58-0.59-1.27-0.89-2.09-0.89c-0.81,0-1.51,0.29-2.09,0.86c-0.58,0.57-0.87,1.35-0.87,2.34
		s0.29,1.79,0.88,2.41c0.58,0.62,1.28,0.92,2.09,0.92C124.54,247.26,125.23,246.97,125.81,246.37z"/>
	<path class="st0" d="M133.72,247.18h1.19v1.18h-1.47c-1.52,0-2.28-0.75-2.28-2.25v-5.32h-1.13v-1.18h1.13v-2.17h1.47v2.17h2.26
		v1.18h-2.26v5.32c0,0.39,0.08,0.67,0.24,0.83C133.03,247.1,133.31,247.18,133.72,247.18z"/>
	<path class="st0" d="M142.99,239.62h1.45v8.74h-1.45v-1.4c-0.58,1.03-1.53,1.54-2.85,1.54c-0.97,0-1.77-0.32-2.42-0.96
		c-0.65-0.64-0.97-1.55-0.97-2.73v-5.19h1.43v4.95c0,0.87,0.21,1.54,0.64,2c0.43,0.46,1.02,0.69,1.76,0.69s1.33-0.23,1.76-0.69
		c0.43-0.46,0.65-1.13,0.65-2V239.62z"/>
	<path class="st0" d="M148.59,239.62v1.48c0.52-1.08,1.41-1.62,2.66-1.62v1.51h-0.38c-0.74,0-1.31,0.19-1.7,0.58
		s-0.58,1.06-0.58,2.01v4.78h-1.45v-8.74H148.59z"/>
	<path class="st0" d="M153.94,247.22c-0.8-0.85-1.19-1.95-1.19-3.28c0-1.33,0.4-2.41,1.19-3.23c0.79-0.82,1.79-1.23,2.99-1.23
		c0.74,0,1.39,0.17,1.95,0.53c0.56,0.35,0.98,0.81,1.27,1.37v-4.79h1.46v11.79h-1.46v-1.78c-0.29,0.57-0.71,1.04-1.27,1.39
		c-0.56,0.36-1.21,0.53-1.95,0.53C155.73,248.51,154.74,248.08,153.94,247.22z M159.27,246.37c0.58-0.59,0.87-1.38,0.87-2.37
		c0-0.99-0.29-1.78-0.87-2.37c-0.58-0.59-1.27-0.89-2.09-0.89c-0.81,0-1.51,0.29-2.09,0.86c-0.58,0.57-0.87,1.35-0.87,2.34
		s0.29,1.79,0.88,2.41c0.58,0.62,1.28,0.92,2.09,0.92C158,247.26,158.69,246.97,159.27,246.37z"/>
	<path class="st0" d="M164.93,247.22c-0.8-0.85-1.19-1.95-1.19-3.28c0-1.33,0.4-2.41,1.19-3.23c0.79-0.82,1.79-1.23,2.99-1.23
		c0.74,0,1.39,0.17,1.95,0.53s0.98,0.81,1.27,1.37v-1.75h1.46v8.74h-1.46v-1.78c-0.29,0.57-0.71,1.04-1.27,1.39
		c-0.56,0.36-1.21,0.53-1.95,0.53C166.72,248.51,165.73,248.08,164.93,247.22z M170.26,246.37c0.58-0.59,0.87-1.38,0.87-2.37
		c0-0.99-0.29-1.78-0.87-2.37c-0.58-0.59-1.27-0.89-2.09-0.89c-0.81,0-1.51,0.29-2.09,0.86s-0.87,1.35-0.87,2.34
		s0.29,1.79,0.88,2.41c0.58,0.62,1.28,0.92,2.09,0.92S169.68,246.97,170.26,246.37z"/>
	<path class="st0" d="M177.75,248.22l-3.46-8.6h1.59l2.68,7.07l2.72-7.07h1.5l-5.27,12.84h-1.5L177.75,248.22z"/>
	<path class="st0" d="M183.91,247.3h1.48c0.53,2.23,0.05,3.34-1.43,3.34v-0.7c0.26,0,0.46-0.06,0.58-0.19
		c0.12-0.13,0.18-0.33,0.18-0.61v-0.37h-0.81V247.3z"/>
	<path class="st0" d="M194.04,240.27c0,0.4,0.11,0.74,0.33,1s0.51,0.46,0.86,0.59c0.35,0.13,0.74,0.24,1.17,0.33
		c0.43,0.1,0.86,0.2,1.29,0.33c0.43,0.12,0.82,0.28,1.17,0.47c0.35,0.19,0.64,0.48,0.86,0.86c0.22,0.38,0.33,0.85,0.33,1.42
		c0,0.86-0.33,1.61-0.99,2.25c-0.66,0.64-1.55,0.96-2.67,0.96c-1.12,0-2.03-0.26-2.73-0.77s-1.05-1.21-1.05-2.09h1.54
		c0.04,0.5,0.24,0.9,0.6,1.21s0.88,0.46,1.58,0.46c0.7,0,1.26-0.18,1.67-0.54c0.41-0.36,0.62-0.78,0.62-1.27s-0.11-0.85-0.33-1.12
		c-0.22-0.26-0.51-0.45-0.86-0.58c-0.35-0.13-0.74-0.24-1.17-0.33c-0.43-0.09-0.86-0.2-1.29-0.33c-0.43-0.13-0.82-0.29-1.17-0.49
		c-0.35-0.2-0.64-0.49-0.86-0.88c-0.22-0.39-0.33-0.87-0.33-1.44c0-0.93,0.33-1.68,1-2.25c0.66-0.57,1.53-0.85,2.6-0.85
		c1.07,0,1.92,0.25,2.55,0.74c0.63,0.49,1,1.18,1.09,2.05h-1.61c-0.04-0.43-0.25-0.81-0.61-1.11c-0.37-0.31-0.86-0.46-1.48-0.46
		s-1.13,0.16-1.52,0.47C194.24,239.21,194.04,239.67,194.04,240.27z"/>
	<path class="st0" d="M206.19,248.51c-1.25,0-2.27-0.41-3.06-1.24s-1.18-1.92-1.18-3.28c0-1.36,0.4-2.45,1.19-3.27
		c0.8-0.82,1.83-1.23,3.1-1.23c1.27,0,2.29,0.39,3.06,1.17c0.77,0.78,1.15,1.78,1.15,2.99c0,0.31-0.02,0.59-0.06,0.86h-6.96
		c0.04,0.87,0.32,1.56,0.82,2.06c0.5,0.5,1.15,0.76,1.94,0.76c0.59,0,1.1-0.13,1.51-0.4c0.41-0.27,0.71-0.62,0.9-1.05h1.56
		c-0.28,0.76-0.75,1.4-1.42,1.9C208.06,248.26,207.21,248.51,206.19,248.51z M208.15,241.43c-0.52-0.5-1.17-0.76-1.94-0.76
		s-1.41,0.25-1.92,0.74c-0.51,0.49-0.79,1.17-0.84,2.03h5.49C208.94,242.6,208.67,241.93,208.15,241.43z"/>
	<path class="st0" d="M217.26,239.48c1.2,0,2.2,0.41,2.99,1.23c0.79,0.82,1.19,1.9,1.19,3.23c0,1.33-0.4,2.43-1.19,3.28
		c-0.8,0.85-1.79,1.28-2.98,1.28c-0.74,0-1.39-0.18-1.95-0.53c-0.56-0.36-0.98-0.82-1.28-1.39v5.92h-1.45v-12.88h1.45v1.75
		c0.3-0.56,0.72-1.02,1.28-1.37S216.52,239.48,217.26,239.48z M216.98,247.26c0.81,0,1.51-0.31,2.09-0.92s0.87-1.41,0.87-2.41
		c0-0.99-0.29-1.78-0.87-2.35s-1.27-0.86-2.09-0.86c-0.81,0-1.51,0.3-2.09,0.89s-0.87,1.38-0.87,2.36c0,0.98,0.29,1.77,0.87,2.37
		S216.17,247.26,216.98,247.26z"/>
	<path class="st0" d="M226.43,247.18h1.19v1.18h-1.47c-1.52,0-2.28-0.75-2.28-2.25v-5.32h-1.13v-1.18h1.13v-2.17h1.47v2.17h2.26
		v1.18h-2.26v5.32c0,0.39,0.08,0.67,0.24,0.83S226.03,247.18,226.43,247.18z"/>
	<path class="st0" d="M233.2,248.51c-1.25,0-2.27-0.41-3.06-1.24c-0.79-0.83-1.18-1.92-1.18-3.28c0-1.36,0.4-2.45,1.19-3.27
		c0.8-0.82,1.83-1.23,3.1-1.23s2.29,0.39,3.06,1.17s1.15,1.78,1.15,2.99c0,0.31-0.02,0.59-0.06,0.86h-6.96
		c0.04,0.87,0.32,1.56,0.82,2.06c0.5,0.5,1.15,0.76,1.93,0.76c0.59,0,1.1-0.13,1.5-0.4s0.71-0.62,0.9-1.05h1.56
		c-0.28,0.76-0.75,1.4-1.43,1.9S234.22,248.51,233.2,248.51z M235.16,241.43c-0.52-0.5-1.17-0.76-1.94-0.76s-1.41,0.25-1.92,0.74
		c-0.51,0.49-0.79,1.17-0.84,2.03h5.49C235.95,242.6,235.68,241.93,235.16,241.43z"/>
	<path class="st0" d="M241.04,239.62v1.42c0.59-1.04,1.54-1.56,2.85-1.56c0.67,0,1.27,0.16,1.82,0.49c0.54,0.32,0.95,0.79,1.23,1.41
		c0.32-0.59,0.75-1.06,1.3-1.39c0.55-0.33,1.17-0.5,1.87-0.5c0.99,0,1.81,0.32,2.45,0.96s0.97,1.56,0.97,2.75v5.18h-1.43v-4.94
		c0-0.88-0.21-1.55-0.65-2.01c-0.43-0.46-1.02-0.69-1.76-0.69s-1.33,0.23-1.76,0.69c-0.43,0.46-0.64,1.13-0.64,2.01v4.94h-1.43
		v-4.94c0-0.88-0.21-1.55-0.64-2.01c-0.42-0.46-1.01-0.69-1.76-0.69c-0.75,0-1.34,0.23-1.77,0.69c-0.43,0.46-0.65,1.13-0.65,2.01
		v4.94h-1.45v-8.74H241.04z"/>
	<path class="st0" d="M260.83,239.48c1.2,0,2.2,0.41,2.99,1.23c0.79,0.82,1.19,1.9,1.19,3.23c0,1.33-0.4,2.43-1.19,3.28
		c-0.8,0.85-1.79,1.28-2.98,1.28c-0.74,0-1.39-0.18-1.95-0.53c-0.56-0.36-0.99-0.82-1.28-1.39v1.78h-1.45v-11.79h1.45v4.79
		c0.3-0.56,0.72-1.02,1.28-1.37S260.09,239.48,260.83,239.48z M260.55,247.26c0.81,0,1.51-0.31,2.09-0.92
		c0.58-0.61,0.87-1.41,0.87-2.41c0-0.99-0.29-1.78-0.87-2.35c-0.58-0.57-1.27-0.86-2.09-0.86c-0.81,0-1.51,0.3-2.09,0.89
		c-0.58,0.59-0.87,1.38-0.87,2.36c0,0.98,0.29,1.77,0.87,2.37C259.05,246.96,259.74,247.26,260.55,247.26z"/>
	<path class="st0" d="M270.8,248.51c-1.25,0-2.27-0.41-3.06-1.24c-0.79-0.83-1.18-1.92-1.18-3.28c0-1.36,0.4-2.45,1.19-3.27
		c0.8-0.82,1.83-1.23,3.1-1.23s2.29,0.39,3.06,1.17c0.77,0.78,1.15,1.78,1.15,2.99c0,0.31-0.02,0.59-0.06,0.86h-6.96
		c0.04,0.87,0.32,1.56,0.82,2.06c0.5,0.5,1.15,0.76,1.93,0.76c0.59,0,1.1-0.13,1.5-0.4c0.41-0.27,0.71-0.62,0.9-1.05h1.56
		c-0.28,0.76-0.75,1.4-1.43,1.9C272.67,248.26,271.82,248.51,270.8,248.51z M272.76,241.43c-0.52-0.5-1.17-0.76-1.94-0.76
		c-0.77,0-1.41,0.25-1.92,0.74c-0.51,0.49-0.79,1.17-0.84,2.03h5.49C273.55,242.6,273.28,241.93,272.76,241.43z"/>
	<path class="st0" d="M278.64,239.62v1.48c0.52-1.08,1.41-1.62,2.66-1.62v1.51h-0.38c-0.74,0-1.31,0.19-1.7,0.58
		s-0.58,1.06-0.58,2.01v4.78h-1.45v-8.74H278.64z"/>
	<path class="st0" d="M289.4,248.36v-10.02h-1.31v-1.29h2.72v11.31H289.4z"/>
	<path class="st0" d="M299.34,248.36v-2.58h-5.92v-1.02l5.48-7.87h1.85v7.64h1.54v1.24h-1.54v2.58H299.34z M299.39,244.54v-6.31
		l-4.28,6.31H299.39z"/>
	<path class="st0" d="M303.73,247.3h1.48c0.53,2.23,0.05,3.34-1.43,3.34v-0.7c0.26,0,0.46-0.06,0.58-0.19
		c0.12-0.13,0.18-0.33,0.18-0.61v-0.37h-0.81V247.3z"/>
	<path class="st0" d="M312.38,248.2v-1.04c0.25-0.22,0.66-0.57,1.2-1.04c0.55-0.47,0.95-0.82,1.22-1.06
		c0.26-0.24,0.62-0.56,1.05-0.97c0.44-0.41,0.77-0.75,1-1.03c0.23-0.28,0.46-0.59,0.71-0.96c0.46-0.68,0.68-1.35,0.68-2.01
		c0-0.66-0.17-1.2-0.52-1.6c-0.34-0.4-0.89-0.6-1.62-0.6c-0.74,0-1.3,0.23-1.7,0.68s-0.61,1.05-0.64,1.79h-1.39
		c0.04-1.19,0.4-2.1,1.08-2.75c0.67-0.64,1.55-0.96,2.63-0.96c1.08,0,1.94,0.3,2.6,0.92c0.65,0.61,0.98,1.44,0.98,2.49
		c0,1.26-0.62,2.56-1.85,3.9c-0.45,0.48-0.79,0.83-1.04,1.05c-0.68,0.66-1.41,1.31-2.18,1.96h5.41v1.23H312.38z"/>
	<path class="st0" d="M323.28,237.83c0.29-0.33,0.67-0.6,1.15-0.8c0.47-0.2,1.06-0.3,1.77-0.3s1.33,0.15,1.86,0.44
		s0.95,0.71,1.23,1.27c0.52,1.02,0.78,2.39,0.78,4.11c0,2.21-0.39,3.77-1.18,4.7c-0.65,0.74-1.59,1.11-2.82,1.11
		c-2.26,0-3.56-1.32-3.9-3.96c-0.06-0.55-0.1-1.17-0.1-1.86s0.04-1.3,0.1-1.85c0.07-0.55,0.2-1.07,0.38-1.58
		C322.75,238.58,322.99,238.16,323.28,237.83z M328.25,239.42c-0.17-0.46-0.43-0.81-0.8-1.05c-0.37-0.24-0.8-0.36-1.3-0.36
		s-0.91,0.08-1.23,0.25c-0.32,0.17-0.58,0.39-0.76,0.65c-0.18,0.27-0.32,0.61-0.43,1.03c-0.11,0.42-0.17,0.82-0.2,1.21
		c-0.03,0.39-0.04,0.85-0.04,1.38c0,0.53,0.01,0.99,0.04,1.38c0.03,0.39,0.09,0.79,0.2,1.21c0.11,0.42,0.25,0.76,0.43,1.03
		c0.18,0.27,0.43,0.48,0.76,0.65c0.32,0.17,0.71,0.25,1.16,0.25c0.45,0,0.83-0.08,1.15-0.25c0.32-0.17,0.58-0.39,0.76-0.65
		c0.19-0.27,0.33-0.61,0.42-1.04c0.17-0.68,0.25-1.45,0.25-2.31c0-0.86-0.03-1.52-0.09-1.99S328.42,239.88,328.25,239.42z"/>
	<path class="st0" d="M333.61,248.36v-10.02h-1.31v-1.29h2.72v11.31H333.61z"/>
	<path class="st0" d="M342.23,247.12c0.85,0,1.47-0.33,1.86-0.98c0.39-0.65,0.59-1.8,0.59-3.43c-0.28,0.42-0.66,0.75-1.15,0.97
		c-0.49,0.22-1.03,0.33-1.6,0.33c-1.05,0-1.93-0.33-2.64-1c-0.71-0.66-1.06-1.57-1.06-2.73s0.33-2.08,1-2.78
		c0.67-0.7,1.6-1.04,2.79-1.04c1.39,0,2.39,0.48,2.99,1.43c0.61,0.95,0.91,2.44,0.91,4.47s-0.28,3.54-0.84,4.51
		c-0.56,0.98-1.54,1.46-2.94,1.46c-1.07,0-1.91-0.28-2.52-0.84c-0.6-0.56-0.97-1.27-1.08-2.12h1.32
		C340.11,246.54,340.9,247.12,342.23,247.12z M339.6,240.23c0,0.76,0.22,1.37,0.65,1.84c0.43,0.47,1.04,0.7,1.83,0.7
		s1.39-0.22,1.79-0.67c0.4-0.45,0.6-1.06,0.6-1.85c0-0.79-0.21-1.41-0.64-1.87s-1.02-0.69-1.78-0.69s-1.35,0.23-1.79,0.7
		C339.82,238.86,339.6,239.47,339.6,240.23z"/>
</g>
</svg>
