<?xml version="1.0" encoding="utf-8"?>
<!-- Generator: Adobe Illustrator 22.1.0, SVG Export Plug-In . SVG Version: 6.00 Build 0)  -->
<svg version="1.1" id="Layer_1" xmlns="http://www.w3.org/2000/svg" xmlns:xlink="http://www.w3.org/1999/xlink" x="0px" y="0px"
	 viewBox="0 0 12.5 12.5" style="enable-background:new 0 0 12.5 12.5;" xml:space="preserve">
<style type="text/css">
	.st0{fill:#0077B5;}
</style>
<path id="LinkedIn" class="st0" d="M9.6,7.4v4.8c0,0.1,0,0.2,0.1,0.2c0.1,0.1,0.1,0.1,0.2,0.1h2.3c0.1,0,0.2,0,0.2-0.1
	c0.1-0.1,0.1-0.1,0.1-0.2V6.8c0.1-0.9-0.3-1.7-0.9-2.3C11,4,10.1,3.7,9.2,3.7C8.4,3.7,7.6,4,7,4.5c0-0.1,0-0.1,0-0.2V4.2
	c0-0.1,0-0.1-0.1-0.2C6.8,4,6.7,3.9,6.7,3.9H4.5c-0.2,0-0.3,0.2-0.3,0.3v7.9c0,0.1,0,0.2,0.1,0.2c0.1,0.1,0.1,0.1,0.2,0.1h2.2
	c0.2,0,0.3-0.1,0.3-0.3c0,0,0,0,0,0V7.9C7,7.4,7.1,7,7.4,6.6c0.3-0.3,0.7-0.5,1.1-0.5c0.3,0,0.7,0.1,0.9,0.3C9.5,6.7,9.6,7,9.6,7.4
	L9.6,7.4z M2.6,0.5C2-0.1,1-0.1,0.4,0.5C0.2,0.7,0,1.1,0,1.5c0,0.4,0.2,0.8,0.4,1.1C1,3.2,2,3.2,2.5,2.6c0,0,0,0,0,0
	C2.9,2.3,3,1.9,3,1.5C3,1.1,2.9,0.7,2.6,0.5z M2.9,4C2.8,4,2.7,3.9,2.6,3.9H0.4C0.3,3.9,0.2,4,0.2,4C0.1,4.1,0.1,4.2,0.1,4.3v7.9
	c0,0.2,0.1,0.3,0.3,0.3c0,0,0,0,0,0h2.2c0.1,0,0.2,0,0.2-0.1C2.9,12.3,3,12.3,3,12.2V4.3C3,4.2,2.9,4.1,2.9,4L2.9,4z"/>
</svg>
