<svg xmlns="http://www.w3.org/2000/svg" width="19.688" height="29.25" viewBox="0 0 19.688 29.25">
  <metadata><?xpacket begin="﻿" id="W5M0MpCehiHzreSzNTczkc9d"?>
<x:xmpmeta xmlns:x="adobe:ns:meta/" x:xmptk="Adobe XMP Core 5.6-c142 79.160924, 2017/07/13-01:06:39        ">
   <rdf:RDF xmlns:rdf="http://www.w3.org/1999/02/22-rdf-syntax-ns#">
      <rdf:Description rdf:about=""/>
   </rdf:RDF>
</x:xmpmeta>
                                                                                                    
                                                                                                    
                                                                                                    
                                                                                                    
                                                                                                    
                                                                                                    
                                                                                                    
                                                                                                    
                                                                                                    
                                                                                                    
                                                                                                    
                                                                                                    
                                                                                                    
                                                                                                    
                                                                                                    
                                                                                                    
                                                                                                    
                                                                                                    
                                                                                                    
                                                                                                    
                           
<?xpacket end="w"?></metadata>
<defs>
    <style>
      .cls-1 {
        fill: #363636;
        fill-rule: evenodd;
        opacity: 0.5;
      }
    </style>
  </defs>
  <path id="karachi" class="cls-1" d="M157.656,2210.5a13.533,13.533,0,0,0,1.5,5.2,45.455,45.455,0,0,0,3.008,5.87c1.458,2.56,2.939,4.9,4.443,7.05l0.889,1.29,0.889-1.29,0.615-.89c0.41-.6.991-1.48,1.743-2.67s1.446-2.35,2.085-3.49a45.711,45.711,0,0,0,3.008-5.87,13.551,13.551,0,0,0,1.5-5.2,9.844,9.844,0,1,0-19.688,0h0Zm17.5,0a12.889,12.889,0,0,1-1.23,4.38,61.7,61.7,0,0,1-3.008,5.6q-1.71,2.94-3.418,5.47-1.71-2.535-3.418-5.47a61.45,61.45,0,0,1-3.008-5.6,12.889,12.889,0,0,1-1.23-4.38,7.656,7.656,0,1,1,15.312,0h0Zm-9.843,0a2.218,2.218,0,1,0,.649-1.54A2.1,2.1,0,0,0,165.313,2210.5Z" transform="translate(-157.656 -2200.66)"/>
</svg>
