<?xml version="1.0" encoding="utf-8"?>
<!-- Generator: Adobe Illustrator 22.0.1, SVG Export Plug-In . SVG Version: 6.00 Build 0)  -->
<svg version="1.1" id="Layer_1" xmlns="http://www.w3.org/2000/svg" xmlns:xlink="http://www.w3.org/1999/xlink" x="0px" y="0px"
	 viewBox="0 0 200 45.7" style="enable-background:new 0 0 200 45.7;" xml:space="preserve">
<style type="text/css">
	.st0{fill:#8B8C8C;}
	.st1{fill:#A31E37;}
	.st2{fill:#57585C;}
</style>
<g>
	<rect id="Rectangle_13" x="70.7" class="st0" width="0.5" height="45.7"/>
	<rect id="_Path_" y="8" class="st1" width="6.3" height="29.7"/>
	<rect id="_Path_2" x="20.3" y="8" class="st1" width="6.3" height="29.7"/>
	<rect id="_Path_3" x="10.2" y="8" class="st1" width="6.3" height="20.2"/>
	<rect id="_Path_4" x="30.5" y="17.5" class="st0" width="6.3" height="20.2"/>
	<rect id="_Path_5" x="40.9" y="8" class="st1" width="16.5" height="5.9"/>
	<rect id="_Path_6" x="30.5" y="8" class="st1" width="6.3" height="5.9"/>
	<rect id="_Path_7" x="40.9" y="17.5" class="st1" width="6.3" height="20.2"/>
	<g>
		<g>
			<path class="st0" d="M84.7,28.4v-7h0.5l3.1,4.5l3.1-4.5h0.5v7h-0.9v-4.7l-2.4,3.6h-0.2l-2.4-3.6v4.7H84.7z"/>
			<path class="st0" d="M93.7,21.4h0.9v7h-0.9V21.4z"/>
			<path class="st0" d="M97.7,22.3h-2.1v-0.9h5.2v0.9h-2.1v6.1h-0.9v-6.1H97.7z"/>
			<path class="st0" d="M107.2,28.5c-1,0-1.8-0.3-2.7-1c-0.7-0.7-1-1.5-1-2.5c0-1,0.3-2,1-2.7c0.7-0.7,1.6-1,2.7-1
				c0.7,0,1.3,0.1,1.8,0.5c0.6,0.3,0.9,0.7,1.3,1.2l-0.7,0.5c-0.6-0.8-1.4-1.2-2.3-1.2c-0.8,0-1.4,0.2-2,0.8s-0.8,1.2-0.8,2
				c0,0.8,0.2,1.4,0.8,2c0.6,0.5,1.2,0.8,2,0.8c0.5,0,0.9-0.1,1.4-0.3c0.5-0.2,0.8-0.5,1-0.9l0.7,0.6c-0.3,0.5-0.8,0.8-1.3,1.2
				C108.5,28.3,107.9,28.5,107.2,28.5z"/>
			<path class="st0" d="M111.5,28.4v-7h0.9v6.1h3.8v0.9C116.2,28.4,111.5,28.4,111.5,28.4z"/>
			<path class="st0" d="M121.5,27.8c-0.5,0.5-1.2,0.7-1.8,0.7c-0.8,0-1.4-0.2-1.8-0.7c-0.5-0.5-0.7-1-0.7-1.8v-4.6h0.9v4.5
				c0,0.6,0.1,1,0.5,1.3c0.2,0.3,0.7,0.5,1.2,0.5s0.9-0.1,1.2-0.5s0.5-0.7,0.5-1.3v-4.5h0.9V26C122.3,26.8,122.1,27.4,121.5,27.8z"
				/>
			<path class="st0" d="M127.9,24.5c0.5,0.1,0.8,0.3,1,0.7s0.3,0.7,0.3,1.2c0,0.6-0.2,1-0.6,1.4c-0.3,0.3-0.9,0.6-1.6,0.6h-3v-7h2.9
				c0.6,0,1.2,0.2,1.5,0.6c0.3,0.3,0.5,0.8,0.5,1.3c0,0.3-0.1,0.6-0.2,0.9C128.3,24.2,128.1,24.4,127.9,24.5z M126.7,22.2H125v2h1.7
				c0.3,0,0.6-0.1,0.8-0.3c0.2-0.2,0.3-0.5,0.3-0.7s-0.1-0.5-0.3-0.7C127.3,22.3,127.1,22.2,126.7,22.2z M126.8,27.5
				c0.5,0,0.8-0.1,1-0.3c0.2-0.2,0.3-0.5,0.3-0.8c0-0.3-0.1-0.6-0.3-0.9c-0.2-0.2-0.6-0.3-1-0.3H125v2.4
				C125,27.5,126.8,27.5,126.8,27.5z"/>
			<path class="st0" d="M138.7,27.4c-0.7,0.7-1.6,1-2.7,1s-2-0.3-2.7-1c-0.7-0.7-1-1.5-1-2.5s0.3-1.8,1-2.7c0.7-0.7,1.6-1,2.7-1
				s1.8,0.3,2.7,1c0.7,0.7,1,1.6,1,2.5S139.5,26.7,138.7,27.4z M134.2,26.8c0.5,0.5,1.2,0.8,2,0.8c0.8,0,1.4-0.2,2-0.8
				c0.6-0.5,0.8-1.2,0.8-2s-0.2-1.4-0.8-2c-0.6-0.6-1.2-0.8-2-0.8c-0.7,0-1.4,0.2-2,0.8c-0.6,0.6-0.8,1.2-0.8,2
				C133.4,25.6,133.8,26.2,134.2,26.8z"/>
			<path class="st0" d="M141.1,28.4v-7h4.4v0.9h-3.5v2.1h3v0.9h-3v3.1C142.1,28.4,141.1,28.4,141.1,28.4z"/>
			<path class="st0" d="M89.6,30.6h0.9v7H90l-4.3-5v5h-0.9v-7h0.5l4.4,5.1v-5.1H89.6z"/>
			<path class="st0" d="M98.2,36.6c-0.7,0.7-1.6,1-2.7,1s-2-0.3-2.7-1s-1-1.5-1-2.5s0.3-1.8,1-2.7c0.7-0.7,1.6-1,2.7-1
				s1.8,0.3,2.7,1c0.7,0.7,1,1.6,1,2.5S98.9,35.9,98.2,36.6z M93.6,36c0.5,0.5,1.2,0.8,2,0.8s1.4-0.2,2-0.8c0.6-0.5,0.8-1.2,0.8-2
				c0-0.8-0.2-1.4-0.8-2s-1.2-0.8-2-0.8c-0.7,0-1.4,0.2-2,0.8s-0.8,1.2-0.8,2C92.9,34.9,93.1,35.4,93.6,36z"/>
			<path class="st0" d="M104.4,37.6l-1.8-2.9h-1v2.9h-0.9v-7h2.4c0.7,0,1.3,0.2,1.6,0.6c0.3,0.5,0.6,0.9,0.6,1.5
				c0,0.5-0.1,0.9-0.5,1.3c-0.2,0.3-0.7,0.6-1.3,0.7l2,2.9h-1V37.6z M101.6,31.4v2.4h1.3c0.5,0,0.8-0.1,1-0.3
				c0.2-0.2,0.3-0.5,0.3-0.8c0-0.3-0.1-0.6-0.3-0.8c-0.2-0.2-0.6-0.3-0.9-0.3h-1.4V31.4z"/>
			<path class="st0" d="M108,31.5h-2.1v-0.9h5.2v0.9h-2.1v6.1h-0.9v-6.1H108z"/>
			<path class="st0" d="M112.2,37.6v-7h0.9v2.9h3.6v-3h0.9v7h-0.9v-3.1h-3.6v3.1h-0.9V37.6z"/>
			<path class="st0" d="M119.6,37.6v-7h4.5v0.9h-3.5v2.1h3.2v0.9h-3.2v2.2h3.5v0.9C124.1,37.6,119.6,37.6,119.6,37.6z"/>
			<path class="st0" d="M129.3,37.6l-1.8-2.9h-1v2.9h-0.9v-7h2.4c0.7,0,1.3,0.2,1.6,0.6c0.3,0.5,0.6,0.9,0.6,1.5
				c0,0.5-0.1,0.9-0.5,1.3c-0.2,0.3-0.7,0.6-1.3,0.7l2,2.9h-1V37.6z M126.4,31.4v2.4h1.3c0.5,0,0.8-0.1,1-0.3
				c0.2-0.2,0.3-0.5,0.3-0.8c0-0.3-0.1-0.6-0.3-0.8c-0.2-0.2-0.6-0.3-0.9-0.3h-1.4V31.4z"/>
			<path class="st0" d="M136.4,30.6h0.9v7h-0.5l-4.3-5v5h-1v-7h0.5l4.4,5.1C136.4,35.7,136.4,30.6,136.4,30.6z"/>
			<path class="st0" d="M144.8,37.7c-1,0-1.8-0.3-2.7-1c-0.7-0.7-1-1.5-1-2.5s0.3-2,1-2.7c0.7-0.7,1.6-1,2.7-1
				c0.7,0,1.3,0.1,1.8,0.5c0.6,0.3,0.9,0.7,1.3,1.2l-0.7,0.6c-0.6-0.8-1.4-1.2-2.3-1.2c-0.8,0-1.4,0.2-2,0.8c-0.6,0.6-0.8,1.2-0.8,2
				c0,0.8,0.2,1.4,0.8,2c0.6,0.5,1.2,0.8,2,0.8c0.5,0,0.9-0.1,1.4-0.3c0.5-0.2,0.8-0.5,1-0.9l0.7,0.6c-0.3,0.5-0.8,0.8-1.3,1.2
				C146.1,37.5,145.4,37.7,144.8,37.7z"/>
			<path class="st0" d="M153.4,37.6l-0.7-1.8h-2.8l-0.7,1.8h-1l2.9-7h0.6l2.9,7H153.4z M151.3,32.2l-1,2.7h2.1L151.3,32.2z"/>
			<path class="st0" d="M155.5,37.6v-7h0.9v6.1h3.8v0.9H155.5z"/>
			<path class="st0" d="M161.3,30.6h0.9v7h-0.9V30.6z"/>
			<path class="st0" d="M164.1,37.6v-7h4.4v0.9H165v2.1h3v0.9h-3v3.1C165,37.6,164.1,37.6,164.1,37.6z"/>
			<path class="st0" d="M175.4,36.6c-0.7,0.7-1.6,1-2.7,1s-2-0.3-2.7-1c-0.7-0.7-1-1.5-1-2.5s0.3-1.8,1-2.7c0.7-0.7,1.6-1,2.7-1
				c1,0,1.8,0.3,2.7,1c0.7,0.7,1,1.6,1,2.5S176.1,35.9,175.4,36.6z M170.8,36c0.5,0.5,1.2,0.8,2,0.8c0.8,0,1.4-0.2,2-0.8
				c0.6-0.5,0.8-1.2,0.8-2c0-0.8-0.2-1.4-0.8-2c-0.6-0.6-1.2-0.8-2-0.8c-0.7,0-1.4,0.2-2,0.8c-0.6,0.6-0.8,1.2-0.8,2
				C170.1,34.9,170.3,35.4,170.8,36z"/>
			<path class="st0" d="M181.7,37.6l-1.8-2.9h-1v2.9h-0.9v-7h2.4c0.7,0,1.3,0.2,1.6,0.6s0.6,0.9,0.6,1.5c0,0.5-0.1,0.9-0.5,1.3
				s-0.7,0.6-1.3,0.7l2,2.9h-1V37.6z M178.8,31.4v2.4h1.3c0.5,0,0.8-0.1,1-0.3s0.3-0.5,0.3-0.8c0-0.3-0.1-0.6-0.3-0.8
				s-0.6-0.3-0.9-0.3h-1.4V31.4z"/>
			<path class="st0" d="M188.8,30.6h0.9v7h-0.5l-4.3-5v5h-0.9v-7h0.5l4.4,5.1v-5.1H188.8z"/>
			<path class="st0" d="M191.6,30.6h0.9v7h-0.9V30.6z"/>
			<path class="st0" d="M198.8,37.6l-0.7-1.8h-2.8l-0.7,1.8h-1l2.9-7h0.6l2.9,7H198.8z M196.8,32.2l-1,2.7h2.1L196.8,32.2z"/>
		</g>
		<g>
			<path class="st1" d="M84.8,15.1V6.2H86l3.6,5.1L93,6.2h1.3v8.9h-1.8v-5l-2.5,3.7h-0.6l-2.7-3.7v5.1h-1.8V15.1z"/>
			<path class="st1" d="M96.4,6.2h1.8v8.9h-1.8V6.2z"/>
			<path class="st1" d="M102,8h-2.5V6.2h7V8H104v7.2h-1.8V8H102z"/>
		</g>
		<g>
			<path class="st2" d="M111.8,15.3c-1.3,0-2.4-0.5-3.3-1.3c-0.9-0.8-1.4-2-1.4-3.2c0-1.4,0.5-2.4,1.4-3.3c0.9-0.9,2.1-1.3,3.3-1.3
				c0.8,0,1.6,0.2,2.3,0.6c0.7,0.1,1.3,0.7,1.6,1.3l-0.9,0.7c-0.8-1-1.7-1.5-3-1.5c-0.9,0-1.7,0.3-2.4,1c-0.7,0.7-1,1.5-1,2.5
				c0,1,0.3,1.8,1,2.4c0.7,0.6,1.5,0.9,2.4,0.9c0.6,0,1.2-0.1,1.7-0.5c0.6-0.2,0.9-0.7,1.4-1.2l0.9,0.7c-0.5,0.6-1,1-1.7,1.4
				C113.4,15.1,112.6,15.3,111.8,15.3z"/>
			<path class="st2" d="M123.3,6.2h1.3v8.9h-0.7l-5.4-6.3v6.3h-1.3V6.2h0.6l5.5,6.3C123.3,12.6,123.3,6.2,123.3,6.2z"/>
			<path class="st2" d="M130.9,15.3c-1.3,0-2.4-0.5-3.3-1.3c-0.9-0.8-1.4-2-1.4-3.2c0-1.4,0.5-2.4,1.4-3.3c0.9-0.9,2.1-1.3,3.3-1.3
				c0.8,0,1.6,0.2,2.3,0.6c0.7,0.3,1.3,0.8,1.6,1.4l-0.9,0.6c-0.8-1-1.7-1.5-3-1.5c-0.9,0-1.7,0.3-2.4,1c-0.7,0.7-1,1.5-1,2.5
				c0,1,0.3,1.8,1,2.4c0.7,0.6,1.5,0.9,2.4,0.9c0.6,0,1.2-0.1,1.7-0.5c0.6-0.2,0.9-0.7,1.4-1.2l0.9,0.7c-0.5,0.6-1,1-1.7,1.4
				C132.5,15.1,131.7,15.3,130.9,15.3z"/>
		</g>
	</g>
</g>
</svg>
