<svg id="meal4" enable-background="new 0 0 300 300" height="512" viewBox="0 0 300 300" width="512" xmlns="http://www.w3.org/2000/svg"><path d="m252 218h-.334c-5.723-9.874-16.219-16-27.666-16h-4v-112c0-2.211-1.789-4-4-4h-4v-12c0-2.211-1.789-4-4-4h-8.575l-5.096-32.617c-.305-1.949-1.98-3.383-3.953-3.383h-8.75c-1.973 0-3.648 1.434-3.953 3.383l-5.098 32.617h-8.575c-2.211 0-4 1.789-4 4v12h-4c-2.211 0-4 1.789-4 4v112h-27.609l5.668-72h9.941c2.211 0 4-1.789 4-4v-16c0-2.211-1.789-4-4-4h-48v-32.074l26.613-16.527c1.879-1.164 2.453-3.633 1.289-5.508-1.168-1.875-3.633-2.453-5.508-1.289l-28.503 17.699c-1.176.73-1.891 2.015-1.891 3.398v34.301h-48c-2.211 0-4 1.789-4 4v16c0 2.211 1.789 4 4 4h7.677l10.417 132.312c.164 2.082 1.902 3.688 3.988 3.688h57.574c.386 0 .735-.118 1.088-.219 1.078.111 2.158.219 3.256.219h104c11.448 0 21.943-6.127 27.66-16h.34c8.824 0 16-7.176 16-16s-7.176-16-16-16zm-10.165 0h-139.658c4.502-5.004 10.942-8 17.823-8h104c6.905 0 13.337 2.988 17.835 8zm-186.433-44h62.934l-2.349 28.271c-4.09.519-7.989 1.838-11.527 3.807-.133-.013-.249-.078-.385-.078h-46.013zm129.645-132h1.906l4.373 28h-10.652zm-17.047 36h36v8h-36zm-8 16h52v108h-52zm-120 20h96v8h-96zm82.033 16-2.834 36h-64.662l-2.834-36zm-60.252 128-3.464-44h36.764c-1.012 1.258-1.951 2.58-2.774 4h-.307c-8.824 0-16 7.176-16 16s7.176 16 16 16h.311c1.774 3.065 4.041 5.73 6.633 8zm162.219 0h-104c-6.877 0-13.317-2.995-17.82-8h139.656c-4.498 5.011-10.93 8-17.836 8zm-106.001-16 6.068-4.547c3.754-2.816 8.785-3.074 12.816-.66l3.086 1.852c6.188 3.711 13.875 3.719 20.062 0l4.73-2.836c3.387-2.035 7.531-2.191 11.059-.426l7.824 3.91c6.652 3.328 14.473 2.617 20.422-1.84 3.754-2.816 8.789-3.074 12.812-.66l8.679 5.207zm134.001 0h-18.55c1.092-1.887.484-4.304-1.392-5.43l-11.062-6.637c-6.832-4.102-15.367-3.66-21.73 1.117-3.504 2.633-8.117 3.047-12.043 1.086l-7.824-3.91c-5.992-2.996-13.004-2.734-18.754.723l-4.73 2.836c-3.645 2.184-8.172 2.191-11.832 0l-3.086-1.852c-6.836-4.102-15.367-3.664-21.73 1.121l-7.664 5.746c-1.646 1.232-2.01 3.469-.991 5.199h-18.612c-4.41 0-8-3.59-8-8s3.59-8 8-8h160c4.41 0 8 3.59 8 8s-3.59 8.001-8 8.001z"/></svg>