<svg width="110px" height="80px" viewBox="75 21 110 80" version="1.1" xmlns="http://www.w3.org/2000/svg" xmlns:xlink="http://www.w3.org/1999/xlink">        <desc>Created with Sketch.</desc>    <defs></defs>    <g id="MIT-AA-RED-+-WHITE" stroke="none" stroke-width="1" fill="none" fill-rule="evenodd" transform="translate(75.000000, 21.000000)">        <g>            <polygon id="Combined-Shape" fill="#D22030" points="109.708378 60.8419097 103.170711 35.7475245 103.170711 44.4924042 100.4916 44.4924042 100.4916 33.8114815 102.667156 33.8114815 93.9233778 0.251308432 43.2366 14.2197326 43.2366 28.3880469 27.1093778 28.3880469 30.0451556 39.6636113 32.1877111 33.8114815 35.5671556 33.8114815 39.4721556 44.4924042 36.4373778 44.4924042 35.9216 42.9548843 31.8296 42.9548843 31.3138222 44.4924042 31.3028222 44.4924042 40.5257111 79.9056469"></polygon>            <polygon id="Fill-5" fill="#ffffff" points="43.3061444 44.4927813 43.3061444 33.8118587 45.9828111 33.8118587 45.9828111 42.090328 50.1542556 42.090328 50.1542556 44.4927813"></polygon>            <polygon id="Fill-11" fill="#D22030" points="33.8862333 36.5303647 35.1903444 40.5520539 32.5613444 40.5520539"></polygon>            <polygon id="Fill-2" fill="#000000" points="13.167 23.2118978 13.167 13.2274477 9.46977778 23.2118978 7.79777778 23.2118978 4.07733333 13.2274477 4.07733333 23.2118978 0.292111111 23.2118978 0.292111111 8.11327713 5.55255556 8.11327713 8.63255556 16.4420333 11.693 8.11327713 16.9522222 8.11327713 16.9522222 23.2118978"></polygon>            <polygon id="Fill-3" fill="#000000" points="20.9171111 23.2111435 24.7035556 23.2111435 24.7035556 8.11252283 20.9171111 8.11252283"></polygon>            <polygon id="Fill-4" fill="#000000" points="31.5054667 23.2118978 31.5054667 11.5088953 27.3902444 11.5088953 27.3902444 8.11327713 39.3839111 8.11327713 39.3839111 11.5088953 35.2906889 11.5088953 35.2906889 23.2118978"></polygon>            <path d="M54.3000333,40.1679882 L54.3000333,33.8117329 L57.0194778,33.8117329 L57.0194778,40.0699289 C57.0194778,41.3346427 57.7687,42.2486058 59.2194778,42.2486058 C60.6482556,42.2486058 61.3962556,41.3346427 61.3962556,40.0699289 L61.3962556,33.8117329 L64.1047,33.8117329 L64.1047,40.1541594 C64.1047,42.8080468 62.5500333,44.6837456 59.2194778,44.6837456 C55.8840333,44.6837456 54.3000333,42.7967323 54.3000333,40.1679882" id="Fill-6" fill="#FFFFFF"></path>            <polygon id="Fill-8" fill="#FFFFFF" points="78.1959444 44.4927813 78.1959444 37.4299961 75.5803889 44.4927813 74.3985 44.4927813 71.7670556 37.4299961 71.7670556 44.4927813 69.0891667 44.4927813 69.0891667 33.8118587 72.8096111 33.8118587 74.9863889 39.7042179 77.1533889 33.8118587 80.8738333 33.8118587 80.8738333 44.4927813"></polygon>            <polygon id="Fill-9" fill="#FFFFFF" points="92.9229889 44.4927813 88.5352111 38.3087584 88.5352111 44.4927813 85.8573222 44.4927813 85.8573222 33.8118587 88.6134333 33.8118587 92.8178778 39.6866176 92.8178778 33.8118587 95.5092111 33.8118587 95.5092111 44.4927813"></polygon>            <path d="M31.8292333,42.9545072 L31.3134556,44.4932842 L31.3024556,44.4932842 L30.0460111,39.6644913 L32.1873444,33.8111044 L35.5667889,33.8111044 L39.4717889,44.4932842 L36.4370111,44.4932842 L35.9212333,42.9545072 L31.8292333,42.9545072 Z M33.8861111,36.530239 L32.5624444,40.5531853 L35.1902222,40.5531853 L33.8861111,36.530239 Z" id="Combined-Shape" fill="#FFFFFF"></path>            <polygon id="Fill-12" fill="#FFFFFF" points="100.491844 44.4927813 103.170956 44.4927813 103.170956 35.7479016 102.666178 33.8118587 100.491844 33.8118587"></polygon>        </g>    </g></svg>