<?xml version="1.0" encoding="utf-8"?>
<!-- Generator: Adobe Illustrator 24.0.1, SVG Export Plug-In . SVG Version: 6.00 Build 0)  -->
<svg version="1.1" id="Layer_1" xmlns="http://www.w3.org/2000/svg" xmlns:xlink="http://www.w3.org/1999/xlink" x="0px" y="0px"
	 viewBox="0 0 568.58 183.62" style="enable-background:new 0 0 568.58 183.62;" xml:space="preserve">
<style type="text/css">
	.st0{fill:#FFFFFF;}
	.st1{fill-rule:evenodd;clip-rule:evenodd;fill:#FFFFFF;}
</style>
<g>
	<path class="st0" d="M200.16,181.64c-0.06-0.6-0.15-1.07-0.16-1.53c-0.01-4.18-0.03-8.37,0.02-12.55c0.01-0.79,0.18-1.65,0.52-2.36
		c8.65-18.35,17.33-36.68,26-55.02c0.35-0.74,0.61-1.49,1.71-1.48c5.34,0.04,10.69,0.02,16.16,0.02c0.36,0.69,0.73,1.33,1.05,2
		c8.42,17.85,16.82,35.71,25.25,53.55c0.57,1.21,0.88,2.4,0.86,3.74c-0.05,3.77-0.02,7.54-0.02,11.31c0,0.73,0,1.46,0,2.32
		C247.65,181.64,224.02,181.64,200.16,181.64z M235.68,128.35c-0.16,0.02-0.32,0.04-0.48,0.06c-5.78,12.61-11.62,25.2-17.38,37.93
		c11.8,0,23.28,0,35.01,0C247.05,153.54,241.36,140.94,235.68,128.35z"/>
	<path class="st0" d="M142.87,181.48c-0.72,0.08-1.24,0.18-1.76,0.18c-5.35,0.01-10.7-0.03-16.06,0.03
		c-1.29,0.01-1.96-0.43-2.41-1.65c-1.29-3.47-2.7-6.89-4.07-10.33c-0.3-0.76-0.63-1.5-0.95-2.29c-9.33,0-18.58,0-28.02,0
		c-0.36,0.9-0.74,1.83-1.1,2.77c-1.26,3.34-2.52,6.67-3.74,10.02c-0.34,0.93-0.77,1.49-1.89,1.48c-5.56-0.04-11.12-0.02-16.67-0.03
		c-0.32,0-0.64-0.11-1.15-0.2c0.27-0.76,0.46-1.39,0.72-2c9.65-23.02,19.31-46.02,28.92-69.05c0.59-1.42,1.33-1.96,2.88-1.93
		c4.25,0.1,8.51,0.03,12.76,0.03c2.8,0,2.35-0.08,3.28,2.16c8.43,20.26,16.83,40.52,25.24,60.78c1.1,2.66,2.21,5.32,3.31,7.98
		C142.41,180.05,142.59,180.69,142.87,181.48z M104.07,129.16c-0.18,0-0.36,0-0.54,0c-2.9,7.85-5.81,15.7-8.77,23.7
		c6.08,0,11.81,0,17.88,0C109.73,144.81,106.9,136.98,104.07,129.16z"/>
	<path class="st0" d="M66.91,117.37c-4.11,4.07-7.99,7.92-11.95,11.84c-0.03-0.01-0.23-0.07-0.36-0.2c-8.57-9-23.64-8-30.94,2.1
		c-3.82,5.29-4.78,11.27-4.02,17.61c0.35,2.95,1.28,5.74,2.73,8.35c3.95,7.1,11.45,10.59,19.34,9.98c5.34-0.41,9.75-2.56,13.19-6.67
		c0.13-0.15,0.31-0.26,0.66-0.54c4.01,3.79,8.03,7.58,12.2,11.51c-0.57,0.65-1.02,1.22-1.54,1.74c-5.96,5.93-13.17,9.32-21.5,10.19
		c-8.19,0.86-16.19,0.04-23.67-3.66c-12.3-6.08-19.02-16.15-20.71-29.65c-0.89-7.14-0.12-14.13,2.72-20.76
		c5.09-11.88,14.32-18.81,26.75-21.57c8.77-1.95,17.45-1.29,25.86,2.01c3.67,1.44,7.01,3.43,9.85,6.2
		C66.01,116.33,66.44,116.85,66.91,117.37z"/>
	<path class="st0" d="M568.58,115.95c-3.84,4.05-7.51,7.92-11.27,11.9c-0.6-0.57-1.07-1.05-1.57-1.49
		c-4.57-4.03-9.83-5.59-15.83-4.24c-3.52,0.8-5.73,3.4-5.81,6.54c-0.05,2.18,0.77,3.93,2.62,5.03c1.52,0.9,3.15,1.66,4.81,2.28
		c3.6,1.33,7.25,2.51,10.87,3.79c3.26,1.15,6.3,2.73,8.93,4.99c4.16,3.56,6.47,7.98,6.68,13.58c0.49,13.15-7.64,21.24-17.91,23.89
		c-11.15,2.88-21.76,1.32-31.7-4.52c-2.13-1.25-4.05-2.8-5.84-4.8c3.85-3.92,7.63-7.77,11.49-11.7c0.51,0.45,0.92,0.79,1.3,1.16
		c3.72,3.59,8.07,5.97,13.27,6.31c2.07,0.14,4.26-0.14,6.27-0.69c2.89-0.79,4.54-2.89,4.95-5.94c0.38-2.85-0.73-5.02-3.04-6.49
		c-1.66-1.06-3.48-1.93-5.32-2.63c-3.07-1.17-6.25-2.05-9.33-3.21c-2.17-0.82-4.35-1.72-6.35-2.89c-6.29-3.7-9.52-9.19-9.62-16.59
		c-0.13-9.51,4.27-16.19,12.68-20.1c9.11-4.23,18.56-4.37,28.05-1.11c3.6,1.24,6.91,3.01,9.88,5.39
		C567.33,114.82,567.82,115.28,568.58,115.95z"/>
	<path class="st0" d="M393.18,172.86c3.85-3.92,7.63-7.76,11.49-11.7c0.53,0.48,0.93,0.83,1.31,1.19c3.72,3.59,8.09,5.85,13.28,6.35
		c2.36,0.23,4.64-0.11,6.86-0.93c4.72-1.73,6.28-8.88,1.59-12.02c-1.69-1.13-3.56-2.06-5.46-2.8c-3.13-1.21-6.39-2.08-9.52-3.29
		c-2.36-0.91-4.73-1.9-6.87-3.22c-5.92-3.66-8.93-9.02-9.08-16.06c-0.19-9.59,4.13-16.52,12.71-20.26
		c13.22-5.76,25.95-4.29,37.75,4.16c0.6,0.43,1.13,0.96,1.93,1.64c-3.81,4.02-7.51,7.92-11.29,11.92c-0.62-0.59-1.09-1.07-1.59-1.51
		c-4.58-4.02-9.84-5.58-15.84-4.21c-3.51,0.8-5.71,3.42-5.78,6.56c-0.05,2.19,0.79,3.93,2.64,5.01c1.52,0.9,3.16,1.66,4.82,2.27
		c3.6,1.33,7.25,2.51,10.87,3.79c3.19,1.13,6.17,2.67,8.77,4.86c4.38,3.69,6.69,8.29,6.83,14.13c0.29,12.1-6.96,20.27-16.97,23.16
		c-11.54,3.33-22.53,1.75-32.85-4.37c-1.52-0.9-2.86-2.12-4.25-3.23C394.09,173.93,393.72,173.43,393.18,172.86z"/>
	<path class="st0" d="M320.63,108.7c1.22,0,1.97,0,2.71,0c5.42,0,10.84,0.07,16.25-0.04c1.78-0.04,2.81,0.44,3.72,2.08
		c4.22,7.54,8.6,14.98,12.93,22.45c0.37,0.64,0.77,1.27,1.33,2.2c0.49-0.79,0.89-1.38,1.24-2c4.43-7.65,8.89-15.29,13.25-22.98
		c0.75-1.32,1.6-1.77,3.08-1.74c5.42,0.08,10.83,0.03,16.25,0.03c0.67,0,1.33,0,2.41,0c-0.63,1.02-1.03,1.71-1.46,2.37
		c-8.44,12.67-16.87,25.34-25.35,37.97c-0.85,1.26-1.2,2.51-1.2,4.01c0.05,8.64,0.02,17.28,0.02,25.92c0,0.82,0,1.63,0,2.68
		c-5.95,0.21-11.74,0.06-17.77,0.11c-0.04-0.95-0.11-1.75-0.11-2.54c-0.01-8.85-0.03-17.69,0.02-26.54c0.01-1.37-0.35-2.49-1.1-3.63
		c-8.27-12.61-16.49-25.26-24.73-37.89C321.71,110.5,321.31,109.8,320.63,108.7z"/>
	<path class="st0" d="M490.04,181.65c-6.13,0-11.86,0-17.84,0c0-19.22,0-38.32,0-57.61c-2.44-0.37-4.69-0.15-6.92-0.19
		c-2.19-0.04-4.39-0.01-6.59-0.01c-2.26,0-4.52,0-6.73,0c-0.49-1.55-0.63-11.73-0.24-14.81c1.45-0.41,55.28-0.57,58.54-0.18
		c0.45,1.42,0.56,12.01,0.11,14.96c-6.63,0.08-13.32-0.01-20.23,0.05c-0.23,4.91-0.07,9.68-0.1,14.44
		c-0.03,4.8-0.01,9.61-0.01,14.41c0,4.8,0,9.61,0,14.41C490.04,171.91,490.04,176.69,490.04,181.65z"/>
	<path class="st0" d="M173.96,181.65c-6.12,0-11.86,0-17.81,0c0-19.23,0-38.34,0-57.74c-6.94-0.15-13.69,0.01-20.54-0.1
		c0-5.07,0-9.91,0-14.73c1.52-0.47,54.3-0.68,58.57-0.25c0.45,1.41,0.59,11.57,0.17,14.93c-6.64,0.19-13.33-0.02-20.25,0.12
		c-0.05,0.9-0.13,1.69-0.13,2.48c-0.01,17.5-0.01,34.99-0.01,52.49C173.96,179.73,173.96,180.6,173.96,181.65z"/>
	<path class="st0" d="M301.91,108.84c0,19.16,0,38.07,0,57.24c9.4,0,18.63,0,27.97,0c0,5.29,0,10.34,0,15.54
		c-15.25,0-30.44,0-45.76,0c0-24.28,0-48.46,0-72.77C290.01,108.84,295.8,108.84,301.91,108.84z"/>
	<g>
		<path class="st0" d="M168.99,11.78h2.3l6.8,9.82l6.73-9.82h2.34V29.1h-3.47v-9.82l-5.04,7.24h-1.2l-5.04-7.24v9.82h-3.42V11.78z"
			/>
		<path class="st0" d="M194.49,11.78V29.1H191V11.78H194.49z"/>
		<path class="st0" d="M196.74,15.13v-3.35h13.41v3.35h-4.95V29.1h-3.52V15.13H196.74z"/>
		<path class="st0" d="M211.56,20.5c0-5.34,4.13-9.02,8.98-9.02c3.23,0,6.02,1.57,7.48,3.8l-1.73,1.45c-1.31-1.78-3.3-2.98-5.7-2.98
			c-3.66,0-6.61,2.84-6.61,6.77c0,3.87,2.86,6.59,6.59,6.59c2.39,0,4.45-1.15,5.81-2.93l1.69,1.43c-1.55,2.16-4.31,3.75-7.59,3.75
			C215.59,29.36,211.56,25.8,211.56,20.5z"/>
		<path class="st0" d="M244.77,11.78V29.1h-1.22l-10.38-12.28V29.1h-2.32V11.78h1.05l10.55,12.35V11.78H244.77z"/>
		<path class="st0" d="M248.03,20.5c0-5.34,4.13-9.02,8.98-9.02c3.23,0,6.02,1.57,7.48,3.8l-1.73,1.45c-1.31-1.78-3.3-2.98-5.7-2.98
			c-3.66,0-6.61,2.84-6.61,6.77c0,3.87,2.86,6.59,6.59,6.59c2.39,0,4.45-1.15,5.81-2.93l1.69,1.43c-1.55,2.16-4.31,3.75-7.59,3.75
			C252.06,29.36,248.03,25.8,248.03,20.5z"/>
		<path class="st0" d="M168.71,40.37h1.15l5.65,8.26l5.62-8.26h1.19v13.48h-2.12v-8.63l-4.39,6.42h-0.62l-4.39-6.42v8.63h-2.08
			V40.37z"/>
		<path class="st0" d="M187.67,40.37v13.48h-2.1V40.37H187.67z"/>
		<path class="st0" d="M189.57,42.41v-2.04h10.01v2.04h-3.94v11.43h-2.13V42.41H189.57z"/>
		<path class="st0" d="M204.52,47.15c0-4.16,3.19-7.02,6.98-7.02c2.5,0,4.67,1.2,5.8,2.9l-1.5,1.35c-0.98-1.31-2.48-2.21-4.25-2.21
			c-2.7,0-4.87,2.1-4.87,4.98c0,2.86,2.11,4.87,4.85,4.87c1.79,0,3.32-0.86,4.34-2.19l1.5,1.31c-1.2,1.66-3.35,2.9-5.93,2.9
			C207.63,54.05,204.52,51.28,204.52,47.15z"/>
		<path class="st0" d="M219.45,40.37h2.1v11.45h7.11v2.02h-9.21V40.37z"/>
		<path class="st0" d="M230.11,49.18v-8.81h2.1v8.53c0,2.06,1.09,3.12,2.9,3.12c1.79,0,2.88-1.13,2.88-3.12v-8.53h2.12v8.81
			c0,3.19-2.13,4.9-5,4.9C232.26,54.08,230.11,52.37,230.11,49.18z"/>
		<path class="st0" d="M253.2,49.96c0,1.99-1.48,3.88-4.21,3.88h-5.74V40.37h5.49c2.52,0,3.76,1.71,3.76,3.35
			c0,1.2-0.71,2.33-1.84,2.75C252.38,46.94,253.2,48.41,253.2,49.96z M245.32,42.29v3.48h3.03c1.35,0,2-0.93,2-1.81
			c0-0.86-0.67-1.68-1.93-1.68H245.32z M251.01,49.8c0-1.08-0.77-2.17-2.44-2.17h-3.25v4.3h3.3
			C250.19,51.93,251.01,50.86,251.01,49.8z"/>
		<path class="st0" d="M259.25,47.17c0-3.92,3.12-7.04,6.98-7.04c3.88,0,7,3.12,7,6.98c0,3.85-3.08,6.95-7.06,6.95
			C262.24,54.07,259.25,51.02,259.25,47.17z M271.04,47.14c0-2.84-2.15-4.92-4.81-4.92s-4.79,2.12-4.79,4.92
			c0,2.75,2.08,4.87,4.79,4.87C268.91,52,271.04,49.93,271.04,47.14z"/>
		<path class="st0" d="M275.65,40.37h8.48v2.02h-6.38v3.68h5.56v2.01h-5.56v5.76h-2.1V40.37z"/>
		<path class="st0" d="M179.74,58.6v13.48h-1.24l-7.71-9.14v9.14h-2.08V58.6h1.09l7.86,9.21V58.6H179.74z"/>
		<path class="st0" d="M182.17,65.4c0-3.92,3.12-7.04,6.98-7.04c3.88,0,7,3.12,7,6.98c0,3.85-3.08,6.95-7.06,6.95
			C185.16,72.3,182.17,69.25,182.17,65.4z M193.96,65.37c0-2.84-2.15-4.92-4.81-4.92s-4.79,2.12-4.79,4.92
			c0,2.75,2.08,4.87,4.79,4.87C191.83,70.24,193.96,68.16,193.96,65.37z"/>
		<path class="st0" d="M202.46,66.79h-1.79v5.29h-2.1V58.6h4.76c2.95,0,4.36,2.02,4.36,4.1c0,1.66-0.97,3.32-3.01,3.88l3.59,5.49
			h-2.53L202.46,66.79z M200.67,64.84H203c1.84,0,2.52-1.08,2.52-2.15c0-1.11-0.73-2.1-2.19-2.1h-2.66V64.84z"/>
		<path class="st0" d="M208.84,60.64V58.6h10.01v2.04h-3.94v11.43h-2.13V60.64H208.84z"/>
		<path class="st0" d="M220.74,58.6h2.1v5.6h6.42v-5.6h2.1v13.48h-2.1v-5.85h-6.42v5.85h-2.1V58.6z"/>
		<path class="st0" d="M234.63,58.6h8.61v1.99h-6.51v3.67h6.04v1.99h-6.04v3.85h6.53v1.99h-8.63V58.6z"/>
		<path class="st0" d="M249.79,66.79H248v5.29h-2.1V58.6h4.76c2.95,0,4.36,2.02,4.36,4.1c0,1.66-0.97,3.32-3.01,3.88l3.59,5.49
			h-2.53L249.79,66.79z M248,64.84h2.33c1.84,0,2.52-1.08,2.52-2.15c0-1.11-0.73-2.1-2.19-2.1H248V64.84z"/>
		<path class="st0" d="M268.82,58.6v13.48h-1.24l-7.71-9.14v9.14h-2.08V58.6h1.09l7.86,9.21V58.6H268.82z"/>
		<path class="st0" d="M275.76,65.39c0-4.16,3.19-7.02,6.98-7.02c2.5,0,4.67,1.2,5.8,2.9l-1.5,1.35c-0.98-1.31-2.48-2.21-4.25-2.21
			c-2.7,0-4.87,2.1-4.87,4.98c0,2.86,2.11,4.87,4.85,4.87c1.79,0,3.32-0.86,4.34-2.19l1.5,1.31c-1.2,1.66-3.35,2.9-5.93,2.9
			C278.88,72.28,275.76,69.51,275.76,65.39z"/>
		<path class="st0" d="M297.5,68.76h-4.96l-1.28,3.32H289l5.36-13.48h1.37l5.31,13.48h-2.26L297.5,68.76z M293.21,66.83h3.65
			l-1.82-4.89L293.21,66.83z"/>
		<path class="st0" d="M302.87,58.6h2.1v11.45h7.11v2.02h-9.21V58.6z"/>
		<path class="st0" d="M316.07,58.6v13.48h-2.1V58.6H316.07z"/>
		<path class="st0" d="M319.35,58.6h8.48v2.02h-6.38v3.68h5.56v2.01h-5.56v5.76h-2.1V58.6z"/>
		<path class="st0" d="M328.91,65.4c0-3.92,3.12-7.04,6.98-7.04c3.88,0,7,3.12,7,6.98c0,3.85-3.08,6.95-7.06,6.95
			C331.9,72.3,328.91,69.25,328.91,65.4z M340.71,65.37c0-2.84-2.15-4.92-4.81-4.92s-4.79,2.12-4.79,4.92
			c0,2.75,2.08,4.87,4.79,4.87C338.57,70.24,340.71,68.16,340.71,65.37z"/>
		<path class="st0" d="M349.2,66.79h-1.79v5.29h-2.1V58.6h4.76c2.95,0,4.36,2.02,4.36,4.1c0,1.66-0.97,3.32-3.01,3.88l3.59,5.49
			h-2.53L349.2,66.79z M347.41,64.84h2.33c1.84,0,2.52-1.08,2.52-2.15c0-1.11-0.73-2.1-2.19-2.1h-2.66V64.84z"/>
		<path class="st0" d="M368.24,58.6v13.48h-1.24l-7.71-9.14v9.14h-2.08V58.6h1.09l7.86,9.21V58.6H368.24z"/>
		<path class="st0" d="M373.61,58.6v13.48h-2.1V58.6H373.61z"/>
		<path class="st0" d="M383.93,68.76h-4.96l-1.28,3.32h-2.26l5.36-13.48h1.37l5.31,13.48h-2.26L383.93,68.76z M379.65,66.83h3.65
			l-1.82-4.89L379.65,66.83z"/>
	</g>
	<g id="XMLID_65_">
		<rect id="XMLID_72_" x="8.06" y="13.02" class="st1" width="11.87" height="55.79"/>
		<rect id="XMLID_71_" x="46.15" y="13.02" class="st1" width="11.87" height="55.79"/>
		<rect id="XMLID_70_" x="27.06" y="13.02" class="st1" width="11.87" height="37.88"/>
		<rect id="XMLID_69_" x="65.42" y="30.93" class="st1" width="11.87" height="37.88"/>
		<rect id="XMLID_68_" x="84.89" y="13.02" class="st1" width="31.08" height="11.01"/>
		<rect id="XMLID_67_" x="65.42" y="13.02" class="st1" width="11.87" height="11.01"/>
		<rect id="XMLID_66_" x="84.89" y="30.93" class="st1" width="11.87" height="37.88"/>
	</g>
</g>
</svg>
