<svg xmlns="http://www.w3.org/2000/svg" width="32.813" height="19.69" viewBox="0 0 32.813 19.69">
  <metadata><?xpacket begin="﻿" id="W5M0MpCehiHzreSzNTczkc9d"?>
<x:xmpmeta xmlns:x="adobe:ns:meta/" x:xmptk="Adobe XMP Core 5.6-c142 79.160924, 2017/07/13-01:06:39        ">
   <rdf:RDF xmlns:rdf="http://www.w3.org/1999/02/22-rdf-syntax-ns#">
      <rdf:Description rdf:about=""/>
   </rdf:RDF>
</x:xmpmeta>
                                                                                                    
                                                                                                    
                                                                                                    
                                                                                                    
                                                                                                    
                                                                                                    
                                                                                                    
                                                                                                    
                                                                                                    
                                                                                                    
                                                                                                    
                                                                                                    
                                                                                                    
                                                                                                    
                                                                                                    
                                                                                                    
                                                                                                    
                                                                                                    
                                                                                                    
                                                                                                    
                           
<?xpacket end="w"?></metadata>
<defs>
    <style>
      .cls-1 {
        fill: #363636;
        fill-rule: evenodd;
        opacity: 0.5;
      }
    </style>
  </defs>
  <path id="number-of-vacancies" class="cls-1" d="M154.188,2128.59a6.27,6.27,0,0,0,2.734,5.34,8.645,8.645,0,0,0-3.589,3.17,8.422,8.422,0,0,0-1.333,4.62h2.188a6.563,6.563,0,1,1,13.125,0H169.5a6.563,6.563,0,1,1,13.125,0h2.188a8.423,8.423,0,0,0-1.334-4.62,8.636,8.636,0,0,0-3.588-3.17,6.563,6.563,0,1,0-7.657,0,8.512,8.512,0,0,0-3.828,3.55,8.517,8.517,0,0,0-3.828-3.55,6.57,6.57,0,1,0-10.39-5.34h0Zm10.937,0a4.312,4.312,0,1,1-1.265-3.11A4.223,4.223,0,0,1,165.125,2128.59Zm15.313,0a4.312,4.312,0,1,1-1.265-3.11A4.223,4.223,0,0,1,180.438,2128.59Z" transform="translate(-152 -2122.03)"/>
</svg>
