<svg width="25" height="25" id="Layer_1" data-name="Layer 1" xmlns="http://www.w3.org/2000/svg" viewBox="0 0 20.82 21.47"><defs><style>.cls-1{fill:#bb1f35;fill-rule:evenodd;}</style></defs><g id="impact-track"><path class="cls-1" d="M18.07,11.86A7.91,7.91,0,0,1,17.28,15a9.05,9.05,0,0,1-1.83,2.51,8.2,8.2,0,0,1-2.57,1.69,8,8,0,0,1-3.1.6,7.84,7.84,0,0,1-3.24-.67,8.51,8.51,0,0,1-2.66-1.82,8.71,8.71,0,0,1-1.79-2.7A8.56,8.56,0,0,1,3.67,5.53,8.63,8.63,0,0,1,6.12,3.7a7.8,7.8,0,0,1,3-.84L9.05,1.55a9,9,0,0,0-3.49,1A9.84,9.84,0,0,0,.92,15.11,10.24,10.24,0,0,0,3,18.21,10.19,10.19,0,0,0,6,20.31a9.44,9.44,0,0,0,7.32.06,9.73,9.73,0,0,0,6-8.42l-1.28-.09ZM20.67,10a9.72,9.72,0,0,0-.75-3.8A9.51,9.51,0,0,0,17.86,3.1,10,10,0,0,0,14.79,1a9,9,0,0,0-3.7-.78h-.64V10.65H20.67V10Zm-1.32-.64H11.73V1.55a8.17,8.17,0,0,1,2.87.78A8.26,8.26,0,0,1,17,4a8.41,8.41,0,0,1,1.66,2.42,7.85,7.85,0,0,1,.73,2.9Z"/></g></svg>