<svg width="25" height="25" id="Layer_1" data-name="Layer 1" xmlns="http://www.w3.org/2000/svg" viewBox="0 0 20.82 22.09"><defs><style>.cls-1{fill:#bb1f35;}</style></defs><path class="cls-1" d="M20.82,14.94c0-1.15,0-2.31,0-3.46,0-.74,0-1.49,0-2.23V7.75a.42.42,0,0,0-.47-.47H10.93A3.59,3.59,0,0,0,9.56,4.91,3.49,3.49,0,0,0,4,7.69,3.52,3.52,0,0,0,7.28,11.2v5.49a.44.44,0,0,0,.19.41.7.7,0,0,0,.33.07H13v2.54h-.05a9.43,9.43,0,0,0-1.79.28,1.7,1.7,0,0,0-.85.47.59.59,0,0,0,0,.8,1.59,1.59,0,0,0,.86.46,12.67,12.67,0,0,0,1.4.25c.47,0,.94.07,1.4.07a12.41,12.41,0,0,0,2.13-.18,3,3,0,0,0,1.29-.45.7.7,0,0,0,.33-.56.66.66,0,0,0-.33-.54,2.8,2.8,0,0,0-.6-.29,7.69,7.69,0,0,0-1.82-.3h-.09s0,0,0-.06c0-.56,0-1.11,0-1.67v-.81h5.47a.51.51,0,0,0,.38-.11.56.56,0,0,0,.12-.4Zm-7.43,6.13a.42.42,0,0,0,.41-.45c0-.44,0-.88,0-1.31V17.18H14a.51.51,0,0,1,0,.18v.09c0,.53,0,1.07,0,1.6s0,1.07,0,1.6a.44.44,0,0,0,.12.32.43.43,0,0,0,.29.12.4.4,0,0,0,.41-.44.19.19,0,0,0,0-.08h0a6.23,6.23,0,0,1,1.79.32,10.9,10.9,0,0,1-5.47,0A7.45,7.45,0,0,1,13,20.55h0v.07A.42.42,0,0,0,13.39,21.07Zm4.08-8.52v0H20V14H17.47V12.55Zm-7.52,0V14H8.12V12.52Zm-1.83-.84V10.17H10v1.51Zm9.37-1.51H20v1.51H17.47v-1.5ZM20,9.34H17.47v-1a.4.4,0,0,0-.1-.26H20Zm-9.2,2.34v-1.5h2.84v1.5Zm2.85,2.26V14H10.8V12.52h2.84v1.42Zm.84-2.26V10.17h2.16v1.51Zm0,2.31V12.52h2.17V14Zm2.18-5.6v.94H14.47V8.41a.42.42,0,0,0-.11-.29h2.4A.37.37,0,0,0,16.65,8.39Zm-3,0v.94H10.79V9.17c0-.25,0-.49,0-.74a.41.41,0,0,0-.12-.31h3.09A.44.44,0,0,0,13.64,8.4ZM8.12,14.83H10v.95a.48.48,0,0,0,.13.35.42.42,0,0,0,.29.11h0a.43.43,0,0,0,.41-.46v-.95h2.85v1a.41.41,0,0,0,.41.42h0a.42.42,0,0,0,.41-.43v-1h2.18v1a.41.41,0,0,0,.41.41h0a.41.41,0,0,0,.41-.41v-.93a.43.43,0,0,0,0-.05H20v1.51H8.12ZM10,9.34H8.12V8.12h2a.46.46,0,0,0-.13.31v.91ZM7.28,7.77v2.58A2.66,2.66,0,0,1,7.2,5h.26a2.66,2.66,0,0,1,2.62,2.25H7.77A.44.44,0,0,0,7.28,7.77Z"/><path class="cls-1" d="M3.42,8.11a.42.42,0,0,0,.45-.42.44.44,0,0,0-.11-.29.49.49,0,0,0-.34-.12h-3a.5.5,0,0,0-.35.13.44.44,0,0,0-.11.3.41.41,0,0,0,.46.4h3Z"/><path class="cls-1" d="M7.36,3.74a.39.39,0,0,0,.18,0,.36.36,0,0,0,.27-.12.59.59,0,0,0,.13-.33c0-1,0-2,0-2.91A.6.6,0,0,0,7.89.18.41.41,0,0,0,7.43,0a.42.42,0,0,0-.32.43V3.35A.4.4,0,0,0,7.36,3.74Z"/><path class="cls-1" d="M10.33,4.91h0a.53.53,0,0,0,.32-.15c.22-.2.43-.42.64-.63L12.45,3a.41.41,0,0,0,.11-.46.44.44,0,0,0-.38-.28h0l-.06,0a.42.42,0,0,0-.17.1c-.61.6-1.22,1.2-1.82,1.81a.41.41,0,0,0-.09.47A.36.36,0,0,0,10.33,4.91Z"/><path class="cls-1" d="M4.54,10.41a.4.4,0,0,0-.48.1L2.3,12.27a.41.41,0,0,0,0,.6.39.39,0,0,0,.3.13h0a.49.49,0,0,0,.32-.14l.17-.18.4-.39L4.64,11.1a.73.73,0,0,0,.11-.18l0,0v0A.45.45,0,0,0,4.54,10.41Z"/><path class="cls-1" d="M2.84,3.55l.21.21.39.39.62.63a.44.44,0,0,0,.31.14.33.33,0,0,0,.17,0,.48.48,0,0,0,.26-.39v0l0-.07a.44.44,0,0,0-.12-.18L3.2,2.75a.44.44,0,0,0-.3-.14h0a.41.41,0,0,0-.28.13.4.4,0,0,0,0,.59Z"/></svg>