<svg width="25" height="25" id="Layer_1" data-name="Layer 1" xmlns="http://www.w3.org/2000/svg" viewBox="0 0 20.02 21.27"><defs><style>.cls-1{fill:#bb1f35;}</style></defs><path class="cls-1" d="M16.32,7.4a3.72,3.72,0,1,1,2.75-1.23,3.65,3.65,0,0,1-2.56,1.22Zm0-6.42h-.15a2.72,2.72,0,0,0,.28,5.43A2.72,2.72,0,0,0,19,3.56,2.73,2.73,0,0,0,16.33,1Z"/><path class="cls-1" d="M14.09,16.45A3.68,3.68,0,0,1,10.41,13a3.69,3.69,0,0,1,3.5-3.89,3.7,3.7,0,0,1,.38,7.39Zm0-6.41H14a2.73,2.73,0,0,0-2.58,2.85,2.73,2.73,0,0,0,2.86,2.58,2.77,2.77,0,0,0,1.88-.89,2.72,2.72,0,0,0,.69-2A2.71,2.71,0,0,0,14.1,10Z"/><path class="cls-1" d="M4.6,6.33A3.07,3.07,0,0,1,1.54,3.42,3.11,3.11,0,0,1,2.32,1.2a3.14,3.14,0,0,1,2.13-1,3.07,3.07,0,1,1,.31,6.13Zm0-5.16H4.5a2.12,2.12,0,0,0-1.45.69,2.09,2.09,0,1,0,1.56-.69Z"/><path class="cls-1" d="M4.78,21.23A4.77,4.77,0,0,1,0,16.69a4.78,4.78,0,0,1,4.53-5A4.72,4.72,0,0,1,8,12.9a4.78,4.78,0,0,1-3,8.32Zm0-8.59H4.59A3.8,3.8,0,1,0,5,20.24H5a3.8,3.8,0,0,0-.2-7.6Z"/><rect class="cls-1" x="13.75" y="7.74" width="2.91" height="0.98" transform="translate(3.36 20.81) rotate(-75.13)"/><rect class="cls-1" x="9.87" y="0.15" width="0.98" height="6.36" transform="translate(6.64 13.56) rotate(-87.81)"/><rect class="cls-1" x="0.8" y="8.74" width="6.05" height="0.98" transform="translate(-5.69 12.27) rotate(-85.22)"/><rect class="cls-1" x="8.69" y="13.98" width="2.55" height="0.98" transform="translate(-5.91 6.94) rotate(-30.07)"/></svg>