<svg width="25" height="25" id="Layer_1" data-name="Layer 1" xmlns="http://www.w3.org/2000/svg" viewBox="0 0 13.12 22.09"><defs><style>.cls-1{fill:#bb1f35;}</style></defs><path class="cls-1" d="M7.21,18.9v1.92H9.59a.64.64,0,0,1,.62.44A.61.61,0,0,1,10,22a.77.77,0,0,1-.38.12H3.53a.64.64,0,1,1,0-1.27c.73,0,1.46,0,2.2,0H5.9v-2a5.48,5.48,0,0,1-3.54-1.93,5.39,5.39,0,0,1-1.27-3.84H.85a.43.43,0,0,1-.41-.4.44.44,0,0,1,.37-.46H3.05V8.13a3.51,3.51,0,0,1,7-.52,4.36,4.36,0,0,1,0,.51v4.1h2.12a.45.45,0,0,1,.5.38.43.43,0,0,1-.41.49h-.21C12,16.3,10.34,18.2,7.21,18.9ZM8.9,10.77c0-.91,0-1.81,0-2.72a2.34,2.34,0,0,0-4.67,0c0,1.8,0,3.6,0,5.41a2.28,2.28,0,0,0,0,.45,2.34,2.34,0,0,0,4.63-.49ZM2.26,13.1A4.16,4.16,0,0,0,4.2,17a4.09,4.09,0,0,0,4.74,0,4.19,4.19,0,0,0,1.92-3.89h-.8a3.48,3.48,0,0,1-.86,2.63,3.5,3.5,0,0,1-4.73.51A3.49,3.49,0,0,1,3.06,13.1Z"/><path class="cls-1" d="M12.28,4.69a6.4,6.4,0,0,0-11.43,0L0,3.79A7.4,7.4,0,0,1,6,0a7.44,7.44,0,0,1,7.13,3.8Z"/><path class="cls-1" d="M2.62,6.51c-.29-.3-.57-.59-.84-.89,0,0,0-.13,0-.19a5,5,0,0,1,1.57-2,5.22,5.22,0,0,1,8,2,.19.19,0,0,1-.05.26c-.27.26-.52.53-.79.81a4,4,0,0,0-4.1-3A3.93,3.93,0,0,0,2.62,6.51Z"/></svg>