<svg xmlns="http://www.w3.org/2000/svg" width="19.688" height="26.25" viewBox="0 0 19.688 26.25">
  <metadata><?xpacket begin="﻿" id="W5M0MpCehiHzreSzNTczkc9d"?>
<x:xmpmeta xmlns:x="adobe:ns:meta/" x:xmptk="Adobe XMP Core 5.6-c142 79.160924, 2017/07/13-01:06:39        ">
   <rdf:RDF xmlns:rdf="http://www.w3.org/1999/02/22-rdf-syntax-ns#">
      <rdf:Description rdf:about=""/>
   </rdf:RDF>
</x:xmpmeta>
                                                                                                    
                                                                                                    
                                                                                                    
                                                                                                    
                                                                                                    
                                                                                                    
                                                                                                    
                                                                                                    
                                                                                                    
                                                                                                    
                                                                                                    
                                                                                                    
                                                                                                    
                                                                                                    
                                                                                                    
                                                                                                    
                                                                                                    
                                                                                                    
                                                                                                    
                                                                                                    
                           
<?xpacket end="w"?></metadata>
<defs>
    <style>
      .cls-1 {
        fill: #363636;
        fill-rule: evenodd;
        opacity: 0.5;
      }
    </style>
  </defs>
  <path id="required-maximum-age" class="cls-1" d="M724.656,2125.94h2.188v4.37a7.39,7.39,0,0,0,1.025,3.8,8.045,8.045,0,0,0,2.666,2.77,7.928,7.928,0,0,0-2.666,2.76,7.39,7.39,0,0,0-1.025,3.8v4.37h-2.188V2150h19.688v-2.19h-2.188v-4.37a7.39,7.39,0,0,0-1.025-3.8,7.928,7.928,0,0,0-2.666-2.76,8.045,8.045,0,0,0,2.666-2.77,7.39,7.39,0,0,0,1.025-3.8v-4.37h2.188v-2.19H724.656v2.19Zm15.313,0v4.37a5.469,5.469,0,0,1-10.938,0v-4.37h10.938Zm-8.135,7.82a4.286,4.286,0,0,0,5.332,0,4.514,4.514,0,0,0,1.572-2.35h-8.476A4.509,4.509,0,0,0,731.834,2133.76Zm8.135,9.68v4.37h-1.094a4.375,4.375,0,1,0-8.75,0h-1.094v-4.37a5.469,5.469,0,0,1,10.938,0h0Z" transform="translate(-724.656 -2123.75)"/>
</svg>
