<?xml version="1.0" encoding="utf-8"?>
<!-- Generator: Adobe Illustrator 22.1.0, SVG Export Plug-In . SVG Version: 6.00 Build 0)  -->
<svg version="1.1" id="Layer_1" xmlns="http://www.w3.org/2000/svg" xmlns:xlink="http://www.w3.org/1999/xlink" x="0px" y="0px"
	 viewBox="0 0 33 33" style="enable-background:new 0 0 33 33;" xml:space="preserve">
<style type="text/css">
	.st0{fill:none;stroke:#1DA1F2;stroke-miterlimit:10;}
	.st1{fill:#1DA1F2;}
</style>
<title>twitter</title>
<g id="Layer_2_1_">
	<g id="Layer_1-2">
		<circle class="st0" cx="16.5" cy="16.5" r="16"/>
		<path class="st1" d="M23.4,13.5c0,0.1,0,0.3,0,0.4c0,4.8-3.8,8.6-8.6,8.6c-1.7,0-3.3-0.5-4.7-1.4c0.2,0,0.5,0,0.7,0
			c1.4,0,2.7-0.5,3.8-1.3c-1.3,0-2.4-0.9-2.8-2.1c0.2,0,0.4,0,0.6,0c0.3,0,0.5,0,0.8-0.1c-1.4-0.3-2.5-1.5-2.4-3l0,0
			c0.4,0.2,0.9,0.4,1.4,0.4c-1.3-0.9-1.7-2.6-0.9-4c1.5,1.9,3.8,3,6.3,3.2c-0.1-0.2-0.1-0.5-0.1-0.7c0-1.7,1.3-3,2.9-3.1
			c0.9,0,1.7,0.3,2.3,1c0.7-0.1,1.3-0.4,1.9-0.7c-0.2,0.7-0.7,1.3-1.3,1.7c0.6-0.1,1.2-0.2,1.7-0.5C24.5,12.5,24,13.1,23.4,13.5z"/>
	</g>
</g>
</svg>
