<?xml version="1.0" encoding="utf-8"?>
<!-- Generator: Adobe Illustrator 24.3.0, SVG Export Plug-In . SVG Version: 6.00 Build 0)  -->
<svg version="1.1" id="layer" xmlns="http://www.w3.org/2000/svg" xmlns:xlink="http://www.w3.org/1999/xlink" x="0px" y="0px"
	 viewBox="0 0 16 16" style="enable-background:new 0 0 16 16;" xml:space="preserve">
<style type="text/css">
	.st0{fill:#36C5F0;}
	.st1{fill:#2EB67D;}
	.st2{fill:#ECB22E;}
	.st3{fill:#E01E5A;}
</style>
<g>
	<path class="st0" d="M5.9,0.1C5,0.1,4.3,0.8,4.3,1.7c0,0.9,0.7,1.6,1.6,1.6l0,0h1.6V1.7C7.5,0.8,6.8,0.1,5.9,0.1 M5.9,4.3H1.7
		C0.8,4.3,0.1,5,0.1,5.9c0,0.9,0.7,1.6,1.6,1.6h4.2c0.9,0,1.6-0.7,1.6-1.6C7.5,5,6.8,4.3,5.9,4.3"/>
	<path class="st1" d="M15.9,5.9c0-0.9-0.7-1.6-1.6-1.6S12.7,5,12.7,5.9v1.6h1.6C15.2,7.5,15.9,6.8,15.9,5.9 M11.7,5.9V1.7
		c0-0.9-0.7-1.6-1.6-1.6c-0.9,0-1.6,0.7-1.6,1.6v4.2c0,0.9,0.7,1.6,1.6,1.6C11,7.5,11.7,6.8,11.7,5.9"/>
	<path class="st2" d="M10.1,15.9c0.9,0,1.6-0.7,1.6-1.6c0-0.9-0.7-1.6-1.6-1.6H8.5v1.6C8.5,15.2,9.2,15.9,10.1,15.9 M10.1,11.7h4.2
		c0.9,0,1.6-0.7,1.6-1.6c0-0.9-0.7-1.6-1.6-1.6h-4.2c-0.9,0-1.6,0.7-1.6,1.6C8.5,11,9.2,11.7,10.1,11.7L10.1,11.7"/>
	<path class="st3" d="M0.1,10.1c0,0.9,0.7,1.6,1.6,1.6l0,0c0.9,0,1.6-0.7,1.6-1.6V8.5H1.7C0.8,8.5,0.1,9.2,0.1,10.1 M4.3,10.1v4.2
		c0,0.9,0.7,1.6,1.6,1.6c0.9,0,1.6-0.7,1.6-1.6v-4.2c0-0.9-0.7-1.6-1.6-1.6l0,0C5,8.5,4.3,9.2,4.3,10.1"/>
</g>
</svg>
