<svg width="682" height="682" viewBox="0 0 682 682" fill="none" xmlns="http://www.w3.org/2000/svg">
<path d="M647.867 285.457C640.967 285.457 635.379 291.053 635.379 297.944V342.448C635.379 367.985 614.598 388.766 589.061 388.766H517.88C514.567 388.766 511.395 390.077 509.049 392.418L422.755 478.717V401.254C422.755 394.354 417.162 388.766 410.267 388.766H231.473C205.935 388.766 185.155 367.989 185.155 342.448V153.543C185.155 128.005 205.935 107.229 231.473 107.229H589.061C614.598 107.229 635.379 128.005 635.379 153.543V198.042C635.379 204.942 640.967 210.53 647.867 210.53C654.758 210.53 660.354 204.942 660.354 198.042V153.543C660.354 114.233 628.374 82.2529 589.061 82.2529H231.473C192.16 82.2529 160.179 114.233 160.179 153.543V313.976H69.2877C42.6536 313.976 20.9795 335.642 20.9795 362.284V477.359C20.9795 504.001 42.6536 525.667 69.2877 525.667H107.481L169.373 587.564C171.766 589.956 174.962 591.224 178.209 591.224C179.816 591.224 181.444 590.912 182.985 590.272C187.652 588.34 190.696 583.79 190.696 578.736V525.667H287.126C313.764 525.667 335.434 504.001 335.434 477.359V413.741H397.779V508.863C397.779 513.917 400.823 518.467 405.49 520.399C407.032 521.039 408.655 521.351 410.267 521.351C413.518 521.351 416.71 520.083 419.098 517.691L523.051 413.741H589.061C628.374 413.741 660.354 381.761 660.354 342.448V297.944C660.354 291.053 654.758 285.457 647.867 285.457V285.457ZM310.462 477.359C310.462 490.229 299.996 500.692 287.126 500.692H178.209C171.309 500.692 165.721 506.288 165.721 513.179V548.59L121.483 504.352C119.141 502.011 115.965 500.692 112.652 500.692H69.2877C56.4214 500.692 45.9551 490.229 45.9551 477.359V362.284C45.9551 349.418 56.4214 338.951 69.2877 338.951H160.179V342.448C160.179 381.761 192.16 413.741 231.473 413.741H310.462V477.359Z" fill="#A31F34"/>
<path d="M532.023 164.087H288.511C281.615 164.087 276.023 169.679 276.023 176.575C276.023 183.474 281.615 189.063 288.511 189.063H532.023C538.919 189.063 544.511 183.474 544.511 176.575C544.511 169.679 538.919 164.087 532.023 164.087V164.087Z" fill="#A31F34"/>
<path d="M544.511 244.013C544.511 237.117 538.919 231.525 532.023 231.525H288.511C281.615 231.525 276.023 237.117 276.023 244.013C276.023 250.912 281.615 256.501 288.511 256.501H532.023C538.919 256.501 544.511 250.912 544.511 244.013Z" fill="#A31F34"/>
<path d="M288.511 298.959C281.615 298.959 276.023 304.551 276.023 311.447C276.023 318.346 281.615 323.935 288.511 323.935H428.999C435.894 323.935 441.486 318.346 441.486 311.447C441.486 304.551 435.894 298.959 428.999 298.959H288.511Z" fill="#A31F34"/>
<path d="M647.867 235.505C640.991 235.505 635.379 241.117 635.379 247.993C635.379 254.873 640.991 260.481 647.867 260.481C654.743 260.481 660.354 254.873 660.354 247.993C660.354 241.117 654.743 235.505 647.867 235.505Z" fill="#A31F34"/>
</svg>
