<?xml version="1.0" encoding="utf-8"?>
<!-- Generator: Adobe Illustrator 23.0.3, SVG Export Plug-In . SVG Version: 6.00 Build 0)  -->
<svg version="1.1" id="Layer_1" xmlns="http://www.w3.org/2000/svg" xmlns:xlink="http://www.w3.org/1999/xlink" x="0px" y="0px"
	 viewBox="0 0 866.15 449.57" style="enable-background:new 0 0 866.15 449.57;" xml:space="preserve">
<style type="text/css">
	.st0{fill:#FFFFFF;}
	.st1{fill:#E6E7E8;}
	.st2{fill:none;stroke:#FFFFFF;stroke-miterlimit:10;}
	.st3{fill-rule:evenodd;clip-rule:evenodd;fill:#FFFFFF;}
	.st4{fill:none;stroke:#FFFFFF;stroke-width:2;stroke-miterlimit:10;}
</style>
<g>
	<g>
		<path class="st0" d="M395.98,224.92h1.75v17.25h-1.75v-7.97h-9.25v7.97h-1.75v-17.25h1.75v7.87h9.25V224.92z"/>
		<path class="st0" d="M407.21,242.42c-1.96,0-3.55-0.65-4.78-1.95c-1.22-1.3-1.84-3-1.84-5.11s0.65-3.82,1.95-5.12
			c1.3-1.31,2.93-1.96,4.88-1.96c1.95,0,3.58,0.65,4.88,1.96c1.3,1.31,1.95,3.01,1.95,5.1s-0.68,3.8-2.05,5.11
			C410.83,241.76,409.17,242.42,407.21,242.42z M407.2,241.02c1.42,0,2.64-0.51,3.67-1.53s1.55-2.4,1.55-4.16
			c0-1.76-0.49-3.14-1.47-4.15c-0.98-1.01-2.18-1.51-3.6-1.51s-2.6,0.5-3.55,1.5c-0.95,1-1.42,2.39-1.42,4.17
			c0,1.78,0.45,3.18,1.35,4.18S405.78,241.02,407.2,241.02z"/>
		<path class="st0" d="M418.88,228.52v2.23c0.92-1.65,2.42-2.48,4.52-2.48c1.52,0,2.78,0.5,3.8,1.49c1.02,0.99,1.52,2.42,1.52,4.29
			v8.13H427v-7.8c0-1.5-0.36-2.64-1.09-3.42c-0.72-0.78-1.72-1.17-2.97-1.17c-1.26,0-2.25,0.39-2.98,1.17
			c-0.72,0.78-1.09,1.92-1.09,3.42v7.8h-1.75v-13.65H418.88z"/>
		<path class="st0" d="M438.09,242.42c-1.96,0-3.55-0.65-4.77-1.95c-1.23-1.3-1.84-3-1.84-5.11s0.65-3.82,1.95-5.12
			c1.3-1.31,2.92-1.96,4.88-1.96c1.95,0,3.57,0.65,4.88,1.96c1.3,1.31,1.95,3.01,1.95,5.1s-0.68,3.8-2.05,5.11
			C441.71,241.76,440.05,242.42,438.09,242.42z M438.07,241.02c1.42,0,2.64-0.51,3.67-1.53c1.03-1.02,1.55-2.4,1.55-4.16
			c0-1.76-0.49-3.14-1.48-4.15c-0.98-1.01-2.18-1.51-3.6-1.51c-1.42,0-2.6,0.5-3.55,1.5c-0.95,1-1.43,2.39-1.43,4.17
			c0,1.78,0.45,3.18,1.35,4.18S436.66,241.02,438.07,241.02z"/>
		<path class="st0" d="M449.75,228.52v2.25c0.75-1.67,2.16-2.5,4.23-2.5v1.82h-0.5c-1.2,0-2.12,0.33-2.76,0.98
			c-0.64,0.65-0.96,1.77-0.96,3.35v7.75H448v-13.65H449.75z"/>
		<path class="st0" d="M462.52,242.42c-1.95,0-3.53-0.65-4.75-1.95c-1.22-1.3-1.83-3.01-1.83-5.14s0.62-3.83,1.86-5.13
			c1.24-1.29,2.85-1.94,4.82-1.94c1.98,0,3.55,0.61,4.71,1.82c1.17,1.22,1.75,2.73,1.75,4.52c0,0.48-0.03,0.93-0.1,1.35h-11.25
			c0.07,1.57,0.54,2.8,1.43,3.7c0.88,0.9,2,1.35,3.35,1.35c1.05,0,1.95-0.24,2.69-0.73s1.25-1.12,1.54-1.9h1.88
			c-0.45,1.17-1.18,2.13-2.2,2.89C465.41,242.04,464.11,242.42,462.52,242.42z M467.3,234.59c0-1.5-0.45-2.7-1.36-3.59
			c-0.91-0.89-2.03-1.34-3.38-1.34c-1.34,0-2.46,0.44-3.35,1.31c-0.89,0.88-1.38,2.08-1.46,3.61H467.3z"/>
		<path class="st0" d="M477.65,242.42c-1.95,0-3.53-0.65-4.75-1.95c-1.22-1.3-1.83-3.01-1.83-5.14s0.62-3.83,1.86-5.13
			c1.24-1.29,2.85-1.94,4.83-1.94s3.55,0.61,4.71,1.82c1.17,1.22,1.75,2.73,1.75,4.52c0,0.48-0.03,0.93-0.1,1.35h-11.25
			c0.07,1.57,0.54,2.8,1.42,3.7c0.88,0.9,2,1.35,3.35,1.35c1.05,0,1.95-0.24,2.69-0.73c0.74-0.48,1.25-1.12,1.54-1.9h1.88
			c-0.45,1.17-1.18,2.13-2.2,2.89C480.53,242.04,479.23,242.42,477.65,242.42z M482.42,234.59c0-1.5-0.45-2.7-1.36-3.59
			c-0.91-0.89-2.03-1.34-3.38-1.34s-2.46,0.44-3.35,1.31c-0.89,0.88-1.38,2.08-1.46,3.61H482.42z"/>
		<path class="st0" d="M182.28,271.35h-3.71v8.82h-5.99V255.6h9.7c6.02,0,9.03,3.4,9.03,7.91
			C191.31,267.57,188.54,271.35,182.28,271.35z M181.82,266.59c2.38,0,3.4-1.19,3.4-3.08c0-1.89-1.02-3.08-3.4-3.08h-3.26v6.16
			H181.82z"/>
		<path class="st0" d="M201.84,260.36c2.91,0,4.97,1.33,6.02,3.04v-2.77h5.99v19.53h-5.99v-2.76c-1.08,1.71-3.15,3.04-6.06,3.04
			c-4.76,0-8.58-3.92-8.58-10.08C193.23,264.21,197.05,260.36,201.84,260.36z M203.59,265.57c-2.24,0-4.27,1.68-4.27,4.8
			s2.03,4.87,4.27,4.87c2.28,0,4.27-1.71,4.27-4.83S205.87,265.57,203.59,265.57z"/>
		<path class="st0" d="M219.13,265.61h-2.38v-4.97h2.38v-4.76h5.99v4.76h3.92v4.97h-3.92v7.84c0,1.16,0.49,1.65,1.82,1.65h2.13v5.08
			h-3.04c-4.06,0-6.9-1.71-6.9-6.79V265.61z"/>
		<path class="st0" d="M238.38,280.17h-5.99v-19.53h5.99v3.26c1.37-2.07,3.5-3.47,6.13-3.47v6.34h-1.65c-2.84,0-4.48,0.98-4.48,4.34
			V280.17z"/>
		<path class="st0" d="M246.81,255.39c0-1.82,1.44-3.26,3.57-3.26c2.1,0,3.54,1.44,3.54,3.26c0,1.79-1.44,3.22-3.54,3.22
			C248.25,258.61,246.81,257.17,246.81,255.39z M247.38,260.64h5.99v19.53h-5.99V260.64z"/>
		<path class="st0" d="M266.31,260.36c4.9,0,8.37,2.7,9.38,7.35h-6.37c-0.49-1.37-1.47-2.24-3.12-2.24c-2.14,0-3.6,1.68-3.6,4.94
			c0,3.25,1.47,4.94,3.6,4.94c1.65,0,2.59-0.81,3.12-2.24h6.37c-1.01,4.52-4.48,7.35-9.38,7.35c-5.74,0-9.8-3.85-9.8-10.05
			C256.51,264.24,260.57,260.36,266.31,260.36z"/>
		<path class="st0" d="M278.87,254.27h5.99v14.32l5.92-7.95h7.39l-8.12,9.8l8.19,9.73h-7.42l-5.95-8.19v8.19h-5.99V254.27z"/>
		<path class="st0" d="M319.27,255.32c5.85,0,10.26,3.29,11.66,8.61h-6.58c-1.02-2.1-2.87-3.15-5.15-3.15c-3.68,0-6.2,2.73-6.2,7.07
			c0,4.34,2.52,7.07,6.2,7.07c2.28,0,4.13-1.05,5.15-3.15h6.58c-1.4,5.32-5.81,8.58-11.66,8.58c-7.25,0-12.36-5.15-12.36-12.5
			S312.02,255.32,319.27,255.32z"/>
		<path class="st0" d="M343.48,280.45c-5.74,0-10.08-3.85-10.08-10.05c0-6.2,4.45-10.05,10.15-10.05c5.74,0,10.15,3.85,10.15,10.05
			C353.71,276.6,349.23,280.45,343.48,280.45z M343.48,275.27c2.14,0,4.13-1.58,4.13-4.87c0-3.33-1.96-4.87-4.06-4.87
			c-2.17,0-4.06,1.54-4.06,4.87C339.49,273.69,341.31,275.27,343.48,275.27z"/>
		<path class="st0" d="M356.89,254.27h5.99v25.9h-5.99V254.27z"/>
		<path class="st0" d="M367.21,254.27h5.99v25.9h-5.99V254.27z"/>
		<path class="st0" d="M376.98,255.39c0-1.82,1.44-3.26,3.57-3.26c2.1,0,3.54,1.44,3.54,3.26c0,1.79-1.43,3.22-3.54,3.22
			C378.41,258.61,376.98,257.17,376.98,255.39z M377.54,260.64h5.99v19.53h-5.99V260.64z"/>
		<path class="st0" d="M395.81,280.45c-5.22,0-8.72-2.91-9-6.69h5.92c0.14,1.37,1.37,2.28,3.01,2.28c1.54,0,2.35-0.7,2.35-1.58
			c0-3.15-10.64-0.88-10.64-8.05c0-3.33,2.84-6.06,7.95-6.06c5.04,0,7.84,2.8,8.23,6.65h-5.53c-0.18-1.33-1.19-2.21-2.87-2.21
			c-1.4,0-2.17,0.56-2.17,1.5c0,3.12,10.57,0.91,10.68,8.19C403.72,277.89,400.71,280.45,395.81,280.45z"/>
		<path class="st0" d="M416.28,280.45c-5.74,0-10.08-3.85-10.08-10.05c0-6.2,4.45-10.05,10.15-10.05c5.74,0,10.15,3.85,10.15,10.05
			C426.51,276.6,422.02,280.45,416.28,280.45z M416.28,275.27c2.14,0,4.13-1.58,4.13-4.87c0-3.33-1.96-4.87-4.06-4.87
			c-2.17,0-4.06,1.54-4.06,4.87C412.29,273.69,414.11,275.27,416.28,275.27z"/>
		<path class="st0" d="M443.17,269.56c0-2.66-1.47-4.13-3.75-4.13c-2.28,0-3.75,1.47-3.75,4.13v10.61h-5.99v-19.53h5.99v2.59
			c1.19-1.65,3.29-2.8,5.92-2.8c4.52,0,7.53,3.08,7.53,8.33v11.41h-5.95V269.56z"/>
		<path class="st0" d="M454.01,274.11h6.13l-4.45,11.34h-3.92L454.01,274.11z"/>
		<path class="st1" d="M482.19,255.32c5.85,0,10.26,3.29,11.66,8.61h-6.58c-1.01-2.1-2.87-3.15-5.14-3.15c-3.68,0-6.2,2.73-6.2,7.07
			c0,4.34,2.52,7.07,6.2,7.07c2.27,0,4.13-1.05,5.14-3.15h6.58c-1.4,5.32-5.81,8.58-11.66,8.58c-7.25,0-12.36-5.15-12.36-12.5
			S474.94,255.32,482.19,255.32z"/>
		<path class="st1" d="M512.57,260.39h-9.07v4.97h8.02v4.62h-8.02v5.39h9.07v4.79h-15.05V255.6h15.05V260.39z"/>
		<path class="st1" d="M528.07,280.41c-6.97,0-12.64-5.22-12.64-12.6s5.67-12.57,12.64-12.57c7,0,12.57,5.18,12.57,12.57
			S535.04,280.41,528.07,280.41z M528.07,274.95c3.92,0,6.48-2.84,6.48-7.14c0-4.38-2.56-7.14-6.48-7.14
			c-3.99,0-6.51,2.77-6.51,7.14C521.56,272.12,524.08,274.95,528.07,274.95z"/>
		<path class="st1" d="M560.27,280.45c-5.74,0-10.08-3.85-10.08-10.05c0-6.2,4.45-10.05,10.15-10.05c5.74,0,10.15,3.85,10.15,10.05
			C570.49,276.6,566.01,280.45,560.27,280.45z M560.27,275.27c2.14,0,4.13-1.58,4.13-4.87c0-3.33-1.96-4.87-4.06-4.87
			c-2.17,0-4.06,1.54-4.06,4.87C556.28,273.69,558.1,275.27,560.27,275.27z"/>
		<path class="st1" d="M574.27,265.61h-2.17v-4.97h2.17v-0.56c0-5.11,3.15-7.63,9.1-7.32v5.08c-2.31-0.14-3.12,0.56-3.12,2.63v0.17
			h3.22v4.97h-3.22v14.56h-5.99V265.61z"/>
		<path class="st1" d="M602.59,280.41c-5.29,0-9.42-2.63-9.59-7.6h6.37c0.18,1.89,1.37,2.8,3.05,2.8c1.75,0,2.87-0.88,2.87-2.31
			c0-4.55-12.29-2.1-12.22-10.82c0-4.66,3.82-7.25,8.96-7.25c5.36,0,8.96,2.66,9.21,7.35h-6.48c-0.1-1.58-1.22-2.52-2.83-2.56
			c-1.43-0.04-2.52,0.7-2.52,2.24c0,4.27,12.15,2.35,12.15,10.57C611.55,276.98,608.33,280.41,602.59,280.41z"/>
		<path class="st1" d="M616.17,265.61h-2.38v-4.97h2.38v-4.76h5.99v4.76h3.92v4.97h-3.92v7.84c0,1.16,0.49,1.65,1.82,1.65h2.13v5.08
			h-3.04c-4.06,0-6.9-1.71-6.9-6.79V265.61z"/>
		<path class="st1" d="M635.42,280.17h-5.99v-19.53h5.99v3.26c1.37-2.07,3.5-3.47,6.13-3.47v6.34h-1.65c-2.83,0-4.48,0.98-4.48,4.34
			V280.17z"/>
		<path class="st1" d="M643.85,255.39c0-1.82,1.43-3.26,3.57-3.26c2.1,0,3.54,1.44,3.54,3.26c0,1.79-1.44,3.22-3.54,3.22
			C645.28,258.61,643.85,257.17,643.85,255.39z M644.41,260.64h5.99v19.53h-5.99V260.64z"/>
		<path class="st1" d="M666.74,260.36c4.8,0,8.61,3.85,8.61,10.01c0,6.16-3.82,10.08-8.61,10.08c-2.87,0-4.94-1.37-6.02-3.01v12.04
			h-5.99v-28.84h5.99v2.77C661.8,261.69,663.87,260.36,666.74,260.36z M664.96,265.57c-2.24,0-4.27,1.72-4.27,4.83
			s2.03,4.83,4.27,4.83c2.28,0,4.31-1.75,4.31-4.87S667.23,265.57,664.96,265.57z"/>
		<path class="st1" d="M687.18,280.45c-5.74,0-9.87-3.85-9.87-10.05c0-6.2,4.06-10.05,9.87-10.05c5.71,0,9.73,3.78,9.73,9.73
			c0,0.56-0.03,1.16-0.1,1.75h-13.55c0.21,2.56,1.79,3.75,3.71,3.75c1.68,0,2.63-0.84,3.12-1.89h6.37
			C695.51,277.51,692.04,280.45,687.18,280.45z M683.29,268.51h7.49c0-2.13-1.68-3.36-3.68-3.36
			C685.15,265.15,683.64,266.34,683.29,268.51z"/>
	</g>
</g>
<g>
	<g>
		<path class="st0" d="M294.52,351.77c0,0.74,0.19,1.34,0.58,1.81c0.39,0.47,0.89,0.82,1.5,1.04s1.29,0.42,2.03,0.58
			c0.74,0.16,1.48,0.34,2.21,0.54c0.74,0.2,1.41,0.46,2.02,0.77c0.61,0.32,1.11,0.8,1.5,1.44c0.39,0.65,0.58,1.45,0.58,2.4
			c0,1.42-0.53,2.66-1.59,3.73c-1.06,1.06-2.52,1.59-4.36,1.59c-1.85,0-3.34-0.41-4.5-1.24s-1.73-1.94-1.73-3.35h2
			c0.07,0.86,0.44,1.58,1.11,2.15c0.67,0.57,1.66,0.85,2.98,0.85c1.32,0,2.38-0.34,3.16-1.03c0.78-0.68,1.17-1.54,1.17-2.55
			s-0.36-1.78-1.08-2.29c-0.72-0.51-1.59-0.87-2.61-1.07c-1.02-0.2-2.03-0.43-3.05-0.69c-1.02-0.26-1.89-0.77-2.61-1.53
			c-0.72-0.76-1.08-1.85-1.08-3.29c0-1.44,0.54-2.63,1.61-3.56c1.07-0.94,2.48-1.4,4.24-1.4s3.14,0.4,4.14,1.21
			c1.01,0.81,1.62,1.89,1.84,3.24h-2.13c-0.07-0.76-0.45-1.42-1.13-1.99s-1.62-0.85-2.81-0.85s-2.15,0.3-2.89,0.89
			C294.89,349.78,294.52,350.64,294.52,351.77z"/>
		<path class="st0" d="M309.67,363.57c-1.35-1.46-2.03-3.32-2.03-5.58s0.67-4.08,2.01-5.45c1.34-1.38,3.05-2.07,5.12-2.07
			c1.33,0,2.5,0.32,3.51,0.97c1.01,0.65,1.75,1.49,2.24,2.51v-3.21h1.89v14.74h-1.89v-3.24c-0.49,1.03-1.23,1.87-2.24,2.53
			c-1.01,0.66-2.18,0.98-3.51,0.98C312.72,365.76,311.02,365.03,309.67,363.57z M318.92,362.48c1.07-1.11,1.61-2.56,1.61-4.36
			c0-1.8-0.54-3.25-1.61-4.36s-2.36-1.66-3.87-1.66c-1.51,0-2.8,0.53-3.86,1.59c-1.06,1.06-1.59,2.5-1.59,4.31s0.54,3.29,1.61,4.43
			c1.07,1.14,2.36,1.71,3.86,1.71S317.85,363.59,318.92,362.48z"/>
		<path class="st0" d="M333.02,352.23h-4.08v9.77c0,0.74,0.14,1.25,0.43,1.55c0.29,0.3,0.8,0.45,1.54,0.45h2.11v1.48h-2.51
			c-2.3,0-3.46-1.16-3.46-3.48v-9.77H325v-1.49h2.05v-3.7h1.89v3.7h4.08V352.23z"/>
		<path class="st0" d="M346.12,350.75h1.89v14.74h-1.89v-2.4c-0.99,1.78-2.62,2.67-4.89,2.67c-1.64,0-3.01-0.54-4.1-1.61
			c-1.1-1.07-1.65-2.62-1.65-4.63v-8.78h1.86v8.42c0,1.62,0.39,2.85,1.17,3.7s1.85,1.27,3.21,1.27c1.36,0,2.43-0.42,3.21-1.27
			c0.78-0.85,1.17-2.08,1.17-3.7V350.75z"/>
		<path class="st0" d="M353.95,350.75v2.43c0.81-1.8,2.33-2.7,4.56-2.7v1.97h-0.54c-1.3,0-2.29,0.35-2.98,1.05
			c-0.69,0.7-1.04,1.91-1.04,3.62v8.37h-1.89v-14.74H353.95z"/>
		<path class="st0" d="M362.67,363.57c-1.35-1.46-2.03-3.32-2.03-5.58s0.67-4.08,2.01-5.45c1.34-1.38,3.05-2.07,5.12-2.07
			c1.33,0,2.5,0.32,3.51,0.97c1.01,0.65,1.76,1.49,2.24,2.51v-8.45h1.89v19.98h-1.89v-3.24c-0.49,1.03-1.23,1.87-2.24,2.53
			c-1.01,0.66-2.18,0.98-3.51,0.98C365.72,365.76,364.02,365.03,362.67,363.57z M371.92,362.48c1.07-1.11,1.61-2.56,1.61-4.36
			c0-1.8-0.54-3.25-1.61-4.36c-1.07-1.11-2.36-1.66-3.87-1.66c-1.51,0-2.8,0.53-3.86,1.59s-1.59,2.5-1.59,4.31s0.54,3.29,1.61,4.43
			c1.07,1.14,2.36,1.71,3.86,1.71S370.85,363.59,371.92,362.48z"/>
		<path class="st0" d="M380.54,363.57c-1.35-1.46-2.02-3.32-2.02-5.58s0.67-4.08,2.01-5.45c1.34-1.38,3.05-2.07,5.12-2.07
			c1.33,0,2.5,0.32,3.51,0.97s1.76,1.49,2.24,2.51v-3.21h1.89v14.74h-1.89v-3.24c-0.49,1.03-1.23,1.87-2.24,2.53
			c-1.01,0.66-2.18,0.98-3.51,0.98C383.59,365.76,381.89,365.03,380.54,363.57z M389.79,362.48c1.07-1.11,1.61-2.56,1.61-4.36
			c0-1.8-0.54-3.25-1.61-4.36c-1.07-1.11-2.36-1.66-3.87-1.66s-2.8,0.53-3.86,1.59c-1.06,1.06-1.59,2.5-1.59,4.31
			s0.54,3.29,1.61,4.43s2.36,1.71,3.86,1.71S388.72,363.59,389.79,362.48z"/>
		<path class="st0" d="M401.55,365.27l-5.86-14.53h2.02l4.86,12.53l4.86-12.53h1.92l-8.75,21.6h-1.92L401.55,365.27z"/>
		<path class="st0" d="M421.68,362.99c-1.83-1.79-2.74-4.06-2.74-6.82s0.91-5.03,2.74-6.82s4.08-2.69,6.75-2.69
			c2.67,0,4.92,0.89,6.74,2.69c1.82,1.79,2.73,4.06,2.73,6.82s-0.91,5.03-2.73,6.82c-1.82,1.79-4.06,2.69-6.74,2.69
			C425.75,365.68,423.5,364.78,421.68,362.99z M433.8,361.89c1.43-1.45,2.15-3.35,2.15-5.71c0-2.36-0.71-4.26-2.13-5.7
			s-3.22-2.16-5.4-2.16c-2.18,0-3.98,0.72-5.41,2.16c-1.43,1.44-2.15,3.34-2.15,5.7c0,2.36,0.72,4.26,2.15,5.71
			c1.43,1.45,3.23,2.17,5.4,2.17C430.57,364.06,432.37,363.34,433.8,361.89z"/>
		<path class="st0" d="M441.99,363.65c-1.31-1.4-1.97-3.25-1.97-5.54c0-2.29,0.66-4.13,1.97-5.54s3.02-2.11,5.13-2.11
			c3.46,0,5.65,1.55,6.59,4.64h-2.02c-0.31-0.99-0.85-1.76-1.63-2.31c-0.78-0.55-1.76-0.82-2.93-0.82c-1.53,0-2.77,0.53-3.73,1.58
			c-0.95,1.05-1.43,2.56-1.43,4.54s0.48,3.49,1.43,4.55c0.95,1.06,2.2,1.59,3.73,1.59c1.17,0,2.15-0.27,2.93-0.82
			c0.78-0.55,1.33-1.32,1.63-2.31h2.02c-0.47,1.4-1.25,2.53-2.35,3.38c-1.1,0.85-2.51,1.27-4.24,1.27
			C445.02,365.76,443.31,365.06,441.99,363.65z"/>
		<path class="st0" d="M463.73,352.23h-4.08v9.77c0,0.74,0.14,1.25,0.43,1.55c0.29,0.3,0.8,0.45,1.54,0.45h2.11v1.48h-2.51
			c-2.3,0-3.46-1.16-3.46-3.48v-9.77h-2.05v-1.49h2.05v-3.7h1.89v3.7h4.08V352.23z"/>
		<path class="st0" d="M468.17,365.1c-0.26,0.26-0.57,0.39-0.93,0.39s-0.67-0.13-0.93-0.39c-0.26-0.26-0.39-0.57-0.39-0.93
			c0-0.36,0.13-0.67,0.39-0.93c0.26-0.26,0.57-0.39,0.93-0.39s0.67,0.13,0.93,0.39c0.26,0.26,0.39,0.57,0.39,0.93
			C468.56,364.53,468.43,364.84,468.17,365.1z"/>
		<path class="st0" d="M481.79,365.49v-17.55h-1.92v-1.62h3.67v19.17H481.79z"/>
		<path class="st0" d="M487.89,365.22v-1.3c0.41-0.36,1.03-0.89,1.85-1.59s1.44-1.24,1.88-1.62c0.43-0.38,0.99-0.89,1.69-1.53
			c0.69-0.64,1.23-1.17,1.62-1.59c0.39-0.42,0.82-0.93,1.3-1.51c0.48-0.58,0.84-1.11,1.09-1.58c0.58-1.13,0.86-2.25,0.86-3.34
			c0-1.09-0.32-2.02-0.97-2.78s-1.67-1.15-3.08-1.15s-2.48,0.42-3.23,1.27c-0.75,0.85-1.16,1.95-1.23,3.32h-1.78
			c0.09-1.98,0.69-3.51,1.81-4.59c1.12-1.08,2.56-1.62,4.33-1.62c1.77,0,3.21,0.5,4.31,1.5c1.1,1,1.65,2.41,1.65,4.22
			c0,0.79-0.16,1.62-0.49,2.47c-0.32,0.86-0.69,1.6-1.11,2.24c-0.41,0.64-1.01,1.38-1.78,2.21c-0.77,0.84-1.4,1.48-1.88,1.92
			c-0.48,0.44-1.17,1.06-2.09,1.86c-0.92,0.8-1.5,1.32-1.76,1.55h9.75v1.62H487.89z"/>
		<path class="st0" d="M503.04,363.98h2.19c0.36,1.85,0.35,3.16-0.03,3.93c-0.38,0.77-1.11,1.15-2.19,1.15v-1.03
			c0.83,0,1.24-0.44,1.24-1.32v-0.67h-1.21V363.98z"/>
		<path class="st0" d="M516.32,365.22v-1.3c0.41-0.36,1.03-0.89,1.85-1.59c0.82-0.7,1.44-1.24,1.88-1.62
			c0.43-0.38,0.99-0.89,1.69-1.53c0.69-0.64,1.23-1.17,1.62-1.59c0.39-0.42,0.82-0.93,1.3-1.51c0.48-0.58,0.84-1.11,1.09-1.58
			c0.58-1.13,0.86-2.25,0.86-3.34c0-1.09-0.32-2.02-0.97-2.78c-0.65-0.76-1.67-1.15-3.08-1.15c-1.4,0-2.48,0.42-3.23,1.27
			c-0.75,0.85-1.16,1.95-1.23,3.32h-1.78c0.09-1.98,0.69-3.51,1.81-4.59c1.12-1.08,2.56-1.62,4.33-1.62c1.77,0,3.21,0.5,4.31,1.5
			c1.1,1,1.65,2.41,1.65,4.22c0,0.79-0.16,1.62-0.49,2.47c-0.32,0.86-0.69,1.6-1.11,2.24c-0.41,0.64-1.01,1.38-1.78,2.21
			c-0.77,0.84-1.4,1.48-1.88,1.92c-0.48,0.44-1.17,1.06-2.09,1.86s-1.5,1.32-1.75,1.55h9.75v1.62H516.32z"/>
		<path class="st0" d="M536.1,346.21c0.78-0.34,1.71-0.51,2.77-0.51c1.06,0,1.98,0.17,2.77,0.51s1.41,0.8,1.89,1.38
			s0.86,1.3,1.15,2.17c0.29,0.87,0.49,1.77,0.59,2.69c0.11,0.92,0.16,1.96,0.16,3.13c0,1.17-0.05,2.21-0.16,3.13
			c-0.11,0.92-0.31,1.81-0.59,2.69s-0.67,1.6-1.15,2.17c-0.48,0.58-1.11,1.04-1.89,1.38c-0.78,0.34-1.71,0.51-2.77,0.51
			c-1.06,0-1.98-0.17-2.77-0.51c-0.78-0.34-1.41-0.8-1.89-1.38c-0.48-0.58-0.86-1.3-1.15-2.17c-0.29-0.87-0.49-1.77-0.59-2.69
			c-0.11-0.92-0.16-1.96-0.16-3.13c0-1.17,0.05-2.21,0.16-3.13c0.11-0.92,0.31-1.81,0.59-2.69c0.29-0.87,0.67-1.6,1.15-2.17
			C534.69,347.01,535.32,346.55,536.1,346.21z M541,347.79c-0.59-0.31-1.3-0.47-2.13-0.47s-1.54,0.16-2.13,0.47
			c-0.59,0.32-1.06,0.71-1.39,1.19c-0.33,0.48-0.59,1.1-0.78,1.86c-0.19,0.76-0.31,1.5-0.36,2.21s-0.08,1.55-0.08,2.52
			s0.03,1.81,0.08,2.52s0.18,1.45,0.36,2.21c0.19,0.76,0.45,1.39,0.78,1.86c0.33,0.48,0.8,0.87,1.39,1.19s1.3,0.47,2.13,0.47
			s1.54-0.16,2.13-0.47s1.06-0.71,1.39-1.19c0.33-0.48,0.59-1.1,0.78-1.86c0.19-0.77,0.31-1.5,0.36-2.21s0.08-1.55,0.08-2.52
			s-0.03-1.81-0.08-2.52s-0.18-1.45-0.36-2.21c-0.19-0.76-0.45-1.39-0.78-1.86C542.06,348.5,541.59,348.11,541,347.79z"/>
		<path class="st0" d="M550.94,365.49v-17.55h-1.92v-1.62h3.67v19.17H550.94z"/>
		<path class="st0" d="M564.44,363.84c1.57,0,2.72-0.61,3.46-1.82c0.74-1.21,1.11-3.35,1.11-6.41c-1.03,1.66-2.68,2.48-4.97,2.48
			c-1.75,0-3.23-0.58-4.44-1.73c-1.22-1.15-1.82-2.69-1.82-4.62c0-1.93,0.56-3.48,1.67-4.66c1.12-1.18,2.74-1.77,4.86-1.77
			s3.7,0.8,4.72,2.39c1.03,1.59,1.54,4.12,1.54,7.57s-0.46,6.02-1.39,7.68c-0.93,1.67-2.53,2.5-4.82,2.5
			c-1.73,0-3.11-0.45-4.14-1.35s-1.66-2.03-1.88-3.4h1.7C560.5,362.8,561.97,363.84,564.44,363.84z M559.52,351.69
			c0,1.44,0.41,2.59,1.21,3.46c0.81,0.86,1.95,1.3,3.43,1.3c1.48,0,2.59-0.42,3.35-1.26c0.76-0.84,1.13-1.98,1.13-3.44
			s-0.4-2.62-1.21-3.5c-0.81-0.87-1.92-1.31-3.32-1.31c-1.4,0-2.52,0.43-3.35,1.3S559.52,350.25,559.52,351.69z"/>
		<path class="st0" d="M573.62,363.98h2.19c0.36,1.85,0.35,3.16-0.03,3.93c-0.38,0.77-1.11,1.15-2.19,1.15v-1.03
			c0.83,0,1.24-0.44,1.24-1.32v-0.67h-1.21V363.98z"/>
		<path class="st0" d="M306.66,385.75h11.53v1.62h-9.77v6.91c0.41-0.67,1.06-1.22,1.94-1.67c0.88-0.45,1.85-0.68,2.92-0.68
			c1.06,0,2.02,0.19,2.88,0.58c0.85,0.39,1.52,0.91,1.98,1.58c0.88,1.3,1.32,2.87,1.32,4.73s-0.55,3.43-1.66,4.73
			c-1.11,1.29-2.66,1.94-4.67,1.94c-2.01,0-3.58-0.46-4.73-1.39c-1.14-0.93-1.87-2.17-2.17-3.74h1.76c0.31,1.1,0.89,1.96,1.74,2.58
			c0.85,0.62,1.91,0.93,3.17,0.93c1.58,0,2.78-0.48,3.59-1.44s1.21-2.23,1.21-3.79c0-3.37-1.6-5.05-4.81-5.05
			c-1.06,0-1.98,0.28-2.77,0.84c-0.78,0.56-1.38,1.32-1.8,2.29h-1.67V385.75z"/>
		<path class="st0" d="M325.95,393.38c-0.26,0.26-0.57,0.39-0.93,0.39c-0.36,0-0.67-0.13-0.93-0.39c-0.26-0.26-0.39-0.57-0.39-0.93
			c0-0.36,0.13-0.67,0.39-0.93c0.26-0.26,0.57-0.39,0.93-0.39c0.36,0,0.67,0.13,0.93,0.39c0.26,0.26,0.39,0.57,0.39,0.93
			C326.34,392.81,326.21,393.12,325.95,393.38z M325.95,405.1c-0.26,0.26-0.57,0.39-0.93,0.39c-0.36,0-0.67-0.13-0.93-0.39
			c-0.26-0.26-0.39-0.57-0.39-0.93c0-0.36,0.13-0.67,0.39-0.93c0.26-0.26,0.57-0.39,0.93-0.39c0.36,0,0.67,0.13,0.93,0.39
			c0.26,0.26,0.39,0.57,0.39,0.93C326.34,404.53,326.21,404.84,325.95,405.1z"/>
		<path class="st0" d="M332.96,386.6c1.15-0.85,2.6-1.28,4.35-1.28s3.14,0.47,4.17,1.42c1.03,0.95,1.55,2.15,1.55,3.61
			c0,1.03-0.3,1.94-0.9,2.75c-0.6,0.81-1.41,1.37-2.42,1.67v0.13c1.15,0.29,2.05,0.89,2.7,1.81s0.97,2.12,0.97,3.59
			c0,1.48-0.53,2.73-1.59,3.75c-1.06,1.03-2.53,1.54-4.41,1.54c-1.88,0-3.42-0.47-4.6-1.42c-1.19-0.94-1.87-2.26-2.05-3.96h1.75
			c0.13,1.08,0.62,1.98,1.47,2.69c0.85,0.71,1.98,1.07,3.38,1.07c1.39,0,2.47-0.37,3.21-1.11s1.12-1.7,1.12-2.89
			c0-1.57-0.5-2.68-1.5-3.33c-1-0.66-2.5-0.99-4.5-0.99h-0.59v-1.59h0.62c3.73-0.02,5.59-1.2,5.59-3.54c0-1.1-0.35-1.97-1.05-2.62
			c-0.7-0.65-1.7-0.97-2.98-0.97c-1.29,0-2.31,0.27-3.08,0.82c-0.77,0.55-1.23,1.34-1.39,2.36h-1.81
			C331.14,388.63,331.8,387.46,332.96,386.6z"/>
		<path class="st0" d="M350.82,386.21c0.78-0.34,1.71-0.51,2.77-0.51s1.98,0.17,2.77,0.51c0.78,0.34,1.41,0.8,1.89,1.38
			c0.48,0.58,0.86,1.3,1.15,2.17c0.29,0.87,0.49,1.77,0.59,2.69c0.11,0.92,0.16,1.96,0.16,3.13c0,1.17-0.05,2.21-0.16,3.13
			c-0.11,0.92-0.31,1.81-0.59,2.69c-0.29,0.87-0.67,1.6-1.15,2.17c-0.48,0.58-1.11,1.04-1.89,1.38c-0.78,0.34-1.71,0.51-2.77,0.51
			s-1.98-0.17-2.77-0.51c-0.78-0.34-1.41-0.8-1.89-1.38c-0.48-0.58-0.86-1.3-1.15-2.17s-0.49-1.77-0.59-2.69s-0.16-1.96-0.16-3.13
			c0-1.17,0.05-2.21,0.16-3.13s0.31-1.81,0.59-2.69c0.29-0.87,0.67-1.6,1.15-2.17C349.4,387.01,350.03,386.55,350.82,386.21z
			 M355.72,387.79c-0.59-0.31-1.31-0.47-2.13-0.47c-0.83,0-1.54,0.16-2.13,0.47c-0.59,0.32-1.06,0.71-1.39,1.19
			c-0.33,0.48-0.59,1.1-0.78,1.86c-0.19,0.76-0.31,1.5-0.36,2.21s-0.08,1.55-0.08,2.52s0.03,1.81,0.08,2.52s0.18,1.45,0.36,2.21
			c0.19,0.76,0.45,1.39,0.78,1.86c0.33,0.48,0.8,0.87,1.39,1.19c0.59,0.31,1.3,0.47,2.13,0.47c0.83,0,1.54-0.16,2.13-0.47
			c0.59-0.31,1.06-0.71,1.39-1.19c0.33-0.48,0.59-1.1,0.78-1.86c0.19-0.77,0.31-1.5,0.36-2.21c0.05-0.71,0.08-1.55,0.08-2.52
			s-0.03-1.81-0.08-2.52c-0.05-0.71-0.18-1.45-0.36-2.21s-0.45-1.39-0.78-1.86C356.77,388.5,356.31,388.11,355.72,387.79z"/>
		<path class="st0" d="M371.81,390.48c2.07,0,3.78,0.69,5.12,2.07c1.34,1.38,2.01,3.2,2.01,5.45s-0.68,4.12-2.03,5.58
			c-1.35,1.46-3.05,2.19-5.1,2.19c-1.33,0-2.5-0.33-3.51-0.98c-1.01-0.66-1.75-1.5-2.24-2.53v10.21h-1.89v-21.71h1.89v3.21
			c0.49-1.03,1.23-1.86,2.24-2.51C369.31,390.8,370.48,390.48,371.81,390.48z M371.51,404.14c1.51,0,2.8-0.57,3.87-1.71
			c1.07-1.14,1.61-2.62,1.61-4.43s-0.53-3.24-1.59-4.31c-1.06-1.06-2.35-1.59-3.87-1.59c-1.52,0-2.81,0.55-3.87,1.66
			c-1.06,1.11-1.59,2.56-1.59,4.36c0,1.8,0.53,3.25,1.59,4.36C368.71,403.59,370,404.14,371.51,404.14z"/>
		<path class="st0" d="M383.93,390.75v2.4c0.99-1.78,2.62-2.67,4.89-2.67c1.17,0,2.22,0.28,3.15,0.84s1.62,1.38,2.07,2.46
			c0.5-1.04,1.23-1.85,2.17-2.43c0.94-0.58,2.03-0.86,3.25-0.86c1.64,0,3.01,0.54,4.1,1.61c1.1,1.07,1.65,2.61,1.65,4.63v8.78h-1.86
			v-8.42c0-1.62-0.39-2.85-1.17-3.7c-0.78-0.85-1.85-1.27-3.21-1.27c-1.36,0-2.43,0.42-3.21,1.27c-0.78,0.85-1.17,2.08-1.17,3.7
			v8.42h-1.86v-8.42c0-1.62-0.39-2.85-1.17-3.7c-0.78-0.85-1.85-1.27-3.21-1.27c-1.36,0-2.43,0.42-3.21,1.27s-1.17,2.08-1.17,3.7
			v8.42h-1.89v-14.74H383.93z"/>
		<path class="st0" d="M417.9,396.31v-1.62h10.5v1.62H417.9z"/>
		<path class="st0" d="M443.11,390.75v2.4c0.99-1.78,2.62-2.67,4.89-2.67c1.17,0,2.22,0.28,3.15,0.84c0.93,0.56,1.62,1.38,2.07,2.46
			c0.5-1.04,1.23-1.85,2.17-2.43c0.94-0.58,2.03-0.86,3.25-0.86c1.64,0,3.01,0.54,4.1,1.61s1.65,2.61,1.65,4.63v8.78h-1.86v-8.42
			c0-1.62-0.39-2.85-1.17-3.7c-0.78-0.85-1.85-1.27-3.21-1.27c-1.36,0-2.43,0.42-3.21,1.27c-0.78,0.85-1.17,2.08-1.17,3.7v8.42
			h-1.86v-8.42c0-1.62-0.39-2.85-1.17-3.7s-1.85-1.27-3.21-1.27c-1.36,0-2.43,0.42-3.21,1.27c-0.78,0.85-1.17,2.08-1.17,3.7v8.42
			h-1.89v-14.74H443.11z"/>
		<path class="st0" d="M470.65,386.58c0,0.39-0.13,0.72-0.39,0.99c-0.26,0.27-0.58,0.4-0.97,0.4c-0.39,0-0.72-0.13-0.99-0.4
			c-0.27-0.27-0.41-0.6-0.41-0.99c0-0.39,0.13-0.71,0.41-0.98c0.27-0.27,0.6-0.41,0.99-0.41c0.39,0,0.71,0.14,0.97,0.41
			C470.52,385.86,470.65,386.19,470.65,386.58z M468.3,405.49v-14.74h1.89v14.74H468.3z"/>
		<path class="st0" d="M475.32,403.57c-1.35-1.46-2.03-3.32-2.03-5.58s0.67-4.08,2.01-5.45c1.34-1.38,3.05-2.07,5.12-2.07
			c1.33,0,2.5,0.32,3.51,0.97c1.01,0.65,1.75,1.49,2.24,2.51v-8.45h1.89v19.98h-1.89v-3.24c-0.49,1.03-1.23,1.87-2.24,2.53
			c-1.01,0.66-2.18,0.98-3.51,0.98C478.38,405.76,476.67,405.03,475.32,403.57z M484.57,402.48c1.07-1.11,1.61-2.56,1.61-4.36
			c0-1.8-0.54-3.25-1.61-4.36c-1.07-1.11-2.36-1.66-3.88-1.66s-2.8,0.53-3.86,1.59s-1.59,2.5-1.59,4.31s0.54,3.29,1.61,4.43
			c1.07,1.14,2.36,1.71,3.86,1.71S483.5,403.59,484.57,402.48z"/>
		<path class="st0" d="M494.01,390.75v2.4c0.99-1.78,2.62-2.67,4.89-2.67c1.64,0,3.01,0.54,4.1,1.61c1.1,1.07,1.65,2.61,1.65,4.63
			v8.78h-1.86v-8.42c0-1.62-0.39-2.85-1.17-3.7s-1.85-1.27-3.21-1.27c-1.36,0-2.43,0.42-3.21,1.27c-0.78,0.85-1.17,2.08-1.17,3.7
			v8.42h-1.89v-14.74H494.01z"/>
		<path class="st0" d="M510.91,386.58c0,0.39-0.13,0.72-0.39,0.99c-0.26,0.27-0.59,0.4-0.97,0.4s-0.71-0.13-0.99-0.4
			c-0.27-0.27-0.41-0.6-0.41-0.99c0-0.39,0.14-0.71,0.41-0.98c0.27-0.27,0.6-0.41,0.99-0.41s0.71,0.14,0.97,0.41
			C510.78,385.86,510.91,386.19,510.91,386.58z M508.56,405.49v-14.74h1.89v14.74H508.56z"/>
		<path class="st0" d="M515.58,403.57c-1.35-1.46-2.02-3.32-2.02-5.58s0.67-4.08,2.01-5.45c1.34-1.38,3.05-2.07,5.12-2.07
			c1.33,0,2.5,0.32,3.51,0.97s1.75,1.49,2.24,2.51v-3.21h1.89V406c0,2-0.66,3.62-1.98,4.86s-2.94,1.86-4.85,1.86
			s-3.52-0.47-4.83-1.4s-2.07-2.1-2.27-3.48h1.86c0.23,0.92,0.83,1.69,1.78,2.32s2.12,0.95,3.51,0.95c1.39,0,2.55-0.46,3.48-1.36
			c0.94-0.91,1.4-2.16,1.4-3.74v-3.75c-0.49,1.03-1.23,1.87-2.24,2.53c-1.01,0.66-2.18,0.98-3.51,0.98
			C518.63,405.76,516.93,405.03,515.58,403.57z M524.83,402.48c1.07-1.11,1.61-2.56,1.61-4.36c0-1.8-0.54-3.25-1.61-4.36
			c-1.07-1.11-2.36-1.66-3.88-1.66s-2.8,0.53-3.86,1.59c-1.06,1.06-1.59,2.5-1.59,4.31s0.54,3.29,1.61,4.43
			c1.07,1.14,2.36,1.71,3.86,1.71S523.76,403.59,524.83,402.48z"/>
		<path class="st0" d="M534.26,385.51v7.64c0.99-1.78,2.62-2.67,4.89-2.67c1.64,0,3.01,0.54,4.1,1.61c1.1,1.07,1.65,2.61,1.65,4.63
			v8.78h-1.86v-8.42c0-1.62-0.39-2.85-1.17-3.7s-1.85-1.27-3.21-1.27c-1.36,0-2.43,0.42-3.21,1.27s-1.17,2.08-1.17,3.7v8.42h-1.89
			v-19.98H534.26z"/>
		<path class="st0" d="M555.38,392.23h-4.08v9.77c0,0.74,0.14,1.25,0.43,1.55c0.29,0.3,0.8,0.45,1.54,0.45h2.11v1.48h-2.51
			c-2.3,0-3.46-1.16-3.46-3.48v-9.77h-2.05v-1.49h2.05v-3.7h1.89v3.7h4.08V392.23z"/>
		<path class="st0" d="M219.38,426.54h14.66v3.7h-5.02v15.25h-4.62v-15.25h-5.02V426.54z"/>
		<path class="st0" d="M236.36,425.52h4.62v6.94c0.92-1.3,2.56-2.19,4.64-2.19c3.43,0,5.72,2.38,5.72,6.42v8.8h-4.59v-8.18
			c0-2.05-1.13-3.18-2.89-3.18c-1.75,0-2.89,1.13-2.89,3.18v8.18h-4.62V425.52z"/>
		<path class="st0" d="M261.26,445.71c-4.43,0-7.61-2.97-7.61-7.75s3.13-7.75,7.61-7.75c4.4,0,7.5,2.91,7.5,7.5
			c0,0.43-0.03,0.89-0.08,1.35h-10.45c0.16,1.97,1.38,2.89,2.86,2.89c1.3,0,2.02-0.65,2.4-1.46h4.91
			C267.68,443.44,265.01,445.71,261.26,445.71z M258.26,436.5h5.78c0-1.65-1.3-2.59-2.83-2.59
			C259.69,433.91,258.53,434.83,258.26,436.5z"/>
		<path class="st0" d="M284.66,426.54c4.64,0,6.96,2.67,6.96,5.97c0,2.38-1.3,4.62-4.21,5.48l4.37,7.5h-5.21l-3.94-7.15h-1.11v7.15
			h-4.62v-18.95H284.66z M284.39,430.38h-2.86v4.7h2.86c1.73,0,2.54-0.89,2.54-2.38C286.93,431.29,286.12,430.38,284.39,430.38z"/>
		<path class="st0" d="M294.09,426.38c0-1.4,1.11-2.51,2.75-2.51c1.62,0,2.73,1.11,2.73,2.51c0,1.38-1.11,2.48-2.73,2.48
			C295.2,428.86,294.09,427.76,294.09,426.38z M294.52,430.43h4.62v15.06h-4.62V430.43z"/>
		<path class="st0" d="M303.21,434.26h-1.84v-3.83h1.84v-3.67h4.62v3.67h3.02v3.83h-3.02v6.05c0,0.89,0.38,1.27,1.4,1.27h1.65v3.91
			h-2.35c-3.13,0-5.32-1.32-5.32-5.24V434.26z"/>
		<path class="st0" d="M324.16,434.1l-6.4,7.58h6.53v3.81h-11.69v-3.67l6.26-7.58h-6.21v-3.81h11.5V434.1z"/>
		<path class="st0" d="M341.31,426.33c4.51,0,7.91,2.54,8.99,6.64h-5.07c-0.78-1.62-2.21-2.43-3.97-2.43
			c-2.83,0-4.78,2.11-4.78,5.45c0,3.35,1.94,5.45,4.78,5.45c1.75,0,3.19-0.81,3.97-2.43h5.07c-1.08,4.1-4.48,6.61-8.99,6.61
			c-5.59,0-9.53-3.97-9.53-9.64C331.78,430.32,335.72,426.33,341.31,426.33z"/>
		<path class="st0" d="M358.86,430.21c2.24,0,3.83,1.03,4.64,2.35v-2.13h4.62v15.06h-4.62v-2.13c-0.84,1.32-2.43,2.35-4.67,2.35
			c-3.67,0-6.61-3.02-6.61-7.77C352.22,433.18,355.16,430.21,358.86,430.21z M360.21,434.23c-1.73,0-3.29,1.29-3.29,3.7
			s1.57,3.75,3.29,3.75c1.75,0,3.29-1.32,3.29-3.72S361.96,434.23,360.21,434.23z"/>
		<path class="st0" d="M376.08,445.49h-4.62v-15.06h4.62v2.51c1.05-1.59,2.7-2.67,4.72-2.67v4.89h-1.27c-2.19,0-3.46,0.76-3.46,3.35
			V445.49z"/>
		<path class="st0" d="M383.03,425.52h4.62v19.97h-4.62V425.52z"/>
		<path class="st0" d="M391.72,434.26h-1.84v-3.83h1.84v-3.67h4.62v3.67h3.02v3.83h-3.02v6.05c0,0.89,0.38,1.27,1.4,1.27h1.65v3.91
			h-2.35c-3.13,0-5.32-1.32-5.32-5.24V434.26z"/>
		<path class="st0" d="M408.81,445.71c-4.43,0-7.77-2.97-7.77-7.75s3.43-7.75,7.83-7.75c4.43,0,7.83,2.97,7.83,7.75
			S413.23,445.71,408.81,445.71z M408.81,441.71c1.65,0,3.19-1.21,3.19-3.75c0-2.56-1.51-3.75-3.13-3.75
			c-1.67,0-3.13,1.19-3.13,3.75C405.73,440.5,407.13,441.71,408.81,441.71z"/>
		<path class="st0" d="M429.54,437.31c0-2.05-1.13-3.18-2.89-3.18c-1.75,0-2.89,1.13-2.89,3.18v8.18h-4.62v-15.06h4.62v2
			c0.92-1.27,2.54-2.16,4.56-2.16c3.48,0,5.8,2.38,5.8,6.42v8.8h-4.59V437.31z"/>
		<path class="st0" d="M437.92,440.82h4.72l-3.43,8.75h-3.02L437.92,440.82z"/>
		<path class="st0" d="M457.76,445.68c-4.08,0-7.26-2.03-7.4-5.86h4.91c0.14,1.46,1.05,2.16,2.35,2.16c1.35,0,2.21-0.67,2.21-1.78
			c0-3.51-9.47-1.62-9.42-8.34c0-3.59,2.94-5.59,6.91-5.59c4.13,0,6.91,2.05,7.1,5.67h-4.99c-0.08-1.21-0.94-1.94-2.19-1.97
			c-1.11-0.03-1.94,0.54-1.94,1.73c0,3.29,9.37,1.81,9.37,8.15C464.67,443.03,462.19,445.68,457.76,445.68z"/>
		<path class="st0" d="M473.23,430.21c2.24,0,3.83,1.03,4.64,2.35v-2.13h4.62v15.06h-4.62v-2.13c-0.84,1.32-2.43,2.35-4.67,2.35
			c-3.67,0-6.61-3.02-6.61-7.77C466.59,433.18,469.53,430.21,473.23,430.21z M474.58,434.23c-1.73,0-3.29,1.29-3.29,3.7
			s1.57,3.75,3.29,3.75c1.75,0,3.29-1.32,3.29-3.72S476.33,434.23,474.58,434.23z"/>
		<path class="st0" d="M496.23,437.31c0-2.05-1.13-3.18-2.89-3.18c-1.75,0-2.89,1.13-2.89,3.18v8.18h-4.62v-15.06h4.62v2
			c0.92-1.27,2.54-2.16,4.56-2.16c3.48,0,5.8,2.38,5.8,6.42v8.8h-4.59V437.31z"/>
		<path class="st0" d="M509.76,426.54h12.34v3.7h-7.72v4h5.78v3.59h-5.78v7.67h-4.62V426.54z"/>
		<path class="st0" d="M529.15,445.49h-4.62v-15.06h4.62v2.51c1.05-1.59,2.7-2.67,4.72-2.67v4.89h-1.27c-2.19,0-3.46,0.76-3.46,3.35
			V445.49z"/>
		<path class="st0" d="M541.81,430.21c2.24,0,3.83,1.03,4.64,2.35v-2.13h4.62v15.06h-4.62v-2.13c-0.84,1.32-2.43,2.35-4.67,2.35
			c-3.67,0-6.61-3.02-6.61-7.77C535.17,433.18,538.11,430.21,541.81,430.21z M543.16,434.23c-1.73,0-3.29,1.29-3.29,3.7
			s1.57,3.75,3.29,3.75c1.75,0,3.29-1.32,3.29-3.72S544.91,434.23,543.16,434.23z"/>
		<path class="st0" d="M564.81,437.31c0-2.05-1.13-3.18-2.89-3.18c-1.75,0-2.89,1.13-2.89,3.18v8.18h-4.62v-15.06h4.62v2
			c0.92-1.27,2.54-2.16,4.56-2.16c3.48,0,5.8,2.38,5.8,6.42v8.8h-4.59V437.31z"/>
		<path class="st0" d="M579.26,430.21c3.78,0,6.45,2.08,7.23,5.67h-4.91c-0.38-1.05-1.13-1.73-2.4-1.73c-1.65,0-2.78,1.3-2.78,3.81
			c0,2.51,1.13,3.81,2.78,3.81c1.27,0,2-0.62,2.4-1.73h4.91c-0.78,3.48-3.46,5.67-7.23,5.67c-4.43,0-7.56-2.97-7.56-7.75
			C571.7,433.21,574.83,430.21,579.26,430.21z"/>
		<path class="st0" d="M588.52,426.38c0-1.4,1.11-2.51,2.75-2.51c1.62,0,2.73,1.11,2.73,2.51c0,1.38-1.11,2.48-2.73,2.48
			C589.63,428.86,588.52,427.76,588.52,426.38z M588.95,430.43h4.62v15.06h-4.62V430.43z"/>
		<path class="st0" d="M603.04,445.71c-4.02,0-6.72-2.24-6.94-5.16h4.56c0.11,1.05,1.05,1.75,2.32,1.75c1.19,0,1.81-0.54,1.81-1.21
			c0-2.43-8.21-0.67-8.21-6.21c0-2.56,2.19-4.67,6.13-4.67c3.89,0,6.05,2.16,6.34,5.13h-4.26c-0.13-1.03-0.92-1.7-2.21-1.7
			c-1.08,0-1.67,0.43-1.67,1.16c0,2.4,8.15,0.7,8.23,6.32C609.14,443.74,606.82,445.71,603.04,445.71z"/>
		<path class="st0" d="M618.62,430.21c3.78,0,6.45,2.08,7.23,5.67h-4.91c-0.38-1.05-1.13-1.73-2.4-1.73c-1.65,0-2.78,1.3-2.78,3.81
			c0,2.51,1.13,3.81,2.78,3.81c1.27,0,2-0.62,2.4-1.73h4.91c-0.78,3.48-3.46,5.67-7.23,5.67c-4.43,0-7.56-2.97-7.56-7.75
			C611.06,433.21,614.2,430.21,618.62,430.21z"/>
		<path class="st0" d="M635.17,445.71c-4.43,0-7.77-2.97-7.77-7.75s3.43-7.75,7.83-7.75c4.43,0,7.83,2.97,7.83,7.75
			S639.6,445.71,635.17,445.71z M635.17,441.71c1.65,0,3.18-1.21,3.18-3.75c0-2.56-1.51-3.75-3.13-3.75c-1.67,0-3.13,1.19-3.13,3.75
			C632.1,440.5,633.5,441.71,635.17,441.71z"/>
	</g>
</g>
<g>
	<path class="st0" d="M31.63,117.07c-4.5,0-7.47,1.64-7.47,4.91c0,11.88,37.77,5.12,37.77,30.92c0,14.64-12.9,22.11-28.87,22.11
		c-11.98,0-24.47-4.4-33.07-11.47l7.27-14.64c7.37,6.35,18.53,10.85,26,10.85c5.53,0,9.01-2.05,9.01-5.83
		c0-12.18-37.77-4.81-37.77-30.2c0-13.41,11.36-21.91,28.66-21.91c10.54,0,21.19,3.28,28.66,8.09l-7.06,14.84
		C47.19,120.45,37.57,117.07,31.63,117.07z"/>
	<path class="st0" d="M131.85,127.82c0,16.89-10.54,26.72-28.87,26.72h-12.8v19.86H71.46v-71.76h31.53
		C121.31,102.64,131.85,111.85,131.85,127.82z M114.04,128.44c0-7.06-4.4-10.85-11.98-10.85H90.19v22.01h11.88
		C109.64,139.6,114.04,135.71,114.04,128.44z"/>
	<path class="st0" d="M214.06,138.47c0,20.99-16.58,36.75-38.8,36.75s-38.8-15.77-38.8-36.75c0-20.88,16.58-36.34,38.8-36.34
		S214.06,117.69,214.06,138.47z M155.71,138.57c0,11.67,9.11,20.68,19.76,20.68c10.75,0,19.35-9.01,19.35-20.68
		s-8.6-20.47-19.35-20.47S155.71,126.9,155.71,138.57z"/>
	<path class="st0" d="M276.4,102.64v15.46h-21.5v56.3h-18.73v-56.3h-21.29v-15.46H276.4z"/>
	<path class="st0" d="M302.71,102.64v55.79h30.4v15.97h-49.14v-71.76H302.71z"/>
	<path class="st0" d="M360.34,102.64v71.76h-18.73v-71.76H360.34z"/>
	<path class="st0" d="M421.76,137.75h16.17v28.25c-7.68,5.32-19.86,9.21-29.89,9.21c-21.91,0-38.39-15.77-38.39-36.65
		s16.89-36.44,39.62-36.44c10.75,0,22.11,4.09,29.48,10.65l-10.65,13.1c-5.12-4.81-12.39-7.88-18.94-7.88
		c-11.57,0-20.27,8.91-20.27,20.58c0,11.77,8.8,20.68,20.47,20.68c3.58,0,8.09-1.23,12.39-3.38V137.75z"/>
	<path class="st0" d="M469.06,102.64v29.28h28.97v-29.28h18.73v71.76h-18.73v-27.54h-28.97v27.54h-18.73v-71.76H469.06z"/>
	<path class="st0" d="M585.96,102.64v15.46h-21.5v56.3h-18.73v-56.3h-21.29v-15.46H585.96z"/>
	<path class="st0" d="M654.96,123.42c0-3.89-2.97-6.14-8.19-6.14c-5.83,0-13.21,3.48-19.86,9.11l-7.06-13.82
		c9.21-6.76,19.25-10.85,29.69-10.85c14.54,0,25.08,7.58,25.08,18.94c0,7.78-5.94,15.87-13.92,23.96l-14.74,14.74h30.71v15.05H622
		l-0.1-12.39l26.1-26.82C651.99,131.1,654.96,126.49,654.96,123.42z"/>
	<path class="st0" d="M740.13,138.47c0,23.44-10.03,36.44-28.05,36.44c-18.22,0-28.15-13-28.15-36.44
		c0-23.44,9.93-36.34,28.15-36.34C730.1,102.13,740.13,115.03,740.13,138.47z M701.85,138.47c0,16.38,2.97,23.24,10.24,23.24
		c7.17,0,10.13-6.86,10.13-23.24c0-16.48-2.97-23.24-10.13-23.24C704.82,115.23,701.85,121.99,701.85,138.47z"/>
	<path class="st0" d="M785.58,102.64v71.76h-18.73v-56.41h-13.82v-15.36H785.58z"/>
	<path class="st0" d="M832.47,160.99c11.16,0,16.58-7.17,16.38-18.94c-3.38,4.81-8.91,7.78-16.69,7.78
		c-13.92,0-22.73-9.32-22.73-23.34c0-15.15,10.44-24.67,26.31-24.67c18.94,0,30.4,13.51,30.4,35.52c0,22.93-12.69,37.88-32.55,37.88
		c-7.88,0-16.79-2.35-22.83-5.94l6.96-12.9C821.82,159.35,827.04,160.99,832.47,160.99z M826.23,126.59c0,6.14,3.58,9.83,9.93,9.83
		c6.96,0,10.75-4.3,10.65-10.13c0.1-5.22-3.17-9.83-10.34-9.83C830.12,116.46,826.23,120.14,826.23,126.59z"/>
</g>
<g>
	<g>
		<path class="st0" d="M411.78,9.16h1.79l5.28,7.63l5.23-7.63h1.82v13.46h-2.7v-7.63l-3.92,5.63h-0.93l-3.92-5.63v7.63h-2.66V9.16z"
			/>
		<path class="st0" d="M431.61,9.16v13.46h-2.71V9.16H431.61z"/>
		<path class="st0" d="M433.36,11.76V9.16h10.42v2.61h-3.84v10.86h-2.73V11.76H433.36z"/>
		<path class="st0" d="M444.87,15.94c0-4.15,3.21-7.01,6.98-7.01c2.51,0,4.68,1.22,5.81,2.95L456.31,13
			c-1.02-1.38-2.57-2.31-4.43-2.31c-2.84,0-5.14,2.2-5.14,5.27c0,3.01,2.22,5.12,5.12,5.12c1.86,0,3.46-0.89,4.52-2.28l1.31,1.11
			c-1.2,1.68-3.35,2.92-5.9,2.92C448.01,22.82,444.87,20.05,444.87,15.94z"/>
		<path class="st0" d="M470.69,9.16v13.46h-0.95l-8.07-9.55v9.55h-1.8V9.16h0.82l8.2,9.6v-9.6H470.69z"/>
		<path class="st0" d="M473.22,15.94c0-4.15,3.21-7.01,6.98-7.01c2.51,0,4.68,1.22,5.81,2.95L484.66,13
			c-1.02-1.38-2.57-2.31-4.43-2.31c-2.84,0-5.14,2.2-5.14,5.27c0,3.01,2.22,5.12,5.12,5.12c1.86,0,3.46-0.89,4.52-2.28l1.31,1.11
			c-1.2,1.68-3.35,2.92-5.9,2.92C476.36,22.82,473.22,20.05,473.22,15.94z"/>
		<path class="st0" d="M411.57,31.38h0.89l4.39,6.42l4.37-6.42h0.92v10.48h-1.64v-6.71l-3.42,4.99h-0.48l-3.42-4.99v6.71h-1.62
			V31.38z"/>
		<path class="st0" d="M426.3,31.38v10.48h-1.63V31.38H426.3z"/>
		<path class="st0" d="M427.78,32.97v-1.59h7.78v1.59h-3.06v8.89h-1.66v-8.89H427.78z"/>
		<path class="st0" d="M439.4,36.65c0-3.23,2.48-5.46,5.43-5.46c1.94,0,3.63,0.94,4.51,2.25l-1.16,1.05
			c-0.77-1.02-1.93-1.72-3.3-1.72c-2.1,0-3.78,1.63-3.78,3.87c0,2.23,1.64,3.78,3.77,3.78c1.39,0,2.58-0.67,3.37-1.7l1.16,1.02
			c-0.94,1.29-2.61,2.25-4.61,2.25C441.82,42.01,439.4,39.86,439.4,36.65z"/>
		<path class="st0" d="M451,31.38h1.63v8.9h5.53v1.57H451V31.38z"/>
		<path class="st0" d="M459.29,38.23v-6.85h1.63v6.63c0,1.6,0.85,2.42,2.25,2.42c1.39,0,2.24-0.88,2.24-2.42v-6.63h1.64v6.85
			c0,2.48-1.66,3.81-3.88,3.81C460.97,42.04,459.29,40.71,459.29,38.23z"/>
		<path class="st0" d="M477.24,38.84c0,1.55-1.15,3.02-3.28,3.02h-4.46V31.38h4.27c1.96,0,2.92,1.33,2.92,2.61
			c0,0.94-0.55,1.81-1.43,2.14C476.6,36.48,477.24,37.63,477.24,38.84z M471.11,32.87v2.71h2.35c1.05,0,1.56-0.72,1.56-1.4
			c0-0.67-0.52-1.3-1.5-1.3H471.11z M475.54,38.71c0-0.84-0.6-1.69-1.9-1.69h-2.52v3.35h2.57C474.9,40.37,475.54,39.53,475.54,38.71
			z"/>
		<path class="st0" d="M481.94,36.67c0-3.05,2.42-5.47,5.43-5.47c3.02,0,5.44,2.42,5.44,5.43c0,2.99-2.4,5.4-5.49,5.4
			C484.27,42.03,481.94,39.66,481.94,36.67z M491.11,36.64c0-2.21-1.67-3.83-3.74-3.83c-2.07,0-3.73,1.64-3.73,3.83
			c0,2.14,1.62,3.78,3.73,3.78C489.45,40.42,491.11,38.81,491.11,36.64z"/>
		<path class="st0" d="M494.7,31.38h6.59v1.57h-4.96v2.86h4.32v1.56h-4.32v4.48h-1.63V31.38z"/>
		<path class="st0" d="M420.14,45.55v10.48h-0.96l-6-7.1v7.1h-1.62V45.55h0.85l6.11,7.16v-7.16H420.14z"/>
		<path class="st0" d="M422.02,50.84c0-3.05,2.42-5.47,5.43-5.47c3.02,0,5.44,2.42,5.44,5.43c0,2.99-2.4,5.4-5.49,5.4
			C424.35,56.2,422.02,53.83,422.02,50.84z M431.2,50.81c0-2.21-1.67-3.83-3.74-3.83c-2.07,0-3.73,1.64-3.73,3.83
			c0,2.14,1.62,3.79,3.73,3.79C429.54,54.59,431.2,52.98,431.2,50.81z"/>
		<path class="st0" d="M437.8,51.92h-1.39v4.11h-1.63V45.55h3.7c2.3,0,3.39,1.57,3.39,3.19c0,1.29-0.75,2.58-2.34,3.02l2.79,4.27
			h-1.97L437.8,51.92z M436.41,50.4h1.81c1.43,0,1.96-0.84,1.96-1.67c0-0.86-0.57-1.63-1.7-1.63h-2.07V50.4z"/>
		<path class="st0" d="M442.76,47.14v-1.59h7.78v1.59h-3.06v8.89h-1.66v-8.89H442.76z"/>
		<path class="st0" d="M452.01,45.55h1.63v4.35h4.99v-4.35h1.63v10.48h-1.63v-4.55h-4.99v4.55h-1.63V45.55z"/>
		<path class="st0" d="M462.81,45.55h6.69v1.54h-5.06v2.85h4.69v1.54h-4.69v2.99h5.08v1.54h-6.71V45.55z"/>
		<path class="st0" d="M474.59,51.92h-1.39v4.11h-1.63V45.55h3.7c2.3,0,3.39,1.57,3.39,3.19c0,1.29-0.75,2.58-2.34,3.02l2.79,4.27
			h-1.97L474.59,51.92z M473.2,50.4h1.81c1.43,0,1.96-0.84,1.96-1.67c0-0.86-0.57-1.63-1.7-1.63h-2.07V50.4z"/>
		<path class="st0" d="M489.38,45.55v10.48h-0.96l-6-7.1v7.1h-1.62V45.55h0.85l6.11,7.16v-7.16H489.38z"/>
		<path class="st0" d="M494.78,50.82c0-3.23,2.48-5.46,5.43-5.46c1.94,0,3.63,0.94,4.51,2.25l-1.16,1.05
			c-0.77-1.02-1.93-1.72-3.3-1.72c-2.1,0-3.79,1.63-3.79,3.87c0,2.23,1.64,3.78,3.77,3.78c1.39,0,2.58-0.67,3.37-1.7l1.16,1.02
			c-0.94,1.29-2.61,2.25-4.61,2.25C497.2,56.18,494.78,54.03,494.78,50.82z"/>
		<path class="st0" d="M511.67,53.45h-3.86l-0.99,2.58h-1.76l4.17-10.48h1.06l4.13,10.48h-1.76L511.67,53.45z M508.34,51.94h2.83
			l-1.42-3.8L508.34,51.94z"/>
		<path class="st0" d="M515.85,45.55h1.63v8.9h5.53v1.57h-7.16V45.55z"/>
		<path class="st0" d="M526.11,45.55v10.48h-1.63V45.55H526.11z"/>
		<path class="st0" d="M528.66,45.55h6.59v1.57h-4.96v2.86h4.32v1.56h-4.32v4.48h-1.63V45.55z"/>
		<path class="st0" d="M536.09,50.84c0-3.05,2.42-5.47,5.43-5.47c3.02,0,5.44,2.42,5.44,5.43c0,2.99-2.4,5.4-5.49,5.4
			C538.41,56.2,536.09,53.83,536.09,50.84z M545.26,50.81c0-2.21-1.67-3.83-3.74-3.83c-2.07,0-3.73,1.64-3.73,3.83
			c0,2.14,1.62,3.79,3.73,3.79C543.6,54.59,545.26,52.98,545.26,50.81z"/>
		<path class="st0" d="M551.86,51.92h-1.39v4.11h-1.63V45.55h3.7c2.3,0,3.39,1.57,3.39,3.19c0,1.29-0.75,2.58-2.34,3.02l2.79,4.27
			h-1.97L551.86,51.92z M550.47,50.4h1.81c1.43,0,1.96-0.84,1.96-1.67c0-0.86-0.57-1.63-1.7-1.63h-2.07V50.4z"/>
		<path class="st0" d="M566.66,45.55v10.48h-0.96l-6-7.1v7.1h-1.62V45.55h0.85l6.11,7.16v-7.16H566.66z"/>
		<path class="st0" d="M570.84,45.55v10.48h-1.63V45.55H570.84z"/>
		<path class="st0" d="M578.86,53.45H575l-0.99,2.58h-1.76l4.17-10.48h1.06l4.13,10.48h-1.76L578.86,53.45z M575.53,51.94h2.83
			l-1.42-3.8L575.53,51.94z"/>
	</g>
	<line class="st2" x1="390.48" y1="0" x2="390.48" y2="66.81"/>
	<g id="XMLID_18_">
		<rect id="XMLID_25_" x="286.69" y="10.12" class="st3" width="9.23" height="43.36"/>
		<rect id="XMLID_24_" x="316.3" y="10.12" class="st3" width="9.23" height="43.36"/>
		<rect id="XMLID_23_" x="301.45" y="10.12" class="st3" width="9.23" height="29.44"/>
		<rect id="XMLID_22_" x="331.27" y="24.05" class="st3" width="9.23" height="29.44"/>
		<rect id="XMLID_21_" x="346.41" y="10.12" class="st3" width="24.16" height="8.56"/>
		<rect id="XMLID_20_" x="331.27" y="10.12" class="st3" width="9.23" height="8.56"/>
		<rect id="XMLID_19_" x="346.41" y="24.05" class="st3" width="9.23" height="29.44"/>
	</g>
</g>
<line class="st4" x1="386.55" y1="313.47" x2="481.75" y2="313.47"/>
</svg>
