<?xml version="1.0" encoding="utf-8"?>
<!-- Generator: Adobe Illustrator 22.1.0, SVG Export Plug-In . SVG Version: 6.00 Build 0)  -->
<svg version="1.1" id="Layer_1" xmlns="http://www.w3.org/2000/svg" xmlns:xlink="http://www.w3.org/1999/xlink" x="0px" y="0px"
	 viewBox="0 0 12.5 10.1" style="enable-background:new 0 0 12.5 10.1;" xml:space="preserve">
<style type="text/css">
	.st0{fill:#1DA1F2;}
</style>
<path id="Twitter" class="st0" d="M12.5,1.2c-0.5,0.2-1,0.3-1.5,0.4c0.5-0.3,1-0.8,1.1-1.4c-0.5,0.3-1.1,0.5-1.6,0.6
	C10,0.3,9.4,0,8.7,0C8,0,7.3,0.3,6.9,0.7C6.4,1.2,6.1,1.9,6.1,2.5c0,0.2,0,0.4,0.1,0.6c-1-0.1-2-0.3-2.9-0.8
	C2.3,1.9,1.5,1.2,0.9,0.5C0.6,0.9,0.5,1.3,0.5,1.8c0,0.9,0.4,1.7,1.1,2.1c-0.4,0-0.8-0.1-1.2-0.3v0c0,0.6,0.2,1.2,0.6,1.6
	C1.5,5.7,2,6,2.6,6.1C2.3,6.2,2.1,6.2,1.9,6.2c-0.2,0-0.3,0-0.5-0.1c0.2,0.5,0.5,0.9,0.9,1.3c0.4,0.3,1,0.5,1.5,0.5
	C2.9,8.6,1.8,9,0.6,9C0.4,9,0.2,9,0,9c1.2,0.8,2.5,1.2,3.9,1.1c1.1,0,2.1-0.2,3.1-0.7c0.9-0.4,1.7-1,2.3-1.7
	c0.6-0.7,1.1-1.5,1.4-2.3c0.3-0.8,0.5-1.7,0.5-2.6V2.5l0,0C11.7,2.2,12.2,1.7,12.5,1.2L12.5,1.2L12.5,1.2z"/>
</svg>
