<svg width="512" height="512" viewBox="0 0 512 512" fill="none" xmlns="http://www.w3.org/2000/svg">
<path d="M485.016 73.8555C485.016 56.5625 470.945 42.4922 453.652 42.4922C449.402 42.4922 445.352 43.3477 441.652 44.8867C438.594 30.7773 426.02 20.1758 411.008 20.1758C406.57 20.1758 402.348 21.1055 398.516 22.7773C394.773 9.64453 382.676 0 368.359 0C354.047 0 341.949 9.64453 338.203 22.7773C334.375 21.1055 330.152 20.1758 325.715 20.1758C308.422 20.1758 294.355 34.2422 294.355 51.5352V130.105C287.211 122.535 276.523 118.617 265.641 120.535C257.148 122.035 249.785 126.777 244.91 133.891C244.387 134.652 243.906 135.438 243.457 136.234C239.219 133.949 234.375 132.652 229.234 132.652C225.402 132.652 221.742 133.383 218.367 134.691C215.18 121.492 203.277 111.652 189.113 111.652C185.094 111.652 181.258 112.453 177.75 113.891C173.953 101.617 162.496 92.6758 148.992 92.6758C135.488 92.6758 124.031 101.617 120.234 113.891C116.727 112.453 112.891 111.652 108.871 111.652C92.2734 111.652 78.7734 125.156 78.7734 141.75V214.23C71.9492 207.652 62.1875 204.336 52.246 206.086C44.1015 207.523 37.0351 212.074 32.3593 218.898C27.6836 225.723 25.9882 233.953 27.5859 242.07L38.1093 295.434C42.2968 316.672 52.6132 335.977 67.9414 351.258L86.7304 369.992V401.984H76.1406C70.6171 401.984 66.1406 406.461 66.1406 411.984V502C66.1406 507.523 70.6171 512 76.1406 512C81.6601 512 86.1406 507.523 86.1406 502V421.984H216.672V502C216.672 507.523 221.148 512 226.672 512C232.195 512 236.672 507.523 236.672 502V411.984C236.672 406.461 232.195 401.984 226.672 401.984H216.348V369.992L227.453 358.922C248.012 338.422 259.332 311.141 259.332 282.109V240.238C264.996 252.645 272.848 263.992 282.656 273.773L302.812 293.871V333H290.93C285.406 333 280.93 337.477 280.93 343V502C280.93 507.523 285.406 512 290.93 512C296.449 512 300.93 507.523 300.93 502V393H349.324C354.848 393 359.324 388.523 359.324 383C359.324 377.477 354.848 373 349.324 373H300.93V353H440.93V502C440.93 507.523 445.406 512 450.93 512C456.449 512 460.93 507.523 460.93 502V343C460.93 337.477 456.449 333 450.93 333H439.324V293.871L451.312 281.922C473.043 260.25 485.012 231.41 485.012 200.723V190.336C485.012 184.812 480.535 180.336 475.012 180.336C469.492 180.336 465.012 184.812 465.012 190.336V200.723C465.012 226.059 455.133 249.867 437.191 267.758L422.266 282.641C420.383 284.516 419.324 287.066 419.324 289.723V333H322.812V289.723C322.812 287.063 321.754 284.516 319.871 282.641L296.777 259.613C283.402 246.273 274.398 229.426 270.746 210.895L259.559 154.172C258.937 151.027 259.594 147.84 261.406 145.195C263.219 142.555 265.957 140.789 269.113 140.234C275.234 139.152 281.18 143.035 282.656 149.066L288.437 172.641C290.043 179.199 296.074 183.371 302.781 182.562C309.488 181.754 314.355 176.262 314.355 169.508V51.5352C314.355 45.2695 319.449 40.1758 325.715 40.1758C331.551 40.1758 336.367 44.5977 337 50.2695V116.008C337 116.406 337.027 116.797 337.074 117.184V123.605C337.074 129.129 341.551 133.605 347.074 133.605C352.598 133.605 357.074 129.129 357.074 123.605V51.5352C357.074 50.8438 357.043 50.1563 357 49.4727V31.3594C357 25.0977 362.098 20 368.359 20C374.625 20 379.719 25.0977 379.719 31.3594V49.4727C379.676 50.1563 379.645 50.8438 379.645 51.5352V116.008C379.645 116.406 379.676 116.797 379.719 117.184V123.605C379.719 129.129 384.199 133.605 389.719 133.605C395.242 133.605 399.719 129.129 399.719 123.605V50.2695C400.352 44.5977 405.168 40.1758 411.004 40.1758C417.27 40.1758 422.363 45.2695 422.363 51.5352V71.793C422.32 72.4766 422.289 73.1602 422.289 73.8555V116.008C422.289 116.406 422.32 116.797 422.363 117.184V123.605C422.363 129.129 426.844 133.605 432.363 133.605C437.887 133.605 442.363 129.129 442.363 123.605V72.5859C442.996 66.918 447.816 62.4922 453.648 62.4922C459.914 62.4922 465.012 67.5898 465.012 73.8555V110.332C465.012 115.855 469.488 120.332 475.012 120.332C480.531 120.332 485.012 115.855 485.012 110.332V73.8555H485.016ZM239.332 282.109C239.332 305.789 230.098 328.039 213.332 344.758L199.289 358.762C197.406 360.637 196.348 363.184 196.348 365.844V401.984H106.73V365.844C106.73 363.184 105.672 360.637 103.789 358.762L82.0664 337.098C69.5625 324.629 61.1484 308.887 57.7343 291.562L47.2109 238.199C46.6601 235.398 47.2421 232.559 48.8593 230.203C50.4726 227.848 52.9101 226.277 55.7187 225.781C61.1757 224.824 66.4687 228.281 67.7851 233.652L73.2226 255.832C74.8085 262.297 80.75 266.406 87.3671 265.609C93.9765 264.812 98.7734 259.402 98.7734 252.742V141.75C98.7734 136.184 103.305 131.652 108.871 131.652C114.047 131.652 118.324 135.574 118.894 140.602V202.406C118.894 202.797 118.922 203.176 118.965 203.551V209.559C118.965 215.082 123.445 219.559 128.965 219.559C134.488 219.559 138.965 215.082 138.965 209.559V141.75C138.965 141.094 138.937 140.445 138.894 139.797V122.77C138.894 117.203 143.426 112.676 148.992 112.676C154.562 112.676 159.09 117.203 159.09 122.77V139.785C159.047 140.438 159.019 141.09 159.019 141.75V202.406C159.019 202.797 159.047 203.18 159.09 203.559V209.559C159.09 215.078 163.566 219.559 169.09 219.559C174.613 219.559 179.09 215.078 179.09 209.559V140.594C179.664 135.57 183.937 131.652 189.113 131.652C194.684 131.652 199.211 136.184 199.211 141.75V160.785C199.168 161.434 199.141 162.09 199.141 162.75V202.406C199.141 202.797 199.168 203.18 199.211 203.559V209.559C199.211 215.078 203.691 219.559 209.211 219.559C214.734 219.559 219.211 215.078 219.211 209.559V161.594C219.789 156.57 224.062 152.652 229.238 152.652C234.805 152.652 239.332 157.184 239.332 162.75V282.109Z" fill="#A31F34"/>
<path d="M475.012 140.328C472.379 140.328 469.801 141.398 467.941 143.262C466.078 145.121 465.012 147.699 465.012 150.328C465.012 152.969 466.078 155.539 467.941 157.41C469.809 159.27 472.379 160.328 475.012 160.328C477.641 160.328 480.219 159.27 482.078 157.41C483.949 155.539 485.012 152.969 485.012 150.328C485.012 147.699 483.949 145.121 482.078 143.262C480.219 141.398 477.648 140.328 475.012 140.328Z" fill="#A31F34"/>
<path d="M389.32 373C386.691 373 384.121 374.07 382.25 375.93C380.391 377.789 379.328 380.371 379.328 383C379.328 385.629 380.391 388.211 382.25 390.07C384.121 391.93 386.691 393 389.32 393C391.961 393 394.531 391.93 396.398 390.07C398.262 388.211 399.328 385.629 399.328 383C399.328 380.371 398.262 377.789 396.398 375.93C394.531 374.07 391.961 373 389.32 373Z" fill="#A31F34"/>
</svg>
