<svg xmlns="http://www.w3.org/2000/svg" viewBox="0 0 33 33"><defs><style>.cls-1{fill:none;stroke:#b7b7b7;stroke-miterlimit:10;}.cls-2{fill:#b7b7b7;}</style></defs><g id="Layer_2" data-name="Layer 2"><g id="Layer_1-2" data-name="Layer 1"><circle class="cls-1" cx="16.5" cy="16.5" r="16"/><path class="cls-2" d="M16.49,8.5a8,8,0,1,0,8,8A8,8,0,0,0,16.49,8.5ZM22,13.3H19.68a12.78,12.78,0,0,0-1.11-2.85A6.48,6.48,0,0,1,22,13.3ZM16.5,10.13A11.62,11.62,0,0,1,18,13.3H15A11.62,11.62,0,0,1,16.5,10.13Zm-6.19,8a6.2,6.2,0,0,1,0-3.2H13a14.17,14.17,0,0,0-.11,1.6A14.17,14.17,0,0,0,13,18.1ZM11,19.7h2.36a12.78,12.78,0,0,0,1.11,2.85A6.44,6.44,0,0,1,11,19.7Zm2.36-6.4H11a6.44,6.44,0,0,1,3.47-2.85A12.78,12.78,0,0,0,13.32,13.3Zm3.18,9.57A11.62,11.62,0,0,1,15,19.7H18A11.62,11.62,0,0,1,16.5,22.87Zm1.87-4.77H14.63a12.18,12.18,0,0,1-.13-1.6,12,12,0,0,1,.13-1.6h3.74a12,12,0,0,1,.13,1.6A12.18,12.18,0,0,1,18.37,18.1Zm.2,4.45a12.78,12.78,0,0,0,1.11-2.85H22A6.48,6.48,0,0,1,18.57,22.55ZM20,18.1a14.17,14.17,0,0,0,.11-1.6A14.17,14.17,0,0,0,20,14.9h2.7a6.2,6.2,0,0,1,0,3.2Z"/></g></g></svg>