<svg xmlns="http://www.w3.org/2000/svg" viewBox="0 0 56.5 56.5"><defs><style>.cls-1{fill:#d21033;}</style></defs><title>Artificial Intelligence</title><g id="Layer_2" data-name="Layer 2"><g id="Layer_1-2" data-name="Layer 1"><path class="cls-1" d="M56.07,23.37a1.18,1.18,0,0,0-1.16-1H50.13a22.13,22.13,0,0,0-2.28-5.48l3.38-3.39A1.17,1.17,0,0,0,51.37,12a27.84,27.84,0,0,0-6.89-6.89A1.2,1.2,0,0,0,43,5.26L39.58,8.65A21.91,21.91,0,0,0,34.1,6.37V1.59a1.18,1.18,0,0,0-1-1.16,28.12,28.12,0,0,0-9.77,0l-.15,0a9.09,9.09,0,0,0-12,8l-.51.08h-.07l-.81.21-.15.06-.09,0-.52.19-.2.09-.12.06-.42.2-.2.12L8,9.59l-.37.23L7.42,10l-.07,0L7,10.3l-.22.18,0,0-.34.3-.25.25-.3.34-.23.27-.27.36-.2.3c-.08.12-.16.26-.23.39l-.18.31c-.07.13-.14.27-.2.41l0,.08a2.56,2.56,0,0,0-.11.24c-.06.14-.1.27-.17.45l0,.11c0,.07,0,.14-.08.22S4,14.83,4,15l0,.18c0,.07,0,.14-.05.21s-.06.37-.08.56l0,.1a1,1,0,0,0,0,.17,8.27,8.27,0,0,0,0,.86,8.41,8.41,0,0,0,.61,3.18l-.45.33a9.7,9.7,0,0,0-1,.86l-.07.06c-.18.18-.34.37-.54.61l-.13.15c-.16.2-.32.4-.46.61L1.56,23a8.91,8.91,0,0,0-1,2c-.06.17-.12.34-.17.52s-.09.32-.13.48-.09.45-.13.67v.1c0,.1,0,.2,0,.3l0,.27v0l0,.1c0,.24,0,.48,0,.72a9.59,9.59,0,0,0,3.11,7.06,8.53,8.53,0,0,0-.87,2l0,.13A8.61,8.61,0,0,0,2,38.58l0,.18a8.89,8.89,0,0,0-.08,1.15,9,9,0,0,0,6.91,8.85v.06l0,.11.09.3c.08.24.16.46.25.69l.09.21a10,10,0,0,0,1.51,2.49l.12.14a7,7,0,0,0,.52.57l.18.18c.16.16.34.32.51.47l.22.18c.18.15.37.28.56.42l.21.15c.26.17.53.34.8.49l.1.05.06,0a7.37,7.37,0,0,0,.69.34l.24.1.11,0,.54.19a3.59,3.59,0,0,0,.39.12l.55.15.39.08q.32.06.63.09l.12,0,.22,0c.35,0,.68,0,1,0h0a10.39,10.39,0,0,0,3.86-.74,1.12,1.12,0,0,0,.6.31,27.85,27.85,0,0,0,9.75,0,1.18,1.18,0,0,0,1-1.17V50.12a22.26,22.26,0,0,0,5.48-2.27L43,51.23a1.18,1.18,0,0,0,1.52.14,27.84,27.84,0,0,0,6.89-6.89A1.18,1.18,0,0,0,51.23,43l-3.38-3.38a22.29,22.29,0,0,0,2.28-5.48h4.78a1.18,1.18,0,0,0,1.16-1A28,28,0,0,0,56.07,23.37ZM18.92,54.13a6.57,6.57,0,0,1-.78,0l-.18,0-.1,0L17.38,54l-.32-.07-.42-.11-.32-.1-.39-.14-.31-.13-.39-.19-.07,0-.2-.1-.44-.27-.19-.12a7.76,7.76,0,0,1-1.2-1c-.17-.17-.32-.34-.48-.52l-.07-.1a6,6,0,0,1-.38-.5l-.09-.14c-.11-.16-.21-.33-.33-.54l-.07-.13c-.09-.17-.17-.34-.25-.52l-.08-.18c-.07-.18-.13-.35-.19-.53l-.07-.21c-.06-.18-.1-.37-.15-.56l0-.19a8.13,8.13,0,0,1,1.47-6.5,1.18,1.18,0,0,0-.24-1.65,1.15,1.15,0,0,0-.71-.24h-.17a1.18,1.18,0,0,0-.78.46A10.49,10.49,0,0,0,8.4,46v.18a6.72,6.72,0,0,1-4.17-6.25,6.6,6.6,0,0,1,.1-1.14l0-.08a6.71,6.71,0,0,1,1.3-2.91A6.64,6.64,0,0,1,9,33.46a1.19,1.19,0,0,0,.2-2.18,1.22,1.22,0,0,0-.9-.08,9.13,9.13,0,0,0-3.73,2.23,7.23,7.23,0,0,1-2.2-5.18,6.84,6.84,0,0,1,.06-.91l0-.28c0-.21.08-.41.13-.61l0-.09a1.6,1.6,0,0,1,.05-.21A5.39,5.39,0,0,1,3,25.42a3.52,3.52,0,0,1,.19-.4,2.57,2.57,0,0,1,.18-.33c.08-.15.16-.29.25-.43l.12-.17L3.74,24a7.56,7.56,0,0,1,.58-.69,2.77,2.77,0,0,1,.24-.25l.34-.31.43-.34.3-.21a6.11,6.11,0,0,1,.65-.38A7.15,7.15,0,0,1,9.58,21a1.19,1.19,0,1,0,0-2.37,9.61,9.61,0,0,0-3.1.53,6,6,0,0,1-.38-2.14,6.29,6.29,0,0,1,11.73-3.14,1.19,1.19,0,0,0,1,.59,1.19,1.19,0,0,0,1-1.78A8.79,8.79,0,0,0,13.6,8.49a6.72,6.72,0,0,1,6.71-6.12h.21a6.71,6.71,0,0,1,6.55,6.74V14.8l-3.89,5.45L20.1,18.89a3.08,3.08,0,1,0-.92,2.19l3.23,1.41a1.85,1.85,0,0,0,.85.18A2.15,2.15,0,0,0,25,21.79l2.08-2.92v8.69H19.85a3.05,3.05,0,1,0,0,2.36h7.22V36.4H19.68a2.12,2.12,0,0,0-2.07,1.7L17,41.25a3,3,0,1,0,2.38.14l.53-2.63h7.18V46A8.17,8.17,0,0,1,18.92,54.13Zm-.74-35.22a1.13,1.13,0,1,1-1.13-1.12A1.13,1.13,0,0,1,18.18,18.91Zm0,9.83a1.13,1.13,0,1,1-1.13-1.13A1.14,1.14,0,0,1,18.18,28.74Zm.93,15.37A1.13,1.13,0,1,1,18,43,1.12,1.12,0,0,1,19.11,44.11ZM53.9,31.73H49.19a1.19,1.19,0,0,0-1.15.93,19.8,19.8,0,0,1-2.68,6.46,1.18,1.18,0,0,0,.16,1.47l3.33,3.33a25.25,25.25,0,0,1-4.93,4.92l-3.33-3.32a1.18,1.18,0,0,0-1.47-.16A19.93,19.93,0,0,1,32.66,48a1.18,1.18,0,0,0-.93,1.15v4.7a25.27,25.27,0,0,1-6,.1,10.54,10.54,0,0,0,3.72-8V41.5a13.3,13.3,0,0,0,0-26.5V9.11a9,9,0,0,0-2.92-6.68,26.79,26.79,0,0,1,5.22.17V7.3a1.19,1.19,0,0,0,.93,1.16,19.5,19.5,0,0,1,6.46,2.68A1.18,1.18,0,0,0,40.59,11l3.33-3.33a25.58,25.58,0,0,1,4.93,4.93L45.52,15.9a1.18,1.18,0,0,0-.16,1.48A19.62,19.62,0,0,1,48,23.84a1.19,1.19,0,0,0,1.15.92H53.9A26.23,26.23,0,0,1,53.9,31.73ZM35,28.25a6.82,6.82,0,0,0-5.6-6.67V17.37a10.94,10.94,0,0,1,0,21.76V34.92A6.82,6.82,0,0,0,35,28.25Zm-5.6,4.25V24a4.41,4.41,0,0,1,0,8.51Z"/></g></g></svg>