<svg xmlns="http://www.w3.org/2000/svg" viewBox="0 0 43.81 56"><defs><style>.cls-1{fill:#d21033;}</style></defs><title>AR  VR</title><g id="Layer_2" data-name="Layer 2"><g id="Layer_1-2" data-name="Layer 1"><path class="cls-1" d="M40.83,17.79H39.41V16c0-8.81-7.86-16-17.49-16S4.44,7.15,4.44,16v1.82H3a3.37,3.37,0,0,0-3,3.71V36.68a1.15,1.15,0,0,0,.87,1.13L5.83,39c.25,2.19,1,7.94,2,10.1C9,51.53,12.33,55.65,21.89,56h0c9.55-.36,12.91-4.49,14-6.9C37,47,37.73,41.24,38,39l4.94-1.19a1.14,1.14,0,0,0,.86-1.13V21.52A3.36,3.36,0,0,0,40.83,17.79ZM6.68,16c0-7.56,6.84-13.71,15.24-13.71S37.17,8.4,37.17,16v1.82H6.68ZM34,48.07c-1.61,3.37-5.89,5.38-12.07,5.62-6.17-.24-10.45-2.25-12.06-5.62-.71-1.49-1.36-5.82-1.71-8.56l9.43,2.25a1.09,1.09,0,0,0,.86-.15l3.48-2.24,3.49,2.24a1.08,1.08,0,0,0,.6.18h.26l9.42-2.24C35.4,42.25,34.69,46.58,34,48.07Zm7.59-12.24L36.67,37,26.24,39.46,22.55,37.1a1.11,1.11,0,0,0-1.21,0l-3.68,2.36L7.19,37,2.27,35.83V21.52c0-1.19.61-1.44.9-1.49h37.5c.09,0,.92.11.92,1.49Z"/><path class="cls-1" d="M26.7,45.31H17.15a1.12,1.12,0,0,0,0,2.24H26.7a1.12,1.12,0,1,0,0-2.24Z"/><path class="cls-1" d="M24.69,22.19H18.55a1.13,1.13,0,0,0,0,2.25h6.14a1.13,1.13,0,0,0,0-2.25Z"/><path class="cls-1" d="M8.17,32.67v0l-1.69-.55V25.68a1.13,1.13,0,0,0-2.25,0V33A1.11,1.11,0,0,0,5,34.1l2.47.81a1,1,0,0,0,.35,0,1.13,1.13,0,0,0,.34-2.24Z"/></g></g></svg>