<?xml version="1.0" encoding="utf-8"?>
<!-- Generator: Adobe Illustrator 21.0.0, SVG Export Plug-In . SVG Version: 6.00 Build 0)  -->
<svg version="1.1" id="Layer_1" xmlns="http://www.w3.org/2000/svg" xmlns:xlink="http://www.w3.org/1999/xlink" x="0px" y="0px"
	 viewBox="0 0 36.9 36.9" style="enable-background:new 0 0 36.9 36.9;" xml:space="preserve">
<style type="text/css">
	.st0{fill:#DEDEDE;}
	.st1{fill:#D1D1D1;}
	.st2{fill:#2E5ECC;}
	.st3{fill:#4385F5;}
	.st4{fill:#EDEDED;}
	.st5{opacity:0.11;clip-path:url(#SVGID_2_);fill:#231F20;}
</style>
<circle class="st0" cx="18.4" cy="18.4" r="18.4"/>
<g>
	<path class="st1" d="M25.7,15.6H12.2h-0.5l-0.8-6.2c0-0.8,0.6-1.4,1.3-1.4h13.5c0.7,0,1.3,0.6,1.3,1.4l-0.8,6.2
		C26.2,15.6,26.4,15.6,25.7,15.6z"/>
	<path class="st2" d="M26.9,18.9H10.8h-0.6l-0.9-6.8c0-0.8,0.7-1.5,1.5-1.5h16.1c0.8,0,1.5,0.7,1.5,1.5l-0.9,6.8
		C27.5,18.9,27.8,18.9,26.9,18.9z"/>
	<path class="st3" d="M10.9,18.9H27h0.6l0.9,6.8c0,0.8-0.7,1.5-1.5,1.5H10.9c-0.8,0-1.5-0.7-1.5-1.5l0.9-6.8
		C10.3,18.9,10,18.9,10.9,18.9z"/>
	<g>
		<g>
			<path class="st4" d="M13.3,21.1l1.1-0.1c0.1,0.6,0.3,1,0.6,1.3c0.3,0.3,0.6,0.4,1.1,0.4c0.5,0,0.9-0.2,1.3-0.5
				c0.3-0.3,0.5-0.8,0.5-1.3c0-0.5-0.2-0.9-0.5-1.2c-0.3-0.3-0.7-0.5-1.2-0.5c-0.2,0-0.4,0-0.7,0.1l0.1-0.9c0.1,0,0.1,0,0.2,0
				c0.4,0,0.9-0.1,1.2-0.4c0.4-0.2,0.5-0.6,0.5-1.1c0-0.4-0.1-0.7-0.4-1c-0.3-0.3-0.6-0.4-1-0.4c-0.4,0-0.7,0.1-1,0.4
				c-0.3,0.3-0.4,0.6-0.5,1.2L13.4,17c0.1-0.7,0.4-1.2,0.9-1.6c0.5-0.4,1-0.6,1.7-0.6c0.5,0,0.9,0.1,1.3,0.3
				c0.4,0.2,0.7,0.5,0.9,0.8c0.2,0.3,0.3,0.7,0.3,1.1c0,0.4-0.1,0.7-0.3,1c-0.2,0.3-0.5,0.5-0.9,0.7c0.5,0.1,0.9,0.4,1.2,0.7
				c0.3,0.4,0.4,0.8,0.4,1.4c0,0.7-0.3,1.4-0.8,1.9c-0.5,0.5-1.2,0.8-2.1,0.8c-0.8,0-1.4-0.2-1.9-0.7C13.7,22.4,13.4,21.8,13.3,21.1
				z"/>
			<path class="st4" d="M23.4,23.4h-1.1v-6.7c-0.3,0.2-0.6,0.5-1,0.7c-0.4,0.2-0.8,0.4-1.1,0.5v-1c0.6-0.3,1.1-0.6,1.5-1
				c0.4-0.4,0.8-0.8,0.9-1.1h0.7V23.4z"/>
		</g>
	</g>
	<g>
		<defs>
			<path id="SVGID_1_" d="M10.9,18.9H27h0.6l0.9,6.8c0,0.8-0.7,1.5-1.5,1.5H10.9c-0.8,0-1.5-0.7-1.5-1.5l0.9-6.8
				C10.3,18.9,10,18.9,10.9,18.9z"/>
		</defs>
		<clipPath id="SVGID_2_">
			<use xlink:href="#SVGID_1_"  style="overflow:visible;"/>
		</clipPath>
		<polygon class="st5" points="10.8,18.9 18.2,27.4 28.4,27.4 28.4,18.7 		"/>
	</g>
	<circle class="st4" cx="15.4" cy="9.3" r="0.6"/>
	<circle class="st4" cx="21.9" cy="9.3" r="0.6"/>
</g>
</svg>
