<?xml version="1.0" encoding="utf-8"?>
<!-- Generator: Adobe Illustrator 22.1.0, SVG Export Plug-In . SVG Version: 6.00 Build 0)  -->
<svg version="1.1" id="Layer_1" xmlns="http://www.w3.org/2000/svg" xmlns:xlink="http://www.w3.org/1999/xlink" x="0px" y="0px"
	 viewBox="0 0 17 20" style="enable-background:new 0 0 17 20;" xml:space="preserve">
<style type="text/css">
	.st0{opacity:1;enable-background:new;}
	.st1{fill:#999999;}
</style>
<g id="_" class="st0">
	<path class="st1" d="M14.6,2.8c0.5,0,0.9,0.2,1.3,0.5c0.3,0.3,0.5,0.8,0.5,1.3V17c0,0.5-0.2,0.9-0.5,1.3c-0.3,0.3-0.8,0.5-1.3,0.5
		H2.2c-0.5,0-0.9-0.2-1.3-0.5C0.6,18,0.4,17.5,0.4,17V4.6c0-0.5,0.2-0.9,0.5-1.3c0.3-0.3,0.8-0.5,1.3-0.5h0.9V1h1.8v1.8H12V1h1.8
		v1.8H14.6z M14.6,17V7.2H2.2V17H14.6z M12.9,9v1.8h-9V9H12.9z M10.2,12.6v1.8H3.9v-1.8H10.2z"/>
</g>
</svg>
