<svg xmlns="http://www.w3.org/2000/svg" viewBox="0 0 56.21 56.25"><defs><style>.cls-1{fill:#d21033;}</style></defs><title>Compute</title><g id="Layer_2" data-name="Layer 2"><g id="Layer_1-2" data-name="Layer 1"><path class="cls-1" d="M36.26,33.55h0a1.22,1.22,0,0,0,1.21-1.18,1.13,1.13,0,0,0-.34-.84,1.19,1.19,0,0,0-.85-.37,1.12,1.12,0,0,0-.87.34,1.15,1.15,0,0,0-.35.84,1.22,1.22,0,0,0,.34.85A1.16,1.16,0,0,0,36.26,33.55Z"/><path class="cls-1" d="M20.06,24.82h8.33a.86.86,0,0,0,.46-.1,2,2,0,0,0,.79-.71,1,1,0,0,0,0-1,1.37,1.37,0,0,0-1.17-.59H23.1c-1,0-2,0-3,0a1.16,1.16,0,0,0-1.24,1.14A1.2,1.2,0,0,0,20.06,24.82Z"/><path class="cls-1" d="M29.88,46.85h2.25c1.59,0,3.24,0,4.86,0a5.58,5.58,0,0,0,4.65-8.45,7.74,7.74,0,0,0-.87-1.13l-.36-.42a5.54,5.54,0,0,0,2-4.36,5.69,5.69,0,0,0-2.08-4.35h0l.13-.13a5.51,5.51,0,0,0,1.55-6.29,5.63,5.63,0,0,0-5.3-3.52H35.37c-5.24,0-10.66,0-16,0a5.49,5.49,0,0,0-4.5,2.3,5.56,5.56,0,0,0-.8,5,5.82,5.82,0,0,0,1.81,2.62,5.61,5.61,0,0,0,0,8.74.1.1,0,0,1,0,0,5.51,5.51,0,0,0-1.63,6.41,5.68,5.68,0,0,0,5.52,3.51h7.14v2.81l-.06,0-.31.16A3.42,3.42,0,0,0,24.82,52a3.38,3.38,0,0,0,.44,2.69,4,4,0,0,0,2.27,1.55h1.15l.16-.06a2,2,0,0,1,.31-.12,3.37,3.37,0,0,0,2.22-4.2,3.42,3.42,0,0,0-2-2.19V46.85ZM21.52,20.6h15.3a3,3,0,0,1,2.8,1.64,2.94,2.94,0,0,1-.08,3.14,3.14,3.14,0,0,1-2.87,1.52H19.51a3.14,3.14,0,0,1-3.21-2.55,3.08,3.08,0,0,1,.64-2.58,3.25,3.25,0,0,1,2.52-1.16Zm-2.07,8.76H36.76a3.15,3.15,0,0,1,2.44,5.25,3.21,3.21,0,0,1-2.58,1.06H20.91q-.72,0-1.44,0a3.15,3.15,0,1,1,0-6.3Zm-.83,8.86a3.06,3.06,0,0,1,.83-.11c6.16,0,11.72,0,17.33,0A3.15,3.15,0,0,1,39.47,43a3.27,3.27,0,0,1-2.72,1.37c-1.56,0-3.14,0-4.67,0H19.53A3.17,3.17,0,0,1,16.32,42,3.12,3.12,0,0,1,18.62,38.22Zm9.49,13.67h0a1,1,0,0,1,.95,1,.92.92,0,0,1-.3.66,1,1,0,0,1-.66.29h0a1,1,0,0,1-.67-.31,1,1,0,0,1-.28-.67A1,1,0,0,1,28.11,51.89Z"/><path class="cls-1" d="M36.28,24.81h0a1.2,1.2,0,1,0,0-2.4h0a1.21,1.21,0,0,0-.85.35,1.17,1.17,0,0,0-.35.85,1.2,1.2,0,0,0,1.2,1.2Z"/><path class="cls-1" d="M.05,27.94a1.12,1.12,0,0,1,.05.13A10.89,10.89,0,0,0,2,33.18,11.34,11.34,0,0,0,9.56,38a.9.9,0,0,0,.23,0,1.21,1.21,0,0,0,.34-2.37,3.78,3.78,0,0,0-.56-.13h0a8.92,8.92,0,0,1-7-7.17,9,9,0,0,1,4-9.12,8.93,8.93,0,0,1,5.76-1.34c1,.12,1.48-.22,1.7-1.25l.09-.39c.12-.59.25-1.2.41-1.78A16.58,16.58,0,0,1,46,13.16a2.51,2.51,0,0,0,1.39,1.47,10.52,10.52,0,0,1,6.38,9.2A10.61,10.61,0,0,1,49,33.69a10.27,10.27,0,0,1-3.77,1.68,1.32,1.32,0,0,0-1.2,1.08,1.14,1.14,0,0,0,.33,1,1.57,1.57,0,0,0,1.42.27A13.47,13.47,0,0,0,56.11,23.2,13,13,0,0,0,49,12.75a2.38,2.38,0,0,1-1.11-1.25,17.71,17.71,0,0,0-5.63-7.34,18.54,18.54,0,0,0-18-3.06A18.34,18.34,0,0,0,13,11.54a25.9,25.9,0,0,0-.93,2.61c-.13.39-.25.78-.39,1.18h-.48A11.32,11.32,0,0,0,.7,22.85a15.65,15.65,0,0,0-.5,1.87c-.06.3-.12.59-.2.9v2.24A.3.3,0,0,0,.05,27.94Z"/><path class="cls-1" d="M21,51.68a2.72,2.72,0,0,0-.63,0H1.58a1.5,1.5,0,0,0-1.57,1v.53a1.43,1.43,0,0,0,1.52,1H20.38A2.32,2.32,0,0,0,21,54a1.19,1.19,0,0,0,0-2.33Z"/><path class="cls-1" d="M32.46,24.81h0a1.25,1.25,0,0,0,1.22-1.19,1.22,1.22,0,0,0-1.19-1.21h0a1.19,1.19,0,0,0-1.21,1.15,1.2,1.2,0,0,0,1.2,1.25Z"/><path class="cls-1" d="M32.46,42.29h0a1.2,1.2,0,1,0,0-2.39h0a1.23,1.23,0,0,0-.85.35,1.19,1.19,0,0,0-.35.85,1.15,1.15,0,0,0,.35.84A1.19,1.19,0,0,0,32.46,42.29Z"/><path class="cls-1" d="M36.28,42.29a1.25,1.25,0,0,0,.85-.35,1.19,1.19,0,0,0-.85-2,1.2,1.2,0,0,0-1.2,1.2,1.15,1.15,0,0,0,.35.84A1.17,1.17,0,0,0,36.28,42.29Z"/><path class="cls-1" d="M19.9,42.27a3.53,3.53,0,0,0,.62,0H28.4a.74.74,0,0,0,.42-.09,2,2,0,0,0,.84-.78,1,1,0,0,0-.07-1,1.43,1.43,0,0,0-1.21-.58c-.95,0-1.92,0-2.85,0H22.66c-.88,0-1.8,0-2.7,0a1.13,1.13,0,0,0-1.09,1.18A1.17,1.17,0,0,0,19.9,42.27Z"/><path class="cls-1" d="M55.91,52.06a1.52,1.52,0,0,0-1.15-.43H43.05c-2.4,0-4.88,0-7.31,0a2.13,2.13,0,0,0-1.16.4,1,1,0,0,0-.26,1.25,1.22,1.22,0,0,0,1.2.77H54.76c.86,0,1.43-.46,1.45-1.18A1.09,1.09,0,0,0,55.91,52.06Z"/><path class="cls-1" d="M32.46,33.55h0a1.2,1.2,0,1,0,0-2.39h0a1.19,1.19,0,0,0-1.19,1.2,1.16,1.16,0,0,0,.36.85A1.2,1.2,0,0,0,32.46,33.55Z"/><path class="cls-1" d="M20.06,33.56a2.82,2.82,0,0,0,.4,0h7.65a3.25,3.25,0,0,0,.73-.08,1.14,1.14,0,0,0,.77-.58,1.18,1.18,0,0,0,.05-1,1.26,1.26,0,0,0-1.33-.79H21.88c-.58,0-1.17,0-1.76,0a1.17,1.17,0,0,0-1.24,1.15A1.19,1.19,0,0,0,20.06,33.56Z"/></g></g></svg>