<svg xmlns="http://www.w3.org/2000/svg" viewBox="0 0 56 56"><defs><style>.cls-1{fill:#d21033;}</style></defs><title>Connected Devices</title><g id="Layer_2" data-name="Layer 2"><g id="Layer_1-2" data-name="Layer 1"><path class="cls-1" d="M7.91,56a1.25,1.25,0,0,1-1.25-1.24V2.49H1.24A1.25,1.25,0,0,1,1.24,0H7.91A1.25,1.25,0,0,1,9.15,1.24V10.1H54.76A1.25,1.25,0,0,1,56,11.35v33.3a1.25,1.25,0,0,1-1.24,1.25H28a1.23,1.23,0,0,1-.88-.37L24.18,42.6l-5.72,0-3,3a1.23,1.23,0,0,1-.88.37H9.15v8.86A1.25,1.25,0,0,1,7.91,56ZM24.67,40.08a1.27,1.27,0,0,1,.88.36l2.94,2.94,25,0V12.59H9.15v7.5h5.42a1.25,1.25,0,0,1,1.24,1.25V34.66a1.25,1.25,0,0,1-1.24,1.25H9.15v7.5H14l3-3a1.25,1.25,0,0,1,.88-.36ZM9.15,33.42h4.17V22.58H9.15Zm22.18,5.82a4.58,4.58,0,1,1,4.31-6.1l.1.28h7.67V25.91H41.32a1.24,1.24,0,0,1-1.24-1.24V22.58h-11l-.1.28a4.58,4.58,0,1,1,0-3.05l.1.28h11V18a1.25,1.25,0,0,1,1.24-1.25H48A1.25,1.25,0,0,1,49.23,18v6.66A1.24,1.24,0,0,1,48,25.91H45.9v8.75a1.25,1.25,0,0,1-1.25,1.25H35.74l-.1.28A4.58,4.58,0,0,1,31.33,39.24Zm0-6.66a2.09,2.09,0,1,0,2.09,2.08A2.09,2.09,0,0,0,31.33,32.58Zm11.24-9.16h4.17V19.25H42.57Zm-17.9-4.17a2.09,2.09,0,1,0,2.09,2.09A2.1,2.1,0,0,0,24.67,19.25Z"/></g></g></svg>