<svg xmlns="http://www.w3.org/2000/svg" viewBox="0 0 39.8 58"><defs><style>.cls-1{fill:#d21033;}</style></defs><title>digital-health</title><g id="Layer_2" data-name="Layer 2"><g id="Layer_1-2" data-name="Layer 1"><path class="cls-1" d="M34.75,10.54h-.1L32,3.33A5.09,5.09,0,0,0,27.28,0h-10a5.09,5.09,0,0,0-4.75,3.33L9.94,10.54h-.1a5.06,5.06,0,0,0-5,5.05V18.2H3.14A3.15,3.15,0,0,0,0,21.34v3.83a3.15,3.15,0,0,0,3.14,3.14H4.79v3.3H4.1A3.15,3.15,0,0,0,1,34.75v1.91A3.15,3.15,0,0,0,4.1,39.8h.69v2.61a5.06,5.06,0,0,0,5.05,5.05h.1l2.62,7.21A5.09,5.09,0,0,0,17.31,58h10A5.09,5.09,0,0,0,32,54.67l2.62-7.21h.1a5.06,5.06,0,0,0,5-5.05V15.59A5.06,5.06,0,0,0,34.75,10.54ZM32,47.46l-2.32,6.38a2.6,2.6,0,0,1-2.44,1.71h-10a2.62,2.62,0,0,1-2.45-1.72l-2.31-6.37ZM12.55,10.54l2.32-6.38a2.61,2.61,0,0,1,2.44-1.71h10a2.63,2.63,0,0,1,2.45,1.71L32,10.54ZM7.24,15.59A2.61,2.61,0,0,1,9.84,13H34.75a2.62,2.62,0,0,1,2.61,2.61V42.41A2.62,2.62,0,0,1,34.75,45H9.84a2.61,2.61,0,0,1-2.6-2.61ZM4.79,20.64v5.22H3.14a.69.69,0,0,1-.69-.69V21.34a.7.7,0,0,1,.69-.7ZM3.41,34.75a.69.69,0,0,1,.69-.7h.69v3.3H4.1a.69.69,0,0,1-.69-.69Z"/><path class="cls-1" d="M10.8,42.9h1.92a1,1,0,1,0,0-1.91H10.8a1,1,0,1,0,0,1.91Z"/><path class="cls-1" d="M30.92,41.94a1,1,0,0,0,.95,1h1.92a1,1,0,1,0,0-1.91H31.87A.94.94,0,0,0,30.92,41.94Z"/><path class="cls-1" d="M21.8,39.65a1,1,0,0,0,.5.14,1,1,0,0,0,.49-.14c2.49-1.64,6.93-4.93,8.64-8.55a16,16,0,0,0,.77-1.75v0c1.47-3.92,1.11-7.47-.95-9.5a5.8,5.8,0,0,0-4.94-1.53,6.44,6.44,0,0,0-4,2.52,6.39,6.39,0,0,0-4-2.52,5.83,5.83,0,0,0-4.94,1.53c-2.39,2.36-2.46,6.78-.18,11.27C14.88,34.72,19.31,38,21.8,39.65ZM17.29,20a3.07,3.07,0,0,1,.68.05,4.92,4.92,0,0,1,3.53,2.86.93.93,0,0,0,.8.45.94.94,0,0,0,.8-.46,4.9,4.9,0,0,1,3.51-2.85,3.94,3.94,0,0,1,3.39,1c1.43,1.4,1.71,4,.74,7H28.06l-1.33-1.72a1.3,1.3,0,0,0-1.13-.57,1.32,1.32,0,0,0-1.07.7l-1.86,3.9-2-4.66a1.25,1.25,0,0,0-1-.69h-.13a1.23,1.23,0,0,0-1,.49l-2,2.55H13.85c-1-3-.69-5.61.74-7A3.83,3.83,0,0,1,17.29,20ZM17,29.89a.89.89,0,0,0,.71-.34l1.75-2.22,2.07,4.91a1.29,1.29,0,0,0,1.11.7h0a1.28,1.28,0,0,0,1.14-.7l2-4.17,1.15,1.48a.87.87,0,0,0,.7.34H30l-.21.42c-1.46,3.08-5.31,6-7.53,7.51-2.21-1.5-6.07-4.44-7.53-7.53-.07-.13-.14-.26-.2-.4Z"/></g></g></svg>