<svg xmlns="http://www.w3.org/2000/svg" viewBox="0 0 56.5 56.5"><defs><style>.cls-1{fill:#d21033;}</style></defs><title>Ed Tech</title><g id="Layer_2" data-name="Layer 2"><g id="Layer_1-2" data-name="Layer 1"><path class="cls-1" d="M50.9,22V5.85a3.06,3.06,0,0,0-3-3h-.69a3.07,3.07,0,0,0-3-2.8H28.25a4,4,0,0,0-2.8,1.17A4,4,0,0,0,22.65,0H6.78a3.07,3.07,0,0,0-3,2.8H3.05A3.06,3.06,0,0,0,0,5.85V40.38a3.06,3.06,0,0,0,3.05,3H33.6v4.42a8.69,8.69,0,0,0,8.65,8.65h5.6a8.69,8.69,0,0,0,8.65-8.65V30.12A8.69,8.69,0,0,0,50.9,22ZM47.17,5.17h.68a.67.67,0,0,1,.68.68V21.5c-.22,0-.45,0-.68,0h-.68Zm-.94,18.66h1.62a6.31,6.31,0,0,1,6.28,6.29v5.35h-7.9ZM9.83,2.37h5.1V13.68l-1.62-2a1.23,1.23,0,0,0-1.85,0l-1.63,2ZM6.1,3.05a.68.68,0,0,1,.68-.68h.69V17.05a1.18,1.18,0,0,0,2.1.74l2.81-3.51,2.81,3.51a1.18,1.18,0,0,0,.92.44h0a1.18,1.18,0,0,0,1.18-1.18V2.37h5.35A1.62,1.62,0,0,1,24.27,4V34a3.87,3.87,0,0,0-1.71-.4H6.1ZM6.1,36H22.55a1.75,1.75,0,0,1,1.66,1.36H6.1Zm27.5,5.1H3.05a.68.68,0,0,1-.68-.69V5.85a.67.67,0,0,1,.68-.68h.68V38.52A1.18,1.18,0,0,0,4.92,39.7H33.6Zm0-3.74H26.69A1.75,1.75,0,0,1,28.34,36H33.6Zm0-3.73H28.34a3.9,3.9,0,0,0-1.71.4V4a1.62,1.62,0,0,1,1.62-1.61H44.12a.68.68,0,0,1,.68.68V21.47H42.25a8.67,8.67,0,0,0-8.65,8.65Zm10.27-9.77V35.47H36V30.12a6.31,6.31,0,0,1,6.28-6.29Zm10.26,24a6.29,6.29,0,0,1-6.28,6.28h-5.6A6.29,6.29,0,0,1,36,47.85v-10H54.13Z"/></g></g></svg>