<svg xmlns="http://www.w3.org/2000/svg" viewBox="0 0 55 55"><defs><style>.cls-1{fill:#d21033;}</style></defs><title>genomics</title><g id="Layer_2" data-name="Layer 2"><g id="Layer_1-2" data-name="Layer 1"><path class="cls-1" d="M13.7,55a4.42,4.42,0,0,1-4-6.33l.15-.31L6.65,45.14l-.32.15a4.48,4.48,0,0,1-1.91.43,4.42,4.42,0,0,1-3.13-7.55L2.5,37a15.93,15.93,0,0,1,8.85-4.5l.45-.07,0-.46a19,19,0,0,1,18.91-20l1.06,0,.45,0,.07-.45a15.93,15.93,0,0,1,4.5-8.85l1.4-1.4a4.42,4.42,0,0,1,7.55,3.13,4.34,4.34,0,0,1-.43,1.91l-.15.32,3.22,3.21.31-.15a4.48,4.48,0,0,1,1.91-.43,4.43,4.43,0,0,1,3.13,7.55l-1.4,1.4a15.88,15.88,0,0,1-8.86,4.51L43,22.8l0,.46a19,19,0,0,1-18.93,20c-.35,0-.69,0-1,0l-.46,0-.06.44A15.88,15.88,0,0,1,18,52.5l-1.21,1.21A4.43,4.43,0,0,1,13.7,55Zm17-40.78A16.7,16.7,0,0,0,15.39,37.49a9.38,9.38,0,0,1-2,10.37l-1.21,1.21a2.12,2.12,0,0,0,0,3,2.12,2.12,0,0,0,3,0l1.21-1.2A13.64,13.64,0,0,0,19.33,35.8,12.39,12.39,0,0,1,35.61,19.52,13.74,13.74,0,0,0,41,20.64a13.59,13.59,0,0,0,9.67-4l1.39-1.4a2.14,2.14,0,1,0-3-3l-1.4,1.39A9.32,9.32,0,0,1,41,16.35a10.39,10.39,0,0,1-4.13-.91A15.48,15.48,0,0,0,30.7,14.22ZM13.33,41.14a7.08,7.08,0,0,0-4.58,2.08l-.35.35.31.4,2.67,2.68.36-.36a7.17,7.17,0,0,0,2.12-4.62l0-.57Zm-1.67-6.42a13.61,13.61,0,0,0-7.55,3.86l-1.2,1.2a2.14,2.14,0,0,0,0,3,2.12,2.12,0,0,0,3,0L7.14,41.6a9.32,9.32,0,0,1,5.67-2.71l.67-.07-.26-.62a18.94,18.94,0,0,1-1-3.1l-.11-.45Zm10.56,2.51a16,16,0,0,1,.49,3.24l0,.45.45,0c.32,0,.65,0,1,0a16.73,16.73,0,0,0,16.61-17.6l0-.45-.45,0A16.16,16.16,0,0,1,37,22.41l-.7-.18.08.72A12.43,12.43,0,0,1,24.1,36.68a12.16,12.16,0,0,1-1.34-.07L22,36.53Zm-1.31-8.81A10.06,10.06,0,0,0,21,33.67l.08.27.26.07a9.92,9.92,0,0,0,2.8.4,10.17,10.17,0,0,0,2.46-.31l.85-.22-6.31-6.31Zm4-5.77a10.07,10.07,0,0,0-1.32,1.11,10.77,10.77,0,0,0-1.11,1.32l-.25.35,7.36,7.36.35-.24a10.6,10.6,0,0,0,2.44-2.44l.24-.35L25.24,22.4Zm5.82-1.86a10.4,10.4,0,0,0-2.48.31l-.85.22,6.31,6.31.22-.85a10,10,0,0,0-.09-5.26l-.07-.27-.27-.07A10,10,0,0,0,30.71,20.79ZM43,8.94A7.05,7.05,0,0,0,41,13.52l0,.57.57,0A7.13,7.13,0,0,0,46.06,12l.59-.59-3-3ZM41.3,2.28a2.13,2.13,0,0,0-1.52.63L38.39,4.3a13.67,13.67,0,0,0-3.86,7.55l-.07.46.45.11a19.26,19.26,0,0,1,3.1,1l.62.26L38.7,13a9.32,9.32,0,0,1,2.71-5.67l1.4-1.4a2.12,2.12,0,0,0,0-3A2.09,2.09,0,0,0,41.3,2.28Z"/></g></g></svg>