<svg xmlns="http://www.w3.org/2000/svg" viewBox="0 0 61.64 55.4"><defs><style>.cls-1{fill:#d21033;}</style></defs><title>health-care-economics-and-policy</title><g id="Layer_2" data-name="Layer 2"><g id="Layer_1-2" data-name="Layer 1"><path class="cls-1" d="M30.82,55.4a1.19,1.19,0,0,1-.56-.14c-12-6.57-20.68-13.92-25.64-21.83C-.68,25-.47,18,.64,13.67,2.69,5.62,9.47,0,17.13,0c5,0,9.55,2.39,13.06,6.9l.63.81.63-.81C35,2.39,39.48,0,44.51,0,52.17,0,59,5.62,61,13.67,62.12,18,62.32,25,57,33.43c-5,7.91-13.59,15.25-25.65,21.83A1.18,1.18,0,0,1,30.82,55.4ZM17.13,2.32c-6.6,0-12.45,4.9-14.24,11.93C1.67,19,.08,35.79,30.43,52.7l.39.22.39-.22C61.56,35.79,60,19,58.76,14.25,57,7.22,51.11,2.32,44.51,2.32c-5,0-9.52,2.89-12.7,8.15a1.18,1.18,0,0,1-1,.56,1.15,1.15,0,0,1-1-.56C26.64,5.21,22.13,2.32,17.13,2.32Zm12.68,39a1.16,1.16,0,0,1-1.12-.86L23.36,20.61l-1.53,5.22a1.17,1.17,0,0,1-1.11.84H10.41a1.16,1.16,0,1,1,0-2.32h9.44L22.3,16a1.16,1.16,0,0,1,2.23,0l5.28,19.64L35.09,16a1.16,1.16,0,0,1,2.24,0l3.44,12.71h9.41a1.16,1.16,0,1,1,0,2.32H39.88a1.15,1.15,0,0,1-1.12-.85l-2.55-9.42L30.93,40.43A1.16,1.16,0,0,1,29.81,41.29Z"/></g></g></svg>