<svg xmlns="http://www.w3.org/2000/svg" viewBox="0 0 51.67 57"><defs><style>.cls-1{fill:#d21033;}</style></defs><title>microfluidics</title><g id="Layer_2" data-name="Layer 2"><g id="Layer_1-2" data-name="Layer 1"><path class="cls-1" d="M6.29,57A6.35,6.35,0,0,1,0,50.6a6.23,6.23,0,0,1,.62-2.72l3-6.41-.17-.25a4.6,4.6,0,0,1,.81-6.15l3.13-2.63v-.22a6.36,6.36,0,0,1,.48-2,19,19,0,0,1,5.22-7L27.33,11.29,27.2,11a4.6,4.6,0,0,1,1.35-5.13,4.55,4.55,0,0,1,2.94-1.07,4.64,4.64,0,0,1,2.34.63l.31.19,4.41-3.7A8,8,0,0,1,48.82,14.11l-4.41,3.7.13.33a4.6,4.6,0,0,1-4.3,6.21h0a4.54,4.54,0,0,1-2.33-.64l-.31-.18-.39.32c-6.53,5.49-14.29,12-14.67,12.27a19.12,19.12,0,0,1-6.94,3.25,5.73,5.73,0,0,1-1.38.16,5.58,5.58,0,0,1-.7,0l-.21,0L10.18,42.1l-.33.25-.35.24L12,47.88A6.4,6.4,0,0,1,6.29,57ZM2.77,48.9a3.85,3.85,0,0,0-.39,1.7,4,4,0,0,0,3.91,4,4,4,0,0,0,3.91-4,3.94,3.94,0,0,0-.38-1.69L7.14,43.18l-.29,0A4.6,4.6,0,0,1,6,43L5.6,42.9ZM14.65,25a16.79,16.79,0,0,0-4.56,6.12A4.22,4.22,0,0,0,9.79,33a1.23,1.23,0,0,1-.43.94l-3.55,3a2.21,2.21,0,0,0,1.42,3.9,2.18,2.18,0,0,0,1.42-.52l3.55-3A1.22,1.22,0,0,1,13,37a.91.91,0,0,1,.23,0,5.46,5.46,0,0,0,1,.11,3.07,3.07,0,0,0,.82-.1,16.51,16.51,0,0,0,4.71-1.92l.51-.31-3.53-4.21a1.19,1.19,0,0,1,.15-1.68,1.17,1.17,0,0,1,.76-.28,1.18,1.18,0,0,1,.91.43l3.61,4.29,3.38-2.84-3.6-4.29a1.2,1.2,0,0,1,.14-1.68,1.22,1.22,0,0,1,.77-.28,1.18,1.18,0,0,1,.91.43L27.37,29l3.38-2.84-3.6-4.29a1.16,1.16,0,0,1-.28-.87,1.19,1.19,0,0,1,.42-.81,1.22,1.22,0,0,1,.77-.28,1.2,1.2,0,0,1,.91.43l3.61,4.29L36,21.79,28.75,13.2ZM31.5,7.13a2.18,2.18,0,0,0-1.42.52,2.21,2.21,0,0,0-.27,3.11l8.74,10.41a2.18,2.18,0,0,0,1.69.79,2.23,2.23,0,0,0,1.42-.51,2.21,2.21,0,0,0,.27-3.11,1.2,1.2,0,0,1,.15-1.68l5.21-4.37A5.61,5.61,0,1,0,40.08,3.7L34.87,8.07a1.18,1.18,0,0,1-.76.27,1.19,1.19,0,0,1-.92-.42A2.21,2.21,0,0,0,31.5,7.13Z"/></g></g></svg>