<svg xmlns="http://www.w3.org/2000/svg" viewBox="0 0 55 55"><defs><style>.cls-1{fill:#d21033;}</style></defs><title>personalized-medicine</title><g id="Layer_2" data-name="Layer 2"><g id="Layer_1-2" data-name="Layer 1"><path class="cls-1" d="M4.42,55A4.42,4.42,0,0,1,0,50.58V21.05a4.42,4.42,0,0,1,4.42-4.42H6.56V12.34H4.42A1.14,1.14,0,0,1,3.28,11.2V4.42A4.43,4.43,0,0,1,7.7,0H30.78A4.42,4.42,0,0,1,35.2,4.42V11.2a1.14,1.14,0,0,1-1.14,1.14H31.92v4.29h2.14a4.42,4.42,0,0,1,4.42,4.42V42.88H48.94a6.06,6.06,0,1,1,0,12.12Zm37.35-2.28h7.17a3.78,3.78,0,0,0,0-7.56H41.77Zm-9.35-7.56a3.78,3.78,0,0,0,0,7.56h7.06V45.16ZM2.28,50.58a2.14,2.14,0,0,0,2.14,2.14H27.61L27.17,52a6.06,6.06,0,0,1,5.25-9.09H36.2V21.05a2.14,2.14,0,0,0-2.14-2.14H4.42a2.14,2.14,0,0,0-2.14,2.14v2.14H17.66a4.43,4.43,0,0,1,4.42,4.42V44a4.43,4.43,0,0,1-4.42,4.42H2.28Zm0-4.42H17.66A2.14,2.14,0,0,0,19.8,44V27.61a2.14,2.14,0,0,0-2.14-2.14H2.28V33H11a1.14,1.14,0,1,1,0,2.28H2.28v4.28h12a1.15,1.15,0,0,1,0,2.29h-12ZM8.84,16.63h20.8V12.34H8.84ZM7.7,2.28A2.14,2.14,0,0,0,5.56,4.42v5.64H32.92V4.42a2.14,2.14,0,0,0-2.14-2.14Z"/></g></g></svg>