<svg xmlns="http://www.w3.org/2000/svg" viewBox="0 0 65.65 55.4"><defs><style>.cls-1{fill:#d21033;}</style></defs><title>Security</title><g id="Layer_2" data-name="Layer 2"><g id="Layer_1-2" data-name="Layer 1"><path class="cls-1" d="M21.18,38.86a3.39,3.39,0,0,1-3.38-3.38V20.17a3.39,3.39,0,0,1,3.38-3.38H41.53V10.92a8.7,8.7,0,1,0-17.39,0,1.12,1.12,0,0,1-2.24,0,10.92,10.92,0,1,1,21.83,0v5.87h.72a3.37,3.37,0,0,1,3.36,3.38V35.48a3.38,3.38,0,0,1-3.37,3.38Zm0-19.85A1.14,1.14,0,0,0,20,20.15V35.47a1.15,1.15,0,0,0,1.14,1.14H44.45a1.15,1.15,0,0,0,1.14-1.14v-.3h0v-15A1.14,1.14,0,0,0,44.44,19Z"/><path class="cls-1" d="M32.83,32.36a.87.87,0,0,1-.87-.87v-3a.79.79,0,0,0-.33-.71A2,2,0,0,1,31,25.31a2,2,0,0,1,1.85-1.22,2,2,0,0,1,.35,0,2.07,2.07,0,0,1,1.73,2,1.92,1.92,0,0,1-.83,1.63.81.81,0,0,0-.37.74v3a.77.77,0,0,1-.4.75,1,1,0,0,1-.46.12Z"/><path class="cls-1" d="M4.87,33.3a4.88,4.88,0,1,1,4.68-6.21l.06.22h4.07a1.14,1.14,0,0,1,1.13,1.12,1.12,1.12,0,0,1-1.12,1.11H9.61l-.06.22A4.9,4.9,0,0,1,4.87,33.3Zm0-7.51a2.64,2.64,0,1,0,2.64,2.63A2.63,2.63,0,0,0,4.87,25.79Z"/><path class="cls-1" d="M9.08,21.22A5.33,5.33,0,0,1,3.75,15.9V11.06L3.54,11a4.87,4.87,0,1,1,2.67,0L6,11.06V15.9A3.1,3.1,0,0,0,9.09,19h4.59a1.11,1.11,0,0,1,0,2.22ZM4.86,3.68A2.64,2.64,0,1,0,7.49,6.32,2.64,2.64,0,0,0,4.86,3.68Z"/><path class="cls-1" d="M4.89,55.38a4.87,4.87,0,0,1-1.34-9.55l.22-.06V40.93a5.33,5.33,0,0,1,5.32-5.32h4.59a1.16,1.16,0,0,1,1.14,1.11,1.11,1.11,0,0,1-1.11,1.11H9.11A3.11,3.11,0,0,0,6,40.93v4.84l.22.06a4.87,4.87,0,0,1-1.33,9.55Zm0-7.5a2.64,2.64,0,1,0,2.64,2.63A2.63,2.63,0,0,0,4.87,47.88Z"/><path class="cls-1" d="M60.76,33.3a4.91,4.91,0,0,1-4.68-3.54L56,29.54H51.94a1.12,1.12,0,0,1,0-2.23H56l.06-.22a4.87,4.87,0,1,1,4.68,6.21Zm0-7.51a2.64,2.64,0,1,0,1.89,4.48,2.55,2.55,0,0,0,.75-1.85A2.64,2.64,0,0,0,60.76,25.79Z"/><path class="cls-1" d="M60.78,55.4a4.87,4.87,0,0,1-1.34-9.55l.22-.06V41a3.11,3.11,0,0,0-3.1-3.11H52a1.12,1.12,0,1,1,0-2.23h4.6a5.33,5.33,0,0,1,5.32,5.32v4.84l.22.06a5,5,0,0,1,3.55,4.7A4.88,4.88,0,0,1,60.78,55.4Zm0-7.51a2.64,2.64,0,0,0,0,5.28,2.7,2.7,0,0,0,1.89-.79,2.59,2.59,0,0,0,.75-1.86A2.64,2.64,0,0,0,60.76,47.89Z"/><path class="cls-1" d="M52,21.22a1.11,1.11,0,1,1,0-2.22h4.6a3.11,3.11,0,0,0,3.11-3.1V11.06L59.43,11a4.87,4.87,0,1,1,2.67,0l-.22.06V15.9a5.32,5.32,0,0,1-5.32,5.32Zm8.8-17.54A2.64,2.64,0,1,0,63.4,6.32,2.64,2.64,0,0,0,60.76,3.68Z"/></g></g></svg>