<svg xmlns="http://www.w3.org/2000/svg" viewBox="0 0 62.33 56.4"><defs><style>.cls-1{fill:#d21033;}</style></defs><title>Software &amp;amp; Services</title><g id="Layer_2" data-name="Layer 2"><g id="Layer_1-2" data-name="Layer 1"><circle class="cls-1" cx="50.47" cy="5.14" r="0.99"/><circle class="cls-1" cx="45.07" cy="5.14" r="0.99"/><circle class="cls-1" cx="55.87" cy="5.14" r="0.99"/><path class="cls-1" d="M31.17,38.33a6.51,6.51,0,0,0,3-.73,1.05,1.05,0,0,0-1-1.87,4.43,4.43,0,1,1,2.4-3.94,4.37,4.37,0,0,1-.49,2,1,1,0,0,0,.46,1.42,1,1,0,0,0,.8.06,1,1,0,0,0,.62-.52,6.54,6.54,0,1,0-5.81,3.55Z"/><path class="cls-1" d="M17.13,35.13h3.45a11.08,11.08,0,0,0,.74,1.79l-2.44,2.44a1.05,1.05,0,0,0,0,1.49l3.23,3.22a1.08,1.08,0,0,0,1.49,0L26,41.63a12.11,12.11,0,0,0,1.79.75v3.45a1,1,0,0,0,1.05,1.05h4.57a1,1,0,0,0,1-1.05V42.38a12.11,12.11,0,0,0,1.79-.75l2.44,2.44a1.08,1.08,0,0,0,1.49,0l3.23-3.22a1.05,1.05,0,0,0,0-1.49L41,36.92a11.08,11.08,0,0,0,.74-1.79H45.2a1.06,1.06,0,0,0,1-1.06V29.51a1,1,0,0,0-1-1.05H41.75A10.38,10.38,0,0,0,41,26.67l2.44-2.44a1.06,1.06,0,0,0,0-1.5l-3.23-3.22a1.06,1.06,0,0,0-1.49,0L36.29,22a10.38,10.38,0,0,0-1.79-.74V17.76a1.05,1.05,0,0,0-1-1.06H28.88a1.05,1.05,0,0,0-1.05,1.06v3.45A10.38,10.38,0,0,0,26,22L23.6,19.51a1.06,1.06,0,0,0-1.49,0l-3.23,3.22a1.06,1.06,0,0,0,0,1.5l2.44,2.44a10.38,10.38,0,0,0-.74,1.79H17.13a1,1,0,0,0-1.05,1.05v4.56A1.06,1.06,0,0,0,17.13,35.13Zm5.28-5.38a8.88,8.88,0,0,1,1.12-2.7,1.06,1.06,0,0,0-.14-1.31l-2.27-2.26,1.73-1.73L25.12,24a1,1,0,0,0,1.3.15A9,9,0,0,1,29.12,23a1.07,1.07,0,0,0,.82-1v-3.2h2.45V22a1.07,1.07,0,0,0,.82,1,9,9,0,0,1,2.7,1.12,1,1,0,0,0,1.3-.15l2.27-2.26,1.73,1.73-2.27,2.26a1.06,1.06,0,0,0-.14,1.31,8.88,8.88,0,0,1,1.12,2.7,1.05,1.05,0,0,0,1,.82h3.19V33H41a1,1,0,0,0-1,.81,8.88,8.88,0,0,1-1.12,2.7,1.06,1.06,0,0,0,.14,1.31l2.27,2.26-1.73,1.73-2.27-2.26a1,1,0,0,0-1.3-.15,9,9,0,0,1-2.7,1.12,1.07,1.07,0,0,0-.82,1v3.2H29.94v-3.2a1.07,1.07,0,0,0-.82-1,9,9,0,0,1-2.7-1.12,1,1,0,0,0-1.3.15l-2.27,2.26L21.12,40.1l2.27-2.26a1.06,1.06,0,0,0,.14-1.31,8.77,8.77,0,0,1-1.12-2.7,1,1,0,0,0-1-.81H18.19V30.57h3.19A1.05,1.05,0,0,0,22.41,29.75Z"/><path class="cls-1" d="M61.14,0H1.19A1.19,1.19,0,0,0,0,1.19v54A1.19,1.19,0,0,0,1.19,56.4h60a1.19,1.19,0,0,0,1.19-1.19v-54A1.19,1.19,0,0,0,61.14,0ZM2.38,7.91V2.38H38.54V7.91ZM60,10.27V54H2.38V10.27Zm0-7.89V7.91h-19V2.38Z"/></g></g></svg>