<svg xmlns="http://www.w3.org/2000/svg" viewBox="0 0 56 56"><defs><style>.cls-1{fill:#d21033;}</style></defs><title>synthetic-biology</title><g id="Layer_2" data-name="Layer 2"><g id="Layer_1-2" data-name="Layer 1"><path class="cls-1" d="M14.53,56A14.52,14.52,0,0,1,4.26,31.2L31.2,4.26A14.53,14.53,0,0,1,56,14.53,14.4,14.4,0,0,1,51.74,24.8L48,28.5l.58.32a14.53,14.53,0,1,1-19.8,19.8L28.5,48l-3.7,3.7A14.4,14.4,0,0,1,14.53,56ZM5.91,32.85A12.19,12.19,0,0,0,23.15,50.09l4.41-4.41-.08-.28a14.5,14.5,0,0,1-.54-3.93A14.33,14.33,0,0,1,30,32.52l.27-.35L18.45,20.31ZM42.64,53.61l.57-.08a12.18,12.18,0,0,0,0-24.12l-.57-.09Zm-2.91-24.2a12.18,12.18,0,0,0,0,24.12l.57.08V29.32ZM41.47,2.34a12.11,12.11,0,0,0-8.62,3.57L20.11,18.66,32,30.5l.35-.29a14.53,14.53,0,0,1,9.17-3.27,14.37,14.37,0,0,1,3.92.54l.29.08,4.41-4.41A12.19,12.19,0,0,0,41.47,2.34Z"/><path class="cls-1" d="M48.27,13.33H46.63a5.28,5.28,0,0,0-.71-1.69l1.17-1.17a1.19,1.19,0,1,0-1.68-1.68L44.24,10a5.33,5.33,0,0,0-1.7-.71V7.6a1.19,1.19,0,0,0-2.38,0V9.25a5.28,5.28,0,0,0-1.69.71L37.3,8.79a1.2,1.2,0,0,0-1.68,0,1.18,1.18,0,0,0,0,1.68l1.16,1.17a5.51,5.51,0,0,0-.71,1.69H34.43a1.2,1.2,0,0,0,0,2.39h1.64a5.51,5.51,0,0,0,.71,1.69l-1.16,1.17a1.19,1.19,0,0,0,.84,2,1.2,1.2,0,0,0,.84-.35l1.17-1.16a5.26,5.26,0,0,0,1.69.7v1.65a1.19,1.19,0,1,0,2.38,0V19.8a5.31,5.31,0,0,0,1.7-.7l1.17,1.16a1.18,1.18,0,0,0,.84.35,1.19,1.19,0,0,0,.84-2l-1.17-1.17a5.28,5.28,0,0,0,.71-1.69h1.64a1.2,1.2,0,1,0,0-2.39Zm-6.92,4.52a3.33,3.33,0,1,1,3.33-3.32A3.32,3.32,0,0,1,41.35,17.85Z"/></g></g></svg>