<svg xmlns="http://www.w3.org/2000/svg" viewBox="0 0 57 57"><defs><style>.cls-1{fill:#d21033;}</style></defs><title>tissue-engineering</title><g id="Layer_2" data-name="Layer 2"><g id="Layer_1-2" data-name="Layer 1"><path class="cls-1" d="M28.39,57a1.19,1.19,0,0,1,0-2.38h24a2.21,2.21,0,1,0,0-4.42H1.19A1.19,1.19,0,0,1,0,49,11.24,11.24,0,0,1,6.61,38.73L7,38.56l-.07-.39a6.15,6.15,0,0,1-.09-1.06,6.29,6.29,0,0,1,12.26-2l.24.72.58-.5a18.31,18.31,0,0,1,12-4.53h3.51a18.16,18.16,0,0,1,2.85.23l1.54.24-5.23-5.23a1.23,1.23,0,0,1-.35-.85V9.29H32a1.19,1.19,0,1,1,0-2.38h5.61V2.38H35.41a1.19,1.19,0,1,1,0-2.38H49a1.19,1.19,0,0,1,0,2.38H46.8V6.91h5.61a1.19,1.19,0,0,1,0,2.38H50.2V25.21a1.19,1.19,0,0,1-.35.85L43.3,32.61l.61.32a18.14,18.14,0,0,1,9.64,14.69l0,.34.32.11A4.59,4.59,0,0,1,52.41,57ZM31.9,43.4a5.78,5.78,0,0,0-5.38,3.73l-.26.69H51.19l-.07-.57a15.79,15.79,0,0,0-6.93-11.38l-.79-.53v6.87a1.19,1.19,0,0,1-2.38,0v-8l-.34-.12a15.7,15.7,0,0,0-5.27-.91H31.9a16,16,0,0,0-12.68,6.33,1.24,1.24,0,0,1-1.11.47h-.23a1.18,1.18,0,0,1-1-.5,1.21,1.21,0,0,1-.15-1.09,3.69,3.69,0,0,0,.25-1.3,3.91,3.91,0,0,0-7.82,0,3.81,3.81,0,0,0,.39,1.66,1.19,1.19,0,0,1-.74,1.65,9,9,0,0,0-6.27,6.79l-.12.61H23.88l.08-.41a7.92,7.92,0,0,1,2.24-4.06A8.13,8.13,0,0,1,31.9,41h3.51a1.19,1.19,0,1,1,0,2.38Zm4.7-18.68,5.61,5.61,5.61-5.61V9.29H36.6v4.53h2.21a1.2,1.2,0,0,1,0,2.39H36.6v4.41h2.21a1.2,1.2,0,0,1,0,2.39H36.6ZM40,6.91h4.42V2.38H40Z"/></g></g></svg>