<svg id="Layer_1" data-name="Layer 1" xmlns="http://www.w3.org/2000/svg" viewBox="0 0 1182.6668 162.13335"><link xmlns="" type="text/css" id="dark-mode" rel="stylesheet" href=""/><style xmlns="" type="text/css" id="dark-mode-custom-style"/>
  <defs>
    <style>
      .cls-1 {
        fill: #323232;
      }
    </style>
  </defs>
  <title>v3-logo-vertical</title>
  <g>
    <path class="cls-1" d="M71.46664.26664c.35309.2518.68838.53435,1.062.75074q6.74531,3.90677,13.5,7.79733c.45874.26489.911.54091,1.39435.82844V23.30321a7.14736,7.14736,0,0,0,.64612.47771q12.51721,7.23438,25.04038,14.45853c.19075.11005.3974.19255.66991.323l11.67656-6.722,16.01647,9.24284c.16071,1.12214.21643,16.10841.07785,18.60886a2.89937,2.89937,0,0,1-1.15921.81721q-4.72454,2.7431-9.462,5.464c-.42218.24372-.83809.49832-1.20611.7176-.05584.09512-.08088.13061-.09834.1695a.33392.33392,0,0,0-.04111.12616q-.01818,14.19857-.03157,28.39713c-.00021.22167.01.444.0293.66473a2.04535,2.04535,0,0,0,.12039.357l11.75134,6.7979c.18014,1.06592.214,17.22509.03707,18.79593l-16.03058,9.25862c-3.99968-2.30372-7.9951-4.605-12.0609-6.94683L87.56282,139.225a3.86668,3.86668,0,0,0-.115,1.47306q-.01161,5.39973-.00423,10.79948v1.45786c-.51209.31071-.96121.5946-1.42079.86034q-6.69038,3.86868-13.38045,7.73778a14.19479,14.19479,0,0,0-1.17573.8465H70.9333c-.10931-.52394-.60645-.61047-.96971-.82144q-6.79071-3.94421-13.59345-7.86764a2.85512,2.85512,0,0,1-1.2182-.90073V148.348c0-1.50939.00542-3.01881-.00152-4.52817-.00691-1.50129.03267-3.00417-.03-4.52072L28.97369,124.20361q-6.14609,3.53949-12.22358,7.03951c-.4541-.25011-.84441-.45643-1.22657-.67687q-6.91779-3.99037-13.83547-7.98092c-.45947-.26447-.947-.48029-1.42144-.71868V103.2c.44846.12153.76314-.178,1.0991-.3713q5.42264-3.12038,10.8351-6.25842c.26469-.15323.51455-.33206.79445-.514V67.03491c-.258-.1672-.47451-.32127-.70345-.45373Q6.81911,63.4147,1.34164,60.25646c-.34451-.19838-.716-.34988-1.075-.52315V41.06664c.55333.12763.91806-.26853,1.32705-.50362Q8.52262,36.58034,15.44022,32.578c.41768-.24087.84765-.46044,1.32087-.71638L28.65253,38.705,55.15194,23.4036V18.81823c0-1.5549-.01157-3.10991.00331-4.66467.01439-1.50328-.06851-3.00935.05935-4.53889.43513-.26643.84373-.52927,1.264-.772Q63.226,4.94551,69.97515,1.05116C70.39445.80873,70.79221.529,71.2.26663ZM83.56005,132.10335c.3487-.17483.632-.29931.89849-.453q12.00009-6.92307,23.99526-13.85463c.299-.17282.57083-.39259.883-.60974V103.27008l11.94842-6.91274c.15341-1.267.1504-28.4364.00031-29.61839L109.31169,59.81v-4.829c0-1.59949.01438-3.19914-.00407-4.79841-.01834-1.58942.08124-3.18248-.05948-4.75977-.35033-.21726-.64624-.4126-.95291-.58925Q96.003,37.75329,83.70809,30.67774a.31154.31154,0,0,0-.12835-.0331,2.62107,2.62107,0,0,0-.28267.02644L71.29,37.59036c-4.1289-2.32224-8.157-4.73912-12.28087-7.0422L32.864,45.6448v4.718c0,1.59949.00716,3.199-.00205,4.79844-.00892,1.54935.04389,3.10057-.03754,4.64957-.43077.2612-.80318.49644-1.1843.71663-3.11428,1.7993-6.23313,3.59071-9.342,5.39922-.41218.23976-.911.38542-1.14733.85736-.16977,4.05658-.09183,28.51274.10712,29.77863L32.864,103.28352v4.58788c0,1.55505-.00354,3.11012.001,4.66516.00439,1.50248-.02144,3.00595.0169,4.43692a3.3603,3.3603,0,0,0,.39032.33462q12.75252,7.3488,25.50958,14.68967a.31706.31706,0,0,0,.12955.02057c.04414.00327.0887.00074.23486.00074l12.13534-6.98882Zm41.96175-90.8491a68.42236,68.42236,0,0,0-8.09919,4.77384v9.09029c2.67459,1.56745,5.35042,3.11656,7.98793,4.61131a65.23862,65.23862,0,0,0,8.06057-4.78721V45.83782C130.83478,44.30806,128.19977,42.77363,125.5218,41.25425Zm7.985,75.9858c.02273-3.16661.01278-6.1799.01067-9.11632a76.8826,76.8826,0,0,0-8.15436-4.6748c-1.752.85456-7.158,4.02373-7.90777,4.63579a86.21581,86.21581,0,0,0,.07179,9.23262l7.92687,4.5744ZM71.3899,9.73563a87.3732,87.3732,0,0,0-8.09179,4.6858c-.12845,1.46373-.10507,8.15064.04119,9.22776L71.2814,28.231l7.90337-4.565a77.7612,77.7612,0,0,0-.03825-9.4555Zm-46.6344,36.1c-2.657-1.52511-5.31882-3.10049-7.96056-4.57533-1.49848.701-7.23323,4.04759-8.09331,4.727.00161,2.99286-.03307,6.04851.026,9.15587l7.9927,4.6159c2.7237-1.56238,5.42451-3.07,8.03515-4.667ZM16.791,103.37541a81.34006,81.34006,0,0,0-8.02417,4.70988,92.054,92.054,0,0,0,.0683,9.24872l7.89924,4.55751,8.00953-4.62733v-9.30565C22.1079,106.4317,19.4725,104.89207,16.791,103.37541Zm62.38064,45.02532a76.41117,76.41117,0,0,0-.02485-9.46992c-2.60395-1.48293-5.22107-3.04963-7.89136-4.52721l-7.95395,4.59894c-.13289,1.56261-.10443,8.2147.04472,9.36561.81979.4759,1.69792.98641,2.57679,1.49564.92121.53379,1.83163,1.08766,2.7681,1.59326a13.91678,13.91678,0,0,0,2.71053,1.42591C73.98752,151.39123,76.56007,149.90723,79.17159,148.40073Z" transform="translate(-0.26663 -0.26663)"/>
    <path class="cls-1" d="M1182.93343,46.4h-2.06667c-.38958-.31949-.27682-.69976-.278-1.03656-.00977-2.93286-.006-5.86576-.00612-8.79865V35.2204c-.49948.09325-.48242.45927-.57774.72324q-1.62987,4.5097-3.24427,9.025c-.16471.45775-.35169.90746-.54375,1.40006h-2.295c-1.366-3.78326-2.71862-7.52893-4.1349-11.45143a1.53908,1.53908,0,0,0-.20664,1.01185c-.00481,3.02175-.00052,6.04352-.00573,9.06528-.00078.4332-.03776.86635-.06041,1.34935a9.27909,9.27909,0,0,1-2.36758.0308,1.64654,1.64654,0,0,1-.14128-.16052.24929.24929,0,0,1-.04466-.11913q-.01914-7.33112-.03151-14.66229a4.05241,4.05241,0,0,1,.06107-.51032,9.73038,9.73038,0,0,1,3.77474-.11731c.13437.31729.30508.6693.43529,1.03574q1.71641,4.83243,3.422,9.6688c.13008.36722.28.72741.42344,1.09844.52552-.19042.491-.66852.61328-1.0139.845-2.38537,1.65247-4.78405,2.47409-7.17774q.49746-1.44869,1.00482-2.8939c.08672-.24536.20377-.48.32981-.77292l3.46576-.08285Z" transform="translate(-0.26663 -0.26663)"/>
    <path class="cls-1" d="M496.71428,135.21023H470.42046c-2.07236-3.38139-4.07562-6.83586-6.12194-10.26408-2.04909-3.43283-4.07852-6.87741-6.1237-10.31258-2.04193-3.42963-4.04971-6.88-6.09193-10.22589-1.49932-.15121-28.72621-.12948-29.90485.02471a7.00335,7.00335,0,0,0-.10287.721c-.01865.39913-.00722.79968-.00722,1.19963q-.00025,13.59844-.00433,27.1969a4.013,4.013,0,0,1-.13767,1.61646c-.31419.03075-.6149.081-.91647.08666-7.351.13857-19.54215.06908-20.84222-.12376a7.48865,7.48865,0,0,1-.11107-.74082c-.02011-.35441-.00661-.71075-.00661-1.06627q-.00009-51.4608.00105-102.92161c0-.57128.0167-1.14256.02679-1.79134.31074-.054.5569-.11708.80631-.135.30954-.02222.62178-.00791.93285-.00791q30.99648-.00019,61.99294-.00714a37.95433,37.95433,0,0,1,37.418,30.84936,37.85368,37.85368,0,0,1-23.12878,42.294,6.64194,6.64194,0,0,0-1.97363.98236c.91084,1.58962,1.93115,3.09152,2.89121,4.62911.96465,1.545,1.94857,3.078,2.92422,4.61618s1.95124,3.07623,2.927,4.61422q1.49941,2.36328,2.99906,4.72638,1.46367,2.30692,2.927,4.61409c.97535,1.5383,1.9555,3.07358,2.92347,4.61653C494.67928,131.93511,495.69354,133.43761,496.71428,135.21023Zm-74.53553-52.8457h1.586q19.86636,0,39.73272-.00792a21.76686,21.76686,0,0,0,2.65476-.18189,15.86766,15.86766,0,0,0,13.77028-16.10048,16.00721,16.00721,0,0,0-15.98334-15.652q-20.19971-.01378-40.39938-.00379a5.97169,5.97169,0,0,0-.66608.00669c-.24886.02806-.4934.09492-.80254.15764,0,10.36656-.00056,20.67472.00358,30.98287A7.25592,7.25592,0,0,0,422.17875,82.36453Z" transform="translate(-0.26663 -0.26663)"/>
    <path class="cls-1" d="M674.87823,82.07946a53.65368,53.65368,0,0,1-13.56758,35.37686,58.18562,58.18562,0,0,1-32.18881,18.86027,59.78008,59.78008,0,0,1-16.55781,1.24217,59.07952,59.07952,0,0,1-44.58933-24.30168A53.54377,53.54377,0,0,1,558.04534,76.517a55.36059,55.36059,0,0,1,23.90957-39.99773,59.42241,59.42241,0,0,1,23.18542-9.64449,58.10376,58.10376,0,0,1,14.32546-.94985c16.29355,1.01721,30.14388,7.33066,41.20886,19.4198a53.637,53.637,0,0,1,13.09811,25.6811A57.0003,57.0003,0,0,1,674.87823,82.07946ZM616.33551,47.80327a40.67266,40.67266,0,0,0-9.91438,1.28105A35.89835,35.89835,0,0,0,586.90035,61.786a32.09547,32.09547,0,0,0-4.98157,30.97574,33.41374,33.41374,0,0,0,15.72031,18.12356,37.80956,37.80956,0,0,0,29.26518,3.33174,34.72856,34.72856,0,0,0,19.3345-13.18078,31.49333,31.49333,0,0,0,5.47683-26.90154A32.34863,32.34863,0,0,0,639.912,55.91867,37.57334,37.57334,0,0,0,616.33551,47.80327Z" transform="translate(-0.26663 -0.26663)"/>
    <path class="cls-1" d="M260.86283,104.35081a33.90264,33.90264,0,0,0-.10675,4.44122c-.02555,1.46582-.00563,2.93243-.00563,4.3987v13.06309q0,2.19939-.00015,4.39878c-.00067,1.45992-.00257,2.91985-.00382,4.27877-.37082.41991-.74847.31842-1.08758.31977-2.39932.00961-4.79867.00547-7.198.00552q-6.065.0001-12.13-.005a3.156,3.156,0,0,1-1.49839-.152,5.05245,5.05245,0,0,1-.09365-.60916c-.16236-4.15023-.05275-104.62761.12426-105.908.22094-.03494.46859-.09019.719-.1093.26512-.02023.53286-.00685.79945-.00685q31.1248-.00016,62.24961-.00311a37.94989,37.94989,0,0,1,37.27569,30.84646,37.9052,37.9052,0,0,1-28.834,44.08207,38.43837,38.43837,0,0,1-8.72454.9243q-19.92789-.029-39.85575-.0066C261.96868,104.30954,261.44477,104.33541,260.86283,104.35081Zm.0613-53.93241c-.23908,1.295-.32687,19.694-.1702,30.78015.00485.343.05627.68529.09247,1.10259.49679.023.93123.06072,1.36567.06082q20.06553.00461,40.13106-.0101a17.10983,17.10983,0,0,0,3.31182-.29331A15.96115,15.96115,0,0,0,302.718,50.42413q-20.33219-.02643-40.66441-.00573Z" transform="translate(-0.26663 -0.26663)"/>
    <path class="cls-1" d="M1059.33,135.12523c-1.21485.16653-17.944.25228-21.20541.12531a6.27111,6.27111,0,0,1-.62975-.08631,1.84664,1.84664,0,0,1-.12266-.42985q-.00693-53.4555-.00456-106.88923c.43034-.23849.60964.10766.82338.2856q4.66161,3.88038,9.30957,7.777,30.67129,25.66227,61.34317,51.32381c.70573.59036,1.3888,1.21214,2.10351,1.72655.35417-.17018.27305-.41959.28177-.62239.01706-.39925.00652-.79968.00652-1.19962q.0002-28.46252,0-56.925V28.57732c.34166-.42611.72291-.31521,1.06119-.31652,2.48855-.00964,4.97709-.00544,7.46563-.00547q5.999-.00008,11.99818.0018c.4358.00033.87161.02553,1.329.03987a3.05094,3.05094,0,0,1,.12618.57833q-.00275,53.32431-.02136,106.64861c0,.0693-.08971.13855-.13763.20773a.58129.58129,0,0,1-.12174.01831.38943.38943,0,0,1-.1267-.03219.643.643,0,0,1-.11432-.06815c-.03633-.0253-.0694-.05515-.1043-.08258-.06992-.05488-.14062-.10877-.20976-.16451-.03464-.02787-.06576-.05986-.09974-.08824-.06836-.05688-.13789-.1123-.20651-.16871q-35.80938-29.384-71.61876-58.76817l-.10319-.08442-.10345-.084q-.052-.04189-.104-.08347c-.03477-.02769-.06921-.05587-.10469-.08251s-.07194-.05217-.10859-.07734-.07325-.0503-.11114-.07325a.43724.43724,0,0,0-.11712-.06221.5517.5517,0,0,0-.14609.0105c-.24616.11234-.17474.36389-.1836.56534-.0194.44358-.00963.8885-.00963,1.33287q-.00039,27.79617-.0015,55.59236C1059.36187,133.903,1059.342,134.47475,1059.33,135.12523Z" transform="translate(-0.26663 -0.26663)"/>
    <path class="cls-1" d="M971.27956,135.11479c-1.30865.18074-83.51635.18835-84.73777.0244a7.29326,7.29326,0,0,1-.11223-.73663c-.02025-.35441-.00645-.71077-.00645-1.0663q-.00019-51.46236-.00007-102.92472c0-.57214-.00006-1.14429-.00006-1.7846a7.374,7.374,0,0,1,.81615-.15173c.354-.02429.71067-.00887,1.06621-.00887q40.52988-.00021,81.05984.0009c.57129,0,1.14257.01548,1.71211.02371a2.53351,2.53351,0,0,1,.196,1.4827c.01094,3.95519.00625,7.91043.00625,11.86565,0,1.91095.003,3.82191-.00221,5.73285-.00124.43619-.031.87231-.04961,1.36224-.32767.04233-.58131.09342-.83659.10384-.39928.01628-.79974.00539-1.19967.00539q-29.66416.00009-59.32839.00126c-.56914.00005-1.13822.0181-1.59226.02581a1.86963,1.86963,0,0,0-.202.19134.23831.23831,0,0,0-.0403.12127q-.02169,10.8645-.03855,21.729a6.27721,6.27721,0,0,0,.03308.66388.9901.9901,0,0,0,.11608.2594,2.75449,2.75449,0,0,0,1.41543.13848q7.13271.0135,14.26543.00549,11.999,0,23.998.00464a3.60364,3.60364,0,0,1,1.60482.15042,2.6037,2.6037,0,0,1,.09994.5051c.00514,6.61859.00442,13.23717.00442,19.91043a5.10533,5.10533,0,0,1-.78958.19314c-.39759.03108-.79928.01173-1.19922.01174q-18.79843.0003-37.59681.00018h-1.636c-.43724.409-.30931.8331-.31074,1.21369-.01126,2.97749-.00638,5.955-.00644,8.93256q0,4.93292.002,9.86584c.00046.43728.02872.87452.04681,1.39025.29844.04318.5476.10076.79864.11078.44375.01775.8886.00731,1.333.00731q29.59755.00021,59.19505.00146c.57038,0,1.14082.02,1.67377.03a1.95277,1.95277,0,0,1,.23678,1.36049c.00925,3.37743.00514,6.75491.00514,10.13236v9.11486Z" transform="translate(-0.26663 -0.26663)"/>
    <path class="cls-1" d="M716.74054,28.39311a1.71712,1.71712,0,0,1,.41335-.12574c8.838-.005,17.6761-.00457,26.5666-.00457,1.35371,2.64512,2.58874,5.29821,3.87507,7.92547q1.904,3.889,3.78619,7.78863,1.91914,3.95556,3.83412,7.91315,1.88847,3.89646,3.77864,7.7921,1.92042,3.95508,3.8446,7.90837,1.89229,3.89443,3.78223,7.79c1.27858,2.63767,2.54232,5.28254,3.83385,7.91385,1.26478,2.57684,2.4722,5.183,3.78034,7.71958a1.544,1.544,0,0,0,.2209-.07038.29533.29533,0,0,0,.09785-.08916,2.1006,2.1006,0,0,0,.13015-.22971q15.23076-31.11033,30.48516-62.27111a8.39873,8.39873,0,0,1,.89681-.09371q12.66493-.00769,25.32995-.00174c.251.00009.50195.03572.82571.06031a4.10269,4.10269,0,0,1-.60768,1.39083q-6.5332,12.29631-13.07845,24.58613-21.531,40.46513-43.0627,80.9298c-.25007.47-.50586.93782-.78268,1.39221a.40449.40449,0,0,1-.67507.00569c-.21569-.33488-.40931-.685-.596-1.03733Q765.592,120.8088,757.76776,106.03,737.5906,67.93949,717.4145,29.84839A5.69743,5.69743,0,0,1,716.74054,28.39311Z" transform="translate(-0.26663 -0.26663)"/>
    <path class="cls-1" d="M1155.54814,33.19351a13.9711,13.9711,0,0,0-2.3901-.08442,19.33528,19.33528,0,0,1-2.41928-.07841,6.88921,6.88921,0,0,1,.021-2.2101,17.43246,17.43246,0,0,1,3.18216-.10763c1.02135-.02207,2.04375-.00479,3.06563-.00479,1.06627,0,2.13281-.00965,3.19895.00279,1.01172.0118,2.02787-.05777,3.11407.05566.03619.40921.08437.75.0914,1.09166.00729.34832-.02565.69748-.044,1.1174-1.60286.318-3.20273-.02052-4.7737.20412a1.9598,1.9598,0,0,0-.18932,1.30438c-.0095,3.42109-.00521,6.84221-.00521,10.26333,0,.4851-.00013.97021-.00013,1.40725-.43945.40884-.904.24083-1.32877.26758-.39427.02484-.79128.0053-1.14206.0053-.38516-.44934-.2513-.91179-.25274-1.33685-.01106-3.46551-.00429-6.93108-.00885-10.39662A4.48735,4.48735,0,0,0,1155.54814,33.19351Z" transform="translate(-0.26663 -0.26663)"/>
  </g>
</svg>