<?xml version="1.0" encoding="UTF-8"?>
<svg xmlns="http://www.w3.org/2000/svg" id="Prime_Logo_Facet_Black" data-name="Prime Logo Facet Black" viewBox="0 0 2500 600"><link xmlns="" type="text/css" id="dark-mode" rel="stylesheet" href=""/><style xmlns="" type="text/css" id="dark-mode-custom-style"/><defs><style>.cls-1{fill:#9379bc;}.cls-2{fill:#fff;}.cls-3{fill:#7554a2;}.cls-4{fill:#4e3a94;}.cls-5{fill:#805da5;}.cls-6{fill:none;}</style></defs><title>Prime_facet-black</title><g id="RW_Name" data-name="RW Name"><path d="M954.93,233.86l.05,39.28h.81a71,71,0,0,1,11-18.21,72.21,72.21,0,0,1,15.85-14.35,77.17,77.17,0,0,1,19.11-9.23,68.64,68.64,0,0,1,21.15-3.3,44.58,44.58,0,0,1,12.62,2l.07,54c-2.72-.54-6-1-9.77-1.41a102.3,102.3,0,0,0-11-.6q-15.87,0-26.85,5.35A46.65,46.65,0,0,0,970.27,302a58.27,58.27,0,0,0-9.53,21.5,117.67,117.67,0,0,0-2.81,26.6l.13,95.34-57.78.08L900,233.94Z"/><path d="M1120.06,394.46q13,12.66,37.44,12.63,17.49,0,30.1-8.84T1203,379.62l50.86-.07q-12.15,38.06-37.36,54.47t-61,16.44q-24.83,0-44.77-7.9a93.2,93.2,0,0,1-33.8-22.68,102,102,0,0,1-21.41-35.16q-7.56-20.43-7.58-45a123.82,123.82,0,0,1,7.67-44.21,102,102,0,0,1,55.86-59q19.71-8.61,43.73-8.64,26.85,0,46.8,10.37a93.59,93.59,0,0,1,32.79,28,115.65,115.65,0,0,1,18.57,40.08,150.42,150.42,0,0,1,4.13,47l-151.76.21Q1107,381.79,1120.06,394.46Zm65.14-111.39q-10.38-11.43-31.54-11.41-13.85,0-23,4.73a43.84,43.84,0,0,0-14.63,11.69,42.86,42.86,0,0,0-7.72,14.74,66.93,66.93,0,0,0-2.62,13.92l94-.13Q1195.6,294.52,1185.2,283.07Z"/><path d="M1277.62,298.48q1.2-20.46,10.13-34a69.34,69.34,0,0,1,22.76-21.71,98.62,98.62,0,0,1,31.11-11.71,175.84,175.84,0,0,1,34.78-3.52,233,233,0,0,1,32.15,2.21,98,98,0,0,1,29.71,8.75,58.63,58.63,0,0,1,22,18.17q8.55,11.67,8.58,30.89l.15,110.08a219,219,0,0,0,1.66,27.4q1.63,13.1,5.72,19.64l-58.59.08a80.34,80.34,0,0,1-2.66-10,89.5,89.5,0,0,1-1.44-10.44,75.19,75.19,0,0,1-32.51,20.1,130.62,130.62,0,0,1-38.24,5.78,103,103,0,0,1-28.08-3.65,63.9,63.9,0,0,1-22.8-11.43,53.14,53.14,0,0,1-15.28-19.61q-5.52-11.85-5.53-28.23,0-18,6.26-29.67A53.11,53.11,0,0,1,1293.75,339a72.87,72.87,0,0,1,22.77-10.46,243.61,243.61,0,0,1,25.83-5.57q13-2.06,25.62-3.31a152.91,152.91,0,0,0,22.38-3.71q9.75-2.46,15.46-7.18t5.26-13.71c0-6.28-1-11.26-3.06-14.94a22.7,22.7,0,0,0-8.16-8.58,32,32,0,0,0-11.8-4.08,96.64,96.64,0,0,0-14.45-1q-17.08,0-26.84,7.4T1335.4,298.4Zm133.51,42.79a25.74,25.74,0,0,1-9.14,5.12,91.38,91.38,0,0,1-11.8,3.08q-6.32,1.25-13.21,2.06c-4.63.57-9.23,1.26-13.84,2.07a103.49,103.49,0,0,0-12.82,3.3,38,38,0,0,0-11,5.53,26.28,26.28,0,0,0-7.51,8.81c-1.9,3.55-2.85,8.06-2.84,13.5a27.45,27.45,0,0,0,2.87,13.09,21.84,21.84,0,0,0,7.75,8.38A32.41,32.41,0,0,0,1351,410.5a73.09,73.09,0,0,0,13.43,1.21q17.08,0,26.44-5.77t13.81-13.73a43.84,43.84,0,0,0,5.47-16.16,110.65,110.65,0,0,0,1-13.09Z"/><path d="M1561.45,152.41l.39,292.15-57.77.08-.39-292.15Z"/><path d="M1782.5,444.25l-37.62-141.93h-.81l-35.62,142-59.81.08-67-211.45,61-.08,38.84,143.57h.81l34.79-143.67,56.15-.08,36,143.16h.82l38.45-143.27,59.41-.07-66,211.63Z"/><path d="M1976.08,393.23q13,12.66,37.45,12.62,17.49,0,30.09-8.83t15.44-18.63l50.85-.07q-12.13,38.06-37.35,54.46t-61,16.46q-24.83,0-44.76-7.92a93,93,0,0,1-33.8-22.66,102.45,102.45,0,0,1-21.41-35.17q-7.56-20.43-7.58-45a124.2,124.2,0,0,1,7.66-44.2,102.09,102.09,0,0,1,55.87-59q19.71-8.61,43.73-8.65,26.84,0,46.79,10.37a93.65,93.65,0,0,1,32.8,28,115.51,115.51,0,0,1,18.55,40.08,150.25,150.25,0,0,1,4.15,47.06l-151.77.2Q1963,380.56,1976.08,393.23Zm65.15-111.39q-10.39-11.43-31.54-11.41-13.85,0-23,4.73a43.82,43.82,0,0,0-14.63,11.69,42.37,42.37,0,0,0-7.7,14.74,66.12,66.12,0,0,0-2.63,13.92l94-.13Q2051.63,293.28,2041.23,281.84Z"/><path d="M2137.25,297.24q1.2-20.44,10.14-34a69.15,69.15,0,0,1,22.76-21.71,98.5,98.5,0,0,1,31.09-11.71,176,176,0,0,1,34.79-3.52,234.2,234.2,0,0,1,32.14,2.2,98.27,98.27,0,0,1,29.72,8.76,58.71,58.71,0,0,1,22,18.17q8.55,11.66,8.57,30.89l.15,110.07a219.28,219.28,0,0,0,1.67,27.42q1.63,13.08,5.71,19.62l-58.58.08a81.13,81.13,0,0,1-2.65-10,85.26,85.26,0,0,1-1.44-10.43,75.31,75.31,0,0,1-32.53,20.1,130.11,130.11,0,0,1-38.23,5.77,102.63,102.63,0,0,1-28.08-3.64,64.31,64.31,0,0,1-22.8-11.43,53,53,0,0,1-15.28-19.62q-5.52-11.85-5.54-28.22,0-18,6.27-29.68a52.93,52.93,0,0,1,16.26-18.64,72.59,72.59,0,0,1,22.76-10.45,243.08,243.08,0,0,1,25.83-5.57q13-2.06,25.62-3.31a151.58,151.58,0,0,0,22.38-3.71q9.75-2.46,15.45-7.19c3.79-3.13,5.55-7.71,5.27-13.7,0-6.28-1-11.26-3.07-14.94a22.6,22.6,0,0,0-8.15-8.58,32.05,32.05,0,0,0-11.8-4.08,96.5,96.5,0,0,0-14.44-1q-17.1,0-26.85,7.4T2195,297.16ZM2270.76,340a25.72,25.72,0,0,1-9.15,5.13,92.85,92.85,0,0,1-11.79,3.09q-6.32,1.23-13.22,2.05t-13.83,2.06a106.51,106.51,0,0,0-12.81,3.3,37.69,37.69,0,0,0-11,5.55,25.91,25.91,0,0,0-7.52,8.81q-2.85,5.31-2.83,13.49a27.32,27.32,0,0,0,2.87,13.1,21.83,21.83,0,0,0,7.73,8.37,32.32,32.32,0,0,0,11.41,4.29,72.82,72.82,0,0,0,13.42,1.2q17.08,0,26.43-5.75A38.2,38.2,0,0,0,2264.32,391a44.13,44.13,0,0,0,5.47-16.17,110.5,110.5,0,0,0,1-13.09Z"/><path d="M2419.37,231.79l.06,39.28h.81a71.1,71.1,0,0,1,11-18.22,72.24,72.24,0,0,1,15.85-14.35,77.66,77.66,0,0,1,19.11-9.22,68.71,68.71,0,0,1,21.16-3.31,44.92,44.92,0,0,1,12.61,2l.07,54c-2.72-.54-6-1-9.77-1.42a105,105,0,0,0-11-.6q-15.87,0-26.85,5.36a46.45,46.45,0,0,0-17.67,14.55,58.06,58.06,0,0,0-9.53,21.49,117.09,117.09,0,0,0-2.83,26.61l.13,95.34-57.77.07-.29-211.55Z"/></g><g id="R"><path d="M2463.38,421.42a18.07,18.07,0,0,1,4.2-5.87,18.84,18.84,0,0,1,6.09-3.75,20.34,20.34,0,0,1,14.47,0,18.73,18.73,0,0,1,6.09,3.75,17.77,17.77,0,0,1,4.2,5.87,19.79,19.79,0,0,1,0,15.45,18.1,18.1,0,0,1-10.29,9.65,20.78,20.78,0,0,1-14.47,0,18.18,18.18,0,0,1-6.09-3.75,19.29,19.29,0,0,1-4.2-21.35ZM2468,435a14.69,14.69,0,0,0,3,4.68,13.53,13.53,0,0,0,4.45,3.07,13.68,13.68,0,0,0,5.5,1.1,13.64,13.64,0,0,0,9.89-4.17,15.11,15.11,0,0,0,3-4.68,15.35,15.35,0,0,0,1.12-5.9,15.16,15.16,0,0,0-1.12-5.87,14.76,14.76,0,0,0-3-4.63,13.73,13.73,0,0,0-9.89-4.15,13.73,13.73,0,0,0-9.95,4.15,14.35,14.35,0,0,0-3,4.63,15.34,15.34,0,0,0-1.09,5.87A15.53,15.53,0,0,0,2468,435Zm13.38-16.4a11,11,0,0,1,6,1.4c1.4.94,2.11,2.54,2.11,4.8a6.56,6.56,0,0,1-.42,2.48,4.56,4.56,0,0,1-1.17,1.67,5.18,5.18,0,0,1-1.74,1,8.14,8.14,0,0,1-2.14.45l5.57,9.15h-4.33l-5.07-8.95h-2.58v8.95h-4.13V418.62Zm-.06,8.75a7.26,7.26,0,0,0,2.94-.5q1.14-.5,1.14-2.4a2.11,2.11,0,0,0-.4-1.35,2.56,2.56,0,0,0-1-.77,4.8,4.8,0,0,0-1.39-.38,12.65,12.65,0,0,0-1.46-.1h-3.48v5.5Z"/></g><g id="Logomark_facet" data-name="Logomark facet"><polygon id="Shape" class="cls-1" points="0 0 180 0 360 150 540 0 720 0 720 500 600 600 450 600 360 525 270 600 120 600 0 500 0 0"/><polygon id="W" class="cls-2" points="120 600 120 100 240 200 240 400 360 300 480 400 480 200 599.52 100 600 600 360 400 120 600"/><polygon id="Up" class="cls-3" points="120 600 360 400 600 600 450 600 360 525 270 600 120 600"/><polygon id="Down" class="cls-3" points="0 0 360 300 720 0 540 0 360 150 180 0 0 0"/><polygon id="Right" class="cls-4" points="240 400 240 200 360 300 240 400"/><polygon id="Left" class="cls-5" points="480 400 480 200 360 300 480 400"/><polygon id="R_Side" data-name="R Side" class="cls-5" points="600 600 720 500 720 0 600 100 600 600"/><polygon id="L_Side" data-name="L Side" class="cls-4" points="120 600 0 500 0 0 120 100 120 600"/></g><rect id="_Slice_" data-name="&lt;Slice&gt;" class="cls-6" x="-150.26" y="-116" width="2812" height="732"/></svg>